<?xml version="1.0" encoding="utf-8" standalone="no"?>
<!DOCTYPE svg PUBLIC "-//W3C//DTD SVG 1.1//EN"
  "http://www.w3.org/Graphics/SVG/1.1/DTD/svg11.dtd">
<svg height="275.889575pt" version="1.1" viewBox="0 0 412.773906 275.889575" width="412.773906pt" xmlns="http://www.w3.org/2000/svg" xmlns:xlink="http://www.w3.org/1999/xlink">
 <metadata>
  <rdf:RDF xmlns:cc="http://creativecommons.org/ns#" xmlns:dc="http://purl.org/dc/elements/1.1/" xmlns:rdf="http://www.w3.org/1999/02/22-rdf-syntax-ns#">
   <cc:Work>
    <dc:type rdf:resource="http://purl.org/dc/dcmitype/StillImage"/>
    <dc:date>2021-12-14T16:10:59.562283</dc:date>
    <dc:format>image/svg+xml</dc:format>
    <dc:creator>
     <cc:Agent>
      <dc:title>Matplotlib v3.4.3, https://matplotlib.org/</dc:title>
     </cc:Agent>
    </dc:creator>
   </cc:Work>
  </rdf:RDF>
 </metadata>
 <defs>
  <style type="text/css">*{stroke-linecap:butt;stroke-linejoin:round;}</style>
 </defs>
 <g id="figure_1">
  <g id="patch_1">
   <path d="M 0 275.889575 
L 412.773906 275.889575 
L 412.773906 0 
L 0 0 
z
" style="fill:#ffffff;"/>
  </g>
  <g id="axes_1">
   <g id="patch_2">
    <path d="M 46.645 232.596137 
L 269.245 232.596137 
L 269.245 11.210611 
L 46.645 11.210611 
z
" style="fill:#ffffff;"/>
   </g>
   <g id="matplotlib.axis_1">
    <g id="xtick_1">
     <g id="line2d_1">
      <path clip-path="url(#p93a6eb13a2)" d="M 70.821859 232.596137 
L 70.821859 11.210611 
" style="fill:none;stroke:#cccccc;stroke-linecap:round;"/>
     </g>
     <g id="text_1">
      <!-- 7000 -->
      <g style="fill:#262626;" transform="translate(56.824359 250.454418)scale(0.11 -0.11)">
       <defs>
        <path d="M 525 4666 
L 3525 4666 
L 3525 4397 
L 1831 0 
L 1172 0 
L 2766 4134 
L 525 4134 
L 525 4666 
z
" id="DejaVuSans-37" transform="scale(0.015625)"/>
        <path d="M 2034 4250 
Q 1547 4250 1301 3770 
Q 1056 3291 1056 2328 
Q 1056 1369 1301 889 
Q 1547 409 2034 409 
Q 2525 409 2770 889 
Q 3016 1369 3016 2328 
Q 3016 3291 2770 3770 
Q 2525 4250 2034 4250 
z
M 2034 4750 
Q 2819 4750 3233 4129 
Q 3647 3509 3647 2328 
Q 3647 1150 3233 529 
Q 2819 -91 2034 -91 
Q 1250 -91 836 529 
Q 422 1150 422 2328 
Q 422 3509 836 4129 
Q 1250 4750 2034 4750 
z
" id="DejaVuSans-30" transform="scale(0.015625)"/>
       </defs>
       <use xlink:href="#DejaVuSans-37"/>
       <use x="63.623047" xlink:href="#DejaVuSans-30"/>
       <use x="127.246094" xlink:href="#DejaVuSans-30"/>
       <use x="190.869141" xlink:href="#DejaVuSans-30"/>
      </g>
     </g>
    </g>
    <g id="xtick_2">
     <g id="line2d_2">
      <path clip-path="url(#p93a6eb13a2)" d="M 113.618441 232.596137 
L 113.618441 11.210611 
" style="fill:none;stroke:#cccccc;stroke-linecap:round;"/>
     </g>
     <g id="text_2">
      <!-- 8000 -->
      <g style="fill:#262626;" transform="translate(99.620941 250.454418)scale(0.11 -0.11)">
       <defs>
        <path d="M 2034 2216 
Q 1584 2216 1326 1975 
Q 1069 1734 1069 1313 
Q 1069 891 1326 650 
Q 1584 409 2034 409 
Q 2484 409 2743 651 
Q 3003 894 3003 1313 
Q 3003 1734 2745 1975 
Q 2488 2216 2034 2216 
z
M 1403 2484 
Q 997 2584 770 2862 
Q 544 3141 544 3541 
Q 544 4100 942 4425 
Q 1341 4750 2034 4750 
Q 2731 4750 3128 4425 
Q 3525 4100 3525 3541 
Q 3525 3141 3298 2862 
Q 3072 2584 2669 2484 
Q 3125 2378 3379 2068 
Q 3634 1759 3634 1313 
Q 3634 634 3220 271 
Q 2806 -91 2034 -91 
Q 1263 -91 848 271 
Q 434 634 434 1313 
Q 434 1759 690 2068 
Q 947 2378 1403 2484 
z
M 1172 3481 
Q 1172 3119 1398 2916 
Q 1625 2713 2034 2713 
Q 2441 2713 2670 2916 
Q 2900 3119 2900 3481 
Q 2900 3844 2670 4047 
Q 2441 4250 2034 4250 
Q 1625 4250 1398 4047 
Q 1172 3844 1172 3481 
z
" id="DejaVuSans-38" transform="scale(0.015625)"/>
       </defs>
       <use xlink:href="#DejaVuSans-38"/>
       <use x="63.623047" xlink:href="#DejaVuSans-30"/>
       <use x="127.246094" xlink:href="#DejaVuSans-30"/>
       <use x="190.869141" xlink:href="#DejaVuSans-30"/>
      </g>
     </g>
    </g>
    <g id="xtick_3">
     <g id="line2d_3">
      <path clip-path="url(#p93a6eb13a2)" d="M 156.415022 232.596137 
L 156.415022 11.210611 
" style="fill:none;stroke:#cccccc;stroke-linecap:round;"/>
     </g>
     <g id="text_3">
      <!-- 9000 -->
      <g style="fill:#262626;" transform="translate(142.417522 250.454418)scale(0.11 -0.11)">
       <defs>
        <path d="M 703 97 
L 703 672 
Q 941 559 1184 500 
Q 1428 441 1663 441 
Q 2288 441 2617 861 
Q 2947 1281 2994 2138 
Q 2813 1869 2534 1725 
Q 2256 1581 1919 1581 
Q 1219 1581 811 2004 
Q 403 2428 403 3163 
Q 403 3881 828 4315 
Q 1253 4750 1959 4750 
Q 2769 4750 3195 4129 
Q 3622 3509 3622 2328 
Q 3622 1225 3098 567 
Q 2575 -91 1691 -91 
Q 1453 -91 1209 -44 
Q 966 3 703 97 
z
M 1959 2075 
Q 2384 2075 2632 2365 
Q 2881 2656 2881 3163 
Q 2881 3666 2632 3958 
Q 2384 4250 1959 4250 
Q 1534 4250 1286 3958 
Q 1038 3666 1038 3163 
Q 1038 2656 1286 2365 
Q 1534 2075 1959 2075 
z
" id="DejaVuSans-39" transform="scale(0.015625)"/>
       </defs>
       <use xlink:href="#DejaVuSans-39"/>
       <use x="63.623047" xlink:href="#DejaVuSans-30"/>
       <use x="127.246094" xlink:href="#DejaVuSans-30"/>
       <use x="190.869141" xlink:href="#DejaVuSans-30"/>
      </g>
     </g>
    </g>
    <g id="xtick_4">
     <g id="line2d_4">
      <path clip-path="url(#p93a6eb13a2)" d="M 199.211604 232.596137 
L 199.211604 11.210611 
" style="fill:none;stroke:#cccccc;stroke-linecap:round;"/>
     </g>
     <g id="text_4">
      <!-- 10000 -->
      <g style="fill:#262626;" transform="translate(181.714729 250.454418)scale(0.11 -0.11)">
       <defs>
        <path d="M 794 531 
L 1825 531 
L 1825 4091 
L 703 3866 
L 703 4441 
L 1819 4666 
L 2450 4666 
L 2450 531 
L 3481 531 
L 3481 0 
L 794 0 
L 794 531 
z
" id="DejaVuSans-31" transform="scale(0.015625)"/>
       </defs>
       <use xlink:href="#DejaVuSans-31"/>
       <use x="63.623047" xlink:href="#DejaVuSans-30"/>
       <use x="127.246094" xlink:href="#DejaVuSans-30"/>
       <use x="190.869141" xlink:href="#DejaVuSans-30"/>
       <use x="254.492188" xlink:href="#DejaVuSans-30"/>
      </g>
     </g>
    </g>
    <g id="xtick_5">
     <g id="line2d_5">
      <path clip-path="url(#p93a6eb13a2)" d="M 242.008186 232.596137 
L 242.008186 11.210611 
" style="fill:none;stroke:#cccccc;stroke-linecap:round;"/>
     </g>
     <g id="text_5">
      <!-- 11000 -->
      <g style="fill:#262626;" transform="translate(224.511311 250.454418)scale(0.11 -0.11)">
       <use xlink:href="#DejaVuSans-31"/>
       <use x="63.623047" xlink:href="#DejaVuSans-31"/>
       <use x="127.246094" xlink:href="#DejaVuSans-30"/>
       <use x="190.869141" xlink:href="#DejaVuSans-30"/>
       <use x="254.492188" xlink:href="#DejaVuSans-30"/>
      </g>
     </g>
    </g>
    <g id="text_6">
     <!-- Unique_nr_frag -->
     <g style="fill:#262626;" transform="translate(112.447187 265.8602)scale(0.12 -0.12)">
      <defs>
       <path d="M 556 4666 
L 1191 4666 
L 1191 1831 
Q 1191 1081 1462 751 
Q 1734 422 2344 422 
Q 2950 422 3222 751 
Q 3494 1081 3494 1831 
L 3494 4666 
L 4128 4666 
L 4128 1753 
Q 4128 841 3676 375 
Q 3225 -91 2344 -91 
Q 1459 -91 1007 375 
Q 556 841 556 1753 
L 556 4666 
z
" id="DejaVuSans-55" transform="scale(0.015625)"/>
       <path d="M 3513 2113 
L 3513 0 
L 2938 0 
L 2938 2094 
Q 2938 2591 2744 2837 
Q 2550 3084 2163 3084 
Q 1697 3084 1428 2787 
Q 1159 2491 1159 1978 
L 1159 0 
L 581 0 
L 581 3500 
L 1159 3500 
L 1159 2956 
Q 1366 3272 1645 3428 
Q 1925 3584 2291 3584 
Q 2894 3584 3203 3211 
Q 3513 2838 3513 2113 
z
" id="DejaVuSans-6e" transform="scale(0.015625)"/>
       <path d="M 603 3500 
L 1178 3500 
L 1178 0 
L 603 0 
L 603 3500 
z
M 603 4863 
L 1178 4863 
L 1178 4134 
L 603 4134 
L 603 4863 
z
" id="DejaVuSans-69" transform="scale(0.015625)"/>
       <path d="M 947 1747 
Q 947 1113 1208 752 
Q 1469 391 1925 391 
Q 2381 391 2643 752 
Q 2906 1113 2906 1747 
Q 2906 2381 2643 2742 
Q 2381 3103 1925 3103 
Q 1469 3103 1208 2742 
Q 947 2381 947 1747 
z
M 2906 525 
Q 2725 213 2448 61 
Q 2172 -91 1784 -91 
Q 1150 -91 751 415 
Q 353 922 353 1747 
Q 353 2572 751 3078 
Q 1150 3584 1784 3584 
Q 2172 3584 2448 3432 
Q 2725 3281 2906 2969 
L 2906 3500 
L 3481 3500 
L 3481 -1331 
L 2906 -1331 
L 2906 525 
z
" id="DejaVuSans-71" transform="scale(0.015625)"/>
       <path d="M 544 1381 
L 544 3500 
L 1119 3500 
L 1119 1403 
Q 1119 906 1312 657 
Q 1506 409 1894 409 
Q 2359 409 2629 706 
Q 2900 1003 2900 1516 
L 2900 3500 
L 3475 3500 
L 3475 0 
L 2900 0 
L 2900 538 
Q 2691 219 2414 64 
Q 2138 -91 1772 -91 
Q 1169 -91 856 284 
Q 544 659 544 1381 
z
M 1991 3584 
L 1991 3584 
z
" id="DejaVuSans-75" transform="scale(0.015625)"/>
       <path d="M 3597 1894 
L 3597 1613 
L 953 1613 
Q 991 1019 1311 708 
Q 1631 397 2203 397 
Q 2534 397 2845 478 
Q 3156 559 3463 722 
L 3463 178 
Q 3153 47 2828 -22 
Q 2503 -91 2169 -91 
Q 1331 -91 842 396 
Q 353 884 353 1716 
Q 353 2575 817 3079 
Q 1281 3584 2069 3584 
Q 2775 3584 3186 3129 
Q 3597 2675 3597 1894 
z
M 3022 2063 
Q 3016 2534 2758 2815 
Q 2500 3097 2075 3097 
Q 1594 3097 1305 2825 
Q 1016 2553 972 2059 
L 3022 2063 
z
" id="DejaVuSans-65" transform="scale(0.015625)"/>
       <path d="M 3263 -1063 
L 3263 -1509 
L -63 -1509 
L -63 -1063 
L 3263 -1063 
z
" id="DejaVuSans-5f" transform="scale(0.015625)"/>
       <path d="M 2631 2963 
Q 2534 3019 2420 3045 
Q 2306 3072 2169 3072 
Q 1681 3072 1420 2755 
Q 1159 2438 1159 1844 
L 1159 0 
L 581 0 
L 581 3500 
L 1159 3500 
L 1159 2956 
Q 1341 3275 1631 3429 
Q 1922 3584 2338 3584 
Q 2397 3584 2469 3576 
Q 2541 3569 2628 3553 
L 2631 2963 
z
" id="DejaVuSans-72" transform="scale(0.015625)"/>
       <path d="M 2375 4863 
L 2375 4384 
L 1825 4384 
Q 1516 4384 1395 4259 
Q 1275 4134 1275 3809 
L 1275 3500 
L 2222 3500 
L 2222 3053 
L 1275 3053 
L 1275 0 
L 697 0 
L 697 3053 
L 147 3053 
L 147 3500 
L 697 3500 
L 697 3744 
Q 697 4328 969 4595 
Q 1241 4863 1831 4863 
L 2375 4863 
z
" id="DejaVuSans-66" transform="scale(0.015625)"/>
       <path d="M 2194 1759 
Q 1497 1759 1228 1600 
Q 959 1441 959 1056 
Q 959 750 1161 570 
Q 1363 391 1709 391 
Q 2188 391 2477 730 
Q 2766 1069 2766 1631 
L 2766 1759 
L 2194 1759 
z
M 3341 1997 
L 3341 0 
L 2766 0 
L 2766 531 
Q 2569 213 2275 61 
Q 1981 -91 1556 -91 
Q 1019 -91 701 211 
Q 384 513 384 1019 
Q 384 1609 779 1909 
Q 1175 2209 1959 2209 
L 2766 2209 
L 2766 2266 
Q 2766 2663 2505 2880 
Q 2244 3097 1772 3097 
Q 1472 3097 1187 3025 
Q 903 2953 641 2809 
L 641 3341 
Q 956 3463 1253 3523 
Q 1550 3584 1831 3584 
Q 2591 3584 2966 3190 
Q 3341 2797 3341 1997 
z
" id="DejaVuSans-61" transform="scale(0.015625)"/>
       <path d="M 2906 1791 
Q 2906 2416 2648 2759 
Q 2391 3103 1925 3103 
Q 1463 3103 1205 2759 
Q 947 2416 947 1791 
Q 947 1169 1205 825 
Q 1463 481 1925 481 
Q 2391 481 2648 825 
Q 2906 1169 2906 1791 
z
M 3481 434 
Q 3481 -459 3084 -895 
Q 2688 -1331 1869 -1331 
Q 1566 -1331 1297 -1286 
Q 1028 -1241 775 -1147 
L 775 -588 
Q 1028 -725 1275 -790 
Q 1522 -856 1778 -856 
Q 2344 -856 2625 -561 
Q 2906 -266 2906 331 
L 2906 616 
Q 2728 306 2450 153 
Q 2172 0 1784 0 
Q 1141 0 747 490 
Q 353 981 353 1791 
Q 353 2603 747 3093 
Q 1141 3584 1784 3584 
Q 2172 3584 2450 3431 
Q 2728 3278 2906 2969 
L 2906 3500 
L 3481 3500 
L 3481 434 
z
" id="DejaVuSans-67" transform="scale(0.015625)"/>
      </defs>
      <use xlink:href="#DejaVuSans-55"/>
      <use x="73.193359" xlink:href="#DejaVuSans-6e"/>
      <use x="136.572266" xlink:href="#DejaVuSans-69"/>
      <use x="164.355469" xlink:href="#DejaVuSans-71"/>
      <use x="227.832031" xlink:href="#DejaVuSans-75"/>
      <use x="291.210938" xlink:href="#DejaVuSans-65"/>
      <use x="352.734375" xlink:href="#DejaVuSans-5f"/>
      <use x="402.734375" xlink:href="#DejaVuSans-6e"/>
      <use x="466.113281" xlink:href="#DejaVuSans-72"/>
      <use x="507.226562" xlink:href="#DejaVuSans-5f"/>
      <use x="557.226562" xlink:href="#DejaVuSans-66"/>
      <use x="592.431641" xlink:href="#DejaVuSans-72"/>
      <use x="633.544922" xlink:href="#DejaVuSans-61"/>
      <use x="694.824219" xlink:href="#DejaVuSans-67"/>
     </g>
    </g>
   </g>
   <g id="matplotlib.axis_2">
    <g id="ytick_1">
     <g id="line2d_6">
      <path clip-path="url(#p93a6eb13a2)" d="M 46.645 213.197468 
L 269.245 213.197468 
" style="fill:none;stroke:#cccccc;stroke-linecap:round;"/>
     </g>
     <g id="text_7">
      <!-- 18 -->
      <g style="fill:#262626;" transform="translate(23.1475 217.376608)scale(0.11 -0.11)">
       <use xlink:href="#DejaVuSans-31"/>
       <use x="63.623047" xlink:href="#DejaVuSans-38"/>
      </g>
     </g>
    </g>
    <g id="ytick_2">
     <g id="line2d_7">
      <path clip-path="url(#p93a6eb13a2)" d="M 46.645 172.833802 
L 269.245 172.833802 
" style="fill:none;stroke:#cccccc;stroke-linecap:round;"/>
     </g>
     <g id="text_8">
      <!-- 20 -->
      <g style="fill:#262626;" transform="translate(23.1475 177.012943)scale(0.11 -0.11)">
       <defs>
        <path d="M 1228 531 
L 3431 531 
L 3431 0 
L 469 0 
L 469 531 
Q 828 903 1448 1529 
Q 2069 2156 2228 2338 
Q 2531 2678 2651 2914 
Q 2772 3150 2772 3378 
Q 2772 3750 2511 3984 
Q 2250 4219 1831 4219 
Q 1534 4219 1204 4116 
Q 875 4013 500 3803 
L 500 4441 
Q 881 4594 1212 4672 
Q 1544 4750 1819 4750 
Q 2544 4750 2975 4387 
Q 3406 4025 3406 3419 
Q 3406 3131 3298 2873 
Q 3191 2616 2906 2266 
Q 2828 2175 2409 1742 
Q 1991 1309 1228 531 
z
" id="DejaVuSans-32" transform="scale(0.015625)"/>
       </defs>
       <use xlink:href="#DejaVuSans-32"/>
       <use x="63.623047" xlink:href="#DejaVuSans-30"/>
      </g>
     </g>
    </g>
    <g id="ytick_3">
     <g id="line2d_8">
      <path clip-path="url(#p93a6eb13a2)" d="M 46.645 132.470137 
L 269.245 132.470137 
" style="fill:none;stroke:#cccccc;stroke-linecap:round;"/>
     </g>
     <g id="text_9">
      <!-- 22 -->
      <g style="fill:#262626;" transform="translate(23.1475 136.649278)scale(0.11 -0.11)">
       <use xlink:href="#DejaVuSans-32"/>
       <use x="63.623047" xlink:href="#DejaVuSans-32"/>
      </g>
     </g>
    </g>
    <g id="ytick_4">
     <g id="line2d_9">
      <path clip-path="url(#p93a6eb13a2)" d="M 46.645 92.106472 
L 269.245 92.106472 
" style="fill:none;stroke:#cccccc;stroke-linecap:round;"/>
     </g>
     <g id="text_10">
      <!-- 24 -->
      <g style="fill:#262626;" transform="translate(23.1475 96.285612)scale(0.11 -0.11)">
       <defs>
        <path d="M 2419 4116 
L 825 1625 
L 2419 1625 
L 2419 4116 
z
M 2253 4666 
L 3047 4666 
L 3047 1625 
L 3713 1625 
L 3713 1100 
L 3047 1100 
L 3047 0 
L 2419 0 
L 2419 1100 
L 313 1100 
L 313 1709 
L 2253 4666 
z
" id="DejaVuSans-34" transform="scale(0.015625)"/>
       </defs>
       <use xlink:href="#DejaVuSans-32"/>
       <use x="63.623047" xlink:href="#DejaVuSans-34"/>
      </g>
     </g>
    </g>
    <g id="ytick_5">
     <g id="line2d_10">
      <path clip-path="url(#p93a6eb13a2)" d="M 46.645 51.742806 
L 269.245 51.742806 
" style="fill:none;stroke:#cccccc;stroke-linecap:round;"/>
     </g>
     <g id="text_11">
      <!-- 26 -->
      <g style="fill:#262626;" transform="translate(23.1475 55.921947)scale(0.11 -0.11)">
       <defs>
        <path d="M 2113 2584 
Q 1688 2584 1439 2293 
Q 1191 2003 1191 1497 
Q 1191 994 1439 701 
Q 1688 409 2113 409 
Q 2538 409 2786 701 
Q 3034 994 3034 1497 
Q 3034 2003 2786 2293 
Q 2538 2584 2113 2584 
z
M 3366 4563 
L 3366 3988 
Q 3128 4100 2886 4159 
Q 2644 4219 2406 4219 
Q 1781 4219 1451 3797 
Q 1122 3375 1075 2522 
Q 1259 2794 1537 2939 
Q 1816 3084 2150 3084 
Q 2853 3084 3261 2657 
Q 3669 2231 3669 1497 
Q 3669 778 3244 343 
Q 2819 -91 2113 -91 
Q 1303 -91 875 529 
Q 447 1150 447 2328 
Q 447 3434 972 4092 
Q 1497 4750 2381 4750 
Q 2619 4750 2861 4703 
Q 3103 4656 3366 4563 
z
" id="DejaVuSans-36" transform="scale(0.015625)"/>
       </defs>
       <use xlink:href="#DejaVuSans-32"/>
       <use x="63.623047" xlink:href="#DejaVuSans-36"/>
      </g>
     </g>
    </g>
    <g id="ytick_6">
     <g id="line2d_11">
      <path clip-path="url(#p93a6eb13a2)" d="M 46.645 11.379141 
L 269.245 11.379141 
" style="fill:none;stroke:#cccccc;stroke-linecap:round;"/>
     </g>
     <g id="text_12">
      <!-- 28 -->
      <g style="fill:#262626;" transform="translate(23.1475 15.558281)scale(0.11 -0.11)">
       <use xlink:href="#DejaVuSans-32"/>
       <use x="63.623047" xlink:href="#DejaVuSans-38"/>
      </g>
     </g>
    </g>
    <g id="text_13">
     <!-- TSS_enrichment -->
     <g style="fill:#262626;" transform="translate(16.318125 170.606499)rotate(-90)scale(0.12 -0.12)">
      <defs>
       <path d="M -19 4666 
L 3928 4666 
L 3928 4134 
L 2272 4134 
L 2272 0 
L 1638 0 
L 1638 4134 
L -19 4134 
L -19 4666 
z
" id="DejaVuSans-54" transform="scale(0.015625)"/>
       <path d="M 3425 4513 
L 3425 3897 
Q 3066 4069 2747 4153 
Q 2428 4238 2131 4238 
Q 1616 4238 1336 4038 
Q 1056 3838 1056 3469 
Q 1056 3159 1242 3001 
Q 1428 2844 1947 2747 
L 2328 2669 
Q 3034 2534 3370 2195 
Q 3706 1856 3706 1288 
Q 3706 609 3251 259 
Q 2797 -91 1919 -91 
Q 1588 -91 1214 -16 
Q 841 59 441 206 
L 441 856 
Q 825 641 1194 531 
Q 1563 422 1919 422 
Q 2459 422 2753 634 
Q 3047 847 3047 1241 
Q 3047 1584 2836 1778 
Q 2625 1972 2144 2069 
L 1759 2144 
Q 1053 2284 737 2584 
Q 422 2884 422 3419 
Q 422 4038 858 4394 
Q 1294 4750 2059 4750 
Q 2388 4750 2728 4690 
Q 3069 4631 3425 4513 
z
" id="DejaVuSans-53" transform="scale(0.015625)"/>
       <path d="M 3122 3366 
L 3122 2828 
Q 2878 2963 2633 3030 
Q 2388 3097 2138 3097 
Q 1578 3097 1268 2742 
Q 959 2388 959 1747 
Q 959 1106 1268 751 
Q 1578 397 2138 397 
Q 2388 397 2633 464 
Q 2878 531 3122 666 
L 3122 134 
Q 2881 22 2623 -34 
Q 2366 -91 2075 -91 
Q 1284 -91 818 406 
Q 353 903 353 1747 
Q 353 2603 823 3093 
Q 1294 3584 2113 3584 
Q 2378 3584 2631 3529 
Q 2884 3475 3122 3366 
z
" id="DejaVuSans-63" transform="scale(0.015625)"/>
       <path d="M 3513 2113 
L 3513 0 
L 2938 0 
L 2938 2094 
Q 2938 2591 2744 2837 
Q 2550 3084 2163 3084 
Q 1697 3084 1428 2787 
Q 1159 2491 1159 1978 
L 1159 0 
L 581 0 
L 581 4863 
L 1159 4863 
L 1159 2956 
Q 1366 3272 1645 3428 
Q 1925 3584 2291 3584 
Q 2894 3584 3203 3211 
Q 3513 2838 3513 2113 
z
" id="DejaVuSans-68" transform="scale(0.015625)"/>
       <path d="M 3328 2828 
Q 3544 3216 3844 3400 
Q 4144 3584 4550 3584 
Q 5097 3584 5394 3201 
Q 5691 2819 5691 2113 
L 5691 0 
L 5113 0 
L 5113 2094 
Q 5113 2597 4934 2840 
Q 4756 3084 4391 3084 
Q 3944 3084 3684 2787 
Q 3425 2491 3425 1978 
L 3425 0 
L 2847 0 
L 2847 2094 
Q 2847 2600 2669 2842 
Q 2491 3084 2119 3084 
Q 1678 3084 1418 2786 
Q 1159 2488 1159 1978 
L 1159 0 
L 581 0 
L 581 3500 
L 1159 3500 
L 1159 2956 
Q 1356 3278 1631 3431 
Q 1906 3584 2284 3584 
Q 2666 3584 2933 3390 
Q 3200 3197 3328 2828 
z
" id="DejaVuSans-6d" transform="scale(0.015625)"/>
       <path d="M 1172 4494 
L 1172 3500 
L 2356 3500 
L 2356 3053 
L 1172 3053 
L 1172 1153 
Q 1172 725 1289 603 
Q 1406 481 1766 481 
L 2356 481 
L 2356 0 
L 1766 0 
Q 1100 0 847 248 
Q 594 497 594 1153 
L 594 3053 
L 172 3053 
L 172 3500 
L 594 3500 
L 594 4494 
L 1172 4494 
z
" id="DejaVuSans-74" transform="scale(0.015625)"/>
      </defs>
      <use xlink:href="#DejaVuSans-54"/>
      <use x="61.083984" xlink:href="#DejaVuSans-53"/>
      <use x="124.560547" xlink:href="#DejaVuSans-53"/>
      <use x="188.037109" xlink:href="#DejaVuSans-5f"/>
      <use x="238.037109" xlink:href="#DejaVuSans-65"/>
      <use x="299.560547" xlink:href="#DejaVuSans-6e"/>
      <use x="362.939453" xlink:href="#DejaVuSans-72"/>
      <use x="404.052734" xlink:href="#DejaVuSans-69"/>
      <use x="431.835938" xlink:href="#DejaVuSans-63"/>
      <use x="486.816406" xlink:href="#DejaVuSans-68"/>
      <use x="550.195312" xlink:href="#DejaVuSans-6d"/>
      <use x="647.607422" xlink:href="#DejaVuSans-65"/>
      <use x="709.130859" xlink:href="#DejaVuSans-6e"/>
      <use x="772.509766" xlink:href="#DejaVuSans-74"/>
     </g>
    </g>
   </g>
   <g id="PolyCollection_1">
    <defs>
     <path d="M 56.763182 -244.498107 
L 56.763182 -79.873627 
L 58.807259 -80.293746 
L 60.851336 -80.713864 
L 62.895413 -81.057676 
L 64.93949 -81.301223 
L 66.983567 -81.54477 
L 69.027645 -81.788317 
L 71.071722 -82.031864 
L 73.115799 -82.275411 
L 75.159876 -82.574152 
L 77.203953 -83.21332 
L 79.24803 -83.852487 
L 81.292107 -84.491655 
L 83.336185 -84.95658 
L 85.380262 -85.295798 
L 87.424339 -85.635015 
L 89.468416 -85.974233 
L 91.512493 -86.313451 
L 93.55657 -86.652668 
L 95.600647 -86.996914 
L 97.644725 -87.341958 
L 99.688802 -87.687003 
L 101.732879 -88.032048 
L 103.776956 -88.377093 
L 105.821033 -88.722138 
L 107.86511 -89.067183 
L 109.909187 -89.412228 
L 111.953264 -89.757272 
L 113.997342 -90.102317 
L 116.041419 -90.447362 
L 118.085496 -90.792407 
L 120.129573 -91.137452 
L 122.17365 -91.482497 
L 124.217727 -91.827541 
L 126.261804 -92.033453 
L 128.305882 -92.469511 
L 130.349959 -92.792499 
L 132.394036 -93.107379 
L 134.438113 -93.437022 
L 136.48219 -93.744922 
L 138.526267 -93.959297 
L 140.570344 -94.173673 
L 142.614421 -94.388049 
L 144.658499 -94.602424 
L 146.702576 -94.8168 
L 148.746653 -95.031175 
L 150.79073 -95.255582 
L 152.834807 -95.425588 
L 154.878884 -95.424389 
L 156.922961 -95.490306 
L 158.967039 -94.672056 
L 161.011116 -94.558635 
L 163.055193 -95.131303 
L 165.09927 -95.827001 
L 167.143347 -96.253863 
L 169.187424 -96.801506 
L 171.231501 -97.186913 
L 173.275579 -97.397494 
L 175.319656 -98.13236 
L 177.363733 -98.42794 
L 179.40781 -98.83161 
L 181.451887 -99.000403 
L 183.495964 -99.67799 
L 185.540041 -99.892622 
L 187.584118 -99.640659 
L 189.628196 -99.458092 
L 191.672273 -99.510992 
L 193.71635 -99.363514 
L 195.760427 -99.84527 
L 197.804504 -99.422804 
L 199.848581 -98.802552 
L 201.892658 -98.706368 
L 203.936736 -98.062136 
L 205.980813 -97.437158 
L 208.02489 -96.585455 
L 210.068967 -96.026011 
L 212.113044 -95.027224 
L 214.157121 -94.098304 
L 216.201198 -92.889312 
L 218.245275 -91.846471 
L 220.289353 -90.78631 
L 222.33343 -89.751929 
L 224.377507 -88.69416 
L 226.421584 -87.504355 
L 228.465661 -86.281783 
L 230.509738 -85.359953 
L 232.553815 -84.50289 
L 234.597893 -83.469201 
L 236.64197 -82.402201 
L 238.686047 -80.382215 
L 240.730124 -78.910849 
L 242.774201 -77.272709 
L 244.818278 -75.870627 
L 246.862355 -74.487655 
L 248.906433 -73.104684 
L 250.95051 -71.228572 
L 252.994587 -70.02623 
L 255.038664 -68.923577 
L 257.082741 -67.53368 
L 259.126818 -66.146403 
L 259.126818 -134.788495 
L 259.126818 -134.788495 
L 257.082741 -134.740759 
L 255.038664 -134.808269 
L 252.994587 -135.104879 
L 250.95051 -135.456755 
L 248.906433 -135.494011 
L 246.862355 -135.485595 
L 244.818278 -136.077615 
L 242.774201 -136.568223 
L 240.730124 -136.236254 
L 238.686047 -136.522011 
L 236.64197 -136.994559 
L 234.597893 -137.516635 
L 232.553815 -138.107294 
L 230.509738 -138.664566 
L 228.465661 -139.178364 
L 226.421584 -139.778212 
L 224.377507 -140.769313 
L 222.33343 -141.775574 
L 220.289353 -142.604334 
L 218.245275 -143.539422 
L 216.201198 -144.678933 
L 214.157121 -145.81787 
L 212.113044 -146.626688 
L 210.068967 -147.659727 
L 208.02489 -148.280056 
L 205.980813 -149.063607 
L 203.936736 -149.602291 
L 201.892658 -150.427552 
L 199.848581 -151.480775 
L 197.804504 -152.462025 
L 195.760427 -153.436321 
L 193.71635 -154.414675 
L 191.672273 -155.463667 
L 189.628196 -156.578335 
L 187.584118 -157.787286 
L 185.540041 -158.856664 
L 183.495964 -159.813544 
L 181.451887 -161.026703 
L 179.40781 -162.249984 
L 177.363733 -163.381645 
L 175.319656 -164.508994 
L 173.275579 -165.636343 
L 171.231501 -166.763693 
L 169.187424 -167.921206 
L 167.143347 -169.065248 
L 165.09927 -170.563872 
L 163.055193 -172.109492 
L 161.011116 -173.148815 
L 158.967039 -174.336881 
L 156.922961 -175.697877 
L 154.878884 -177.057587 
L 152.834807 -178.218167 
L 150.79073 -179.648194 
L 148.746653 -180.597344 
L 146.702576 -181.991126 
L 144.658499 -183.161337 
L 142.614421 -184.676457 
L 140.570344 -186.039535 
L 138.526267 -187.269968 
L 136.48219 -188.995304 
L 134.438113 -189.920412 
L 132.394036 -191.488745 
L 130.349959 -192.630517 
L 128.305882 -193.778285 
L 126.261804 -195.438258 
L 124.217727 -196.971405 
L 122.17365 -198.45445 
L 120.129573 -199.931541 
L 118.085496 -201.405577 
L 116.041419 -202.745524 
L 113.997342 -203.865123 
L 111.953264 -205.2308 
L 109.909187 -206.843263 
L 107.86511 -208.502741 
L 105.821033 -209.991149 
L 103.776956 -211.577342 
L 101.732879 -213.163056 
L 99.688802 -214.524633 
L 97.644725 -215.845896 
L 95.600647 -217.287558 
L 93.55657 -218.494636 
L 91.512493 -219.817971 
L 89.468416 -221.141305 
L 87.424339 -222.464639 
L 85.380262 -223.787974 
L 83.336185 -225.111308 
L 81.292107 -226.434642 
L 79.24803 -227.757977 
L 77.203953 -229.081311 
L 75.159876 -230.418175 
L 73.115799 -231.78789 
L 71.071722 -233.157604 
L 69.027645 -234.527319 
L 66.983567 -235.897034 
L 64.93949 -237.266748 
L 62.895413 -238.675402 
L 60.851336 -240.616304 
L 58.807259 -242.557205 
L 56.763182 -244.498107 
z
" id="m50a47235c2" style="stroke:#ffffff;stroke-opacity:0.15;"/>
    </defs>
    <g clip-path="url(#p93a6eb13a2)">
     <use style="fill:#4c72b0;fill-opacity:0.15;stroke:#ffffff;stroke-opacity:0.15;" x="0" xlink:href="#m50a47235c2" y="275.889575"/>
    </g>
   </g>
   <g id="PathCollection_1">
    <defs>
     <path d="M 0 2.236068 
C 0.593012 2.236068 1.161816 2.000462 1.581139 1.581139 
C 2.000462 1.161816 2.236068 0.593012 2.236068 -0 
C 2.236068 -0.593012 2.000462 -1.161816 1.581139 -1.581139 
C 1.161816 -2.000462 0.593012 -2.236068 0 -2.236068 
C -0.593012 -2.236068 -1.161816 -2.000462 -1.581139 -1.581139 
C -2.000462 -1.161816 -2.236068 -0.593012 -2.236068 0 
C -2.236068 0.593012 -2.000462 1.161816 -1.581139 1.581139 
C -1.161816 2.000462 -0.593012 2.236068 0 2.236068 
z
" id="C0_0_21fa83c01f"/>
    </defs>
    <g clip-path="url(#p93a6eb13a2)">
     <use style="fill:#1f77b4;" x="204.026219" xlink:href="#C0_0_21fa83c01f" y="203.466078"/>
    </g>
    <g clip-path="url(#p93a6eb13a2)">
     <use style="fill:#aec7e8;" x="112.056365" xlink:href="#C0_0_21fa83c01f" y="222.533159"/>
    </g>
    <g clip-path="url(#p93a6eb13a2)">
     <use style="fill:#ff7f0e;" x="142.484735" xlink:href="#C0_0_21fa83c01f" y="21.273589"/>
    </g>
    <g clip-path="url(#p93a6eb13a2)">
     <use style="fill:#ffbb78;" x="198.419867" xlink:href="#C0_0_21fa83c01f" y="142.74104"/>
    </g>
    <g clip-path="url(#p93a6eb13a2)">
     <use style="fill:#2ca02c;" x="56.763182" xlink:href="#C0_0_21fa83c01f" y="104.355416"/>
    </g>
    <g clip-path="url(#p93a6eb13a2)">
     <use style="fill:#98df8a;" x="76.171432" xlink:href="#C0_0_21fa83c01f" y="95.771691"/>
    </g>
    <g clip-path="url(#p93a6eb13a2)">
     <use style="fill:#d62728;" x="205.203125" xlink:href="#C0_0_21fa83c01f" y="158.992761"/>
    </g>
    <g clip-path="url(#p93a6eb13a2)">
     <use style="fill:#ff9896;" x="174.560773" xlink:href="#C0_0_21fa83c01f" y="167.934834"/>
    </g>
    <g clip-path="url(#p93a6eb13a2)">
     <use style="fill:#9467bd;" x="259.126818" xlink:href="#C0_0_21fa83c01f" y="154.492593"/>
    </g>
    <g clip-path="url(#p93a6eb13a2)">
     <use style="fill:#c5b0d5;" x="250.888476" xlink:href="#C0_0_21fa83c01f" y="152.272832"/>
    </g>
   </g>
   <g id="PathCollection_2"/>
   <g id="PathCollection_3"/>
   <g id="PathCollection_4"/>
   <g id="PathCollection_5"/>
   <g id="PathCollection_6"/>
   <g id="PathCollection_7"/>
   <g id="PathCollection_8"/>
   <g id="PathCollection_9"/>
   <g id="PathCollection_10"/>
   <g id="PathCollection_11"/>
   <g id="line2d_12">
    <path clip-path="url(#p93a6eb13a2)" d="M 56.763182 111.548809 
L 58.807259 112.115575 
L 60.851336 112.682341 
L 62.895413 113.249107 
L 64.93949 113.815873 
L 66.983567 114.382638 
L 69.027645 114.949404 
L 71.071722 115.51617 
L 73.115799 116.082936 
L 75.159876 116.649702 
L 77.203953 117.216468 
L 79.24803 117.783233 
L 81.292107 118.349999 
L 83.336185 118.916765 
L 85.380262 119.483531 
L 87.424339 120.050297 
L 89.468416 120.617063 
L 91.512493 121.183828 
L 93.55657 121.750594 
L 95.600647 122.31736 
L 97.644725 122.884126 
L 99.688802 123.450892 
L 101.732879 124.017658 
L 103.776956 124.584423 
L 105.821033 125.151189 
L 107.86511 125.717955 
L 109.909187 126.284721 
L 111.953264 126.851487 
L 113.997342 127.418252 
L 116.041419 127.985018 
L 118.085496 128.551784 
L 120.129573 129.11855 
L 122.17365 129.685316 
L 124.217727 130.252082 
L 126.261804 130.818847 
L 128.305882 131.385613 
L 130.349959 131.952379 
L 132.394036 132.519145 
L 134.438113 133.085911 
L 136.48219 133.652677 
L 138.526267 134.219442 
L 140.570344 134.786208 
L 142.614421 135.352974 
L 144.658499 135.91974 
L 146.702576 136.486506 
L 148.746653 137.053272 
L 150.79073 137.620037 
L 152.834807 138.186803 
L 154.878884 138.753569 
L 156.922961 139.320335 
L 158.967039 139.887101 
L 161.011116 140.453866 
L 163.055193 141.020632 
L 165.09927 141.587398 
L 167.143347 142.154164 
L 169.187424 142.72093 
L 171.231501 143.287696 
L 173.275579 143.854461 
L 175.319656 144.421227 
L 177.363733 144.987993 
L 179.40781 145.554759 
L 181.451887 146.121525 
L 183.495964 146.688291 
L 185.540041 147.255056 
L 187.584118 147.821822 
L 189.628196 148.388588 
L 191.672273 148.955354 
L 193.71635 149.52212 
L 195.760427 150.088886 
L 197.804504 150.655651 
L 199.848581 151.222417 
L 201.892658 151.789183 
L 203.936736 152.355949 
L 205.980813 152.922715 
L 208.02489 153.48948 
L 210.068967 154.056246 
L 212.113044 154.623012 
L 214.157121 155.189778 
L 216.201198 155.756544 
L 218.245275 156.32331 
L 220.289353 156.890075 
L 222.33343 157.456841 
L 224.377507 158.023607 
L 226.421584 158.590373 
L 228.465661 159.157139 
L 230.509738 159.723905 
L 232.553815 160.29067 
L 234.597893 160.857436 
L 236.64197 161.424202 
L 238.686047 161.990968 
L 240.730124 162.557734 
L 242.774201 163.124499 
L 244.818278 163.691265 
L 246.862355 164.258031 
L 248.906433 164.824797 
L 250.95051 165.391563 
L 252.994587 165.958329 
L 255.038664 166.525094 
L 257.082741 167.09186 
L 259.126818 167.658626 
" style="fill:none;stroke:#4c72b0;stroke-linecap:round;stroke-width:2.25;"/>
   </g>
   <g id="patch_3">
    <path d="M 46.645 232.596137 
L 46.645 11.210611 
" style="fill:none;stroke:#333333;stroke-linecap:square;stroke-linejoin:miter;stroke-width:1.25;"/>
   </g>
   <g id="patch_4">
    <path d="M 269.245 232.596137 
L 269.245 11.210611 
" style="fill:none;stroke:#333333;stroke-linecap:square;stroke-linejoin:miter;stroke-width:1.25;"/>
   </g>
   <g id="patch_5">
    <path d="M 46.645 232.596137 
L 269.245 232.596137 
" style="fill:none;stroke:#333333;stroke-linecap:square;stroke-linejoin:miter;stroke-width:1.25;"/>
   </g>
   <g id="patch_6">
    <path d="M 46.645 11.210611 
L 269.245 11.210611 
" style="fill:none;stroke:#333333;stroke-linecap:square;stroke-linejoin:miter;stroke-width:1.25;"/>
   </g>
   <g id="legend_1">
    <g id="patch_7">
     <path d="M 282.575 175.969986 
L 403.373906 175.969986 
Q 405.573906 175.969986 405.573906 173.769986 
L 405.573906 13.410611 
Q 405.573906 11.210611 403.373906 11.210611 
L 282.575 11.210611 
Q 280.375 11.210611 280.375 13.410611 
L 280.375 173.769986 
Q 280.375 175.969986 282.575 175.969986 
z
" style="fill:#ffffff;opacity:0.8;stroke:#cccccc;stroke-linejoin:miter;"/>
    </g>
    <g id="PathCollection_12">
     <defs>
      <path d="M 0 3 
C 0.795609 3 1.55874 2.683901 2.12132 2.12132 
C 2.683901 1.55874 3 0.795609 3 0 
C 3 -0.795609 2.683901 -1.55874 2.12132 -2.12132 
C 1.55874 -2.683901 0.795609 -3 0 -3 
C -0.795609 -3 -1.55874 -2.683901 -2.12132 -2.12132 
C -2.683901 -1.55874 -3 -0.795609 -3 0 
C -3 0.795609 -2.683901 1.55874 -2.12132 2.12132 
C -1.55874 2.683901 -0.795609 3 0 3 
z
" id="mccbe5fdbb2" style="stroke:#1f77b4;"/>
     </defs>
     <g>
      <use style="fill:#1f77b4;stroke:#1f77b4;" x="295.775" xlink:href="#mccbe5fdbb2" y="21.081392"/>
     </g>
    </g>
    <g id="text_14">
     <!-- 10x ATAC A1 -->
     <g style="fill:#262626;" transform="translate(315.575 23.968892)scale(0.11 -0.11)">
      <defs>
       <path d="M 3513 3500 
L 2247 1797 
L 3578 0 
L 2900 0 
L 1881 1375 
L 863 0 
L 184 0 
L 1544 1831 
L 300 3500 
L 978 3500 
L 1906 2253 
L 2834 3500 
L 3513 3500 
z
" id="DejaVuSans-78" transform="scale(0.015625)"/>
       <path id="DejaVuSans-20" transform="scale(0.015625)"/>
       <path d="M 2188 4044 
L 1331 1722 
L 3047 1722 
L 2188 4044 
z
M 1831 4666 
L 2547 4666 
L 4325 0 
L 3669 0 
L 3244 1197 
L 1141 1197 
L 716 0 
L 50 0 
L 1831 4666 
z
" id="DejaVuSans-41" transform="scale(0.015625)"/>
       <path d="M 4122 4306 
L 4122 3641 
Q 3803 3938 3442 4084 
Q 3081 4231 2675 4231 
Q 1875 4231 1450 3742 
Q 1025 3253 1025 2328 
Q 1025 1406 1450 917 
Q 1875 428 2675 428 
Q 3081 428 3442 575 
Q 3803 722 4122 1019 
L 4122 359 
Q 3791 134 3420 21 
Q 3050 -91 2638 -91 
Q 1578 -91 968 557 
Q 359 1206 359 2328 
Q 359 3453 968 4101 
Q 1578 4750 2638 4750 
Q 3056 4750 3426 4639 
Q 3797 4528 4122 4306 
z
" id="DejaVuSans-43" transform="scale(0.015625)"/>
      </defs>
      <use xlink:href="#DejaVuSans-31"/>
      <use x="63.623047" xlink:href="#DejaVuSans-30"/>
      <use x="127.246094" xlink:href="#DejaVuSans-78"/>
      <use x="186.425781" xlink:href="#DejaVuSans-20"/>
      <use x="218.212891" xlink:href="#DejaVuSans-41"/>
      <use x="278.871094" xlink:href="#DejaVuSans-54"/>
      <use x="332.205078" xlink:href="#DejaVuSans-41"/>
      <use x="398.863281" xlink:href="#DejaVuSans-43"/>
      <use x="468.6875" xlink:href="#DejaVuSans-20"/>
      <use x="500.474609" xlink:href="#DejaVuSans-41"/>
      <use x="568.882812" xlink:href="#DejaVuSans-31"/>
     </g>
    </g>
    <g id="PathCollection_13">
     <defs>
      <path d="M 0 3 
C 0.795609 3 1.55874 2.683901 2.12132 2.12132 
C 2.683901 1.55874 3 0.795609 3 0 
C 3 -0.795609 2.683901 -1.55874 2.12132 -2.12132 
C 1.55874 -2.683901 0.795609 -3 0 -3 
C -0.795609 -3 -1.55874 -2.683901 -2.12132 -2.12132 
C -2.683901 -1.55874 -3 -0.795609 -3 0 
C -3 0.795609 -2.683901 1.55874 -2.12132 2.12132 
C -1.55874 2.683901 -0.795609 3 0 3 
z
" id="mf16b0099a6" style="stroke:#aec7e8;"/>
     </defs>
     <g>
      <use style="fill:#aec7e8;stroke:#aec7e8;" x="295.775" xlink:href="#mf16b0099a6" y="37.22733"/>
     </g>
    </g>
    <g id="text_15">
     <!-- 10x ATAC A2 -->
     <g style="fill:#262626;" transform="translate(315.575 40.11483)scale(0.11 -0.11)">
      <use xlink:href="#DejaVuSans-31"/>
      <use x="63.623047" xlink:href="#DejaVuSans-30"/>
      <use x="127.246094" xlink:href="#DejaVuSans-78"/>
      <use x="186.425781" xlink:href="#DejaVuSans-20"/>
      <use x="218.212891" xlink:href="#DejaVuSans-41"/>
      <use x="278.871094" xlink:href="#DejaVuSans-54"/>
      <use x="332.205078" xlink:href="#DejaVuSans-41"/>
      <use x="398.863281" xlink:href="#DejaVuSans-43"/>
      <use x="468.6875" xlink:href="#DejaVuSans-20"/>
      <use x="500.474609" xlink:href="#DejaVuSans-41"/>
      <use x="568.882812" xlink:href="#DejaVuSans-32"/>
     </g>
    </g>
    <g id="PathCollection_14">
     <defs>
      <path d="M 0 3 
C 0.795609 3 1.55874 2.683901 2.12132 2.12132 
C 2.683901 1.55874 3 0.795609 3 0 
C 3 -0.795609 2.683901 -1.55874 2.12132 -2.12132 
C 1.55874 -2.683901 0.795609 -3 0 -3 
C -0.795609 -3 -1.55874 -2.683901 -2.12132 -2.12132 
C -2.683901 -1.55874 -3 -0.795609 -3 0 
C -3 0.795609 -2.683901 1.55874 -2.12132 2.12132 
C -1.55874 2.683901 -0.795609 3 0 3 
z
" id="mc5ebed84e0" style="stroke:#ff7f0e;"/>
     </defs>
     <g>
      <use style="fill:#ff7f0e;stroke:#ff7f0e;" x="295.775" xlink:href="#mc5ebed84e0" y="53.373267"/>
     </g>
    </g>
    <g id="text_16">
     <!-- 10x ATAC B1 -->
     <g style="fill:#262626;" transform="translate(315.575 56.260767)scale(0.11 -0.11)">
      <defs>
       <path d="M 1259 2228 
L 1259 519 
L 2272 519 
Q 2781 519 3026 730 
Q 3272 941 3272 1375 
Q 3272 1813 3026 2020 
Q 2781 2228 2272 2228 
L 1259 2228 
z
M 1259 4147 
L 1259 2741 
L 2194 2741 
Q 2656 2741 2882 2914 
Q 3109 3088 3109 3444 
Q 3109 3797 2882 3972 
Q 2656 4147 2194 4147 
L 1259 4147 
z
M 628 4666 
L 2241 4666 
Q 2963 4666 3353 4366 
Q 3744 4066 3744 3513 
Q 3744 3084 3544 2831 
Q 3344 2578 2956 2516 
Q 3422 2416 3680 2098 
Q 3938 1781 3938 1306 
Q 3938 681 3513 340 
Q 3088 0 2303 0 
L 628 0 
L 628 4666 
z
" id="DejaVuSans-42" transform="scale(0.015625)"/>
      </defs>
      <use xlink:href="#DejaVuSans-31"/>
      <use x="63.623047" xlink:href="#DejaVuSans-30"/>
      <use x="127.246094" xlink:href="#DejaVuSans-78"/>
      <use x="186.425781" xlink:href="#DejaVuSans-20"/>
      <use x="218.212891" xlink:href="#DejaVuSans-41"/>
      <use x="278.871094" xlink:href="#DejaVuSans-54"/>
      <use x="332.205078" xlink:href="#DejaVuSans-41"/>
      <use x="398.863281" xlink:href="#DejaVuSans-43"/>
      <use x="468.6875" xlink:href="#DejaVuSans-20"/>
      <use x="500.474609" xlink:href="#DejaVuSans-42"/>
      <use x="569.078125" xlink:href="#DejaVuSans-31"/>
     </g>
    </g>
    <g id="PathCollection_15">
     <defs>
      <path d="M 0 3 
C 0.795609 3 1.55874 2.683901 2.12132 2.12132 
C 2.683901 1.55874 3 0.795609 3 0 
C 3 -0.795609 2.683901 -1.55874 2.12132 -2.12132 
C 1.55874 -2.683901 0.795609 -3 0 -3 
C -0.795609 -3 -1.55874 -2.683901 -2.12132 -2.12132 
C -2.683901 -1.55874 -3 -0.795609 -3 0 
C -3 0.795609 -2.683901 1.55874 -2.12132 2.12132 
C -1.55874 2.683901 -0.795609 3 0 3 
z
" id="mefc09a772e" style="stroke:#ffbb78;"/>
     </defs>
     <g>
      <use style="fill:#ffbb78;stroke:#ffbb78;" x="295.775" xlink:href="#mefc09a772e" y="69.519205"/>
     </g>
    </g>
    <g id="text_17">
     <!-- 10x ATAC B2 -->
     <g style="fill:#262626;" transform="translate(315.575 72.406705)scale(0.11 -0.11)">
      <use xlink:href="#DejaVuSans-31"/>
      <use x="63.623047" xlink:href="#DejaVuSans-30"/>
      <use x="127.246094" xlink:href="#DejaVuSans-78"/>
      <use x="186.425781" xlink:href="#DejaVuSans-20"/>
      <use x="218.212891" xlink:href="#DejaVuSans-41"/>
      <use x="278.871094" xlink:href="#DejaVuSans-54"/>
      <use x="332.205078" xlink:href="#DejaVuSans-41"/>
      <use x="398.863281" xlink:href="#DejaVuSans-43"/>
      <use x="468.6875" xlink:href="#DejaVuSans-20"/>
      <use x="500.474609" xlink:href="#DejaVuSans-42"/>
      <use x="569.078125" xlink:href="#DejaVuSans-32"/>
     </g>
    </g>
    <g id="PathCollection_16">
     <defs>
      <path d="M 0 3 
C 0.795609 3 1.55874 2.683901 2.12132 2.12132 
C 2.683901 1.55874 3 0.795609 3 0 
C 3 -0.795609 2.683901 -1.55874 2.12132 -2.12132 
C 1.55874 -2.683901 0.795609 -3 0 -3 
C -0.795609 -3 -1.55874 -2.683901 -2.12132 -2.12132 
C -2.683901 -1.55874 -3 -0.795609 -3 0 
C -3 0.795609 -2.683901 1.55874 -2.12132 2.12132 
C -1.55874 2.683901 -0.795609 3 0 3 
z
" id="m9caf3f108a" style="stroke:#2ca02c;"/>
     </defs>
     <g>
      <use style="fill:#2ca02c;stroke:#2ca02c;" x="295.775" xlink:href="#m9caf3f108a" y="85.665142"/>
     </g>
    </g>
    <g id="text_18">
     <!-- 10x ATAC C1 -->
     <g style="fill:#262626;" transform="translate(315.575 88.552642)scale(0.11 -0.11)">
      <use xlink:href="#DejaVuSans-31"/>
      <use x="63.623047" xlink:href="#DejaVuSans-30"/>
      <use x="127.246094" xlink:href="#DejaVuSans-78"/>
      <use x="186.425781" xlink:href="#DejaVuSans-20"/>
      <use x="218.212891" xlink:href="#DejaVuSans-41"/>
      <use x="278.871094" xlink:href="#DejaVuSans-54"/>
      <use x="332.205078" xlink:href="#DejaVuSans-41"/>
      <use x="398.863281" xlink:href="#DejaVuSans-43"/>
      <use x="468.6875" xlink:href="#DejaVuSans-20"/>
      <use x="500.474609" xlink:href="#DejaVuSans-43"/>
      <use x="570.298828" xlink:href="#DejaVuSans-31"/>
     </g>
    </g>
    <g id="PathCollection_17">
     <defs>
      <path d="M 0 3 
C 0.795609 3 1.55874 2.683901 2.12132 2.12132 
C 2.683901 1.55874 3 0.795609 3 0 
C 3 -0.795609 2.683901 -1.55874 2.12132 -2.12132 
C 1.55874 -2.683901 0.795609 -3 0 -3 
C -0.795609 -3 -1.55874 -2.683901 -2.12132 -2.12132 
C -2.683901 -1.55874 -3 -0.795609 -3 0 
C -3 0.795609 -2.683901 1.55874 -2.12132 2.12132 
C -1.55874 2.683901 -0.795609 3 0 3 
z
" id="m0b68093915" style="stroke:#98df8a;"/>
     </defs>
     <g>
      <use style="fill:#98df8a;stroke:#98df8a;" x="295.775" xlink:href="#m0b68093915" y="101.81108"/>
     </g>
    </g>
    <g id="text_19">
     <!-- 10x ATAC C2 -->
     <g style="fill:#262626;" transform="translate(315.575 104.69858)scale(0.11 -0.11)">
      <use xlink:href="#DejaVuSans-31"/>
      <use x="63.623047" xlink:href="#DejaVuSans-30"/>
      <use x="127.246094" xlink:href="#DejaVuSans-78"/>
      <use x="186.425781" xlink:href="#DejaVuSans-20"/>
      <use x="218.212891" xlink:href="#DejaVuSans-41"/>
      <use x="278.871094" xlink:href="#DejaVuSans-54"/>
      <use x="332.205078" xlink:href="#DejaVuSans-41"/>
      <use x="398.863281" xlink:href="#DejaVuSans-43"/>
      <use x="468.6875" xlink:href="#DejaVuSans-20"/>
      <use x="500.474609" xlink:href="#DejaVuSans-43"/>
      <use x="570.298828" xlink:href="#DejaVuSans-32"/>
     </g>
    </g>
    <g id="PathCollection_18">
     <defs>
      <path d="M 0 3 
C 0.795609 3 1.55874 2.683901 2.12132 2.12132 
C 2.683901 1.55874 3 0.795609 3 0 
C 3 -0.795609 2.683901 -1.55874 2.12132 -2.12132 
C 1.55874 -2.683901 0.795609 -3 0 -3 
C -0.795609 -3 -1.55874 -2.683901 -2.12132 -2.12132 
C -2.683901 -1.55874 -3 -0.795609 -3 0 
C -3 0.795609 -2.683901 1.55874 -2.12132 2.12132 
C -1.55874 2.683901 -0.795609 3 0 3 
z
" id="mefdd91e6a8" style="stroke:#d62728;"/>
     </defs>
     <g>
      <use style="fill:#d62728;stroke:#d62728;" x="295.775" xlink:href="#mefdd91e6a8" y="117.957017"/>
     </g>
    </g>
    <g id="text_20">
     <!-- 10x Multiome 1 -->
     <g style="fill:#262626;" transform="translate(315.575 120.844517)scale(0.11 -0.11)">
      <defs>
       <path d="M 628 4666 
L 1569 4666 
L 2759 1491 
L 3956 4666 
L 4897 4666 
L 4897 0 
L 4281 0 
L 4281 4097 
L 3078 897 
L 2444 897 
L 1241 4097 
L 1241 0 
L 628 0 
L 628 4666 
z
" id="DejaVuSans-4d" transform="scale(0.015625)"/>
       <path d="M 603 4863 
L 1178 4863 
L 1178 0 
L 603 0 
L 603 4863 
z
" id="DejaVuSans-6c" transform="scale(0.015625)"/>
       <path d="M 1959 3097 
Q 1497 3097 1228 2736 
Q 959 2375 959 1747 
Q 959 1119 1226 758 
Q 1494 397 1959 397 
Q 2419 397 2687 759 
Q 2956 1122 2956 1747 
Q 2956 2369 2687 2733 
Q 2419 3097 1959 3097 
z
M 1959 3584 
Q 2709 3584 3137 3096 
Q 3566 2609 3566 1747 
Q 3566 888 3137 398 
Q 2709 -91 1959 -91 
Q 1206 -91 779 398 
Q 353 888 353 1747 
Q 353 2609 779 3096 
Q 1206 3584 1959 3584 
z
" id="DejaVuSans-6f" transform="scale(0.015625)"/>
      </defs>
      <use xlink:href="#DejaVuSans-31"/>
      <use x="63.623047" xlink:href="#DejaVuSans-30"/>
      <use x="127.246094" xlink:href="#DejaVuSans-78"/>
      <use x="186.425781" xlink:href="#DejaVuSans-20"/>
      <use x="218.212891" xlink:href="#DejaVuSans-4d"/>
      <use x="304.492188" xlink:href="#DejaVuSans-75"/>
      <use x="367.871094" xlink:href="#DejaVuSans-6c"/>
      <use x="395.654297" xlink:href="#DejaVuSans-74"/>
      <use x="434.863281" xlink:href="#DejaVuSans-69"/>
      <use x="462.646484" xlink:href="#DejaVuSans-6f"/>
      <use x="523.828125" xlink:href="#DejaVuSans-6d"/>
      <use x="621.240234" xlink:href="#DejaVuSans-65"/>
      <use x="682.763672" xlink:href="#DejaVuSans-20"/>
      <use x="714.550781" xlink:href="#DejaVuSans-31"/>
     </g>
    </g>
    <g id="PathCollection_19">
     <defs>
      <path d="M 0 3 
C 0.795609 3 1.55874 2.683901 2.12132 2.12132 
C 2.683901 1.55874 3 0.795609 3 0 
C 3 -0.795609 2.683901 -1.55874 2.12132 -2.12132 
C 1.55874 -2.683901 0.795609 -3 0 -3 
C -0.795609 -3 -1.55874 -2.683901 -2.12132 -2.12132 
C -2.683901 -1.55874 -3 -0.795609 -3 0 
C -3 0.795609 -2.683901 1.55874 -2.12132 2.12132 
C -1.55874 2.683901 -0.795609 3 0 3 
z
" id="m2712e5d918" style="stroke:#ff9896;"/>
     </defs>
     <g>
      <use style="fill:#ff9896;stroke:#ff9896;" x="295.775" xlink:href="#m2712e5d918" y="134.102955"/>
     </g>
    </g>
    <g id="text_21">
     <!-- 10x Multiome 2 -->
     <g style="fill:#262626;" transform="translate(315.575 136.990455)scale(0.11 -0.11)">
      <use xlink:href="#DejaVuSans-31"/>
      <use x="63.623047" xlink:href="#DejaVuSans-30"/>
      <use x="127.246094" xlink:href="#DejaVuSans-78"/>
      <use x="186.425781" xlink:href="#DejaVuSans-20"/>
      <use x="218.212891" xlink:href="#DejaVuSans-4d"/>
      <use x="304.492188" xlink:href="#DejaVuSans-75"/>
      <use x="367.871094" xlink:href="#DejaVuSans-6c"/>
      <use x="395.654297" xlink:href="#DejaVuSans-74"/>
      <use x="434.863281" xlink:href="#DejaVuSans-69"/>
      <use x="462.646484" xlink:href="#DejaVuSans-6f"/>
      <use x="523.828125" xlink:href="#DejaVuSans-6d"/>
      <use x="621.240234" xlink:href="#DejaVuSans-65"/>
      <use x="682.763672" xlink:href="#DejaVuSans-20"/>
      <use x="714.550781" xlink:href="#DejaVuSans-32"/>
     </g>
    </g>
    <g id="PathCollection_20">
     <defs>
      <path d="M 0 3 
C 0.795609 3 1.55874 2.683901 2.12132 2.12132 
C 2.683901 1.55874 3 0.795609 3 0 
C 3 -0.795609 2.683901 -1.55874 2.12132 -2.12132 
C 1.55874 -2.683901 0.795609 -3 0 -3 
C -0.795609 -3 -1.55874 -2.683901 -2.12132 -2.12132 
C -2.683901 -1.55874 -3 -0.795609 -3 0 
C -3 0.795609 -2.683901 1.55874 -2.12132 2.12132 
C -1.55874 2.683901 -0.795609 3 0 3 
z
" id="m0c026331c2" style="stroke:#9467bd;"/>
     </defs>
     <g>
      <use style="fill:#9467bd;stroke:#9467bd;" x="295.775" xlink:href="#m0c026331c2" y="150.248892"/>
     </g>
    </g>
    <g id="text_22">
     <!-- 10x mtATAC 1 -->
     <g style="fill:#262626;" transform="translate(315.575 153.136392)scale(0.11 -0.11)">
      <use xlink:href="#DejaVuSans-31"/>
      <use x="63.623047" xlink:href="#DejaVuSans-30"/>
      <use x="127.246094" xlink:href="#DejaVuSans-78"/>
      <use x="186.425781" xlink:href="#DejaVuSans-20"/>
      <use x="218.212891" xlink:href="#DejaVuSans-6d"/>
      <use x="315.625" xlink:href="#DejaVuSans-74"/>
      <use x="354.833984" xlink:href="#DejaVuSans-41"/>
      <use x="415.492188" xlink:href="#DejaVuSans-54"/>
      <use x="468.826172" xlink:href="#DejaVuSans-41"/>
      <use x="535.484375" xlink:href="#DejaVuSans-43"/>
      <use x="605.308594" xlink:href="#DejaVuSans-20"/>
      <use x="637.095703" xlink:href="#DejaVuSans-31"/>
     </g>
    </g>
    <g id="PathCollection_21">
     <defs>
      <path d="M 0 3 
C 0.795609 3 1.55874 2.683901 2.12132 2.12132 
C 2.683901 1.55874 3 0.795609 3 0 
C 3 -0.795609 2.683901 -1.55874 2.12132 -2.12132 
C 1.55874 -2.683901 0.795609 -3 0 -3 
C -0.795609 -3 -1.55874 -2.683901 -2.12132 -2.12132 
C -2.683901 -1.55874 -3 -0.795609 -3 0 
C -3 0.795609 -2.683901 1.55874 -2.12132 2.12132 
C -1.55874 2.683901 -0.795609 3 0 3 
z
" id="m319251b2c1" style="stroke:#c5b0d5;"/>
     </defs>
     <g>
      <use style="fill:#c5b0d5;stroke:#c5b0d5;" x="295.775" xlink:href="#m319251b2c1" y="166.39483"/>
     </g>
    </g>
    <g id="text_23">
     <!-- 10x mtATAC 2 -->
     <g style="fill:#262626;" transform="translate(315.575 169.28233)scale(0.11 -0.11)">
      <use xlink:href="#DejaVuSans-31"/>
      <use x="63.623047" xlink:href="#DejaVuSans-30"/>
      <use x="127.246094" xlink:href="#DejaVuSans-78"/>
      <use x="186.425781" xlink:href="#DejaVuSans-20"/>
      <use x="218.212891" xlink:href="#DejaVuSans-6d"/>
      <use x="315.625" xlink:href="#DejaVuSans-74"/>
      <use x="354.833984" xlink:href="#DejaVuSans-41"/>
      <use x="415.492188" xlink:href="#DejaVuSans-54"/>
      <use x="468.826172" xlink:href="#DejaVuSans-41"/>
      <use x="535.484375" xlink:href="#DejaVuSans-43"/>
      <use x="605.308594" xlink:href="#DejaVuSans-20"/>
      <use x="637.095703" xlink:href="#DejaVuSans-32"/>
     </g>
    </g>
   </g>
  </g>
 </g>
 <defs>
  <clipPath id="p93a6eb13a2">
   <rect height="221.385526" width="222.6" x="46.645" y="11.210611"/>
  </clipPath>
 </defs>
</svg>
