<?xml version="1.0" encoding="utf-8" standalone="no"?>
<!DOCTYPE svg PUBLIC "-//W3C//DTD SVG 1.1//EN"
  "http://www.w3.org/Graphics/SVG/1.1/DTD/svg11.dtd">
<svg height="259.889063pt" version="1.1" viewBox="0 0 412.552844 259.889063" width="412.552844pt" xmlns="http://www.w3.org/2000/svg" xmlns:xlink="http://www.w3.org/1999/xlink">
 <metadata>
  <rdf:RDF xmlns:cc="http://creativecommons.org/ns#" xmlns:dc="http://purl.org/dc/elements/1.1/" xmlns:rdf="http://www.w3.org/1999/02/22-rdf-syntax-ns#">
   <cc:Work>
    <dc:type rdf:resource="http://purl.org/dc/dcmitype/StillImage"/>
    <dc:date>2021-12-14T16:10:47.096864</dc:date>
    <dc:format>image/svg+xml</dc:format>
    <dc:creator>
     <cc:Agent>
      <dc:title>Matplotlib v3.4.3, https://matplotlib.org/</dc:title>
     </cc:Agent>
    </dc:creator>
   </cc:Work>
  </rdf:RDF>
 </metadata>
 <defs>
  <style type="text/css">*{stroke-linecap:butt;stroke-linejoin:round;}</style>
 </defs>
 <g id="figure_1">
  <g id="patch_1">
   <path d="M 0 259.889063 
L 412.552844 259.889063 
L 412.552844 0 
L 0 0 
z
" style="fill:#ffffff;"/>
  </g>
  <g id="axes_1">
   <g id="patch_2">
    <path d="M 50.140937 212.8 
L 269.200937 212.8 
L 269.200937 7.2 
L 50.140937 7.2 
z
" style="fill:#ffffff;"/>
   </g>
   <g id="matplotlib.axis_1">
    <g id="xtick_1">
     <g id="line2d_1">
      <path clip-path="url(#pe28825f534)" d="M 101.616167 212.8 
L 101.616167 7.2 
" style="fill:none;stroke:#cccccc;stroke-linecap:round;"/>
     </g>
     <g id="text_1">
      <!-- 2000 -->
      <g style="fill:#262626;" transform="translate(87.618667 230.658281)scale(0.11 -0.11)">
       <defs>
        <path d="M 1228 531 
L 3431 531 
L 3431 0 
L 469 0 
L 469 531 
Q 828 903 1448 1529 
Q 2069 2156 2228 2338 
Q 2531 2678 2651 2914 
Q 2772 3150 2772 3378 
Q 2772 3750 2511 3984 
Q 2250 4219 1831 4219 
Q 1534 4219 1204 4116 
Q 875 4013 500 3803 
L 500 4441 
Q 881 4594 1212 4672 
Q 1544 4750 1819 4750 
Q 2544 4750 2975 4387 
Q 3406 4025 3406 3419 
Q 3406 3131 3298 2873 
Q 3191 2616 2906 2266 
Q 2828 2175 2409 1742 
Q 1991 1309 1228 531 
z
" id="DejaVuSans-32" transform="scale(0.015625)"/>
        <path d="M 2034 4250 
Q 1547 4250 1301 3770 
Q 1056 3291 1056 2328 
Q 1056 1369 1301 889 
Q 1547 409 2034 409 
Q 2525 409 2770 889 
Q 3016 1369 3016 2328 
Q 3016 3291 2770 3770 
Q 2525 4250 2034 4250 
z
M 2034 4750 
Q 2819 4750 3233 4129 
Q 3647 3509 3647 2328 
Q 3647 1150 3233 529 
Q 2819 -91 2034 -91 
Q 1250 -91 836 529 
Q 422 1150 422 2328 
Q 422 3509 836 4129 
Q 1250 4750 2034 4750 
z
" id="DejaVuSans-30" transform="scale(0.015625)"/>
       </defs>
       <use xlink:href="#DejaVuSans-32"/>
       <use x="63.623047" xlink:href="#DejaVuSans-30"/>
       <use x="127.246094" xlink:href="#DejaVuSans-30"/>
       <use x="190.869141" xlink:href="#DejaVuSans-30"/>
      </g>
     </g>
    </g>
    <g id="xtick_2">
     <g id="line2d_2">
      <path clip-path="url(#pe28825f534)" d="M 165.588366 212.8 
L 165.588366 7.2 
" style="fill:none;stroke:#cccccc;stroke-linecap:round;"/>
     </g>
     <g id="text_2">
      <!-- 4000 -->
      <g style="fill:#262626;" transform="translate(151.590866 230.658281)scale(0.11 -0.11)">
       <defs>
        <path d="M 2419 4116 
L 825 1625 
L 2419 1625 
L 2419 4116 
z
M 2253 4666 
L 3047 4666 
L 3047 1625 
L 3713 1625 
L 3713 1100 
L 3047 1100 
L 3047 0 
L 2419 0 
L 2419 1100 
L 313 1100 
L 313 1709 
L 2253 4666 
z
" id="DejaVuSans-34" transform="scale(0.015625)"/>
       </defs>
       <use xlink:href="#DejaVuSans-34"/>
       <use x="63.623047" xlink:href="#DejaVuSans-30"/>
       <use x="127.246094" xlink:href="#DejaVuSans-30"/>
       <use x="190.869141" xlink:href="#DejaVuSans-30"/>
      </g>
     </g>
    </g>
    <g id="xtick_3">
     <g id="line2d_3">
      <path clip-path="url(#pe28825f534)" d="M 229.560565 212.8 
L 229.560565 7.2 
" style="fill:none;stroke:#cccccc;stroke-linecap:round;"/>
     </g>
     <g id="text_3">
      <!-- 6000 -->
      <g style="fill:#262626;" transform="translate(215.563065 230.658281)scale(0.11 -0.11)">
       <defs>
        <path d="M 2113 2584 
Q 1688 2584 1439 2293 
Q 1191 2003 1191 1497 
Q 1191 994 1439 701 
Q 1688 409 2113 409 
Q 2538 409 2786 701 
Q 3034 994 3034 1497 
Q 3034 2003 2786 2293 
Q 2538 2584 2113 2584 
z
M 3366 4563 
L 3366 3988 
Q 3128 4100 2886 4159 
Q 2644 4219 2406 4219 
Q 1781 4219 1451 3797 
Q 1122 3375 1075 2522 
Q 1259 2794 1537 2939 
Q 1816 3084 2150 3084 
Q 2853 3084 3261 2657 
Q 3669 2231 3669 1497 
Q 3669 778 3244 343 
Q 2819 -91 2113 -91 
Q 1303 -91 875 529 
Q 447 1150 447 2328 
Q 447 3434 972 4092 
Q 1497 4750 2381 4750 
Q 2619 4750 2861 4703 
Q 3103 4656 3366 4563 
z
" id="DejaVuSans-36" transform="scale(0.015625)"/>
       </defs>
       <use xlink:href="#DejaVuSans-36"/>
       <use x="63.623047" xlink:href="#DejaVuSans-30"/>
       <use x="127.246094" xlink:href="#DejaVuSans-30"/>
       <use x="190.869141" xlink:href="#DejaVuSans-30"/>
      </g>
     </g>
    </g>
    <g id="text_4">
     <!-- n_cells -->
     <g style="fill:#262626;" transform="translate(139.418125 246.064062)scale(0.12 -0.12)">
      <defs>
       <path d="M 3513 2113 
L 3513 0 
L 2938 0 
L 2938 2094 
Q 2938 2591 2744 2837 
Q 2550 3084 2163 3084 
Q 1697 3084 1428 2787 
Q 1159 2491 1159 1978 
L 1159 0 
L 581 0 
L 581 3500 
L 1159 3500 
L 1159 2956 
Q 1366 3272 1645 3428 
Q 1925 3584 2291 3584 
Q 2894 3584 3203 3211 
Q 3513 2838 3513 2113 
z
" id="DejaVuSans-6e" transform="scale(0.015625)"/>
       <path d="M 3263 -1063 
L 3263 -1509 
L -63 -1509 
L -63 -1063 
L 3263 -1063 
z
" id="DejaVuSans-5f" transform="scale(0.015625)"/>
       <path d="M 3122 3366 
L 3122 2828 
Q 2878 2963 2633 3030 
Q 2388 3097 2138 3097 
Q 1578 3097 1268 2742 
Q 959 2388 959 1747 
Q 959 1106 1268 751 
Q 1578 397 2138 397 
Q 2388 397 2633 464 
Q 2878 531 3122 666 
L 3122 134 
Q 2881 22 2623 -34 
Q 2366 -91 2075 -91 
Q 1284 -91 818 406 
Q 353 903 353 1747 
Q 353 2603 823 3093 
Q 1294 3584 2113 3584 
Q 2378 3584 2631 3529 
Q 2884 3475 3122 3366 
z
" id="DejaVuSans-63" transform="scale(0.015625)"/>
       <path d="M 3597 1894 
L 3597 1613 
L 953 1613 
Q 991 1019 1311 708 
Q 1631 397 2203 397 
Q 2534 397 2845 478 
Q 3156 559 3463 722 
L 3463 178 
Q 3153 47 2828 -22 
Q 2503 -91 2169 -91 
Q 1331 -91 842 396 
Q 353 884 353 1716 
Q 353 2575 817 3079 
Q 1281 3584 2069 3584 
Q 2775 3584 3186 3129 
Q 3597 2675 3597 1894 
z
M 3022 2063 
Q 3016 2534 2758 2815 
Q 2500 3097 2075 3097 
Q 1594 3097 1305 2825 
Q 1016 2553 972 2059 
L 3022 2063 
z
" id="DejaVuSans-65" transform="scale(0.015625)"/>
       <path d="M 603 4863 
L 1178 4863 
L 1178 0 
L 603 0 
L 603 4863 
z
" id="DejaVuSans-6c" transform="scale(0.015625)"/>
       <path d="M 2834 3397 
L 2834 2853 
Q 2591 2978 2328 3040 
Q 2066 3103 1784 3103 
Q 1356 3103 1142 2972 
Q 928 2841 928 2578 
Q 928 2378 1081 2264 
Q 1234 2150 1697 2047 
L 1894 2003 
Q 2506 1872 2764 1633 
Q 3022 1394 3022 966 
Q 3022 478 2636 193 
Q 2250 -91 1575 -91 
Q 1294 -91 989 -36 
Q 684 19 347 128 
L 347 722 
Q 666 556 975 473 
Q 1284 391 1588 391 
Q 1994 391 2212 530 
Q 2431 669 2431 922 
Q 2431 1156 2273 1281 
Q 2116 1406 1581 1522 
L 1381 1569 
Q 847 1681 609 1914 
Q 372 2147 372 2553 
Q 372 3047 722 3315 
Q 1072 3584 1716 3584 
Q 2034 3584 2315 3537 
Q 2597 3491 2834 3397 
z
" id="DejaVuSans-73" transform="scale(0.015625)"/>
      </defs>
      <use xlink:href="#DejaVuSans-6e"/>
      <use x="63.378906" xlink:href="#DejaVuSans-5f"/>
      <use x="113.378906" xlink:href="#DejaVuSans-63"/>
      <use x="168.359375" xlink:href="#DejaVuSans-65"/>
      <use x="229.882812" xlink:href="#DejaVuSans-6c"/>
      <use x="257.666016" xlink:href="#DejaVuSans-6c"/>
      <use x="285.449219" xlink:href="#DejaVuSans-73"/>
     </g>
    </g>
   </g>
   <g id="matplotlib.axis_2">
    <g id="ytick_1">
     <g id="line2d_4">
      <path clip-path="url(#pe28825f534)" d="M 50.140937 175.052197 
L 269.200937 175.052197 
" style="fill:none;stroke:#cccccc;stroke-linecap:round;"/>
     </g>
     <g id="text_5">
      <!-- 0.2 -->
      <g style="fill:#262626;" transform="translate(23.1475 179.231338)scale(0.11 -0.11)">
       <defs>
        <path d="M 684 794 
L 1344 794 
L 1344 0 
L 684 0 
L 684 794 
z
" id="DejaVuSans-2e" transform="scale(0.015625)"/>
       </defs>
       <use xlink:href="#DejaVuSans-30"/>
       <use x="63.623047" xlink:href="#DejaVuSans-2e"/>
       <use x="95.410156" xlink:href="#DejaVuSans-32"/>
      </g>
     </g>
    </g>
    <g id="ytick_2">
     <g id="line2d_5">
      <path clip-path="url(#pe28825f534)" d="M 50.140937 134.733781 
L 269.200937 134.733781 
" style="fill:none;stroke:#cccccc;stroke-linecap:round;"/>
     </g>
     <g id="text_6">
      <!-- 0.4 -->
      <g style="fill:#262626;" transform="translate(23.1475 138.912921)scale(0.11 -0.11)">
       <use xlink:href="#DejaVuSans-30"/>
       <use x="63.623047" xlink:href="#DejaVuSans-2e"/>
       <use x="95.410156" xlink:href="#DejaVuSans-34"/>
      </g>
     </g>
    </g>
    <g id="ytick_3">
     <g id="line2d_6">
      <path clip-path="url(#pe28825f534)" d="M 50.140937 94.415364 
L 269.200937 94.415364 
" style="fill:none;stroke:#cccccc;stroke-linecap:round;"/>
     </g>
     <g id="text_7">
      <!-- 0.6 -->
      <g style="fill:#262626;" transform="translate(23.1475 98.594505)scale(0.11 -0.11)">
       <use xlink:href="#DejaVuSans-30"/>
       <use x="63.623047" xlink:href="#DejaVuSans-2e"/>
       <use x="95.410156" xlink:href="#DejaVuSans-36"/>
      </g>
     </g>
    </g>
    <g id="ytick_4">
     <g id="line2d_7">
      <path clip-path="url(#pe28825f534)" d="M 50.140937 54.096948 
L 269.200937 54.096948 
" style="fill:none;stroke:#cccccc;stroke-linecap:round;"/>
     </g>
     <g id="text_8">
      <!-- 0.8 -->
      <g style="fill:#262626;" transform="translate(23.1475 58.276088)scale(0.11 -0.11)">
       <defs>
        <path d="M 2034 2216 
Q 1584 2216 1326 1975 
Q 1069 1734 1069 1313 
Q 1069 891 1326 650 
Q 1584 409 2034 409 
Q 2484 409 2743 651 
Q 3003 894 3003 1313 
Q 3003 1734 2745 1975 
Q 2488 2216 2034 2216 
z
M 1403 2484 
Q 997 2584 770 2862 
Q 544 3141 544 3541 
Q 544 4100 942 4425 
Q 1341 4750 2034 4750 
Q 2731 4750 3128 4425 
Q 3525 4100 3525 3541 
Q 3525 3141 3298 2862 
Q 3072 2584 2669 2484 
Q 3125 2378 3379 2068 
Q 3634 1759 3634 1313 
Q 3634 634 3220 271 
Q 2806 -91 2034 -91 
Q 1263 -91 848 271 
Q 434 634 434 1313 
Q 434 1759 690 2068 
Q 947 2378 1403 2484 
z
M 1172 3481 
Q 1172 3119 1398 2916 
Q 1625 2713 2034 2713 
Q 2441 2713 2670 2916 
Q 2900 3119 2900 3481 
Q 2900 3844 2670 4047 
Q 2441 4250 2034 4250 
Q 1625 4250 1398 4047 
Q 1172 3844 1172 3481 
z
" id="DejaVuSans-38" transform="scale(0.015625)"/>
       </defs>
       <use xlink:href="#DejaVuSans-30"/>
       <use x="63.623047" xlink:href="#DejaVuSans-2e"/>
       <use x="95.410156" xlink:href="#DejaVuSans-38"/>
      </g>
     </g>
    </g>
    <g id="ytick_5">
     <g id="line2d_8">
      <path clip-path="url(#pe28825f534)" d="M 50.140937 13.778531 
L 269.200937 13.778531 
" style="fill:none;stroke:#cccccc;stroke-linecap:round;"/>
     </g>
     <g id="text_9">
      <!-- 1.0 -->
      <g style="fill:#262626;" transform="translate(23.1475 17.957672)scale(0.11 -0.11)">
       <defs>
        <path d="M 794 531 
L 1825 531 
L 1825 4091 
L 703 3866 
L 703 4441 
L 1819 4666 
L 2450 4666 
L 2450 531 
L 3481 531 
L 3481 0 
L 794 0 
L 794 531 
z
" id="DejaVuSans-31" transform="scale(0.015625)"/>
       </defs>
       <use xlink:href="#DejaVuSans-31"/>
       <use x="63.623047" xlink:href="#DejaVuSans-2e"/>
       <use x="95.410156" xlink:href="#DejaVuSans-30"/>
      </g>
     </g>
    </g>
    <g id="text_10">
     <!-- Dupl_rate -->
     <g style="fill:#262626;" transform="translate(16.318125 139.085938)rotate(-90)scale(0.12 -0.12)">
      <defs>
       <path d="M 1259 4147 
L 1259 519 
L 2022 519 
Q 2988 519 3436 956 
Q 3884 1394 3884 2338 
Q 3884 3275 3436 3711 
Q 2988 4147 2022 4147 
L 1259 4147 
z
M 628 4666 
L 1925 4666 
Q 3281 4666 3915 4102 
Q 4550 3538 4550 2338 
Q 4550 1131 3912 565 
Q 3275 0 1925 0 
L 628 0 
L 628 4666 
z
" id="DejaVuSans-44" transform="scale(0.015625)"/>
       <path d="M 544 1381 
L 544 3500 
L 1119 3500 
L 1119 1403 
Q 1119 906 1312 657 
Q 1506 409 1894 409 
Q 2359 409 2629 706 
Q 2900 1003 2900 1516 
L 2900 3500 
L 3475 3500 
L 3475 0 
L 2900 0 
L 2900 538 
Q 2691 219 2414 64 
Q 2138 -91 1772 -91 
Q 1169 -91 856 284 
Q 544 659 544 1381 
z
M 1991 3584 
L 1991 3584 
z
" id="DejaVuSans-75" transform="scale(0.015625)"/>
       <path d="M 1159 525 
L 1159 -1331 
L 581 -1331 
L 581 3500 
L 1159 3500 
L 1159 2969 
Q 1341 3281 1617 3432 
Q 1894 3584 2278 3584 
Q 2916 3584 3314 3078 
Q 3713 2572 3713 1747 
Q 3713 922 3314 415 
Q 2916 -91 2278 -91 
Q 1894 -91 1617 61 
Q 1341 213 1159 525 
z
M 3116 1747 
Q 3116 2381 2855 2742 
Q 2594 3103 2138 3103 
Q 1681 3103 1420 2742 
Q 1159 2381 1159 1747 
Q 1159 1113 1420 752 
Q 1681 391 2138 391 
Q 2594 391 2855 752 
Q 3116 1113 3116 1747 
z
" id="DejaVuSans-70" transform="scale(0.015625)"/>
       <path d="M 2631 2963 
Q 2534 3019 2420 3045 
Q 2306 3072 2169 3072 
Q 1681 3072 1420 2755 
Q 1159 2438 1159 1844 
L 1159 0 
L 581 0 
L 581 3500 
L 1159 3500 
L 1159 2956 
Q 1341 3275 1631 3429 
Q 1922 3584 2338 3584 
Q 2397 3584 2469 3576 
Q 2541 3569 2628 3553 
L 2631 2963 
z
" id="DejaVuSans-72" transform="scale(0.015625)"/>
       <path d="M 2194 1759 
Q 1497 1759 1228 1600 
Q 959 1441 959 1056 
Q 959 750 1161 570 
Q 1363 391 1709 391 
Q 2188 391 2477 730 
Q 2766 1069 2766 1631 
L 2766 1759 
L 2194 1759 
z
M 3341 1997 
L 3341 0 
L 2766 0 
L 2766 531 
Q 2569 213 2275 61 
Q 1981 -91 1556 -91 
Q 1019 -91 701 211 
Q 384 513 384 1019 
Q 384 1609 779 1909 
Q 1175 2209 1959 2209 
L 2766 2209 
L 2766 2266 
Q 2766 2663 2505 2880 
Q 2244 3097 1772 3097 
Q 1472 3097 1187 3025 
Q 903 2953 641 2809 
L 641 3341 
Q 956 3463 1253 3523 
Q 1550 3584 1831 3584 
Q 2591 3584 2966 3190 
Q 3341 2797 3341 1997 
z
" id="DejaVuSans-61" transform="scale(0.015625)"/>
       <path d="M 1172 4494 
L 1172 3500 
L 2356 3500 
L 2356 3053 
L 1172 3053 
L 1172 1153 
Q 1172 725 1289 603 
Q 1406 481 1766 481 
L 2356 481 
L 2356 0 
L 1766 0 
Q 1100 0 847 248 
Q 594 497 594 1153 
L 594 3053 
L 172 3053 
L 172 3500 
L 594 3500 
L 594 4494 
L 1172 4494 
z
" id="DejaVuSans-74" transform="scale(0.015625)"/>
      </defs>
      <use xlink:href="#DejaVuSans-44"/>
      <use x="77.001953" xlink:href="#DejaVuSans-75"/>
      <use x="140.380859" xlink:href="#DejaVuSans-70"/>
      <use x="203.857422" xlink:href="#DejaVuSans-6c"/>
      <use x="231.640625" xlink:href="#DejaVuSans-5f"/>
      <use x="281.640625" xlink:href="#DejaVuSans-72"/>
      <use x="322.753906" xlink:href="#DejaVuSans-61"/>
      <use x="384.033203" xlink:href="#DejaVuSans-74"/>
      <use x="423.242188" xlink:href="#DejaVuSans-65"/>
     </g>
    </g>
   </g>
   <g id="PolyCollection_1">
    <defs>
     <path d="M 60.09821 -187.636144 
L 60.09821 -74.253661 
L 62.10978 -75.748639 
L 64.121351 -77.250101 
L 66.132921 -78.751563 
L 68.144491 -80.203197 
L 70.156061 -81.749558 
L 72.167632 -83.244956 
L 74.179202 -84.432532 
L 76.190772 -85.842446 
L 78.202342 -86.933561 
L 80.213913 -88.568619 
L 82.225483 -90.069187 
L 84.237053 -91.481637 
L 86.248623 -92.773198 
L 88.260194 -94.048003 
L 90.271764 -95.229341 
L 92.283334 -96.220706 
L 94.294904 -97.678118 
L 96.306475 -98.582266 
L 98.318045 -99.398642 
L 100.329615 -100.234978 
L 102.341185 -101.257332 
L 104.352756 -101.498684 
L 106.364326 -102.505032 
L 108.375896 -103.024339 
L 110.387466 -103.380371 
L 112.399037 -104.303316 
L 114.410607 -104.756764 
L 116.422177 -105.201565 
L 118.433747 -105.605183 
L 120.445318 -105.947742 
L 122.456888 -106.067581 
L 124.468458 -106.296858 
L 126.480028 -106.536377 
L 128.491599 -106.845088 
L 130.503169 -107.022276 
L 132.514739 -107.189593 
L 134.526309 -107.365033 
L 136.53788 -107.679675 
L 138.54945 -107.722739 
L 140.56102 -107.838596 
L 142.57259 -108.064069 
L 144.584161 -108.014426 
L 146.595731 -107.97797 
L 148.607301 -107.95259 
L 150.618871 -107.819842 
L 152.630442 -107.69695 
L 154.642012 -107.676789 
L 156.653582 -107.734284 
L 158.665152 -107.777632 
L 160.676723 -107.669337 
L 162.688293 -107.435113 
L 164.699863 -107.57537 
L 166.711433 -107.493 
L 168.723004 -107.323594 
L 170.734574 -107.327621 
L 172.746144 -106.571576 
L 174.757714 -106.273884 
L 176.769285 -105.850956 
L 178.780855 -105.779271 
L 180.792425 -105.269935 
L 182.803995 -104.266808 
L 184.815566 -103.272263 
L 186.827136 -103.043705 
L 188.838706 -102.908033 
L 190.850276 -102.228239 
L 192.861847 -101.459442 
L 194.873417 -100.728283 
L 196.884987 -99.98716 
L 198.896557 -99.466699 
L 200.908128 -99.037627 
L 202.919698 -98.562658 
L 204.931268 -97.391549 
L 206.942838 -96.632451 
L 208.954409 -95.727059 
L 210.965979 -94.759137 
L 212.977549 -93.87491 
L 214.989119 -93.251182 
L 217.00069 -92.494507 
L 219.01226 -91.197963 
L 221.02383 -90.988631 
L 223.0354 -90.276406 
L 225.046971 -89.524389 
L 227.058541 -88.772372 
L 229.070111 -88.020356 
L 231.081681 -87.268339 
L 233.093252 -86.518907 
L 235.104822 -85.655052 
L 237.116392 -84.494384 
L 239.127962 -83.333715 
L 241.139533 -82.303799 
L 243.151103 -81.536146 
L 245.162673 -80.749179 
L 247.174243 -79.522043 
L 249.185814 -78.296598 
L 251.197384 -77.074738 
L 253.208954 -75.852877 
L 255.220524 -74.672201 
L 257.232095 -73.705965 
L 259.243665 -72.75022 
L 259.243665 -243.343608 
L 259.243665 -243.343608 
L 257.232095 -241.608508 
L 255.220524 -239.873409 
L 253.208954 -238.138309 
L 251.197384 -236.520974 
L 249.185814 -234.995502 
L 247.174243 -233.47003 
L 245.162673 -231.944558 
L 243.151103 -230.437764 
L 241.139533 -229.095855 
L 239.127962 -227.366787 
L 237.116392 -225.853985 
L 235.104822 -224.443454 
L 233.093252 -223.032923 
L 231.081681 -221.487786 
L 229.070111 -219.904531 
L 227.058541 -218.439316 
L 225.046971 -217.050583 
L 223.0354 -215.660446 
L 221.02383 -214.359952 
L 219.01226 -212.878858 
L 217.00069 -211.319222 
L 214.989119 -209.940369 
L 212.977549 -208.646938 
L 210.965979 -207.324153 
L 208.954409 -205.73909 
L 206.942838 -203.854193 
L 204.931268 -201.953624 
L 202.919698 -200.074791 
L 200.908128 -198.404619 
L 198.896557 -196.879158 
L 196.884987 -195.311361 
L 194.873417 -193.725593 
L 192.861847 -192.139824 
L 190.850276 -190.095239 
L 188.838706 -188.59525 
L 186.827136 -187.223417 
L 184.815566 -185.787793 
L 182.803995 -184.491975 
L 180.792425 -183.04736 
L 178.780855 -181.35478 
L 176.769285 -179.942259 
L 174.757714 -178.592485 
L 172.746144 -177.073353 
L 170.734574 -175.528743 
L 168.723004 -173.822923 
L 166.711433 -172.3925 
L 164.699863 -170.962078 
L 162.688293 -169.451078 
L 160.676723 -168.112176 
L 158.665152 -167.386257 
L 156.653582 -165.896208 
L 154.642012 -164.348455 
L 152.630442 -162.944443 
L 150.618871 -162.287559 
L 148.607301 -160.71998 
L 146.595731 -159.687983 
L 144.584161 -158.242422 
L 142.57259 -157.393761 
L 140.56102 -156.577236 
L 138.54945 -156.659681 
L 136.53788 -155.824269 
L 134.526309 -156.223878 
L 132.514739 -156.988822 
L 130.503169 -156.340496 
L 128.491599 -156.829399 
L 126.480028 -157.845376 
L 124.468458 -158.51559 
L 122.456888 -159.398312 
L 120.445318 -159.545494 
L 118.433747 -160.463755 
L 116.422177 -161.379095 
L 114.410607 -162.316885 
L 112.399037 -163.892074 
L 110.387466 -164.787251 
L 108.375896 -165.486174 
L 106.364326 -166.000487 
L 104.352756 -166.911121 
L 102.341185 -167.833391 
L 100.329615 -168.992526 
L 98.318045 -169.983417 
L 96.306475 -170.73234 
L 94.294904 -171.52589 
L 92.283334 -172.446791 
L 90.271764 -173.367691 
L 88.260194 -174.288592 
L 86.248623 -175.209492 
L 84.237053 -176.130393 
L 82.225483 -177.051293 
L 80.213913 -178.160126 
L 78.202342 -179.105058 
L 76.190772 -180.005262 
L 74.179202 -180.900439 
L 72.167632 -181.795616 
L 70.156061 -182.690793 
L 68.144491 -183.58597 
L 66.132921 -184.481148 
L 64.121351 -185.504198 
L 62.10978 -186.727807 
L 60.09821 -187.636144 
z
" id="mf9de988ac2" style="stroke:#ffffff;stroke-opacity:0.15;"/>
    </defs>
    <g clip-path="url(#pe28825f534)">
     <use style="fill:#4c72b0;fill-opacity:0.15;stroke:#ffffff;stroke-opacity:0.15;" x="0" xlink:href="#mf9de988ac2" y="259.889063"/>
    </g>
   </g>
   <g id="PathCollection_1">
    <defs>
     <path d="M 0 2.236068 
C 0.593012 2.236068 1.161816 2.000462 1.581139 1.581139 
C 2.000462 1.161816 2.236068 0.593012 2.236068 -0 
C 2.236068 -0.593012 2.000462 -1.161816 1.581139 -1.581139 
C 1.161816 -2.000462 0.593012 -2.236068 0 -2.236068 
C -0.593012 -2.236068 -1.161816 -2.000462 -1.581139 -1.581139 
C -2.000462 -1.161816 -2.236068 -0.593012 -2.236068 0 
C -2.236068 0.593012 -2.000462 1.161816 -1.581139 1.581139 
C -1.161816 2.000462 -0.593012 2.236068 0 2.236068 
z
" id="C0_0_25daf97938"/>
    </defs>
    <g clip-path="url(#pe28825f534)">
     <use style="fill:#1f77b4;" x="60.09821" xlink:href="#C0_0_25daf97938" y="186.189769"/>
    </g>
    <g clip-path="url(#pe28825f534)">
     <use style="fill:#aec7e8;" x="81.33698" xlink:href="#C0_0_25daf97938" y="164.882288"/>
    </g>
    <g clip-path="url(#pe28825f534)">
     <use style="fill:#ff7f0e;" x="125.477797" xlink:href="#C0_0_25daf97938" y="147.099097"/>
    </g>
    <g clip-path="url(#pe28825f534)">
     <use style="fill:#ffbb78;" x="259.243665" xlink:href="#C0_0_25daf97938" y="163.869478"/>
    </g>
    <g clip-path="url(#pe28825f534)">
     <use style="fill:#2ca02c;" x="117.481272" xlink:href="#C0_0_25daf97938" y="114.51264"/>
    </g>
    <g clip-path="url(#pe28825f534)">
     <use style="fill:#98df8a;" x="117.737161" xlink:href="#C0_0_25daf97938" y="111.567995"/>
    </g>
    <g clip-path="url(#pe28825f534)">
     <use style="fill:#d62728;" x="130.499615" xlink:href="#C0_0_25daf97938" y="162.417741"/>
    </g>
    <g clip-path="url(#pe28825f534)">
     <use style="fill:#ff9896;" x="151.482496" xlink:href="#C0_0_25daf97938" y="162.103977"/>
    </g>
    <g clip-path="url(#pe28825f534)">
     <use style="fill:#9467bd;" x="144.957332" xlink:href="#C0_0_25daf97938" y="124.522239"/>
    </g>
    <g clip-path="url(#pe28825f534)">
     <use style="fill:#c5b0d5;" x="139.871542" xlink:href="#C0_0_25daf97938" y="122.596472"/>
    </g>
    <g clip-path="url(#pe28825f534)">
     <use style="fill:#8c564b;" x="162.485714" xlink:href="#C0_0_25daf97938" y="82.993411"/>
    </g>
    <g clip-path="url(#pe28825f534)">
     <use style="fill:#c49c94;" x="159.351077" xlink:href="#C0_0_25daf97938" y="83.823998"/>
    </g>
    <g clip-path="url(#pe28825f534)">
     <use style="fill:#e377c2;" x="108.269276" xlink:href="#C0_0_25daf97938" y="53.568688"/>
    </g>
    <g clip-path="url(#pe28825f534)">
     <use style="fill:#f7b6d2;" x="118.600786" xlink:href="#C0_0_25daf97938" y="61.61283"/>
    </g>
    <g clip-path="url(#pe28825f534)">
     <use style="fill:#7f7f7f;" x="134.657808" xlink:href="#C0_0_25daf97938" y="203.454545"/>
    </g>
   </g>
   <g id="PathCollection_2"/>
   <g id="PathCollection_3"/>
   <g id="PathCollection_4"/>
   <g id="PathCollection_5"/>
   <g id="PathCollection_6"/>
   <g id="PathCollection_7"/>
   <g id="PathCollection_8"/>
   <g id="PathCollection_9"/>
   <g id="PathCollection_10"/>
   <g id="PathCollection_11"/>
   <g id="PathCollection_12"/>
   <g id="PathCollection_13"/>
   <g id="PathCollection_14"/>
   <g id="PathCollection_15"/>
   <g id="PathCollection_16"/>
   <g id="line2d_9">
    <path clip-path="url(#pe28825f534)" d="M 60.09821 130.856434 
L 62.10978 130.824485 
L 64.121351 130.792535 
L 66.132921 130.760585 
L 68.144491 130.728635 
L 70.156061 130.696686 
L 72.167632 130.664736 
L 74.179202 130.632786 
L 76.190772 130.600836 
L 78.202342 130.568887 
L 80.213913 130.536937 
L 82.225483 130.504987 
L 84.237053 130.473038 
L 86.248623 130.441088 
L 88.260194 130.409138 
L 90.271764 130.377188 
L 92.283334 130.345239 
L 94.294904 130.313289 
L 96.306475 130.281339 
L 98.318045 130.249389 
L 100.329615 130.21744 
L 102.341185 130.18549 
L 104.352756 130.15354 
L 106.364326 130.12159 
L 108.375896 130.089641 
L 110.387466 130.057691 
L 112.399037 130.025741 
L 114.410607 129.993791 
L 116.422177 129.961842 
L 118.433747 129.929892 
L 120.445318 129.897942 
L 122.456888 129.865992 
L 124.468458 129.834043 
L 126.480028 129.802093 
L 128.491599 129.770143 
L 130.503169 129.738193 
L 132.514739 129.706244 
L 134.526309 129.674294 
L 136.53788 129.642344 
L 138.54945 129.610394 
L 140.56102 129.578445 
L 142.57259 129.546495 
L 144.584161 129.514545 
L 146.595731 129.482595 
L 148.607301 129.450646 
L 150.618871 129.418696 
L 152.630442 129.386746 
L 154.642012 129.354797 
L 156.653582 129.322847 
L 158.665152 129.290897 
L 160.676723 129.258947 
L 162.688293 129.226998 
L 164.699863 129.195048 
L 166.711433 129.163098 
L 168.723004 129.131148 
L 170.734574 129.099199 
L 172.746144 129.067249 
L 174.757714 129.035299 
L 176.769285 129.003349 
L 178.780855 128.9714 
L 180.792425 128.93945 
L 182.803995 128.9075 
L 184.815566 128.87555 
L 186.827136 128.843601 
L 188.838706 128.811651 
L 190.850276 128.779701 
L 192.861847 128.747751 
L 194.873417 128.715802 
L 196.884987 128.683852 
L 198.896557 128.651902 
L 200.908128 128.619952 
L 202.919698 128.588003 
L 204.931268 128.556053 
L 206.942838 128.524103 
L 208.954409 128.492153 
L 210.965979 128.460204 
L 212.977549 128.428254 
L 214.989119 128.396304 
L 217.00069 128.364354 
L 219.01226 128.332405 
L 221.02383 128.300455 
L 223.0354 128.268505 
L 225.046971 128.236556 
L 227.058541 128.204606 
L 229.070111 128.172656 
L 231.081681 128.140706 
L 233.093252 128.108757 
L 235.104822 128.076807 
L 237.116392 128.044857 
L 239.127962 128.012907 
L 241.139533 127.980958 
L 243.151103 127.949008 
L 245.162673 127.917058 
L 247.174243 127.885108 
L 249.185814 127.853159 
L 251.197384 127.821209 
L 253.208954 127.789259 
L 255.220524 127.757309 
L 257.232095 127.72536 
L 259.243665 127.69341 
" style="fill:none;stroke:#4c72b0;stroke-linecap:round;stroke-width:2.25;"/>
   </g>
   <g id="patch_3">
    <path d="M 50.140937 212.8 
L 50.140937 7.2 
" style="fill:none;stroke:#333333;stroke-linecap:square;stroke-linejoin:miter;stroke-width:1.25;"/>
   </g>
   <g id="patch_4">
    <path d="M 269.200937 212.8 
L 269.200937 7.2 
" style="fill:none;stroke:#333333;stroke-linecap:square;stroke-linejoin:miter;stroke-width:1.25;"/>
   </g>
   <g id="patch_5">
    <path d="M 50.140937 212.8 
L 269.200937 212.8 
" style="fill:none;stroke:#333333;stroke-linecap:square;stroke-linejoin:miter;stroke-width:1.25;"/>
   </g>
   <g id="patch_6">
    <path d="M 50.140937 7.2 
L 269.200937 7.2 
" style="fill:none;stroke:#333333;stroke-linecap:square;stroke-linejoin:miter;stroke-width:1.25;"/>
   </g>
   <g id="legend_1">
    <g id="patch_7">
     <path d="M 282.353937 252.689063 
L 403.152844 252.689063 
Q 405.352844 252.689063 405.352844 250.489063 
L 405.352844 9.4 
Q 405.352844 7.2 403.152844 7.2 
L 282.353937 7.2 
Q 280.153937 7.2 280.153937 9.4 
L 280.153937 250.489063 
Q 280.153937 252.689063 282.353937 252.689063 
z
" style="fill:#ffffff;opacity:0.8;stroke:#cccccc;stroke-linejoin:miter;"/>
    </g>
    <g id="PathCollection_17">
     <defs>
      <path d="M 0 3 
C 0.795609 3 1.55874 2.683901 2.12132 2.12132 
C 2.683901 1.55874 3 0.795609 3 0 
C 3 -0.795609 2.683901 -1.55874 2.12132 -2.12132 
C 1.55874 -2.683901 0.795609 -3 0 -3 
C -0.795609 -3 -1.55874 -2.683901 -2.12132 -2.12132 
C -2.683901 -1.55874 -3 -0.795609 -3 0 
C -3 0.795609 -2.683901 1.55874 -2.12132 2.12132 
C -1.55874 2.683901 -0.795609 3 0 3 
z
" id="m139fe1949c" style="stroke:#1f77b4;"/>
     </defs>
     <g>
      <use style="fill:#1f77b4;stroke:#1f77b4;" x="295.553937" xlink:href="#m139fe1949c" y="17.070781"/>
     </g>
    </g>
    <g id="text_11">
     <!-- 10x ATAC A1 -->
     <g style="fill:#262626;" transform="translate(315.353937 19.958281)scale(0.11 -0.11)">
      <defs>
       <path d="M 3513 3500 
L 2247 1797 
L 3578 0 
L 2900 0 
L 1881 1375 
L 863 0 
L 184 0 
L 1544 1831 
L 300 3500 
L 978 3500 
L 1906 2253 
L 2834 3500 
L 3513 3500 
z
" id="DejaVuSans-78" transform="scale(0.015625)"/>
       <path id="DejaVuSans-20" transform="scale(0.015625)"/>
       <path d="M 2188 4044 
L 1331 1722 
L 3047 1722 
L 2188 4044 
z
M 1831 4666 
L 2547 4666 
L 4325 0 
L 3669 0 
L 3244 1197 
L 1141 1197 
L 716 0 
L 50 0 
L 1831 4666 
z
" id="DejaVuSans-41" transform="scale(0.015625)"/>
       <path d="M -19 4666 
L 3928 4666 
L 3928 4134 
L 2272 4134 
L 2272 0 
L 1638 0 
L 1638 4134 
L -19 4134 
L -19 4666 
z
" id="DejaVuSans-54" transform="scale(0.015625)"/>
       <path d="M 4122 4306 
L 4122 3641 
Q 3803 3938 3442 4084 
Q 3081 4231 2675 4231 
Q 1875 4231 1450 3742 
Q 1025 3253 1025 2328 
Q 1025 1406 1450 917 
Q 1875 428 2675 428 
Q 3081 428 3442 575 
Q 3803 722 4122 1019 
L 4122 359 
Q 3791 134 3420 21 
Q 3050 -91 2638 -91 
Q 1578 -91 968 557 
Q 359 1206 359 2328 
Q 359 3453 968 4101 
Q 1578 4750 2638 4750 
Q 3056 4750 3426 4639 
Q 3797 4528 4122 4306 
z
" id="DejaVuSans-43" transform="scale(0.015625)"/>
      </defs>
      <use xlink:href="#DejaVuSans-31"/>
      <use x="63.623047" xlink:href="#DejaVuSans-30"/>
      <use x="127.246094" xlink:href="#DejaVuSans-78"/>
      <use x="186.425781" xlink:href="#DejaVuSans-20"/>
      <use x="218.212891" xlink:href="#DejaVuSans-41"/>
      <use x="278.871094" xlink:href="#DejaVuSans-54"/>
      <use x="332.205078" xlink:href="#DejaVuSans-41"/>
      <use x="398.863281" xlink:href="#DejaVuSans-43"/>
      <use x="468.6875" xlink:href="#DejaVuSans-20"/>
      <use x="500.474609" xlink:href="#DejaVuSans-41"/>
      <use x="568.882812" xlink:href="#DejaVuSans-31"/>
     </g>
    </g>
    <g id="PathCollection_18">
     <defs>
      <path d="M 0 3 
C 0.795609 3 1.55874 2.683901 2.12132 2.12132 
C 2.683901 1.55874 3 0.795609 3 0 
C 3 -0.795609 2.683901 -1.55874 2.12132 -2.12132 
C 1.55874 -2.683901 0.795609 -3 0 -3 
C -0.795609 -3 -1.55874 -2.683901 -2.12132 -2.12132 
C -2.683901 -1.55874 -3 -0.795609 -3 0 
C -3 0.795609 -2.683901 1.55874 -2.12132 2.12132 
C -1.55874 2.683901 -0.795609 3 0 3 
z
" id="m11098ef122" style="stroke:#aec7e8;"/>
     </defs>
     <g>
      <use style="fill:#aec7e8;stroke:#aec7e8;" x="295.553937" xlink:href="#m11098ef122" y="33.216719"/>
     </g>
    </g>
    <g id="text_12">
     <!-- 10x ATAC A2 -->
     <g style="fill:#262626;" transform="translate(315.353937 36.104219)scale(0.11 -0.11)">
      <use xlink:href="#DejaVuSans-31"/>
      <use x="63.623047" xlink:href="#DejaVuSans-30"/>
      <use x="127.246094" xlink:href="#DejaVuSans-78"/>
      <use x="186.425781" xlink:href="#DejaVuSans-20"/>
      <use x="218.212891" xlink:href="#DejaVuSans-41"/>
      <use x="278.871094" xlink:href="#DejaVuSans-54"/>
      <use x="332.205078" xlink:href="#DejaVuSans-41"/>
      <use x="398.863281" xlink:href="#DejaVuSans-43"/>
      <use x="468.6875" xlink:href="#DejaVuSans-20"/>
      <use x="500.474609" xlink:href="#DejaVuSans-41"/>
      <use x="568.882812" xlink:href="#DejaVuSans-32"/>
     </g>
    </g>
    <g id="PathCollection_19">
     <defs>
      <path d="M 0 3 
C 0.795609 3 1.55874 2.683901 2.12132 2.12132 
C 2.683901 1.55874 3 0.795609 3 0 
C 3 -0.795609 2.683901 -1.55874 2.12132 -2.12132 
C 1.55874 -2.683901 0.795609 -3 0 -3 
C -0.795609 -3 -1.55874 -2.683901 -2.12132 -2.12132 
C -2.683901 -1.55874 -3 -0.795609 -3 0 
C -3 0.795609 -2.683901 1.55874 -2.12132 2.12132 
C -1.55874 2.683901 -0.795609 3 0 3 
z
" id="m3c45cdf8b3" style="stroke:#ff7f0e;"/>
     </defs>
     <g>
      <use style="fill:#ff7f0e;stroke:#ff7f0e;" x="295.553937" xlink:href="#m3c45cdf8b3" y="49.362656"/>
     </g>
    </g>
    <g id="text_13">
     <!-- 10x ATAC B1 -->
     <g style="fill:#262626;" transform="translate(315.353937 52.250156)scale(0.11 -0.11)">
      <defs>
       <path d="M 1259 2228 
L 1259 519 
L 2272 519 
Q 2781 519 3026 730 
Q 3272 941 3272 1375 
Q 3272 1813 3026 2020 
Q 2781 2228 2272 2228 
L 1259 2228 
z
M 1259 4147 
L 1259 2741 
L 2194 2741 
Q 2656 2741 2882 2914 
Q 3109 3088 3109 3444 
Q 3109 3797 2882 3972 
Q 2656 4147 2194 4147 
L 1259 4147 
z
M 628 4666 
L 2241 4666 
Q 2963 4666 3353 4366 
Q 3744 4066 3744 3513 
Q 3744 3084 3544 2831 
Q 3344 2578 2956 2516 
Q 3422 2416 3680 2098 
Q 3938 1781 3938 1306 
Q 3938 681 3513 340 
Q 3088 0 2303 0 
L 628 0 
L 628 4666 
z
" id="DejaVuSans-42" transform="scale(0.015625)"/>
      </defs>
      <use xlink:href="#DejaVuSans-31"/>
      <use x="63.623047" xlink:href="#DejaVuSans-30"/>
      <use x="127.246094" xlink:href="#DejaVuSans-78"/>
      <use x="186.425781" xlink:href="#DejaVuSans-20"/>
      <use x="218.212891" xlink:href="#DejaVuSans-41"/>
      <use x="278.871094" xlink:href="#DejaVuSans-54"/>
      <use x="332.205078" xlink:href="#DejaVuSans-41"/>
      <use x="398.863281" xlink:href="#DejaVuSans-43"/>
      <use x="468.6875" xlink:href="#DejaVuSans-20"/>
      <use x="500.474609" xlink:href="#DejaVuSans-42"/>
      <use x="569.078125" xlink:href="#DejaVuSans-31"/>
     </g>
    </g>
    <g id="PathCollection_20">
     <defs>
      <path d="M 0 3 
C 0.795609 3 1.55874 2.683901 2.12132 2.12132 
C 2.683901 1.55874 3 0.795609 3 0 
C 3 -0.795609 2.683901 -1.55874 2.12132 -2.12132 
C 1.55874 -2.683901 0.795609 -3 0 -3 
C -0.795609 -3 -1.55874 -2.683901 -2.12132 -2.12132 
C -2.683901 -1.55874 -3 -0.795609 -3 0 
C -3 0.795609 -2.683901 1.55874 -2.12132 2.12132 
C -1.55874 2.683901 -0.795609 3 0 3 
z
" id="m6eb74b0759" style="stroke:#ffbb78;"/>
     </defs>
     <g>
      <use style="fill:#ffbb78;stroke:#ffbb78;" x="295.553937" xlink:href="#m6eb74b0759" y="65.508594"/>
     </g>
    </g>
    <g id="text_14">
     <!-- 10x ATAC B2 -->
     <g style="fill:#262626;" transform="translate(315.353937 68.396094)scale(0.11 -0.11)">
      <use xlink:href="#DejaVuSans-31"/>
      <use x="63.623047" xlink:href="#DejaVuSans-30"/>
      <use x="127.246094" xlink:href="#DejaVuSans-78"/>
      <use x="186.425781" xlink:href="#DejaVuSans-20"/>
      <use x="218.212891" xlink:href="#DejaVuSans-41"/>
      <use x="278.871094" xlink:href="#DejaVuSans-54"/>
      <use x="332.205078" xlink:href="#DejaVuSans-41"/>
      <use x="398.863281" xlink:href="#DejaVuSans-43"/>
      <use x="468.6875" xlink:href="#DejaVuSans-20"/>
      <use x="500.474609" xlink:href="#DejaVuSans-42"/>
      <use x="569.078125" xlink:href="#DejaVuSans-32"/>
     </g>
    </g>
    <g id="PathCollection_21">
     <defs>
      <path d="M 0 3 
C 0.795609 3 1.55874 2.683901 2.12132 2.12132 
C 2.683901 1.55874 3 0.795609 3 0 
C 3 -0.795609 2.683901 -1.55874 2.12132 -2.12132 
C 1.55874 -2.683901 0.795609 -3 0 -3 
C -0.795609 -3 -1.55874 -2.683901 -2.12132 -2.12132 
C -2.683901 -1.55874 -3 -0.795609 -3 0 
C -3 0.795609 -2.683901 1.55874 -2.12132 2.12132 
C -1.55874 2.683901 -0.795609 3 0 3 
z
" id="md7ad2a2c48" style="stroke:#2ca02c;"/>
     </defs>
     <g>
      <use style="fill:#2ca02c;stroke:#2ca02c;" x="295.553937" xlink:href="#md7ad2a2c48" y="81.654531"/>
     </g>
    </g>
    <g id="text_15">
     <!-- 10x ATAC C1 -->
     <g style="fill:#262626;" transform="translate(315.353937 84.542031)scale(0.11 -0.11)">
      <use xlink:href="#DejaVuSans-31"/>
      <use x="63.623047" xlink:href="#DejaVuSans-30"/>
      <use x="127.246094" xlink:href="#DejaVuSans-78"/>
      <use x="186.425781" xlink:href="#DejaVuSans-20"/>
      <use x="218.212891" xlink:href="#DejaVuSans-41"/>
      <use x="278.871094" xlink:href="#DejaVuSans-54"/>
      <use x="332.205078" xlink:href="#DejaVuSans-41"/>
      <use x="398.863281" xlink:href="#DejaVuSans-43"/>
      <use x="468.6875" xlink:href="#DejaVuSans-20"/>
      <use x="500.474609" xlink:href="#DejaVuSans-43"/>
      <use x="570.298828" xlink:href="#DejaVuSans-31"/>
     </g>
    </g>
    <g id="PathCollection_22">
     <defs>
      <path d="M 0 3 
C 0.795609 3 1.55874 2.683901 2.12132 2.12132 
C 2.683901 1.55874 3 0.795609 3 0 
C 3 -0.795609 2.683901 -1.55874 2.12132 -2.12132 
C 1.55874 -2.683901 0.795609 -3 0 -3 
C -0.795609 -3 -1.55874 -2.683901 -2.12132 -2.12132 
C -2.683901 -1.55874 -3 -0.795609 -3 0 
C -3 0.795609 -2.683901 1.55874 -2.12132 2.12132 
C -1.55874 2.683901 -0.795609 3 0 3 
z
" id="ma913b8cd1f" style="stroke:#98df8a;"/>
     </defs>
     <g>
      <use style="fill:#98df8a;stroke:#98df8a;" x="295.553937" xlink:href="#ma913b8cd1f" y="97.800469"/>
     </g>
    </g>
    <g id="text_16">
     <!-- 10x ATAC C2 -->
     <g style="fill:#262626;" transform="translate(315.353937 100.687969)scale(0.11 -0.11)">
      <use xlink:href="#DejaVuSans-31"/>
      <use x="63.623047" xlink:href="#DejaVuSans-30"/>
      <use x="127.246094" xlink:href="#DejaVuSans-78"/>
      <use x="186.425781" xlink:href="#DejaVuSans-20"/>
      <use x="218.212891" xlink:href="#DejaVuSans-41"/>
      <use x="278.871094" xlink:href="#DejaVuSans-54"/>
      <use x="332.205078" xlink:href="#DejaVuSans-41"/>
      <use x="398.863281" xlink:href="#DejaVuSans-43"/>
      <use x="468.6875" xlink:href="#DejaVuSans-20"/>
      <use x="500.474609" xlink:href="#DejaVuSans-43"/>
      <use x="570.298828" xlink:href="#DejaVuSans-32"/>
     </g>
    </g>
    <g id="PathCollection_23">
     <defs>
      <path d="M 0 3 
C 0.795609 3 1.55874 2.683901 2.12132 2.12132 
C 2.683901 1.55874 3 0.795609 3 0 
C 3 -0.795609 2.683901 -1.55874 2.12132 -2.12132 
C 1.55874 -2.683901 0.795609 -3 0 -3 
C -0.795609 -3 -1.55874 -2.683901 -2.12132 -2.12132 
C -2.683901 -1.55874 -3 -0.795609 -3 0 
C -3 0.795609 -2.683901 1.55874 -2.12132 2.12132 
C -1.55874 2.683901 -0.795609 3 0 3 
z
" id="m6bf86ee3f9" style="stroke:#d62728;"/>
     </defs>
     <g>
      <use style="fill:#d62728;stroke:#d62728;" x="295.553937" xlink:href="#m6bf86ee3f9" y="113.946406"/>
     </g>
    </g>
    <g id="text_17">
     <!-- 10x Multiome 1 -->
     <g style="fill:#262626;" transform="translate(315.353937 116.833906)scale(0.11 -0.11)">
      <defs>
       <path d="M 628 4666 
L 1569 4666 
L 2759 1491 
L 3956 4666 
L 4897 4666 
L 4897 0 
L 4281 0 
L 4281 4097 
L 3078 897 
L 2444 897 
L 1241 4097 
L 1241 0 
L 628 0 
L 628 4666 
z
" id="DejaVuSans-4d" transform="scale(0.015625)"/>
       <path d="M 603 3500 
L 1178 3500 
L 1178 0 
L 603 0 
L 603 3500 
z
M 603 4863 
L 1178 4863 
L 1178 4134 
L 603 4134 
L 603 4863 
z
" id="DejaVuSans-69" transform="scale(0.015625)"/>
       <path d="M 1959 3097 
Q 1497 3097 1228 2736 
Q 959 2375 959 1747 
Q 959 1119 1226 758 
Q 1494 397 1959 397 
Q 2419 397 2687 759 
Q 2956 1122 2956 1747 
Q 2956 2369 2687 2733 
Q 2419 3097 1959 3097 
z
M 1959 3584 
Q 2709 3584 3137 3096 
Q 3566 2609 3566 1747 
Q 3566 888 3137 398 
Q 2709 -91 1959 -91 
Q 1206 -91 779 398 
Q 353 888 353 1747 
Q 353 2609 779 3096 
Q 1206 3584 1959 3584 
z
" id="DejaVuSans-6f" transform="scale(0.015625)"/>
       <path d="M 3328 2828 
Q 3544 3216 3844 3400 
Q 4144 3584 4550 3584 
Q 5097 3584 5394 3201 
Q 5691 2819 5691 2113 
L 5691 0 
L 5113 0 
L 5113 2094 
Q 5113 2597 4934 2840 
Q 4756 3084 4391 3084 
Q 3944 3084 3684 2787 
Q 3425 2491 3425 1978 
L 3425 0 
L 2847 0 
L 2847 2094 
Q 2847 2600 2669 2842 
Q 2491 3084 2119 3084 
Q 1678 3084 1418 2786 
Q 1159 2488 1159 1978 
L 1159 0 
L 581 0 
L 581 3500 
L 1159 3500 
L 1159 2956 
Q 1356 3278 1631 3431 
Q 1906 3584 2284 3584 
Q 2666 3584 2933 3390 
Q 3200 3197 3328 2828 
z
" id="DejaVuSans-6d" transform="scale(0.015625)"/>
      </defs>
      <use xlink:href="#DejaVuSans-31"/>
      <use x="63.623047" xlink:href="#DejaVuSans-30"/>
      <use x="127.246094" xlink:href="#DejaVuSans-78"/>
      <use x="186.425781" xlink:href="#DejaVuSans-20"/>
      <use x="218.212891" xlink:href="#DejaVuSans-4d"/>
      <use x="304.492188" xlink:href="#DejaVuSans-75"/>
      <use x="367.871094" xlink:href="#DejaVuSans-6c"/>
      <use x="395.654297" xlink:href="#DejaVuSans-74"/>
      <use x="434.863281" xlink:href="#DejaVuSans-69"/>
      <use x="462.646484" xlink:href="#DejaVuSans-6f"/>
      <use x="523.828125" xlink:href="#DejaVuSans-6d"/>
      <use x="621.240234" xlink:href="#DejaVuSans-65"/>
      <use x="682.763672" xlink:href="#DejaVuSans-20"/>
      <use x="714.550781" xlink:href="#DejaVuSans-31"/>
     </g>
    </g>
    <g id="PathCollection_24">
     <defs>
      <path d="M 0 3 
C 0.795609 3 1.55874 2.683901 2.12132 2.12132 
C 2.683901 1.55874 3 0.795609 3 0 
C 3 -0.795609 2.683901 -1.55874 2.12132 -2.12132 
C 1.55874 -2.683901 0.795609 -3 0 -3 
C -0.795609 -3 -1.55874 -2.683901 -2.12132 -2.12132 
C -2.683901 -1.55874 -3 -0.795609 -3 0 
C -3 0.795609 -2.683901 1.55874 -2.12132 2.12132 
C -1.55874 2.683901 -0.795609 3 0 3 
z
" id="m1f25757ae8" style="stroke:#ff9896;"/>
     </defs>
     <g>
      <use style="fill:#ff9896;stroke:#ff9896;" x="295.553937" xlink:href="#m1f25757ae8" y="130.092344"/>
     </g>
    </g>
    <g id="text_18">
     <!-- 10x Multiome 2 -->
     <g style="fill:#262626;" transform="translate(315.353937 132.979844)scale(0.11 -0.11)">
      <use xlink:href="#DejaVuSans-31"/>
      <use x="63.623047" xlink:href="#DejaVuSans-30"/>
      <use x="127.246094" xlink:href="#DejaVuSans-78"/>
      <use x="186.425781" xlink:href="#DejaVuSans-20"/>
      <use x="218.212891" xlink:href="#DejaVuSans-4d"/>
      <use x="304.492188" xlink:href="#DejaVuSans-75"/>
      <use x="367.871094" xlink:href="#DejaVuSans-6c"/>
      <use x="395.654297" xlink:href="#DejaVuSans-74"/>
      <use x="434.863281" xlink:href="#DejaVuSans-69"/>
      <use x="462.646484" xlink:href="#DejaVuSans-6f"/>
      <use x="523.828125" xlink:href="#DejaVuSans-6d"/>
      <use x="621.240234" xlink:href="#DejaVuSans-65"/>
      <use x="682.763672" xlink:href="#DejaVuSans-20"/>
      <use x="714.550781" xlink:href="#DejaVuSans-32"/>
     </g>
    </g>
    <g id="PathCollection_25">
     <defs>
      <path d="M 0 3 
C 0.795609 3 1.55874 2.683901 2.12132 2.12132 
C 2.683901 1.55874 3 0.795609 3 0 
C 3 -0.795609 2.683901 -1.55874 2.12132 -2.12132 
C 1.55874 -2.683901 0.795609 -3 0 -3 
C -0.795609 -3 -1.55874 -2.683901 -2.12132 -2.12132 
C -2.683901 -1.55874 -3 -0.795609 -3 0 
C -3 0.795609 -2.683901 1.55874 -2.12132 2.12132 
C -1.55874 2.683901 -0.795609 3 0 3 
z
" id="mf69db473c5" style="stroke:#9467bd;"/>
     </defs>
     <g>
      <use style="fill:#9467bd;stroke:#9467bd;" x="295.553937" xlink:href="#mf69db473c5" y="146.238281"/>
     </g>
    </g>
    <g id="text_19">
     <!-- 10x mtATAC 1 -->
     <g style="fill:#262626;" transform="translate(315.353937 149.125781)scale(0.11 -0.11)">
      <use xlink:href="#DejaVuSans-31"/>
      <use x="63.623047" xlink:href="#DejaVuSans-30"/>
      <use x="127.246094" xlink:href="#DejaVuSans-78"/>
      <use x="186.425781" xlink:href="#DejaVuSans-20"/>
      <use x="218.212891" xlink:href="#DejaVuSans-6d"/>
      <use x="315.625" xlink:href="#DejaVuSans-74"/>
      <use x="354.833984" xlink:href="#DejaVuSans-41"/>
      <use x="415.492188" xlink:href="#DejaVuSans-54"/>
      <use x="468.826172" xlink:href="#DejaVuSans-41"/>
      <use x="535.484375" xlink:href="#DejaVuSans-43"/>
      <use x="605.308594" xlink:href="#DejaVuSans-20"/>
      <use x="637.095703" xlink:href="#DejaVuSans-31"/>
     </g>
    </g>
    <g id="PathCollection_26">
     <defs>
      <path d="M 0 3 
C 0.795609 3 1.55874 2.683901 2.12132 2.12132 
C 2.683901 1.55874 3 0.795609 3 0 
C 3 -0.795609 2.683901 -1.55874 2.12132 -2.12132 
C 1.55874 -2.683901 0.795609 -3 0 -3 
C -0.795609 -3 -1.55874 -2.683901 -2.12132 -2.12132 
C -2.683901 -1.55874 -3 -0.795609 -3 0 
C -3 0.795609 -2.683901 1.55874 -2.12132 2.12132 
C -1.55874 2.683901 -0.795609 3 0 3 
z
" id="mf771252873" style="stroke:#c5b0d5;"/>
     </defs>
     <g>
      <use style="fill:#c5b0d5;stroke:#c5b0d5;" x="295.553937" xlink:href="#mf771252873" y="162.384219"/>
     </g>
    </g>
    <g id="text_20">
     <!-- 10x mtATAC 2 -->
     <g style="fill:#262626;" transform="translate(315.353937 165.271719)scale(0.11 -0.11)">
      <use xlink:href="#DejaVuSans-31"/>
      <use x="63.623047" xlink:href="#DejaVuSans-30"/>
      <use x="127.246094" xlink:href="#DejaVuSans-78"/>
      <use x="186.425781" xlink:href="#DejaVuSans-20"/>
      <use x="218.212891" xlink:href="#DejaVuSans-6d"/>
      <use x="315.625" xlink:href="#DejaVuSans-74"/>
      <use x="354.833984" xlink:href="#DejaVuSans-41"/>
      <use x="415.492188" xlink:href="#DejaVuSans-54"/>
      <use x="468.826172" xlink:href="#DejaVuSans-41"/>
      <use x="535.484375" xlink:href="#DejaVuSans-43"/>
      <use x="605.308594" xlink:href="#DejaVuSans-20"/>
      <use x="637.095703" xlink:href="#DejaVuSans-32"/>
     </g>
    </g>
    <g id="PathCollection_27">
     <defs>
      <path d="M 0 3 
C 0.795609 3 1.55874 2.683901 2.12132 2.12132 
C 2.683901 1.55874 3 0.795609 3 0 
C 3 -0.795609 2.683901 -1.55874 2.12132 -2.12132 
C 1.55874 -2.683901 0.795609 -3 0 -3 
C -0.795609 -3 -1.55874 -2.683901 -2.12132 -2.12132 
C -2.683901 -1.55874 -3 -0.795609 -3 0 
C -3 0.795609 -2.683901 1.55874 -2.12132 2.12132 
C -1.55874 2.683901 -0.795609 3 0 3 
z
" id="m676eebdf71" style="stroke:#8c564b;"/>
     </defs>
     <g>
      <use style="fill:#8c564b;stroke:#8c564b;" x="295.553937" xlink:href="#m676eebdf71" y="178.530156"/>
     </g>
    </g>
    <g id="text_21">
     <!-- BioRad ATAC 1 -->
     <g style="fill:#262626;" transform="translate(315.353937 181.417656)scale(0.11 -0.11)">
      <defs>
       <path d="M 2841 2188 
Q 3044 2119 3236 1894 
Q 3428 1669 3622 1275 
L 4263 0 
L 3584 0 
L 2988 1197 
Q 2756 1666 2539 1819 
Q 2322 1972 1947 1972 
L 1259 1972 
L 1259 0 
L 628 0 
L 628 4666 
L 2053 4666 
Q 2853 4666 3247 4331 
Q 3641 3997 3641 3322 
Q 3641 2881 3436 2590 
Q 3231 2300 2841 2188 
z
M 1259 4147 
L 1259 2491 
L 2053 2491 
Q 2509 2491 2742 2702 
Q 2975 2913 2975 3322 
Q 2975 3731 2742 3939 
Q 2509 4147 2053 4147 
L 1259 4147 
z
" id="DejaVuSans-52" transform="scale(0.015625)"/>
       <path d="M 2906 2969 
L 2906 4863 
L 3481 4863 
L 3481 0 
L 2906 0 
L 2906 525 
Q 2725 213 2448 61 
Q 2172 -91 1784 -91 
Q 1150 -91 751 415 
Q 353 922 353 1747 
Q 353 2572 751 3078 
Q 1150 3584 1784 3584 
Q 2172 3584 2448 3432 
Q 2725 3281 2906 2969 
z
M 947 1747 
Q 947 1113 1208 752 
Q 1469 391 1925 391 
Q 2381 391 2643 752 
Q 2906 1113 2906 1747 
Q 2906 2381 2643 2742 
Q 2381 3103 1925 3103 
Q 1469 3103 1208 2742 
Q 947 2381 947 1747 
z
" id="DejaVuSans-64" transform="scale(0.015625)"/>
      </defs>
      <use xlink:href="#DejaVuSans-42"/>
      <use x="68.603516" xlink:href="#DejaVuSans-69"/>
      <use x="96.386719" xlink:href="#DejaVuSans-6f"/>
      <use x="157.568359" xlink:href="#DejaVuSans-52"/>
      <use x="224.800781" xlink:href="#DejaVuSans-61"/>
      <use x="286.080078" xlink:href="#DejaVuSans-64"/>
      <use x="349.556641" xlink:href="#DejaVuSans-20"/>
      <use x="381.34375" xlink:href="#DejaVuSans-41"/>
      <use x="442.001953" xlink:href="#DejaVuSans-54"/>
      <use x="495.335938" xlink:href="#DejaVuSans-41"/>
      <use x="561.994141" xlink:href="#DejaVuSans-43"/>
      <use x="631.818359" xlink:href="#DejaVuSans-20"/>
      <use x="663.605469" xlink:href="#DejaVuSans-31"/>
     </g>
    </g>
    <g id="PathCollection_28">
     <defs>
      <path d="M 0 3 
C 0.795609 3 1.55874 2.683901 2.12132 2.12132 
C 2.683901 1.55874 3 0.795609 3 0 
C 3 -0.795609 2.683901 -1.55874 2.12132 -2.12132 
C 1.55874 -2.683901 0.795609 -3 0 -3 
C -0.795609 -3 -1.55874 -2.683901 -2.12132 -2.12132 
C -2.683901 -1.55874 -3 -0.795609 -3 0 
C -3 0.795609 -2.683901 1.55874 -2.12132 2.12132 
C -1.55874 2.683901 -0.795609 3 0 3 
z
" id="mfe3100019f" style="stroke:#c49c94;"/>
     </defs>
     <g>
      <use style="fill:#c49c94;stroke:#c49c94;" x="295.553937" xlink:href="#mfe3100019f" y="194.676094"/>
     </g>
    </g>
    <g id="text_22">
     <!-- BioRad ATAC 2 -->
     <g style="fill:#262626;" transform="translate(315.353937 197.563594)scale(0.11 -0.11)">
      <use xlink:href="#DejaVuSans-42"/>
      <use x="68.603516" xlink:href="#DejaVuSans-69"/>
      <use x="96.386719" xlink:href="#DejaVuSans-6f"/>
      <use x="157.568359" xlink:href="#DejaVuSans-52"/>
      <use x="224.800781" xlink:href="#DejaVuSans-61"/>
      <use x="286.080078" xlink:href="#DejaVuSans-64"/>
      <use x="349.556641" xlink:href="#DejaVuSans-20"/>
      <use x="381.34375" xlink:href="#DejaVuSans-41"/>
      <use x="442.001953" xlink:href="#DejaVuSans-54"/>
      <use x="495.335938" xlink:href="#DejaVuSans-41"/>
      <use x="561.994141" xlink:href="#DejaVuSans-43"/>
      <use x="631.818359" xlink:href="#DejaVuSans-20"/>
      <use x="663.605469" xlink:href="#DejaVuSans-32"/>
     </g>
    </g>
    <g id="PathCollection_29">
     <defs>
      <path d="M 0 3 
C 0.795609 3 1.55874 2.683901 2.12132 2.12132 
C 2.683901 1.55874 3 0.795609 3 0 
C 3 -0.795609 2.683901 -1.55874 2.12132 -2.12132 
C 1.55874 -2.683901 0.795609 -3 0 -3 
C -0.795609 -3 -1.55874 -2.683901 -2.12132 -2.12132 
C -2.683901 -1.55874 -3 -0.795609 -3 0 
C -3 0.795609 -2.683901 1.55874 -2.12132 2.12132 
C -1.55874 2.683901 -0.795609 3 0 3 
z
" id="m0974cd56b9" style="stroke:#e377c2;"/>
     </defs>
     <g>
      <use style="fill:#e377c2;stroke:#e377c2;" x="295.553937" xlink:href="#m0974cd56b9" y="210.822031"/>
     </g>
    </g>
    <g id="text_23">
     <!-- Hydrop ATAC 1 -->
     <g style="fill:#262626;" transform="translate(315.353937 213.709531)scale(0.11 -0.11)">
      <defs>
       <path d="M 628 4666 
L 1259 4666 
L 1259 2753 
L 3553 2753 
L 3553 4666 
L 4184 4666 
L 4184 0 
L 3553 0 
L 3553 2222 
L 1259 2222 
L 1259 0 
L 628 0 
L 628 4666 
z
" id="DejaVuSans-48" transform="scale(0.015625)"/>
       <path d="M 2059 -325 
Q 1816 -950 1584 -1140 
Q 1353 -1331 966 -1331 
L 506 -1331 
L 506 -850 
L 844 -850 
Q 1081 -850 1212 -737 
Q 1344 -625 1503 -206 
L 1606 56 
L 191 3500 
L 800 3500 
L 1894 763 
L 2988 3500 
L 3597 3500 
L 2059 -325 
z
" id="DejaVuSans-79" transform="scale(0.015625)"/>
      </defs>
      <use xlink:href="#DejaVuSans-48"/>
      <use x="75.195312" xlink:href="#DejaVuSans-79"/>
      <use x="134.375" xlink:href="#DejaVuSans-64"/>
      <use x="197.851562" xlink:href="#DejaVuSans-72"/>
      <use x="236.714844" xlink:href="#DejaVuSans-6f"/>
      <use x="297.896484" xlink:href="#DejaVuSans-70"/>
      <use x="361.373047" xlink:href="#DejaVuSans-20"/>
      <use x="393.160156" xlink:href="#DejaVuSans-41"/>
      <use x="453.818359" xlink:href="#DejaVuSans-54"/>
      <use x="507.152344" xlink:href="#DejaVuSans-41"/>
      <use x="573.810547" xlink:href="#DejaVuSans-43"/>
      <use x="643.634766" xlink:href="#DejaVuSans-20"/>
      <use x="675.421875" xlink:href="#DejaVuSans-31"/>
     </g>
    </g>
    <g id="PathCollection_30">
     <defs>
      <path d="M 0 3 
C 0.795609 3 1.55874 2.683901 2.12132 2.12132 
C 2.683901 1.55874 3 0.795609 3 0 
C 3 -0.795609 2.683901 -1.55874 2.12132 -2.12132 
C 1.55874 -2.683901 0.795609 -3 0 -3 
C -0.795609 -3 -1.55874 -2.683901 -2.12132 -2.12132 
C -2.683901 -1.55874 -3 -0.795609 -3 0 
C -3 0.795609 -2.683901 1.55874 -2.12132 2.12132 
C -1.55874 2.683901 -0.795609 3 0 3 
z
" id="mb59a8dffa9" style="stroke:#f7b6d2;"/>
     </defs>
     <g>
      <use style="fill:#f7b6d2;stroke:#f7b6d2;" x="295.553937" xlink:href="#mb59a8dffa9" y="226.967969"/>
     </g>
    </g>
    <g id="text_24">
     <!-- Hydrop ATAC 2 -->
     <g style="fill:#262626;" transform="translate(315.353937 229.855469)scale(0.11 -0.11)">
      <use xlink:href="#DejaVuSans-48"/>
      <use x="75.195312" xlink:href="#DejaVuSans-79"/>
      <use x="134.375" xlink:href="#DejaVuSans-64"/>
      <use x="197.851562" xlink:href="#DejaVuSans-72"/>
      <use x="236.714844" xlink:href="#DejaVuSans-6f"/>
      <use x="297.896484" xlink:href="#DejaVuSans-70"/>
      <use x="361.373047" xlink:href="#DejaVuSans-20"/>
      <use x="393.160156" xlink:href="#DejaVuSans-41"/>
      <use x="453.818359" xlink:href="#DejaVuSans-54"/>
      <use x="507.152344" xlink:href="#DejaVuSans-41"/>
      <use x="573.810547" xlink:href="#DejaVuSans-43"/>
      <use x="643.634766" xlink:href="#DejaVuSans-20"/>
      <use x="675.421875" xlink:href="#DejaVuSans-32"/>
     </g>
    </g>
    <g id="PathCollection_31">
     <defs>
      <path d="M 0 3 
C 0.795609 3 1.55874 2.683901 2.12132 2.12132 
C 2.683901 1.55874 3 0.795609 3 0 
C 3 -0.795609 2.683901 -1.55874 2.12132 -2.12132 
C 1.55874 -2.683901 0.795609 -3 0 -3 
C -0.795609 -3 -1.55874 -2.683901 -2.12132 -2.12132 
C -2.683901 -1.55874 -3 -0.795609 -3 0 
C -3 0.795609 -2.683901 1.55874 -2.12132 2.12132 
C -1.55874 2.683901 -0.795609 3 0 3 
z
" id="m02413eee8d" style="stroke:#7f7f7f;"/>
     </defs>
     <g>
      <use style="fill:#7f7f7f;stroke:#7f7f7f;" x="295.553937" xlink:href="#m02413eee8d" y="243.113906"/>
     </g>
    </g>
    <g id="text_25">
     <!-- s3 ATAC -->
     <g style="fill:#262626;" transform="translate(315.353937 246.001406)scale(0.11 -0.11)">
      <defs>
       <path d="M 2597 2516 
Q 3050 2419 3304 2112 
Q 3559 1806 3559 1356 
Q 3559 666 3084 287 
Q 2609 -91 1734 -91 
Q 1441 -91 1130 -33 
Q 819 25 488 141 
L 488 750 
Q 750 597 1062 519 
Q 1375 441 1716 441 
Q 2309 441 2620 675 
Q 2931 909 2931 1356 
Q 2931 1769 2642 2001 
Q 2353 2234 1838 2234 
L 1294 2234 
L 1294 2753 
L 1863 2753 
Q 2328 2753 2575 2939 
Q 2822 3125 2822 3475 
Q 2822 3834 2567 4026 
Q 2313 4219 1838 4219 
Q 1578 4219 1281 4162 
Q 984 4106 628 3988 
L 628 4550 
Q 988 4650 1302 4700 
Q 1616 4750 1894 4750 
Q 2613 4750 3031 4423 
Q 3450 4097 3450 3541 
Q 3450 3153 3228 2886 
Q 3006 2619 2597 2516 
z
" id="DejaVuSans-33" transform="scale(0.015625)"/>
      </defs>
      <use xlink:href="#DejaVuSans-73"/>
      <use x="52.099609" xlink:href="#DejaVuSans-33"/>
      <use x="115.722656" xlink:href="#DejaVuSans-20"/>
      <use x="147.509766" xlink:href="#DejaVuSans-41"/>
      <use x="208.167969" xlink:href="#DejaVuSans-54"/>
      <use x="261.501953" xlink:href="#DejaVuSans-41"/>
      <use x="328.160156" xlink:href="#DejaVuSans-43"/>
     </g>
    </g>
   </g>
  </g>
 </g>
 <defs>
  <clipPath id="pe28825f534">
   <rect height="205.6" width="219.06" x="50.140937" y="7.2"/>
  </clipPath>
 </defs>
</svg>
