<?xml version="1.0" encoding="utf-8" standalone="no"?>
<!DOCTYPE svg PUBLIC "-//W3C//DTD SVG 1.1//EN"
  "http://www.w3.org/Graphics/SVG/1.1/DTD/svg11.dtd">
<svg height="276.033437pt" version="1.1" viewBox="0 0 412.552844 276.033437" width="412.552844pt" xmlns="http://www.w3.org/2000/svg" xmlns:xlink="http://www.w3.org/1999/xlink">
 <metadata>
  <rdf:RDF xmlns:cc="http://creativecommons.org/ns#" xmlns:dc="http://purl.org/dc/elements/1.1/" xmlns:rdf="http://www.w3.org/1999/02/22-rdf-syntax-ns#">
   <cc:Work>
    <dc:type rdf:resource="http://purl.org/dc/dcmitype/StillImage"/>
    <dc:date>2021-12-14T16:10:49.598196</dc:date>
    <dc:format>image/svg+xml</dc:format>
    <dc:creator>
     <cc:Agent>
      <dc:title>Matplotlib v3.4.3, https://matplotlib.org/</dc:title>
     </cc:Agent>
    </dc:creator>
   </cc:Work>
  </rdf:RDF>
 </metadata>
 <defs>
  <style type="text/css">*{stroke-linecap:butt;stroke-linejoin:round;}</style>
 </defs>
 <g id="figure_1">
  <g id="patch_1">
   <path d="M 0 276.033437 
L 412.552844 276.033437 
L 412.552844 0 
L 0 0 
z
" style="fill:#ffffff;"/>
  </g>
  <g id="axes_1">
   <g id="patch_2">
    <path d="M 50.140937 232.74 
L 269.200937 232.74 
L 269.200937 7.2 
L 50.140937 7.2 
z
" style="fill:#ffffff;"/>
   </g>
   <g id="matplotlib.axis_1">
    <g id="xtick_1">
     <g id="line2d_1">
      <path clip-path="url(#p4ab5c25212)" d="M 101.616167 232.74 
L 101.616167 7.2 
" style="fill:none;stroke:#cccccc;stroke-linecap:round;"/>
     </g>
     <g id="text_1">
      <!-- 2000 -->
      <g style="fill:#262626;" transform="translate(87.618667 250.598281)scale(0.11 -0.11)">
       <defs>
        <path d="M 1228 531 
L 3431 531 
L 3431 0 
L 469 0 
L 469 531 
Q 828 903 1448 1529 
Q 2069 2156 2228 2338 
Q 2531 2678 2651 2914 
Q 2772 3150 2772 3378 
Q 2772 3750 2511 3984 
Q 2250 4219 1831 4219 
Q 1534 4219 1204 4116 
Q 875 4013 500 3803 
L 500 4441 
Q 881 4594 1212 4672 
Q 1544 4750 1819 4750 
Q 2544 4750 2975 4387 
Q 3406 4025 3406 3419 
Q 3406 3131 3298 2873 
Q 3191 2616 2906 2266 
Q 2828 2175 2409 1742 
Q 1991 1309 1228 531 
z
" id="DejaVuSans-32" transform="scale(0.015625)"/>
        <path d="M 2034 4250 
Q 1547 4250 1301 3770 
Q 1056 3291 1056 2328 
Q 1056 1369 1301 889 
Q 1547 409 2034 409 
Q 2525 409 2770 889 
Q 3016 1369 3016 2328 
Q 3016 3291 2770 3770 
Q 2525 4250 2034 4250 
z
M 2034 4750 
Q 2819 4750 3233 4129 
Q 3647 3509 3647 2328 
Q 3647 1150 3233 529 
Q 2819 -91 2034 -91 
Q 1250 -91 836 529 
Q 422 1150 422 2328 
Q 422 3509 836 4129 
Q 1250 4750 2034 4750 
z
" id="DejaVuSans-30" transform="scale(0.015625)"/>
       </defs>
       <use xlink:href="#DejaVuSans-32"/>
       <use x="63.623047" xlink:href="#DejaVuSans-30"/>
       <use x="127.246094" xlink:href="#DejaVuSans-30"/>
       <use x="190.869141" xlink:href="#DejaVuSans-30"/>
      </g>
     </g>
    </g>
    <g id="xtick_2">
     <g id="line2d_2">
      <path clip-path="url(#p4ab5c25212)" d="M 165.588366 232.74 
L 165.588366 7.2 
" style="fill:none;stroke:#cccccc;stroke-linecap:round;"/>
     </g>
     <g id="text_2">
      <!-- 4000 -->
      <g style="fill:#262626;" transform="translate(151.590866 250.598281)scale(0.11 -0.11)">
       <defs>
        <path d="M 2419 4116 
L 825 1625 
L 2419 1625 
L 2419 4116 
z
M 2253 4666 
L 3047 4666 
L 3047 1625 
L 3713 1625 
L 3713 1100 
L 3047 1100 
L 3047 0 
L 2419 0 
L 2419 1100 
L 313 1100 
L 313 1709 
L 2253 4666 
z
" id="DejaVuSans-34" transform="scale(0.015625)"/>
       </defs>
       <use xlink:href="#DejaVuSans-34"/>
       <use x="63.623047" xlink:href="#DejaVuSans-30"/>
       <use x="127.246094" xlink:href="#DejaVuSans-30"/>
       <use x="190.869141" xlink:href="#DejaVuSans-30"/>
      </g>
     </g>
    </g>
    <g id="xtick_3">
     <g id="line2d_3">
      <path clip-path="url(#p4ab5c25212)" d="M 229.560565 232.74 
L 229.560565 7.2 
" style="fill:none;stroke:#cccccc;stroke-linecap:round;"/>
     </g>
     <g id="text_3">
      <!-- 6000 -->
      <g style="fill:#262626;" transform="translate(215.563065 250.598281)scale(0.11 -0.11)">
       <defs>
        <path d="M 2113 2584 
Q 1688 2584 1439 2293 
Q 1191 2003 1191 1497 
Q 1191 994 1439 701 
Q 1688 409 2113 409 
Q 2538 409 2786 701 
Q 3034 994 3034 1497 
Q 3034 2003 2786 2293 
Q 2538 2584 2113 2584 
z
M 3366 4563 
L 3366 3988 
Q 3128 4100 2886 4159 
Q 2644 4219 2406 4219 
Q 1781 4219 1451 3797 
Q 1122 3375 1075 2522 
Q 1259 2794 1537 2939 
Q 1816 3084 2150 3084 
Q 2853 3084 3261 2657 
Q 3669 2231 3669 1497 
Q 3669 778 3244 343 
Q 2819 -91 2113 -91 
Q 1303 -91 875 529 
Q 447 1150 447 2328 
Q 447 3434 972 4092 
Q 1497 4750 2381 4750 
Q 2619 4750 2861 4703 
Q 3103 4656 3366 4563 
z
" id="DejaVuSans-36" transform="scale(0.015625)"/>
       </defs>
       <use xlink:href="#DejaVuSans-36"/>
       <use x="63.623047" xlink:href="#DejaVuSans-30"/>
       <use x="127.246094" xlink:href="#DejaVuSans-30"/>
       <use x="190.869141" xlink:href="#DejaVuSans-30"/>
      </g>
     </g>
    </g>
    <g id="text_4">
     <!-- n_cells -->
     <g style="fill:#262626;" transform="translate(139.418125 266.004062)scale(0.12 -0.12)">
      <defs>
       <path d="M 3513 2113 
L 3513 0 
L 2938 0 
L 2938 2094 
Q 2938 2591 2744 2837 
Q 2550 3084 2163 3084 
Q 1697 3084 1428 2787 
Q 1159 2491 1159 1978 
L 1159 0 
L 581 0 
L 581 3500 
L 1159 3500 
L 1159 2956 
Q 1366 3272 1645 3428 
Q 1925 3584 2291 3584 
Q 2894 3584 3203 3211 
Q 3513 2838 3513 2113 
z
" id="DejaVuSans-6e" transform="scale(0.015625)"/>
       <path d="M 3263 -1063 
L 3263 -1509 
L -63 -1509 
L -63 -1063 
L 3263 -1063 
z
" id="DejaVuSans-5f" transform="scale(0.015625)"/>
       <path d="M 3122 3366 
L 3122 2828 
Q 2878 2963 2633 3030 
Q 2388 3097 2138 3097 
Q 1578 3097 1268 2742 
Q 959 2388 959 1747 
Q 959 1106 1268 751 
Q 1578 397 2138 397 
Q 2388 397 2633 464 
Q 2878 531 3122 666 
L 3122 134 
Q 2881 22 2623 -34 
Q 2366 -91 2075 -91 
Q 1284 -91 818 406 
Q 353 903 353 1747 
Q 353 2603 823 3093 
Q 1294 3584 2113 3584 
Q 2378 3584 2631 3529 
Q 2884 3475 3122 3366 
z
" id="DejaVuSans-63" transform="scale(0.015625)"/>
       <path d="M 3597 1894 
L 3597 1613 
L 953 1613 
Q 991 1019 1311 708 
Q 1631 397 2203 397 
Q 2534 397 2845 478 
Q 3156 559 3463 722 
L 3463 178 
Q 3153 47 2828 -22 
Q 2503 -91 2169 -91 
Q 1331 -91 842 396 
Q 353 884 353 1716 
Q 353 2575 817 3079 
Q 1281 3584 2069 3584 
Q 2775 3584 3186 3129 
Q 3597 2675 3597 1894 
z
M 3022 2063 
Q 3016 2534 2758 2815 
Q 2500 3097 2075 3097 
Q 1594 3097 1305 2825 
Q 1016 2553 972 2059 
L 3022 2063 
z
" id="DejaVuSans-65" transform="scale(0.015625)"/>
       <path d="M 603 4863 
L 1178 4863 
L 1178 0 
L 603 0 
L 603 4863 
z
" id="DejaVuSans-6c" transform="scale(0.015625)"/>
       <path d="M 2834 3397 
L 2834 2853 
Q 2591 2978 2328 3040 
Q 2066 3103 1784 3103 
Q 1356 3103 1142 2972 
Q 928 2841 928 2578 
Q 928 2378 1081 2264 
Q 1234 2150 1697 2047 
L 1894 2003 
Q 2506 1872 2764 1633 
Q 3022 1394 3022 966 
Q 3022 478 2636 193 
Q 2250 -91 1575 -91 
Q 1294 -91 989 -36 
Q 684 19 347 128 
L 347 722 
Q 666 556 975 473 
Q 1284 391 1588 391 
Q 1994 391 2212 530 
Q 2431 669 2431 922 
Q 2431 1156 2273 1281 
Q 2116 1406 1581 1522 
L 1381 1569 
Q 847 1681 609 1914 
Q 372 2147 372 2553 
Q 372 3047 722 3315 
Q 1072 3584 1716 3584 
Q 2034 3584 2315 3537 
Q 2597 3491 2834 3397 
z
" id="DejaVuSans-73" transform="scale(0.015625)"/>
      </defs>
      <use xlink:href="#DejaVuSans-6e"/>
      <use x="63.378906" xlink:href="#DejaVuSans-5f"/>
      <use x="113.378906" xlink:href="#DejaVuSans-63"/>
      <use x="168.359375" xlink:href="#DejaVuSans-65"/>
      <use x="229.882812" xlink:href="#DejaVuSans-6c"/>
      <use x="257.666016" xlink:href="#DejaVuSans-6c"/>
      <use x="285.449219" xlink:href="#DejaVuSans-73"/>
     </g>
    </g>
   </g>
   <g id="matplotlib.axis_2">
    <g id="ytick_1">
     <g id="line2d_4">
      <path clip-path="url(#p4ab5c25212)" d="M 50.140937 205.016177 
L 269.200937 205.016177 
" style="fill:none;stroke:#cccccc;stroke-linecap:round;"/>
     </g>
     <g id="text_5">
      <!-- 3.8 -->
      <g style="fill:#262626;" transform="translate(23.1475 209.195318)scale(0.11 -0.11)">
       <defs>
        <path d="M 2597 2516 
Q 3050 2419 3304 2112 
Q 3559 1806 3559 1356 
Q 3559 666 3084 287 
Q 2609 -91 1734 -91 
Q 1441 -91 1130 -33 
Q 819 25 488 141 
L 488 750 
Q 750 597 1062 519 
Q 1375 441 1716 441 
Q 2309 441 2620 675 
Q 2931 909 2931 1356 
Q 2931 1769 2642 2001 
Q 2353 2234 1838 2234 
L 1294 2234 
L 1294 2753 
L 1863 2753 
Q 2328 2753 2575 2939 
Q 2822 3125 2822 3475 
Q 2822 3834 2567 4026 
Q 2313 4219 1838 4219 
Q 1578 4219 1281 4162 
Q 984 4106 628 3988 
L 628 4550 
Q 988 4650 1302 4700 
Q 1616 4750 1894 4750 
Q 2613 4750 3031 4423 
Q 3450 4097 3450 3541 
Q 3450 3153 3228 2886 
Q 3006 2619 2597 2516 
z
" id="DejaVuSans-33" transform="scale(0.015625)"/>
        <path d="M 684 794 
L 1344 794 
L 1344 0 
L 684 0 
L 684 794 
z
" id="DejaVuSans-2e" transform="scale(0.015625)"/>
        <path d="M 2034 2216 
Q 1584 2216 1326 1975 
Q 1069 1734 1069 1313 
Q 1069 891 1326 650 
Q 1584 409 2034 409 
Q 2484 409 2743 651 
Q 3003 894 3003 1313 
Q 3003 1734 2745 1975 
Q 2488 2216 2034 2216 
z
M 1403 2484 
Q 997 2584 770 2862 
Q 544 3141 544 3541 
Q 544 4100 942 4425 
Q 1341 4750 2034 4750 
Q 2731 4750 3128 4425 
Q 3525 4100 3525 3541 
Q 3525 3141 3298 2862 
Q 3072 2584 2669 2484 
Q 3125 2378 3379 2068 
Q 3634 1759 3634 1313 
Q 3634 634 3220 271 
Q 2806 -91 2034 -91 
Q 1263 -91 848 271 
Q 434 634 434 1313 
Q 434 1759 690 2068 
Q 947 2378 1403 2484 
z
M 1172 3481 
Q 1172 3119 1398 2916 
Q 1625 2713 2034 2713 
Q 2441 2713 2670 2916 
Q 2900 3119 2900 3481 
Q 2900 3844 2670 4047 
Q 2441 4250 2034 4250 
Q 1625 4250 1398 4047 
Q 1172 3844 1172 3481 
z
" id="DejaVuSans-38" transform="scale(0.015625)"/>
       </defs>
       <use xlink:href="#DejaVuSans-33"/>
       <use x="63.623047" xlink:href="#DejaVuSans-2e"/>
       <use x="95.410156" xlink:href="#DejaVuSans-38"/>
      </g>
     </g>
    </g>
    <g id="ytick_2">
     <g id="line2d_5">
      <path clip-path="url(#p4ab5c25212)" d="M 50.140937 171.405519 
L 269.200937 171.405519 
" style="fill:none;stroke:#cccccc;stroke-linecap:round;"/>
     </g>
     <g id="text_6">
      <!-- 3.9 -->
      <g style="fill:#262626;" transform="translate(23.1475 175.58466)scale(0.11 -0.11)">
       <defs>
        <path d="M 703 97 
L 703 672 
Q 941 559 1184 500 
Q 1428 441 1663 441 
Q 2288 441 2617 861 
Q 2947 1281 2994 2138 
Q 2813 1869 2534 1725 
Q 2256 1581 1919 1581 
Q 1219 1581 811 2004 
Q 403 2428 403 3163 
Q 403 3881 828 4315 
Q 1253 4750 1959 4750 
Q 2769 4750 3195 4129 
Q 3622 3509 3622 2328 
Q 3622 1225 3098 567 
Q 2575 -91 1691 -91 
Q 1453 -91 1209 -44 
Q 966 3 703 97 
z
M 1959 2075 
Q 2384 2075 2632 2365 
Q 2881 2656 2881 3163 
Q 2881 3666 2632 3958 
Q 2384 4250 1959 4250 
Q 1534 4250 1286 3958 
Q 1038 3666 1038 3163 
Q 1038 2656 1286 2365 
Q 1534 2075 1959 2075 
z
" id="DejaVuSans-39" transform="scale(0.015625)"/>
       </defs>
       <use xlink:href="#DejaVuSans-33"/>
       <use x="63.623047" xlink:href="#DejaVuSans-2e"/>
       <use x="95.410156" xlink:href="#DejaVuSans-39"/>
      </g>
     </g>
    </g>
    <g id="ytick_3">
     <g id="line2d_6">
      <path clip-path="url(#p4ab5c25212)" d="M 50.140937 137.794862 
L 269.200937 137.794862 
" style="fill:none;stroke:#cccccc;stroke-linecap:round;"/>
     </g>
     <g id="text_7">
      <!-- 4.0 -->
      <g style="fill:#262626;" transform="translate(23.1475 141.974002)scale(0.11 -0.11)">
       <use xlink:href="#DejaVuSans-34"/>
       <use x="63.623047" xlink:href="#DejaVuSans-2e"/>
       <use x="95.410156" xlink:href="#DejaVuSans-30"/>
      </g>
     </g>
    </g>
    <g id="ytick_4">
     <g id="line2d_7">
      <path clip-path="url(#p4ab5c25212)" d="M 50.140937 104.184204 
L 269.200937 104.184204 
" style="fill:none;stroke:#cccccc;stroke-linecap:round;"/>
     </g>
     <g id="text_8">
      <!-- 4.1 -->
      <g style="fill:#262626;" transform="translate(23.1475 108.363345)scale(0.11 -0.11)">
       <defs>
        <path d="M 794 531 
L 1825 531 
L 1825 4091 
L 703 3866 
L 703 4441 
L 1819 4666 
L 2450 4666 
L 2450 531 
L 3481 531 
L 3481 0 
L 794 0 
L 794 531 
z
" id="DejaVuSans-31" transform="scale(0.015625)"/>
       </defs>
       <use xlink:href="#DejaVuSans-34"/>
       <use x="63.623047" xlink:href="#DejaVuSans-2e"/>
       <use x="95.410156" xlink:href="#DejaVuSans-31"/>
      </g>
     </g>
    </g>
    <g id="ytick_5">
     <g id="line2d_8">
      <path clip-path="url(#p4ab5c25212)" d="M 50.140937 70.573546 
L 269.200937 70.573546 
" style="fill:none;stroke:#cccccc;stroke-linecap:round;"/>
     </g>
     <g id="text_9">
      <!-- 4.2 -->
      <g style="fill:#262626;" transform="translate(23.1475 74.752687)scale(0.11 -0.11)">
       <use xlink:href="#DejaVuSans-34"/>
       <use x="63.623047" xlink:href="#DejaVuSans-2e"/>
       <use x="95.410156" xlink:href="#DejaVuSans-32"/>
      </g>
     </g>
    </g>
    <g id="ytick_6">
     <g id="line2d_9">
      <path clip-path="url(#p4ab5c25212)" d="M 50.140937 36.962889 
L 269.200937 36.962889 
" style="fill:none;stroke:#cccccc;stroke-linecap:round;"/>
     </g>
     <g id="text_10">
      <!-- 4.3 -->
      <g style="fill:#262626;" transform="translate(23.1475 41.142029)scale(0.11 -0.11)">
       <use xlink:href="#DejaVuSans-34"/>
       <use x="63.623047" xlink:href="#DejaVuSans-2e"/>
       <use x="95.410156" xlink:href="#DejaVuSans-33"/>
      </g>
     </g>
    </g>
    <g id="text_11">
     <!-- Log_unique_nr_frag -->
     <g style="fill:#262626;" transform="translate(16.318125 178.5975)rotate(-90)scale(0.12 -0.12)">
      <defs>
       <path d="M 628 4666 
L 1259 4666 
L 1259 531 
L 3531 531 
L 3531 0 
L 628 0 
L 628 4666 
z
" id="DejaVuSans-4c" transform="scale(0.015625)"/>
       <path d="M 1959 3097 
Q 1497 3097 1228 2736 
Q 959 2375 959 1747 
Q 959 1119 1226 758 
Q 1494 397 1959 397 
Q 2419 397 2687 759 
Q 2956 1122 2956 1747 
Q 2956 2369 2687 2733 
Q 2419 3097 1959 3097 
z
M 1959 3584 
Q 2709 3584 3137 3096 
Q 3566 2609 3566 1747 
Q 3566 888 3137 398 
Q 2709 -91 1959 -91 
Q 1206 -91 779 398 
Q 353 888 353 1747 
Q 353 2609 779 3096 
Q 1206 3584 1959 3584 
z
" id="DejaVuSans-6f" transform="scale(0.015625)"/>
       <path d="M 2906 1791 
Q 2906 2416 2648 2759 
Q 2391 3103 1925 3103 
Q 1463 3103 1205 2759 
Q 947 2416 947 1791 
Q 947 1169 1205 825 
Q 1463 481 1925 481 
Q 2391 481 2648 825 
Q 2906 1169 2906 1791 
z
M 3481 434 
Q 3481 -459 3084 -895 
Q 2688 -1331 1869 -1331 
Q 1566 -1331 1297 -1286 
Q 1028 -1241 775 -1147 
L 775 -588 
Q 1028 -725 1275 -790 
Q 1522 -856 1778 -856 
Q 2344 -856 2625 -561 
Q 2906 -266 2906 331 
L 2906 616 
Q 2728 306 2450 153 
Q 2172 0 1784 0 
Q 1141 0 747 490 
Q 353 981 353 1791 
Q 353 2603 747 3093 
Q 1141 3584 1784 3584 
Q 2172 3584 2450 3431 
Q 2728 3278 2906 2969 
L 2906 3500 
L 3481 3500 
L 3481 434 
z
" id="DejaVuSans-67" transform="scale(0.015625)"/>
       <path d="M 544 1381 
L 544 3500 
L 1119 3500 
L 1119 1403 
Q 1119 906 1312 657 
Q 1506 409 1894 409 
Q 2359 409 2629 706 
Q 2900 1003 2900 1516 
L 2900 3500 
L 3475 3500 
L 3475 0 
L 2900 0 
L 2900 538 
Q 2691 219 2414 64 
Q 2138 -91 1772 -91 
Q 1169 -91 856 284 
Q 544 659 544 1381 
z
M 1991 3584 
L 1991 3584 
z
" id="DejaVuSans-75" transform="scale(0.015625)"/>
       <path d="M 603 3500 
L 1178 3500 
L 1178 0 
L 603 0 
L 603 3500 
z
M 603 4863 
L 1178 4863 
L 1178 4134 
L 603 4134 
L 603 4863 
z
" id="DejaVuSans-69" transform="scale(0.015625)"/>
       <path d="M 947 1747 
Q 947 1113 1208 752 
Q 1469 391 1925 391 
Q 2381 391 2643 752 
Q 2906 1113 2906 1747 
Q 2906 2381 2643 2742 
Q 2381 3103 1925 3103 
Q 1469 3103 1208 2742 
Q 947 2381 947 1747 
z
M 2906 525 
Q 2725 213 2448 61 
Q 2172 -91 1784 -91 
Q 1150 -91 751 415 
Q 353 922 353 1747 
Q 353 2572 751 3078 
Q 1150 3584 1784 3584 
Q 2172 3584 2448 3432 
Q 2725 3281 2906 2969 
L 2906 3500 
L 3481 3500 
L 3481 -1331 
L 2906 -1331 
L 2906 525 
z
" id="DejaVuSans-71" transform="scale(0.015625)"/>
       <path d="M 2631 2963 
Q 2534 3019 2420 3045 
Q 2306 3072 2169 3072 
Q 1681 3072 1420 2755 
Q 1159 2438 1159 1844 
L 1159 0 
L 581 0 
L 581 3500 
L 1159 3500 
L 1159 2956 
Q 1341 3275 1631 3429 
Q 1922 3584 2338 3584 
Q 2397 3584 2469 3576 
Q 2541 3569 2628 3553 
L 2631 2963 
z
" id="DejaVuSans-72" transform="scale(0.015625)"/>
       <path d="M 2375 4863 
L 2375 4384 
L 1825 4384 
Q 1516 4384 1395 4259 
Q 1275 4134 1275 3809 
L 1275 3500 
L 2222 3500 
L 2222 3053 
L 1275 3053 
L 1275 0 
L 697 0 
L 697 3053 
L 147 3053 
L 147 3500 
L 697 3500 
L 697 3744 
Q 697 4328 969 4595 
Q 1241 4863 1831 4863 
L 2375 4863 
z
" id="DejaVuSans-66" transform="scale(0.015625)"/>
       <path d="M 2194 1759 
Q 1497 1759 1228 1600 
Q 959 1441 959 1056 
Q 959 750 1161 570 
Q 1363 391 1709 391 
Q 2188 391 2477 730 
Q 2766 1069 2766 1631 
L 2766 1759 
L 2194 1759 
z
M 3341 1997 
L 3341 0 
L 2766 0 
L 2766 531 
Q 2569 213 2275 61 
Q 1981 -91 1556 -91 
Q 1019 -91 701 211 
Q 384 513 384 1019 
Q 384 1609 779 1909 
Q 1175 2209 1959 2209 
L 2766 2209 
L 2766 2266 
Q 2766 2663 2505 2880 
Q 2244 3097 1772 3097 
Q 1472 3097 1187 3025 
Q 903 2953 641 2809 
L 641 3341 
Q 956 3463 1253 3523 
Q 1550 3584 1831 3584 
Q 2591 3584 2966 3190 
Q 3341 2797 3341 1997 
z
" id="DejaVuSans-61" transform="scale(0.015625)"/>
      </defs>
      <use xlink:href="#DejaVuSans-4c"/>
      <use x="53.962891" xlink:href="#DejaVuSans-6f"/>
      <use x="115.144531" xlink:href="#DejaVuSans-67"/>
      <use x="178.621094" xlink:href="#DejaVuSans-5f"/>
      <use x="228.621094" xlink:href="#DejaVuSans-75"/>
      <use x="292" xlink:href="#DejaVuSans-6e"/>
      <use x="355.378906" xlink:href="#DejaVuSans-69"/>
      <use x="383.162109" xlink:href="#DejaVuSans-71"/>
      <use x="446.638672" xlink:href="#DejaVuSans-75"/>
      <use x="510.017578" xlink:href="#DejaVuSans-65"/>
      <use x="571.541016" xlink:href="#DejaVuSans-5f"/>
      <use x="621.541016" xlink:href="#DejaVuSans-6e"/>
      <use x="684.919922" xlink:href="#DejaVuSans-72"/>
      <use x="726.033203" xlink:href="#DejaVuSans-5f"/>
      <use x="776.033203" xlink:href="#DejaVuSans-66"/>
      <use x="811.238281" xlink:href="#DejaVuSans-72"/>
      <use x="852.351562" xlink:href="#DejaVuSans-61"/>
      <use x="913.630859" xlink:href="#DejaVuSans-67"/>
     </g>
    </g>
   </g>
   <g id="PolyCollection_1">
    <defs>
     <path d="M 60.09821 -137.058413 
L 60.09821 -53.545256 
L 62.10978 -55.614935 
L 64.121351 -57.181789 
L 66.132921 -58.643277 
L 68.144491 -60.628491 
L 70.156061 -62.905601 
L 72.167632 -65.182711 
L 74.179202 -67.45982 
L 76.190772 -69.73693 
L 78.202342 -72.016834 
L 80.213913 -74.254734 
L 82.225483 -76.334309 
L 84.237053 -77.315184 
L 86.248623 -79.270231 
L 88.260194 -81.226884 
L 90.271764 -82.041306 
L 92.283334 -84.16113 
L 94.294904 -86.594323 
L 96.306475 -88.712663 
L 98.318045 -91.139559 
L 100.329615 -92.099223 
L 102.341185 -93.925241 
L 104.352756 -95.29223 
L 106.364326 -96.249827 
L 108.375896 -97.056972 
L 110.387466 -97.929622 
L 112.399037 -98.964614 
L 114.410607 -100.136408 
L 116.422177 -100.563613 
L 118.433747 -101.420719 
L 120.445318 -101.811623 
L 122.456888 -103.378622 
L 124.468458 -104.253955 
L 126.480028 -105.821001 
L 128.491599 -106.19701 
L 130.503169 -106.559963 
L 132.514739 -106.641313 
L 134.526309 -106.812426 
L 136.53788 -106.917489 
L 138.54945 -107.245207 
L 140.56102 -107.586863 
L 142.57259 -108.076244 
L 144.584161 -108.568105 
L 146.595731 -108.590984 
L 148.607301 -108.921981 
L 150.618871 -109.344787 
L 152.630442 -109.589792 
L 154.642012 -109.908994 
L 156.653582 -109.988796 
L 158.665152 -110.078328 
L 160.676723 -110.680218 
L 162.688293 -110.709842 
L 164.699863 -110.776177 
L 166.711433 -110.760858 
L 168.723004 -110.737809 
L 170.734574 -110.709168 
L 172.746144 -110.680528 
L 174.757714 -110.65224 
L 176.769285 -110.648953 
L 178.780855 -111.187453 
L 180.792425 -111.240676 
L 182.803995 -111.150285 
L 184.815566 -110.860882 
L 186.827136 -110.571479 
L 188.838706 -110.51508 
L 190.850276 -110.486349 
L 192.861847 -110.457619 
L 194.873417 -110.428888 
L 196.884987 -110.410181 
L 198.896557 -110.329883 
L 200.908128 -110.125508 
L 202.919698 -109.927744 
L 204.931268 -110.064138 
L 206.942838 -110.200532 
L 208.954409 -109.425077 
L 210.965979 -109.054523 
L 212.977549 -108.851249 
L 214.989119 -108.974584 
L 217.00069 -108.977297 
L 219.01226 -108.696073 
L 221.02383 -108.414849 
L 223.0354 -108.133625 
L 225.046971 -107.852401 
L 227.058541 -107.571177 
L 229.070111 -107.289953 
L 231.081681 -107.008728 
L 233.093252 -106.727504 
L 235.104822 -106.599974 
L 237.116392 -106.509642 
L 239.127962 -106.41931 
L 241.139533 -106.328978 
L 243.151103 -106.238647 
L 245.162673 -106.152628 
L 247.174243 -106.067527 
L 249.185814 -105.982427 
L 251.197384 -105.897327 
L 253.208954 -105.812226 
L 255.220524 -105.727126 
L 257.232095 -105.588542 
L 259.243665 -105.551225 
L 259.243665 -258.581619 
L 259.243665 -258.581619 
L 257.232095 -256.550992 
L 255.220524 -254.520365 
L 253.208954 -252.489738 
L 251.197384 -250.459111 
L 249.185814 -248.478413 
L 247.174243 -246.409028 
L 245.162673 -244.376471 
L 243.151103 -242.349958 
L 241.139533 -240.322306 
L 239.127962 -238.289572 
L 237.116392 -236.256839 
L 235.104822 -234.224106 
L 233.093252 -232.191373 
L 231.081681 -230.050673 
L 229.070111 -227.89613 
L 227.058541 -225.741586 
L 225.046971 -223.607354 
L 223.0354 -221.534955 
L 221.02383 -219.462556 
L 219.01226 -217.390156 
L 217.00069 -215.317757 
L 214.989119 -213.245358 
L 212.977549 -211.172959 
L 210.965979 -209.100559 
L 208.954409 -207.02816 
L 206.942838 -204.955761 
L 204.931268 -202.883362 
L 202.919698 -200.810962 
L 200.908128 -198.738563 
L 198.896557 -196.666164 
L 196.884987 -194.593764 
L 194.873417 -192.521365 
L 192.861847 -190.448966 
L 190.850276 -188.376567 
L 188.838706 -186.304167 
L 186.827136 -184.389988 
L 184.815566 -182.655925 
L 182.803995 -180.921861 
L 180.792425 -179.187797 
L 178.780855 -177.395297 
L 176.769285 -175.710227 
L 174.757714 -174.006263 
L 172.746144 -172.284219 
L 170.734574 -170.562175 
L 168.723004 -168.84013 
L 166.711433 -167.118086 
L 164.699863 -165.396041 
L 162.688293 -163.656258 
L 160.676723 -160.780228 
L 158.665152 -157.578772 
L 156.653582 -156.597695 
L 154.642012 -155.616619 
L 152.630442 -154.628071 
L 150.618871 -152.61913 
L 148.607301 -150.062452 
L 146.595731 -148.62121 
L 144.584161 -147.085972 
L 142.57259 -145.484947 
L 140.56102 -144.535055 
L 138.54945 -143.664421 
L 136.53788 -143.177606 
L 134.526309 -142.315886 
L 132.514739 -141.64061 
L 130.503169 -141.486573 
L 128.491599 -140.883048 
L 126.480028 -140.480722 
L 124.468458 -140.267289 
L 122.456888 -139.945712 
L 120.445318 -139.836087 
L 118.433747 -139.733291 
L 116.422177 -139.630495 
L 114.410607 -139.525033 
L 112.399037 -139.412296 
L 110.387466 -139.130665 
L 108.375896 -139.011416 
L 106.364326 -138.716956 
L 104.352756 -138.48704 
L 102.341185 -138.463889 
L 100.329615 -138.43914 
L 98.318045 -138.3212 
L 96.306475 -138.266897 
L 94.294904 -137.847018 
L 92.283334 -137.672677 
L 90.271764 -137.646112 
L 88.260194 -137.617454 
L 86.248623 -137.588796 
L 84.237053 -137.560137 
L 82.225483 -137.303479 
L 80.213913 -137.301645 
L 78.202342 -137.146133 
L 76.190772 -136.978801 
L 74.179202 -136.883084 
L 72.167632 -137.136262 
L 70.156061 -137.189593 
L 68.144491 -137.086423 
L 66.132921 -136.983253 
L 64.121351 -136.876424 
L 62.10978 -136.769482 
L 60.09821 -137.058413 
z
" id="mdb3d0dffd0" style="stroke:#ffffff;stroke-opacity:0.15;"/>
    </defs>
    <g clip-path="url(#p4ab5c25212)">
     <use style="fill:#4c72b0;fill-opacity:0.15;stroke:#ffffff;stroke-opacity:0.15;" x="0" xlink:href="#mdb3d0dffd0" y="276.033437"/>
    </g>
   </g>
   <g id="PathCollection_1">
    <defs>
     <path d="M 0 2.236068 
C 0.593012 2.236068 1.161816 2.000462 1.581139 1.581139 
C 2.000462 1.161816 2.236068 0.593012 2.236068 -0 
C 2.236068 -0.593012 2.000462 -1.161816 1.581139 -1.581139 
C 1.161816 -2.000462 0.593012 -2.236068 0 -2.236068 
C -0.593012 -2.236068 -1.161816 -2.000462 -1.581139 -1.581139 
C -2.000462 -1.161816 -2.236068 -0.593012 -2.236068 0 
C -2.236068 0.593012 -2.000462 1.161816 -1.581139 1.581139 
C -1.161816 2.000462 -0.593012 2.236068 0 2.236068 
z
" id="C0_0_abd076e4d4"/>
    </defs>
    <g clip-path="url(#p4ab5c25212)">
     <use style="fill:#1f77b4;" x="60.09821" xlink:href="#C0_0_abd076e4d4" y="136.162176"/>
    </g>
    <g clip-path="url(#p4ab5c25212)">
     <use style="fill:#aec7e8;" x="81.33698" xlink:href="#C0_0_abd076e4d4" y="171.034463"/>
    </g>
    <g clip-path="url(#p4ab5c25212)">
     <use style="fill:#ff7f0e;" x="125.477797" xlink:href="#C0_0_abd076e4d4" y="158.551308"/>
    </g>
    <g clip-path="url(#p4ab5c25212)">
     <use style="fill:#ffbb78;" x="259.243665" xlink:href="#C0_0_abd076e4d4" y="138.065155"/>
    </g>
    <g clip-path="url(#p4ab5c25212)">
     <use style="fill:#2ca02c;" x="117.481272" xlink:href="#C0_0_abd076e4d4" y="196.874506"/>
    </g>
    <g clip-path="url(#p4ab5c25212)">
     <use style="fill:#98df8a;" x="117.737161" xlink:href="#C0_0_abd076e4d4" y="187.274837"/>
    </g>
    <g clip-path="url(#p4ab5c25212)">
     <use style="fill:#d62728;" x="130.499615" xlink:href="#C0_0_abd076e4d4" y="135.765465"/>
    </g>
    <g clip-path="url(#p4ab5c25212)">
     <use style="fill:#ff9896;" x="151.482496" xlink:href="#C0_0_abd076e4d4" y="146.454554"/>
    </g>
    <g clip-path="url(#p4ab5c25212)">
     <use style="fill:#9467bd;" x="144.957332" xlink:href="#C0_0_abd076e4d4" y="118.668767"/>
    </g>
    <g clip-path="url(#p4ab5c25212)">
     <use style="fill:#c5b0d5;" x="139.871542" xlink:href="#C0_0_abd076e4d4" y="121.154646"/>
    </g>
   </g>
   <g id="PathCollection_2"/>
   <g id="PathCollection_3"/>
   <g id="PathCollection_4"/>
   <g id="PathCollection_5"/>
   <g id="PathCollection_6"/>
   <g id="PathCollection_7"/>
   <g id="PathCollection_8"/>
   <g id="PathCollection_9"/>
   <g id="PathCollection_10"/>
   <g id="PathCollection_11"/>
   <g id="line2d_10">
    <path clip-path="url(#p4ab5c25212)" d="M 60.09821 161.320395 
L 62.10978 161.034931 
L 64.121351 160.749468 
L 66.132921 160.464004 
L 68.144491 160.178541 
L 70.156061 159.893077 
L 72.167632 159.607614 
L 74.179202 159.32215 
L 76.190772 159.036687 
L 78.202342 158.751224 
L 80.213913 158.46576 
L 82.225483 158.180297 
L 84.237053 157.894833 
L 86.248623 157.60937 
L 88.260194 157.323906 
L 90.271764 157.038443 
L 92.283334 156.752979 
L 94.294904 156.467516 
L 96.306475 156.182052 
L 98.318045 155.896589 
L 100.329615 155.611125 
L 102.341185 155.325662 
L 104.352756 155.040198 
L 106.364326 154.754735 
L 108.375896 154.469272 
L 110.387466 154.183808 
L 112.399037 153.898345 
L 114.410607 153.612881 
L 116.422177 153.327418 
L 118.433747 153.041954 
L 120.445318 152.756491 
L 122.456888 152.471027 
L 124.468458 152.185564 
L 126.480028 151.9001 
L 128.491599 151.614637 
L 130.503169 151.329173 
L 132.514739 151.04371 
L 134.526309 150.758246 
L 136.53788 150.472783 
L 138.54945 150.18732 
L 140.56102 149.901856 
L 142.57259 149.616393 
L 144.584161 149.330929 
L 146.595731 149.045466 
L 148.607301 148.760002 
L 150.618871 148.474539 
L 152.630442 148.189075 
L 154.642012 147.903612 
L 156.653582 147.618148 
L 158.665152 147.332685 
L 160.676723 147.047221 
L 162.688293 146.761758 
L 164.699863 146.476294 
L 166.711433 146.190831 
L 168.723004 145.905368 
L 170.734574 145.619904 
L 172.746144 145.334441 
L 174.757714 145.048977 
L 176.769285 144.763514 
L 178.780855 144.47805 
L 180.792425 144.192587 
L 182.803995 143.907123 
L 184.815566 143.62166 
L 186.827136 143.336196 
L 188.838706 143.050733 
L 190.850276 142.765269 
L 192.861847 142.479806 
L 194.873417 142.194342 
L 196.884987 141.908879 
L 198.896557 141.623416 
L 200.908128 141.337952 
L 202.919698 141.052489 
L 204.931268 140.767025 
L 206.942838 140.481562 
L 208.954409 140.196098 
L 210.965979 139.910635 
L 212.977549 139.625171 
L 214.989119 139.339708 
L 217.00069 139.054244 
L 219.01226 138.768781 
L 221.02383 138.483317 
L 223.0354 138.197854 
L 225.046971 137.912391 
L 227.058541 137.626927 
L 229.070111 137.341464 
L 231.081681 137.056 
L 233.093252 136.770537 
L 235.104822 136.485073 
L 237.116392 136.19961 
L 239.127962 135.914146 
L 241.139533 135.628683 
L 243.151103 135.343219 
L 245.162673 135.057756 
L 247.174243 134.772292 
L 249.185814 134.486829 
L 251.197384 134.201365 
L 253.208954 133.915902 
L 255.220524 133.630439 
L 257.232095 133.344975 
L 259.243665 133.059512 
" style="fill:none;stroke:#4c72b0;stroke-linecap:round;stroke-width:2.25;"/>
   </g>
   <g id="patch_3">
    <path d="M 50.140937 232.74 
L 50.140937 7.2 
" style="fill:none;stroke:#333333;stroke-linecap:square;stroke-linejoin:miter;stroke-width:1.25;"/>
   </g>
   <g id="patch_4">
    <path d="M 269.200937 232.74 
L 269.200937 7.2 
" style="fill:none;stroke:#333333;stroke-linecap:square;stroke-linejoin:miter;stroke-width:1.25;"/>
   </g>
   <g id="patch_5">
    <path d="M 50.140937 232.74 
L 269.200937 232.74 
" style="fill:none;stroke:#333333;stroke-linecap:square;stroke-linejoin:miter;stroke-width:1.25;"/>
   </g>
   <g id="patch_6">
    <path d="M 50.140937 7.2 
L 269.200937 7.2 
" style="fill:none;stroke:#333333;stroke-linecap:square;stroke-linejoin:miter;stroke-width:1.25;"/>
   </g>
   <g id="legend_1">
    <g id="patch_7">
     <path d="M 282.353937 171.959375 
L 403.152844 171.959375 
Q 405.352844 171.959375 405.352844 169.759375 
L 405.352844 9.4 
Q 405.352844 7.2 403.152844 7.2 
L 282.353937 7.2 
Q 280.153937 7.2 280.153937 9.4 
L 280.153937 169.759375 
Q 280.153937 171.959375 282.353937 171.959375 
z
" style="fill:#ffffff;opacity:0.8;stroke:#cccccc;stroke-linejoin:miter;"/>
    </g>
    <g id="PathCollection_12">
     <defs>
      <path d="M 0 3 
C 0.795609 3 1.55874 2.683901 2.12132 2.12132 
C 2.683901 1.55874 3 0.795609 3 0 
C 3 -0.795609 2.683901 -1.55874 2.12132 -2.12132 
C 1.55874 -2.683901 0.795609 -3 0 -3 
C -0.795609 -3 -1.55874 -2.683901 -2.12132 -2.12132 
C -2.683901 -1.55874 -3 -0.795609 -3 0 
C -3 0.795609 -2.683901 1.55874 -2.12132 2.12132 
C -1.55874 2.683901 -0.795609 3 0 3 
z
" id="m99371463bf" style="stroke:#1f77b4;"/>
     </defs>
     <g>
      <use style="fill:#1f77b4;stroke:#1f77b4;" x="295.553937" xlink:href="#m99371463bf" y="17.070781"/>
     </g>
    </g>
    <g id="text_12">
     <!-- 10x ATAC A1 -->
     <g style="fill:#262626;" transform="translate(315.353937 19.958281)scale(0.11 -0.11)">
      <defs>
       <path d="M 3513 3500 
L 2247 1797 
L 3578 0 
L 2900 0 
L 1881 1375 
L 863 0 
L 184 0 
L 1544 1831 
L 300 3500 
L 978 3500 
L 1906 2253 
L 2834 3500 
L 3513 3500 
z
" id="DejaVuSans-78" transform="scale(0.015625)"/>
       <path id="DejaVuSans-20" transform="scale(0.015625)"/>
       <path d="M 2188 4044 
L 1331 1722 
L 3047 1722 
L 2188 4044 
z
M 1831 4666 
L 2547 4666 
L 4325 0 
L 3669 0 
L 3244 1197 
L 1141 1197 
L 716 0 
L 50 0 
L 1831 4666 
z
" id="DejaVuSans-41" transform="scale(0.015625)"/>
       <path d="M -19 4666 
L 3928 4666 
L 3928 4134 
L 2272 4134 
L 2272 0 
L 1638 0 
L 1638 4134 
L -19 4134 
L -19 4666 
z
" id="DejaVuSans-54" transform="scale(0.015625)"/>
       <path d="M 4122 4306 
L 4122 3641 
Q 3803 3938 3442 4084 
Q 3081 4231 2675 4231 
Q 1875 4231 1450 3742 
Q 1025 3253 1025 2328 
Q 1025 1406 1450 917 
Q 1875 428 2675 428 
Q 3081 428 3442 575 
Q 3803 722 4122 1019 
L 4122 359 
Q 3791 134 3420 21 
Q 3050 -91 2638 -91 
Q 1578 -91 968 557 
Q 359 1206 359 2328 
Q 359 3453 968 4101 
Q 1578 4750 2638 4750 
Q 3056 4750 3426 4639 
Q 3797 4528 4122 4306 
z
" id="DejaVuSans-43" transform="scale(0.015625)"/>
      </defs>
      <use xlink:href="#DejaVuSans-31"/>
      <use x="63.623047" xlink:href="#DejaVuSans-30"/>
      <use x="127.246094" xlink:href="#DejaVuSans-78"/>
      <use x="186.425781" xlink:href="#DejaVuSans-20"/>
      <use x="218.212891" xlink:href="#DejaVuSans-41"/>
      <use x="278.871094" xlink:href="#DejaVuSans-54"/>
      <use x="332.205078" xlink:href="#DejaVuSans-41"/>
      <use x="398.863281" xlink:href="#DejaVuSans-43"/>
      <use x="468.6875" xlink:href="#DejaVuSans-20"/>
      <use x="500.474609" xlink:href="#DejaVuSans-41"/>
      <use x="568.882812" xlink:href="#DejaVuSans-31"/>
     </g>
    </g>
    <g id="PathCollection_13">
     <defs>
      <path d="M 0 3 
C 0.795609 3 1.55874 2.683901 2.12132 2.12132 
C 2.683901 1.55874 3 0.795609 3 0 
C 3 -0.795609 2.683901 -1.55874 2.12132 -2.12132 
C 1.55874 -2.683901 0.795609 -3 0 -3 
C -0.795609 -3 -1.55874 -2.683901 -2.12132 -2.12132 
C -2.683901 -1.55874 -3 -0.795609 -3 0 
C -3 0.795609 -2.683901 1.55874 -2.12132 2.12132 
C -1.55874 2.683901 -0.795609 3 0 3 
z
" id="m5d9c977bc3" style="stroke:#aec7e8;"/>
     </defs>
     <g>
      <use style="fill:#aec7e8;stroke:#aec7e8;" x="295.553937" xlink:href="#m5d9c977bc3" y="33.216719"/>
     </g>
    </g>
    <g id="text_13">
     <!-- 10x ATAC A2 -->
     <g style="fill:#262626;" transform="translate(315.353937 36.104219)scale(0.11 -0.11)">
      <use xlink:href="#DejaVuSans-31"/>
      <use x="63.623047" xlink:href="#DejaVuSans-30"/>
      <use x="127.246094" xlink:href="#DejaVuSans-78"/>
      <use x="186.425781" xlink:href="#DejaVuSans-20"/>
      <use x="218.212891" xlink:href="#DejaVuSans-41"/>
      <use x="278.871094" xlink:href="#DejaVuSans-54"/>
      <use x="332.205078" xlink:href="#DejaVuSans-41"/>
      <use x="398.863281" xlink:href="#DejaVuSans-43"/>
      <use x="468.6875" xlink:href="#DejaVuSans-20"/>
      <use x="500.474609" xlink:href="#DejaVuSans-41"/>
      <use x="568.882812" xlink:href="#DejaVuSans-32"/>
     </g>
    </g>
    <g id="PathCollection_14">
     <defs>
      <path d="M 0 3 
C 0.795609 3 1.55874 2.683901 2.12132 2.12132 
C 2.683901 1.55874 3 0.795609 3 0 
C 3 -0.795609 2.683901 -1.55874 2.12132 -2.12132 
C 1.55874 -2.683901 0.795609 -3 0 -3 
C -0.795609 -3 -1.55874 -2.683901 -2.12132 -2.12132 
C -2.683901 -1.55874 -3 -0.795609 -3 0 
C -3 0.795609 -2.683901 1.55874 -2.12132 2.12132 
C -1.55874 2.683901 -0.795609 3 0 3 
z
" id="m93d0ea573c" style="stroke:#ff7f0e;"/>
     </defs>
     <g>
      <use style="fill:#ff7f0e;stroke:#ff7f0e;" x="295.553937" xlink:href="#m93d0ea573c" y="49.362656"/>
     </g>
    </g>
    <g id="text_14">
     <!-- 10x ATAC B1 -->
     <g style="fill:#262626;" transform="translate(315.353937 52.250156)scale(0.11 -0.11)">
      <defs>
       <path d="M 1259 2228 
L 1259 519 
L 2272 519 
Q 2781 519 3026 730 
Q 3272 941 3272 1375 
Q 3272 1813 3026 2020 
Q 2781 2228 2272 2228 
L 1259 2228 
z
M 1259 4147 
L 1259 2741 
L 2194 2741 
Q 2656 2741 2882 2914 
Q 3109 3088 3109 3444 
Q 3109 3797 2882 3972 
Q 2656 4147 2194 4147 
L 1259 4147 
z
M 628 4666 
L 2241 4666 
Q 2963 4666 3353 4366 
Q 3744 4066 3744 3513 
Q 3744 3084 3544 2831 
Q 3344 2578 2956 2516 
Q 3422 2416 3680 2098 
Q 3938 1781 3938 1306 
Q 3938 681 3513 340 
Q 3088 0 2303 0 
L 628 0 
L 628 4666 
z
" id="DejaVuSans-42" transform="scale(0.015625)"/>
      </defs>
      <use xlink:href="#DejaVuSans-31"/>
      <use x="63.623047" xlink:href="#DejaVuSans-30"/>
      <use x="127.246094" xlink:href="#DejaVuSans-78"/>
      <use x="186.425781" xlink:href="#DejaVuSans-20"/>
      <use x="218.212891" xlink:href="#DejaVuSans-41"/>
      <use x="278.871094" xlink:href="#DejaVuSans-54"/>
      <use x="332.205078" xlink:href="#DejaVuSans-41"/>
      <use x="398.863281" xlink:href="#DejaVuSans-43"/>
      <use x="468.6875" xlink:href="#DejaVuSans-20"/>
      <use x="500.474609" xlink:href="#DejaVuSans-42"/>
      <use x="569.078125" xlink:href="#DejaVuSans-31"/>
     </g>
    </g>
    <g id="PathCollection_15">
     <defs>
      <path d="M 0 3 
C 0.795609 3 1.55874 2.683901 2.12132 2.12132 
C 2.683901 1.55874 3 0.795609 3 0 
C 3 -0.795609 2.683901 -1.55874 2.12132 -2.12132 
C 1.55874 -2.683901 0.795609 -3 0 -3 
C -0.795609 -3 -1.55874 -2.683901 -2.12132 -2.12132 
C -2.683901 -1.55874 -3 -0.795609 -3 0 
C -3 0.795609 -2.683901 1.55874 -2.12132 2.12132 
C -1.55874 2.683901 -0.795609 3 0 3 
z
" id="m0a5a37ded8" style="stroke:#ffbb78;"/>
     </defs>
     <g>
      <use style="fill:#ffbb78;stroke:#ffbb78;" x="295.553937" xlink:href="#m0a5a37ded8" y="65.508594"/>
     </g>
    </g>
    <g id="text_15">
     <!-- 10x ATAC B2 -->
     <g style="fill:#262626;" transform="translate(315.353937 68.396094)scale(0.11 -0.11)">
      <use xlink:href="#DejaVuSans-31"/>
      <use x="63.623047" xlink:href="#DejaVuSans-30"/>
      <use x="127.246094" xlink:href="#DejaVuSans-78"/>
      <use x="186.425781" xlink:href="#DejaVuSans-20"/>
      <use x="218.212891" xlink:href="#DejaVuSans-41"/>
      <use x="278.871094" xlink:href="#DejaVuSans-54"/>
      <use x="332.205078" xlink:href="#DejaVuSans-41"/>
      <use x="398.863281" xlink:href="#DejaVuSans-43"/>
      <use x="468.6875" xlink:href="#DejaVuSans-20"/>
      <use x="500.474609" xlink:href="#DejaVuSans-42"/>
      <use x="569.078125" xlink:href="#DejaVuSans-32"/>
     </g>
    </g>
    <g id="PathCollection_16">
     <defs>
      <path d="M 0 3 
C 0.795609 3 1.55874 2.683901 2.12132 2.12132 
C 2.683901 1.55874 3 0.795609 3 0 
C 3 -0.795609 2.683901 -1.55874 2.12132 -2.12132 
C 1.55874 -2.683901 0.795609 -3 0 -3 
C -0.795609 -3 -1.55874 -2.683901 -2.12132 -2.12132 
C -2.683901 -1.55874 -3 -0.795609 -3 0 
C -3 0.795609 -2.683901 1.55874 -2.12132 2.12132 
C -1.55874 2.683901 -0.795609 3 0 3 
z
" id="mc68959d97a" style="stroke:#2ca02c;"/>
     </defs>
     <g>
      <use style="fill:#2ca02c;stroke:#2ca02c;" x="295.553937" xlink:href="#mc68959d97a" y="81.654531"/>
     </g>
    </g>
    <g id="text_16">
     <!-- 10x ATAC C1 -->
     <g style="fill:#262626;" transform="translate(315.353937 84.542031)scale(0.11 -0.11)">
      <use xlink:href="#DejaVuSans-31"/>
      <use x="63.623047" xlink:href="#DejaVuSans-30"/>
      <use x="127.246094" xlink:href="#DejaVuSans-78"/>
      <use x="186.425781" xlink:href="#DejaVuSans-20"/>
      <use x="218.212891" xlink:href="#DejaVuSans-41"/>
      <use x="278.871094" xlink:href="#DejaVuSans-54"/>
      <use x="332.205078" xlink:href="#DejaVuSans-41"/>
      <use x="398.863281" xlink:href="#DejaVuSans-43"/>
      <use x="468.6875" xlink:href="#DejaVuSans-20"/>
      <use x="500.474609" xlink:href="#DejaVuSans-43"/>
      <use x="570.298828" xlink:href="#DejaVuSans-31"/>
     </g>
    </g>
    <g id="PathCollection_17">
     <defs>
      <path d="M 0 3 
C 0.795609 3 1.55874 2.683901 2.12132 2.12132 
C 2.683901 1.55874 3 0.795609 3 0 
C 3 -0.795609 2.683901 -1.55874 2.12132 -2.12132 
C 1.55874 -2.683901 0.795609 -3 0 -3 
C -0.795609 -3 -1.55874 -2.683901 -2.12132 -2.12132 
C -2.683901 -1.55874 -3 -0.795609 -3 0 
C -3 0.795609 -2.683901 1.55874 -2.12132 2.12132 
C -1.55874 2.683901 -0.795609 3 0 3 
z
" id="mf77c964036" style="stroke:#98df8a;"/>
     </defs>
     <g>
      <use style="fill:#98df8a;stroke:#98df8a;" x="295.553937" xlink:href="#mf77c964036" y="97.800469"/>
     </g>
    </g>
    <g id="text_17">
     <!-- 10x ATAC C2 -->
     <g style="fill:#262626;" transform="translate(315.353937 100.687969)scale(0.11 -0.11)">
      <use xlink:href="#DejaVuSans-31"/>
      <use x="63.623047" xlink:href="#DejaVuSans-30"/>
      <use x="127.246094" xlink:href="#DejaVuSans-78"/>
      <use x="186.425781" xlink:href="#DejaVuSans-20"/>
      <use x="218.212891" xlink:href="#DejaVuSans-41"/>
      <use x="278.871094" xlink:href="#DejaVuSans-54"/>
      <use x="332.205078" xlink:href="#DejaVuSans-41"/>
      <use x="398.863281" xlink:href="#DejaVuSans-43"/>
      <use x="468.6875" xlink:href="#DejaVuSans-20"/>
      <use x="500.474609" xlink:href="#DejaVuSans-43"/>
      <use x="570.298828" xlink:href="#DejaVuSans-32"/>
     </g>
    </g>
    <g id="PathCollection_18">
     <defs>
      <path d="M 0 3 
C 0.795609 3 1.55874 2.683901 2.12132 2.12132 
C 2.683901 1.55874 3 0.795609 3 0 
C 3 -0.795609 2.683901 -1.55874 2.12132 -2.12132 
C 1.55874 -2.683901 0.795609 -3 0 -3 
C -0.795609 -3 -1.55874 -2.683901 -2.12132 -2.12132 
C -2.683901 -1.55874 -3 -0.795609 -3 0 
C -3 0.795609 -2.683901 1.55874 -2.12132 2.12132 
C -1.55874 2.683901 -0.795609 3 0 3 
z
" id="m92c6ff4218" style="stroke:#d62728;"/>
     </defs>
     <g>
      <use style="fill:#d62728;stroke:#d62728;" x="295.553937" xlink:href="#m92c6ff4218" y="113.946406"/>
     </g>
    </g>
    <g id="text_18">
     <!-- 10x Multiome 1 -->
     <g style="fill:#262626;" transform="translate(315.353937 116.833906)scale(0.11 -0.11)">
      <defs>
       <path d="M 628 4666 
L 1569 4666 
L 2759 1491 
L 3956 4666 
L 4897 4666 
L 4897 0 
L 4281 0 
L 4281 4097 
L 3078 897 
L 2444 897 
L 1241 4097 
L 1241 0 
L 628 0 
L 628 4666 
z
" id="DejaVuSans-4d" transform="scale(0.015625)"/>
       <path d="M 1172 4494 
L 1172 3500 
L 2356 3500 
L 2356 3053 
L 1172 3053 
L 1172 1153 
Q 1172 725 1289 603 
Q 1406 481 1766 481 
L 2356 481 
L 2356 0 
L 1766 0 
Q 1100 0 847 248 
Q 594 497 594 1153 
L 594 3053 
L 172 3053 
L 172 3500 
L 594 3500 
L 594 4494 
L 1172 4494 
z
" id="DejaVuSans-74" transform="scale(0.015625)"/>
       <path d="M 3328 2828 
Q 3544 3216 3844 3400 
Q 4144 3584 4550 3584 
Q 5097 3584 5394 3201 
Q 5691 2819 5691 2113 
L 5691 0 
L 5113 0 
L 5113 2094 
Q 5113 2597 4934 2840 
Q 4756 3084 4391 3084 
Q 3944 3084 3684 2787 
Q 3425 2491 3425 1978 
L 3425 0 
L 2847 0 
L 2847 2094 
Q 2847 2600 2669 2842 
Q 2491 3084 2119 3084 
Q 1678 3084 1418 2786 
Q 1159 2488 1159 1978 
L 1159 0 
L 581 0 
L 581 3500 
L 1159 3500 
L 1159 2956 
Q 1356 3278 1631 3431 
Q 1906 3584 2284 3584 
Q 2666 3584 2933 3390 
Q 3200 3197 3328 2828 
z
" id="DejaVuSans-6d" transform="scale(0.015625)"/>
      </defs>
      <use xlink:href="#DejaVuSans-31"/>
      <use x="63.623047" xlink:href="#DejaVuSans-30"/>
      <use x="127.246094" xlink:href="#DejaVuSans-78"/>
      <use x="186.425781" xlink:href="#DejaVuSans-20"/>
      <use x="218.212891" xlink:href="#DejaVuSans-4d"/>
      <use x="304.492188" xlink:href="#DejaVuSans-75"/>
      <use x="367.871094" xlink:href="#DejaVuSans-6c"/>
      <use x="395.654297" xlink:href="#DejaVuSans-74"/>
      <use x="434.863281" xlink:href="#DejaVuSans-69"/>
      <use x="462.646484" xlink:href="#DejaVuSans-6f"/>
      <use x="523.828125" xlink:href="#DejaVuSans-6d"/>
      <use x="621.240234" xlink:href="#DejaVuSans-65"/>
      <use x="682.763672" xlink:href="#DejaVuSans-20"/>
      <use x="714.550781" xlink:href="#DejaVuSans-31"/>
     </g>
    </g>
    <g id="PathCollection_19">
     <defs>
      <path d="M 0 3 
C 0.795609 3 1.55874 2.683901 2.12132 2.12132 
C 2.683901 1.55874 3 0.795609 3 0 
C 3 -0.795609 2.683901 -1.55874 2.12132 -2.12132 
C 1.55874 -2.683901 0.795609 -3 0 -3 
C -0.795609 -3 -1.55874 -2.683901 -2.12132 -2.12132 
C -2.683901 -1.55874 -3 -0.795609 -3 0 
C -3 0.795609 -2.683901 1.55874 -2.12132 2.12132 
C -1.55874 2.683901 -0.795609 3 0 3 
z
" id="me6194c480e" style="stroke:#ff9896;"/>
     </defs>
     <g>
      <use style="fill:#ff9896;stroke:#ff9896;" x="295.553937" xlink:href="#me6194c480e" y="130.092344"/>
     </g>
    </g>
    <g id="text_19">
     <!-- 10x Multiome 2 -->
     <g style="fill:#262626;" transform="translate(315.353937 132.979844)scale(0.11 -0.11)">
      <use xlink:href="#DejaVuSans-31"/>
      <use x="63.623047" xlink:href="#DejaVuSans-30"/>
      <use x="127.246094" xlink:href="#DejaVuSans-78"/>
      <use x="186.425781" xlink:href="#DejaVuSans-20"/>
      <use x="218.212891" xlink:href="#DejaVuSans-4d"/>
      <use x="304.492188" xlink:href="#DejaVuSans-75"/>
      <use x="367.871094" xlink:href="#DejaVuSans-6c"/>
      <use x="395.654297" xlink:href="#DejaVuSans-74"/>
      <use x="434.863281" xlink:href="#DejaVuSans-69"/>
      <use x="462.646484" xlink:href="#DejaVuSans-6f"/>
      <use x="523.828125" xlink:href="#DejaVuSans-6d"/>
      <use x="621.240234" xlink:href="#DejaVuSans-65"/>
      <use x="682.763672" xlink:href="#DejaVuSans-20"/>
      <use x="714.550781" xlink:href="#DejaVuSans-32"/>
     </g>
    </g>
    <g id="PathCollection_20">
     <defs>
      <path d="M 0 3 
C 0.795609 3 1.55874 2.683901 2.12132 2.12132 
C 2.683901 1.55874 3 0.795609 3 0 
C 3 -0.795609 2.683901 -1.55874 2.12132 -2.12132 
C 1.55874 -2.683901 0.795609 -3 0 -3 
C -0.795609 -3 -1.55874 -2.683901 -2.12132 -2.12132 
C -2.683901 -1.55874 -3 -0.795609 -3 0 
C -3 0.795609 -2.683901 1.55874 -2.12132 2.12132 
C -1.55874 2.683901 -0.795609 3 0 3 
z
" id="mba7654db29" style="stroke:#9467bd;"/>
     </defs>
     <g>
      <use style="fill:#9467bd;stroke:#9467bd;" x="295.553937" xlink:href="#mba7654db29" y="146.238281"/>
     </g>
    </g>
    <g id="text_20">
     <!-- 10x mtATAC 1 -->
     <g style="fill:#262626;" transform="translate(315.353937 149.125781)scale(0.11 -0.11)">
      <use xlink:href="#DejaVuSans-31"/>
      <use x="63.623047" xlink:href="#DejaVuSans-30"/>
      <use x="127.246094" xlink:href="#DejaVuSans-78"/>
      <use x="186.425781" xlink:href="#DejaVuSans-20"/>
      <use x="218.212891" xlink:href="#DejaVuSans-6d"/>
      <use x="315.625" xlink:href="#DejaVuSans-74"/>
      <use x="354.833984" xlink:href="#DejaVuSans-41"/>
      <use x="415.492188" xlink:href="#DejaVuSans-54"/>
      <use x="468.826172" xlink:href="#DejaVuSans-41"/>
      <use x="535.484375" xlink:href="#DejaVuSans-43"/>
      <use x="605.308594" xlink:href="#DejaVuSans-20"/>
      <use x="637.095703" xlink:href="#DejaVuSans-31"/>
     </g>
    </g>
    <g id="PathCollection_21">
     <defs>
      <path d="M 0 3 
C 0.795609 3 1.55874 2.683901 2.12132 2.12132 
C 2.683901 1.55874 3 0.795609 3 0 
C 3 -0.795609 2.683901 -1.55874 2.12132 -2.12132 
C 1.55874 -2.683901 0.795609 -3 0 -3 
C -0.795609 -3 -1.55874 -2.683901 -2.12132 -2.12132 
C -2.683901 -1.55874 -3 -0.795609 -3 0 
C -3 0.795609 -2.683901 1.55874 -2.12132 2.12132 
C -1.55874 2.683901 -0.795609 3 0 3 
z
" id="m482bc1e208" style="stroke:#c5b0d5;"/>
     </defs>
     <g>
      <use style="fill:#c5b0d5;stroke:#c5b0d5;" x="295.553937" xlink:href="#m482bc1e208" y="162.384219"/>
     </g>
    </g>
    <g id="text_21">
     <!-- 10x mtATAC 2 -->
     <g style="fill:#262626;" transform="translate(315.353937 165.271719)scale(0.11 -0.11)">
      <use xlink:href="#DejaVuSans-31"/>
      <use x="63.623047" xlink:href="#DejaVuSans-30"/>
      <use x="127.246094" xlink:href="#DejaVuSans-78"/>
      <use x="186.425781" xlink:href="#DejaVuSans-20"/>
      <use x="218.212891" xlink:href="#DejaVuSans-6d"/>
      <use x="315.625" xlink:href="#DejaVuSans-74"/>
      <use x="354.833984" xlink:href="#DejaVuSans-41"/>
      <use x="415.492188" xlink:href="#DejaVuSans-54"/>
      <use x="468.826172" xlink:href="#DejaVuSans-41"/>
      <use x="535.484375" xlink:href="#DejaVuSans-43"/>
      <use x="605.308594" xlink:href="#DejaVuSans-20"/>
      <use x="637.095703" xlink:href="#DejaVuSans-32"/>
     </g>
    </g>
   </g>
  </g>
 </g>
 <defs>
  <clipPath id="p4ab5c25212">
   <rect height="225.54" width="219.06" x="50.140937" y="7.2"/>
  </clipPath>
 </defs>
</svg>
