<?xml version="1.0" encoding="utf-8" standalone="no"?>
<!DOCTYPE svg PUBLIC "-//W3C//DTD SVG 1.1//EN"
  "http://www.w3.org/Graphics/SVG/1.1/DTD/svg11.dtd">
<svg height="259.889063pt" version="1.1" viewBox="0 0 412.710906 259.889063" width="412.710906pt" xmlns="http://www.w3.org/2000/svg" xmlns:xlink="http://www.w3.org/1999/xlink">
 <metadata>
  <rdf:RDF xmlns:cc="http://creativecommons.org/ns#" xmlns:dc="http://purl.org/dc/elements/1.1/" xmlns:rdf="http://www.w3.org/1999/02/22-rdf-syntax-ns#">
   <cc:Work>
    <dc:type rdf:resource="http://purl.org/dc/dcmitype/StillImage"/>
    <dc:date>2021-12-14T16:10:55.665276</dc:date>
    <dc:format>image/svg+xml</dc:format>
    <dc:creator>
     <cc:Agent>
      <dc:title>Matplotlib v3.4.3, https://matplotlib.org/</dc:title>
     </cc:Agent>
    </dc:creator>
   </cc:Work>
  </rdf:RDF>
 </metadata>
 <defs>
  <style type="text/css">*{stroke-linecap:butt;stroke-linejoin:round;}</style>
 </defs>
 <g id="figure_1">
  <g id="patch_1">
   <path d="M 0 259.889063 
L 412.710906 259.889063 
L 412.710906 0 
L 0 0 
z
" style="fill:#ffffff;"/>
  </g>
  <g id="axes_1">
   <g id="patch_2">
    <path d="M 46.645 212.8 
L 269.185 212.8 
L 269.185 7.2 
L 46.645 7.2 
z
" style="fill:#ffffff;"/>
   </g>
   <g id="matplotlib.axis_1">
    <g id="xtick_1">
     <g id="line2d_1">
      <path clip-path="url(#p541e92dca9)" d="M 88.965322 212.8 
L 88.965322 7.2 
" style="fill:none;stroke:#cccccc;stroke-linecap:round;"/>
     </g>
     <g id="text_1">
      <!-- 4000 -->
      <g style="fill:#262626;" transform="translate(74.967822 230.658281)scale(0.11 -0.11)">
       <defs>
        <path d="M 2419 4116 
L 825 1625 
L 2419 1625 
L 2419 4116 
z
M 2253 4666 
L 3047 4666 
L 3047 1625 
L 3713 1625 
L 3713 1100 
L 3047 1100 
L 3047 0 
L 2419 0 
L 2419 1100 
L 313 1100 
L 313 1709 
L 2253 4666 
z
" id="DejaVuSans-34" transform="scale(0.015625)"/>
        <path d="M 2034 4250 
Q 1547 4250 1301 3770 
Q 1056 3291 1056 2328 
Q 1056 1369 1301 889 
Q 1547 409 2034 409 
Q 2525 409 2770 889 
Q 3016 1369 3016 2328 
Q 3016 3291 2770 3770 
Q 2525 4250 2034 4250 
z
M 2034 4750 
Q 2819 4750 3233 4129 
Q 3647 3509 3647 2328 
Q 3647 1150 3233 529 
Q 2819 -91 2034 -91 
Q 1250 -91 836 529 
Q 422 1150 422 2328 
Q 422 3509 836 4129 
Q 1250 4750 2034 4750 
z
" id="DejaVuSans-30" transform="scale(0.015625)"/>
       </defs>
       <use xlink:href="#DejaVuSans-34"/>
       <use x="63.623047" xlink:href="#DejaVuSans-30"/>
       <use x="127.246094" xlink:href="#DejaVuSans-30"/>
       <use x="190.869141" xlink:href="#DejaVuSans-30"/>
      </g>
     </g>
    </g>
    <g id="xtick_2">
     <g id="line2d_2">
      <path clip-path="url(#p541e92dca9)" d="M 134.939436 212.8 
L 134.939436 7.2 
" style="fill:none;stroke:#cccccc;stroke-linecap:round;"/>
     </g>
     <g id="text_2">
      <!-- 6000 -->
      <g style="fill:#262626;" transform="translate(120.941936 230.658281)scale(0.11 -0.11)">
       <defs>
        <path d="M 2113 2584 
Q 1688 2584 1439 2293 
Q 1191 2003 1191 1497 
Q 1191 994 1439 701 
Q 1688 409 2113 409 
Q 2538 409 2786 701 
Q 3034 994 3034 1497 
Q 3034 2003 2786 2293 
Q 2538 2584 2113 2584 
z
M 3366 4563 
L 3366 3988 
Q 3128 4100 2886 4159 
Q 2644 4219 2406 4219 
Q 1781 4219 1451 3797 
Q 1122 3375 1075 2522 
Q 1259 2794 1537 2939 
Q 1816 3084 2150 3084 
Q 2853 3084 3261 2657 
Q 3669 2231 3669 1497 
Q 3669 778 3244 343 
Q 2819 -91 2113 -91 
Q 1303 -91 875 529 
Q 447 1150 447 2328 
Q 447 3434 972 4092 
Q 1497 4750 2381 4750 
Q 2619 4750 2861 4703 
Q 3103 4656 3366 4563 
z
" id="DejaVuSans-36" transform="scale(0.015625)"/>
       </defs>
       <use xlink:href="#DejaVuSans-36"/>
       <use x="63.623047" xlink:href="#DejaVuSans-30"/>
       <use x="127.246094" xlink:href="#DejaVuSans-30"/>
       <use x="190.869141" xlink:href="#DejaVuSans-30"/>
      </g>
     </g>
    </g>
    <g id="xtick_3">
     <g id="line2d_3">
      <path clip-path="url(#p541e92dca9)" d="M 180.913551 212.8 
L 180.913551 7.2 
" style="fill:none;stroke:#cccccc;stroke-linecap:round;"/>
     </g>
     <g id="text_3">
      <!-- 8000 -->
      <g style="fill:#262626;" transform="translate(166.916051 230.658281)scale(0.11 -0.11)">
       <defs>
        <path d="M 2034 2216 
Q 1584 2216 1326 1975 
Q 1069 1734 1069 1313 
Q 1069 891 1326 650 
Q 1584 409 2034 409 
Q 2484 409 2743 651 
Q 3003 894 3003 1313 
Q 3003 1734 2745 1975 
Q 2488 2216 2034 2216 
z
M 1403 2484 
Q 997 2584 770 2862 
Q 544 3141 544 3541 
Q 544 4100 942 4425 
Q 1341 4750 2034 4750 
Q 2731 4750 3128 4425 
Q 3525 4100 3525 3541 
Q 3525 3141 3298 2862 
Q 3072 2584 2669 2484 
Q 3125 2378 3379 2068 
Q 3634 1759 3634 1313 
Q 3634 634 3220 271 
Q 2806 -91 2034 -91 
Q 1263 -91 848 271 
Q 434 634 434 1313 
Q 434 1759 690 2068 
Q 947 2378 1403 2484 
z
M 1172 3481 
Q 1172 3119 1398 2916 
Q 1625 2713 2034 2713 
Q 2441 2713 2670 2916 
Q 2900 3119 2900 3481 
Q 2900 3844 2670 4047 
Q 2441 4250 2034 4250 
Q 1625 4250 1398 4047 
Q 1172 3844 1172 3481 
z
" id="DejaVuSans-38" transform="scale(0.015625)"/>
       </defs>
       <use xlink:href="#DejaVuSans-38"/>
       <use x="63.623047" xlink:href="#DejaVuSans-30"/>
       <use x="127.246094" xlink:href="#DejaVuSans-30"/>
       <use x="190.869141" xlink:href="#DejaVuSans-30"/>
      </g>
     </g>
    </g>
    <g id="xtick_4">
     <g id="line2d_4">
      <path clip-path="url(#p541e92dca9)" d="M 226.887665 212.8 
L 226.887665 7.2 
" style="fill:none;stroke:#cccccc;stroke-linecap:round;"/>
     </g>
     <g id="text_4">
      <!-- 10000 -->
      <g style="fill:#262626;" transform="translate(209.39079 230.658281)scale(0.11 -0.11)">
       <defs>
        <path d="M 794 531 
L 1825 531 
L 1825 4091 
L 703 3866 
L 703 4441 
L 1819 4666 
L 2450 4666 
L 2450 531 
L 3481 531 
L 3481 0 
L 794 0 
L 794 531 
z
" id="DejaVuSans-31" transform="scale(0.015625)"/>
       </defs>
       <use xlink:href="#DejaVuSans-31"/>
       <use x="63.623047" xlink:href="#DejaVuSans-30"/>
       <use x="127.246094" xlink:href="#DejaVuSans-30"/>
       <use x="190.869141" xlink:href="#DejaVuSans-30"/>
       <use x="254.492188" xlink:href="#DejaVuSans-30"/>
      </g>
     </g>
    </g>
    <g id="text_5">
     <!-- Unique_nr_frag -->
     <g style="fill:#262626;" transform="translate(112.417187 246.064062)scale(0.12 -0.12)">
      <defs>
       <path d="M 556 4666 
L 1191 4666 
L 1191 1831 
Q 1191 1081 1462 751 
Q 1734 422 2344 422 
Q 2950 422 3222 751 
Q 3494 1081 3494 1831 
L 3494 4666 
L 4128 4666 
L 4128 1753 
Q 4128 841 3676 375 
Q 3225 -91 2344 -91 
Q 1459 -91 1007 375 
Q 556 841 556 1753 
L 556 4666 
z
" id="DejaVuSans-55" transform="scale(0.015625)"/>
       <path d="M 3513 2113 
L 3513 0 
L 2938 0 
L 2938 2094 
Q 2938 2591 2744 2837 
Q 2550 3084 2163 3084 
Q 1697 3084 1428 2787 
Q 1159 2491 1159 1978 
L 1159 0 
L 581 0 
L 581 3500 
L 1159 3500 
L 1159 2956 
Q 1366 3272 1645 3428 
Q 1925 3584 2291 3584 
Q 2894 3584 3203 3211 
Q 3513 2838 3513 2113 
z
" id="DejaVuSans-6e" transform="scale(0.015625)"/>
       <path d="M 603 3500 
L 1178 3500 
L 1178 0 
L 603 0 
L 603 3500 
z
M 603 4863 
L 1178 4863 
L 1178 4134 
L 603 4134 
L 603 4863 
z
" id="DejaVuSans-69" transform="scale(0.015625)"/>
       <path d="M 947 1747 
Q 947 1113 1208 752 
Q 1469 391 1925 391 
Q 2381 391 2643 752 
Q 2906 1113 2906 1747 
Q 2906 2381 2643 2742 
Q 2381 3103 1925 3103 
Q 1469 3103 1208 2742 
Q 947 2381 947 1747 
z
M 2906 525 
Q 2725 213 2448 61 
Q 2172 -91 1784 -91 
Q 1150 -91 751 415 
Q 353 922 353 1747 
Q 353 2572 751 3078 
Q 1150 3584 1784 3584 
Q 2172 3584 2448 3432 
Q 2725 3281 2906 2969 
L 2906 3500 
L 3481 3500 
L 3481 -1331 
L 2906 -1331 
L 2906 525 
z
" id="DejaVuSans-71" transform="scale(0.015625)"/>
       <path d="M 544 1381 
L 544 3500 
L 1119 3500 
L 1119 1403 
Q 1119 906 1312 657 
Q 1506 409 1894 409 
Q 2359 409 2629 706 
Q 2900 1003 2900 1516 
L 2900 3500 
L 3475 3500 
L 3475 0 
L 2900 0 
L 2900 538 
Q 2691 219 2414 64 
Q 2138 -91 1772 -91 
Q 1169 -91 856 284 
Q 544 659 544 1381 
z
M 1991 3584 
L 1991 3584 
z
" id="DejaVuSans-75" transform="scale(0.015625)"/>
       <path d="M 3597 1894 
L 3597 1613 
L 953 1613 
Q 991 1019 1311 708 
Q 1631 397 2203 397 
Q 2534 397 2845 478 
Q 3156 559 3463 722 
L 3463 178 
Q 3153 47 2828 -22 
Q 2503 -91 2169 -91 
Q 1331 -91 842 396 
Q 353 884 353 1716 
Q 353 2575 817 3079 
Q 1281 3584 2069 3584 
Q 2775 3584 3186 3129 
Q 3597 2675 3597 1894 
z
M 3022 2063 
Q 3016 2534 2758 2815 
Q 2500 3097 2075 3097 
Q 1594 3097 1305 2825 
Q 1016 2553 972 2059 
L 3022 2063 
z
" id="DejaVuSans-65" transform="scale(0.015625)"/>
       <path d="M 3263 -1063 
L 3263 -1509 
L -63 -1509 
L -63 -1063 
L 3263 -1063 
z
" id="DejaVuSans-5f" transform="scale(0.015625)"/>
       <path d="M 2631 2963 
Q 2534 3019 2420 3045 
Q 2306 3072 2169 3072 
Q 1681 3072 1420 2755 
Q 1159 2438 1159 1844 
L 1159 0 
L 581 0 
L 581 3500 
L 1159 3500 
L 1159 2956 
Q 1341 3275 1631 3429 
Q 1922 3584 2338 3584 
Q 2397 3584 2469 3576 
Q 2541 3569 2628 3553 
L 2631 2963 
z
" id="DejaVuSans-72" transform="scale(0.015625)"/>
       <path d="M 2375 4863 
L 2375 4384 
L 1825 4384 
Q 1516 4384 1395 4259 
Q 1275 4134 1275 3809 
L 1275 3500 
L 2222 3500 
L 2222 3053 
L 1275 3053 
L 1275 0 
L 697 0 
L 697 3053 
L 147 3053 
L 147 3500 
L 697 3500 
L 697 3744 
Q 697 4328 969 4595 
Q 1241 4863 1831 4863 
L 2375 4863 
z
" id="DejaVuSans-66" transform="scale(0.015625)"/>
       <path d="M 2194 1759 
Q 1497 1759 1228 1600 
Q 959 1441 959 1056 
Q 959 750 1161 570 
Q 1363 391 1709 391 
Q 2188 391 2477 730 
Q 2766 1069 2766 1631 
L 2766 1759 
L 2194 1759 
z
M 3341 1997 
L 3341 0 
L 2766 0 
L 2766 531 
Q 2569 213 2275 61 
Q 1981 -91 1556 -91 
Q 1019 -91 701 211 
Q 384 513 384 1019 
Q 384 1609 779 1909 
Q 1175 2209 1959 2209 
L 2766 2209 
L 2766 2266 
Q 2766 2663 2505 2880 
Q 2244 3097 1772 3097 
Q 1472 3097 1187 3025 
Q 903 2953 641 2809 
L 641 3341 
Q 956 3463 1253 3523 
Q 1550 3584 1831 3584 
Q 2591 3584 2966 3190 
Q 3341 2797 3341 1997 
z
" id="DejaVuSans-61" transform="scale(0.015625)"/>
       <path d="M 2906 1791 
Q 2906 2416 2648 2759 
Q 2391 3103 1925 3103 
Q 1463 3103 1205 2759 
Q 947 2416 947 1791 
Q 947 1169 1205 825 
Q 1463 481 1925 481 
Q 2391 481 2648 825 
Q 2906 1169 2906 1791 
z
M 3481 434 
Q 3481 -459 3084 -895 
Q 2688 -1331 1869 -1331 
Q 1566 -1331 1297 -1286 
Q 1028 -1241 775 -1147 
L 775 -588 
Q 1028 -725 1275 -790 
Q 1522 -856 1778 -856 
Q 2344 -856 2625 -561 
Q 2906 -266 2906 331 
L 2906 616 
Q 2728 306 2450 153 
Q 2172 0 1784 0 
Q 1141 0 747 490 
Q 353 981 353 1791 
Q 353 2603 747 3093 
Q 1141 3584 1784 3584 
Q 2172 3584 2450 3431 
Q 2728 3278 2906 2969 
L 2906 3500 
L 3481 3500 
L 3481 434 
z
" id="DejaVuSans-67" transform="scale(0.015625)"/>
      </defs>
      <use xlink:href="#DejaVuSans-55"/>
      <use x="73.193359" xlink:href="#DejaVuSans-6e"/>
      <use x="136.572266" xlink:href="#DejaVuSans-69"/>
      <use x="164.355469" xlink:href="#DejaVuSans-71"/>
      <use x="227.832031" xlink:href="#DejaVuSans-75"/>
      <use x="291.210938" xlink:href="#DejaVuSans-65"/>
      <use x="352.734375" xlink:href="#DejaVuSans-5f"/>
      <use x="402.734375" xlink:href="#DejaVuSans-6e"/>
      <use x="466.113281" xlink:href="#DejaVuSans-72"/>
      <use x="507.226562" xlink:href="#DejaVuSans-5f"/>
      <use x="557.226562" xlink:href="#DejaVuSans-66"/>
      <use x="592.431641" xlink:href="#DejaVuSans-72"/>
      <use x="633.544922" xlink:href="#DejaVuSans-61"/>
      <use x="694.824219" xlink:href="#DejaVuSans-67"/>
     </g>
    </g>
   </g>
   <g id="matplotlib.axis_2">
    <g id="ytick_1">
     <g id="line2d_5">
      <path clip-path="url(#p541e92dca9)" d="M 46.645 194.875774 
L 269.185 194.875774 
" style="fill:none;stroke:#cccccc;stroke-linecap:round;"/>
     </g>
     <g id="text_6">
      <!-- 10 -->
      <g style="fill:#262626;" transform="translate(23.1475 199.054915)scale(0.11 -0.11)">
       <use xlink:href="#DejaVuSans-31"/>
       <use x="63.623047" xlink:href="#DejaVuSans-30"/>
      </g>
     </g>
    </g>
    <g id="ytick_2">
     <g id="line2d_6">
      <path clip-path="url(#p541e92dca9)" d="M 46.645 154.453198 
L 269.185 154.453198 
" style="fill:none;stroke:#cccccc;stroke-linecap:round;"/>
     </g>
     <g id="text_7">
      <!-- 15 -->
      <g style="fill:#262626;" transform="translate(23.1475 158.632339)scale(0.11 -0.11)">
       <defs>
        <path d="M 691 4666 
L 3169 4666 
L 3169 4134 
L 1269 4134 
L 1269 2991 
Q 1406 3038 1543 3061 
Q 1681 3084 1819 3084 
Q 2600 3084 3056 2656 
Q 3513 2228 3513 1497 
Q 3513 744 3044 326 
Q 2575 -91 1722 -91 
Q 1428 -91 1123 -41 
Q 819 9 494 109 
L 494 744 
Q 775 591 1075 516 
Q 1375 441 1709 441 
Q 2250 441 2565 725 
Q 2881 1009 2881 1497 
Q 2881 1984 2565 2268 
Q 2250 2553 1709 2553 
Q 1456 2553 1204 2497 
Q 953 2441 691 2322 
L 691 4666 
z
" id="DejaVuSans-35" transform="scale(0.015625)"/>
       </defs>
       <use xlink:href="#DejaVuSans-31"/>
       <use x="63.623047" xlink:href="#DejaVuSans-35"/>
      </g>
     </g>
    </g>
    <g id="ytick_3">
     <g id="line2d_7">
      <path clip-path="url(#p541e92dca9)" d="M 46.645 114.030622 
L 269.185 114.030622 
" style="fill:none;stroke:#cccccc;stroke-linecap:round;"/>
     </g>
     <g id="text_8">
      <!-- 20 -->
      <g style="fill:#262626;" transform="translate(23.1475 118.209763)scale(0.11 -0.11)">
       <defs>
        <path d="M 1228 531 
L 3431 531 
L 3431 0 
L 469 0 
L 469 531 
Q 828 903 1448 1529 
Q 2069 2156 2228 2338 
Q 2531 2678 2651 2914 
Q 2772 3150 2772 3378 
Q 2772 3750 2511 3984 
Q 2250 4219 1831 4219 
Q 1534 4219 1204 4116 
Q 875 4013 500 3803 
L 500 4441 
Q 881 4594 1212 4672 
Q 1544 4750 1819 4750 
Q 2544 4750 2975 4387 
Q 3406 4025 3406 3419 
Q 3406 3131 3298 2873 
Q 3191 2616 2906 2266 
Q 2828 2175 2409 1742 
Q 1991 1309 1228 531 
z
" id="DejaVuSans-32" transform="scale(0.015625)"/>
       </defs>
       <use xlink:href="#DejaVuSans-32"/>
       <use x="63.623047" xlink:href="#DejaVuSans-30"/>
      </g>
     </g>
    </g>
    <g id="ytick_4">
     <g id="line2d_8">
      <path clip-path="url(#p541e92dca9)" d="M 46.645 73.608046 
L 269.185 73.608046 
" style="fill:none;stroke:#cccccc;stroke-linecap:round;"/>
     </g>
     <g id="text_9">
      <!-- 25 -->
      <g style="fill:#262626;" transform="translate(23.1475 77.787187)scale(0.11 -0.11)">
       <use xlink:href="#DejaVuSans-32"/>
       <use x="63.623047" xlink:href="#DejaVuSans-35"/>
      </g>
     </g>
    </g>
    <g id="ytick_5">
     <g id="line2d_9">
      <path clip-path="url(#p541e92dca9)" d="M 46.645 33.185471 
L 269.185 33.185471 
" style="fill:none;stroke:#cccccc;stroke-linecap:round;"/>
     </g>
     <g id="text_10">
      <!-- 30 -->
      <g style="fill:#262626;" transform="translate(23.1475 37.364611)scale(0.11 -0.11)">
       <defs>
        <path d="M 2597 2516 
Q 3050 2419 3304 2112 
Q 3559 1806 3559 1356 
Q 3559 666 3084 287 
Q 2609 -91 1734 -91 
Q 1441 -91 1130 -33 
Q 819 25 488 141 
L 488 750 
Q 750 597 1062 519 
Q 1375 441 1716 441 
Q 2309 441 2620 675 
Q 2931 909 2931 1356 
Q 2931 1769 2642 2001 
Q 2353 2234 1838 2234 
L 1294 2234 
L 1294 2753 
L 1863 2753 
Q 2328 2753 2575 2939 
Q 2822 3125 2822 3475 
Q 2822 3834 2567 4026 
Q 2313 4219 1838 4219 
Q 1578 4219 1281 4162 
Q 984 4106 628 3988 
L 628 4550 
Q 988 4650 1302 4700 
Q 1616 4750 1894 4750 
Q 2613 4750 3031 4423 
Q 3450 4097 3450 3541 
Q 3450 3153 3228 2886 
Q 3006 2619 2597 2516 
z
" id="DejaVuSans-33" transform="scale(0.015625)"/>
       </defs>
       <use xlink:href="#DejaVuSans-33"/>
       <use x="63.623047" xlink:href="#DejaVuSans-30"/>
      </g>
     </g>
    </g>
    <g id="text_11">
     <!-- TSS_enrichment -->
     <g style="fill:#262626;" transform="translate(16.318125 158.703125)rotate(-90)scale(0.12 -0.12)">
      <defs>
       <path d="M -19 4666 
L 3928 4666 
L 3928 4134 
L 2272 4134 
L 2272 0 
L 1638 0 
L 1638 4134 
L -19 4134 
L -19 4666 
z
" id="DejaVuSans-54" transform="scale(0.015625)"/>
       <path d="M 3425 4513 
L 3425 3897 
Q 3066 4069 2747 4153 
Q 2428 4238 2131 4238 
Q 1616 4238 1336 4038 
Q 1056 3838 1056 3469 
Q 1056 3159 1242 3001 
Q 1428 2844 1947 2747 
L 2328 2669 
Q 3034 2534 3370 2195 
Q 3706 1856 3706 1288 
Q 3706 609 3251 259 
Q 2797 -91 1919 -91 
Q 1588 -91 1214 -16 
Q 841 59 441 206 
L 441 856 
Q 825 641 1194 531 
Q 1563 422 1919 422 
Q 2459 422 2753 634 
Q 3047 847 3047 1241 
Q 3047 1584 2836 1778 
Q 2625 1972 2144 2069 
L 1759 2144 
Q 1053 2284 737 2584 
Q 422 2884 422 3419 
Q 422 4038 858 4394 
Q 1294 4750 2059 4750 
Q 2388 4750 2728 4690 
Q 3069 4631 3425 4513 
z
" id="DejaVuSans-53" transform="scale(0.015625)"/>
       <path d="M 3122 3366 
L 3122 2828 
Q 2878 2963 2633 3030 
Q 2388 3097 2138 3097 
Q 1578 3097 1268 2742 
Q 959 2388 959 1747 
Q 959 1106 1268 751 
Q 1578 397 2138 397 
Q 2388 397 2633 464 
Q 2878 531 3122 666 
L 3122 134 
Q 2881 22 2623 -34 
Q 2366 -91 2075 -91 
Q 1284 -91 818 406 
Q 353 903 353 1747 
Q 353 2603 823 3093 
Q 1294 3584 2113 3584 
Q 2378 3584 2631 3529 
Q 2884 3475 3122 3366 
z
" id="DejaVuSans-63" transform="scale(0.015625)"/>
       <path d="M 3513 2113 
L 3513 0 
L 2938 0 
L 2938 2094 
Q 2938 2591 2744 2837 
Q 2550 3084 2163 3084 
Q 1697 3084 1428 2787 
Q 1159 2491 1159 1978 
L 1159 0 
L 581 0 
L 581 4863 
L 1159 4863 
L 1159 2956 
Q 1366 3272 1645 3428 
Q 1925 3584 2291 3584 
Q 2894 3584 3203 3211 
Q 3513 2838 3513 2113 
z
" id="DejaVuSans-68" transform="scale(0.015625)"/>
       <path d="M 3328 2828 
Q 3544 3216 3844 3400 
Q 4144 3584 4550 3584 
Q 5097 3584 5394 3201 
Q 5691 2819 5691 2113 
L 5691 0 
L 5113 0 
L 5113 2094 
Q 5113 2597 4934 2840 
Q 4756 3084 4391 3084 
Q 3944 3084 3684 2787 
Q 3425 2491 3425 1978 
L 3425 0 
L 2847 0 
L 2847 2094 
Q 2847 2600 2669 2842 
Q 2491 3084 2119 3084 
Q 1678 3084 1418 2786 
Q 1159 2488 1159 1978 
L 1159 0 
L 581 0 
L 581 3500 
L 1159 3500 
L 1159 2956 
Q 1356 3278 1631 3431 
Q 1906 3584 2284 3584 
Q 2666 3584 2933 3390 
Q 3200 3197 3328 2828 
z
" id="DejaVuSans-6d" transform="scale(0.015625)"/>
       <path d="M 1172 4494 
L 1172 3500 
L 2356 3500 
L 2356 3053 
L 1172 3053 
L 1172 1153 
Q 1172 725 1289 603 
Q 1406 481 1766 481 
L 2356 481 
L 2356 0 
L 1766 0 
Q 1100 0 847 248 
Q 594 497 594 1153 
L 594 3053 
L 172 3053 
L 172 3500 
L 594 3500 
L 594 4494 
L 1172 4494 
z
" id="DejaVuSans-74" transform="scale(0.015625)"/>
      </defs>
      <use xlink:href="#DejaVuSans-54"/>
      <use x="61.083984" xlink:href="#DejaVuSans-53"/>
      <use x="124.560547" xlink:href="#DejaVuSans-53"/>
      <use x="188.037109" xlink:href="#DejaVuSans-5f"/>
      <use x="238.037109" xlink:href="#DejaVuSans-65"/>
      <use x="299.560547" xlink:href="#DejaVuSans-6e"/>
      <use x="362.939453" xlink:href="#DejaVuSans-72"/>
      <use x="404.052734" xlink:href="#DejaVuSans-69"/>
      <use x="431.835938" xlink:href="#DejaVuSans-63"/>
      <use x="486.816406" xlink:href="#DejaVuSans-68"/>
      <use x="550.195312" xlink:href="#DejaVuSans-6d"/>
      <use x="647.607422" xlink:href="#DejaVuSans-65"/>
      <use x="709.130859" xlink:href="#DejaVuSans-6e"/>
      <use x="772.509766" xlink:href="#DejaVuSans-74"/>
     </g>
    </g>
   </g>
   <g id="PolyCollection_1">
    <defs>
     <path d="M 56.760455 -243.343608 
L 56.760455 -146.766644 
L 58.803981 -146.851065 
L 60.847507 -146.935486 
L 62.891033 -147.019907 
L 64.934559 -147.104329 
L 66.978085 -146.992426 
L 69.021612 -146.832763 
L 71.065138 -146.673819 
L 73.108664 -146.514874 
L 75.15219 -146.550428 
L 77.195716 -146.647986 
L 79.239242 -146.745764 
L 81.282769 -146.843541 
L 83.326295 -146.941319 
L 85.369821 -147.039097 
L 87.413347 -147.119422 
L 89.456873 -147.001587 
L 91.500399 -146.883753 
L 93.543926 -146.765918 
L 95.587452 -146.727094 
L 97.630978 -146.761795 
L 99.674504 -146.796497 
L 101.71803 -146.831198 
L 103.761556 -146.8659 
L 105.805083 -146.900601 
L 107.848609 -146.935302 
L 109.892135 -146.970004 
L 111.935661 -147.004705 
L 113.979187 -147.042813 
L 116.022713 -147.083096 
L 118.06624 -147.123379 
L 120.109766 -147.158667 
L 122.153292 -146.717963 
L 124.196818 -146.277259 
L 126.240344 -146.282336 
L 128.283871 -146.383446 
L 130.327397 -146.449805 
L 132.370923 -146.331983 
L 134.414449 -146.530974 
L 136.457975 -146.729964 
L 138.501501 -146.432779 
L 140.545028 -145.855972 
L 142.588554 -145.627599 
L 144.63208 -145.637267 
L 146.675606 -145.636063 
L 148.719132 -145.624484 
L 150.762658 -145.481642 
L 152.806185 -145.297996 
L 154.849711 -145.114349 
L 156.893237 -144.542252 
L 158.936763 -143.844682 
L 160.980289 -143.817466 
L 163.023815 -143.276559 
L 165.067342 -143.409998 
L 167.110868 -143.584898 
L 169.154394 -143.07811 
L 171.19792 -142.419205 
L 173.241446 -142.012862 
L 175.284972 -141.881137 
L 177.328499 -141.758251 
L 179.372025 -141.541996 
L 181.415551 -141.496356 
L 183.459077 -141.176687 
L 185.502603 -140.795293 
L 187.546129 -140.696683 
L 189.589656 -140.318826 
L 191.633182 -139.698508 
L 193.676708 -139.201069 
L 195.720234 -138.73952 
L 197.76376 -138.736952 
L 199.807287 -138.51224 
L 201.850813 -138.04249 
L 203.894339 -137.385935 
L 205.937865 -136.853355 
L 207.981391 -136.253664 
L 210.024917 -135.506443 
L 212.068444 -135.116949 
L 214.11197 -134.55013 
L 216.155496 -133.714122 
L 218.199022 -132.855978 
L 220.242548 -132.421314 
L 222.286074 -131.641896 
L 224.329601 -130.862478 
L 226.373127 -130.097473 
L 228.416653 -129.350504 
L 230.460179 -128.514722 
L 232.503705 -127.732153 
L 234.547231 -126.952149 
L 236.590758 -126.172144 
L 238.634284 -125.465921 
L 240.67781 -124.764443 
L 242.721336 -124.063278 
L 244.764862 -123.362113 
L 246.808388 -122.660948 
L 248.851915 -121.959783 
L 250.895441 -121.041995 
L 252.938967 -120.117097 
L 254.982493 -119.192198 
L 257.026019 -118.349336 
L 259.069545 -117.467391 
L 259.069545 -158.969311 
L 259.069545 -158.969311 
L 257.026019 -159.239409 
L 254.982493 -159.836071 
L 252.938967 -160.37157 
L 250.895441 -161.010921 
L 248.851915 -161.72666 
L 246.808388 -162.4424 
L 244.764862 -162.911156 
L 242.721336 -163.528382 
L 240.67781 -164.229037 
L 238.634284 -164.929693 
L 236.590758 -165.630348 
L 234.547231 -166.361719 
L 232.503705 -167.08025 
L 230.460179 -167.737841 
L 228.416653 -168.440557 
L 226.373127 -169.143272 
L 224.329601 -169.844503 
L 222.286074 -170.54553 
L 220.242548 -171.246558 
L 218.199022 -172.090922 
L 216.155496 -173.099676 
L 214.11197 -173.847294 
L 212.068444 -174.623004 
L 210.024917 -175.338998 
L 207.981391 -176.091625 
L 205.937865 -176.840414 
L 203.894339 -177.588812 
L 201.850813 -178.378662 
L 199.807287 -179.086001 
L 197.76376 -179.833793 
L 195.720234 -180.720487 
L 193.676708 -181.831246 
L 191.633182 -182.613884 
L 189.589656 -183.582275 
L 187.546129 -184.348022 
L 185.502603 -185.0358 
L 183.459077 -186.138047 
L 181.415551 -186.991894 
L 179.372025 -187.842624 
L 177.328499 -188.693353 
L 175.284972 -189.404019 
L 173.241446 -190.084032 
L 171.19792 -190.85234 
L 169.154394 -191.916787 
L 167.110868 -192.719725 
L 165.067342 -193.519552 
L 163.023815 -194.378428 
L 160.980289 -195.30484 
L 158.936763 -196.355496 
L 156.893237 -197.113049 
L 154.849711 -197.782475 
L 152.806185 -198.692723 
L 150.762658 -199.441317 
L 148.719132 -200.487198 
L 146.675606 -201.425998 
L 144.63208 -202.326011 
L 142.588554 -203.249523 
L 140.545028 -204.162229 
L 138.501501 -205.076575 
L 136.457975 -205.995697 
L 134.414449 -207.063495 
L 132.370923 -208.021863 
L 130.327397 -208.749912 
L 128.283871 -209.644974 
L 126.240344 -210.557293 
L 124.196818 -211.512725 
L 122.153292 -212.547119 
L 120.109766 -213.581513 
L 118.06624 -214.615907 
L 116.022713 -215.650302 
L 113.979187 -216.651775 
L 111.935661 -217.582812 
L 109.892135 -218.512663 
L 107.848609 -219.44132 
L 105.805083 -220.369977 
L 103.761556 -221.298634 
L 101.71803 -222.227291 
L 99.674504 -223.155949 
L 97.630978 -224.084606 
L 95.587452 -225.013263 
L 93.543926 -225.94192 
L 91.500399 -226.870578 
L 89.456873 -227.799235 
L 87.413347 -228.727892 
L 85.369821 -229.683597 
L 83.326295 -230.658724 
L 81.282769 -231.633852 
L 79.239242 -232.60898 
L 77.195716 -233.584108 
L 75.15219 -234.559236 
L 73.108664 -235.534364 
L 71.065138 -236.509492 
L 69.021612 -237.48462 
L 66.978085 -238.459748 
L 64.934559 -239.434041 
L 62.891033 -240.411024 
L 60.847507 -241.388552 
L 58.803981 -242.36608 
L 56.760455 -243.343608 
z
" id="m0f20ee9df6" style="stroke:#ffffff;stroke-opacity:0.15;"/>
    </defs>
    <g clip-path="url(#p541e92dca9)">
     <use style="fill:#4c72b0;fill-opacity:0.15;stroke:#ffffff;stroke-opacity:0.15;" x="0" xlink:href="#m0f20ee9df6" y="259.889063"/>
    </g>
   </g>
   <g id="PathCollection_1">
    <defs>
     <path d="M 0 2.236068 
C 0.593012 2.236068 1.161816 2.000462 1.581139 1.581139 
C 2.000462 1.161816 2.236068 0.593012 2.236068 -0 
C 2.236068 -0.593012 2.000462 -1.161816 1.581139 -1.581139 
C 1.161816 -2.000462 0.593012 -2.236068 0 -2.236068 
C -0.593012 -2.236068 -1.161816 -2.000462 -1.581139 -1.581139 
C -2.000462 -1.161816 -2.236068 -0.593012 -2.236068 0 
C -2.236068 0.593012 -2.000462 1.161816 -1.581139 1.581139 
C -1.161816 2.000462 -0.593012 2.236068 0 2.236068 
z
" id="C0_0_b40b6dc97c"/>
    </defs>
    <g clip-path="url(#p541e92dca9)">
     <use style="fill:#1f77b4;" x="229.473709" xlink:href="#C0_0_b40b6dc97c" y="126.301416"/>
    </g>
    <g clip-path="url(#p541e92dca9)">
     <use style="fill:#aec7e8;" x="180.074523" xlink:href="#C0_0_b40b6dc97c" y="133.939379"/>
    </g>
    <g clip-path="url(#p541e92dca9)">
     <use style="fill:#ff7f0e;" x="196.418321" xlink:href="#C0_0_b40b6dc97c" y="53.318057"/>
    </g>
    <g clip-path="url(#p541e92dca9)">
     <use style="fill:#ffbb78;" x="226.462405" xlink:href="#C0_0_b40b6dc97c" y="101.975949"/>
    </g>
    <g clip-path="url(#p541e92dca9)">
     <use style="fill:#2ca02c;" x="150.375245" xlink:href="#C0_0_b40b6dc97c" y="86.59929"/>
    </g>
    <g clip-path="url(#p541e92dca9)">
     <use style="fill:#98df8a;" x="160.799876" xlink:href="#C0_0_b40b6dc97c" y="83.160789"/>
    </g>
    <g clip-path="url(#p541e92dca9)">
     <use style="fill:#d62728;" x="230.105853" xlink:href="#C0_0_b40b6dc97c" y="108.486126"/>
    </g>
    <g clip-path="url(#p541e92dca9)">
     <use style="fill:#ff9896;" x="213.64712" xlink:href="#C0_0_b40b6dc97c" y="112.068175"/>
    </g>
    <g clip-path="url(#p541e92dca9)">
     <use style="fill:#9467bd;" x="259.069545" xlink:href="#C0_0_b40b6dc97c" y="106.683431"/>
    </g>
    <g clip-path="url(#p541e92dca9)">
     <use style="fill:#c5b0d5;" x="254.644537" xlink:href="#C0_0_b40b6dc97c" y="105.794231"/>
    </g>
    <g clip-path="url(#p541e92dca9)">
     <use style="fill:#8c564b;" x="172.339378" xlink:href="#C0_0_b40b6dc97c" y="41.496493"/>
    </g>
    <g clip-path="url(#p541e92dca9)">
     <use style="fill:#c49c94;" x="166.293782" xlink:href="#C0_0_b40b6dc97c" y="38.063091"/>
    </g>
    <g clip-path="url(#p541e92dca9)">
     <use style="fill:#e377c2;" x="56.760455" xlink:href="#C0_0_b40b6dc97c" y="41.706191"/>
    </g>
    <g clip-path="url(#p541e92dca9)">
     <use style="fill:#f7b6d2;" x="59.312018" xlink:href="#C0_0_b40b6dc97c" y="42.520051"/>
    </g>
    <g clip-path="url(#p541e92dca9)">
     <use style="fill:#7f7f7f;" x="170.086647" xlink:href="#C0_0_b40b6dc97c" y="203.454545"/>
    </g>
   </g>
   <g id="PathCollection_2"/>
   <g id="PathCollection_3"/>
   <g id="PathCollection_4"/>
   <g id="PathCollection_5"/>
   <g id="PathCollection_6"/>
   <g id="PathCollection_7"/>
   <g id="PathCollection_8"/>
   <g id="PathCollection_9"/>
   <g id="PathCollection_10"/>
   <g id="PathCollection_11"/>
   <g id="PathCollection_12"/>
   <g id="PathCollection_13"/>
   <g id="PathCollection_14"/>
   <g id="PathCollection_15"/>
   <g id="PathCollection_16"/>
   <g id="line2d_10">
    <path clip-path="url(#p541e92dca9)" d="M 56.760455 49.464235 
L 58.803981 50.16589 
L 60.847507 50.867544 
L 62.891033 51.569199 
L 64.934559 52.270853 
L 66.978085 52.972508 
L 69.021612 53.674162 
L 71.065138 54.375817 
L 73.108664 55.077471 
L 75.15219 55.779126 
L 77.195716 56.48078 
L 79.239242 57.182435 
L 81.282769 57.884089 
L 83.326295 58.585744 
L 85.369821 59.287399 
L 87.413347 59.989053 
L 89.456873 60.690708 
L 91.500399 61.392362 
L 93.543926 62.094017 
L 95.587452 62.795671 
L 97.630978 63.497326 
L 99.674504 64.19898 
L 101.71803 64.900635 
L 103.761556 65.602289 
L 105.805083 66.303944 
L 107.848609 67.005599 
L 109.892135 67.707253 
L 111.935661 68.408908 
L 113.979187 69.110562 
L 116.022713 69.812217 
L 118.06624 70.513871 
L 120.109766 71.215526 
L 122.153292 71.91718 
L 124.196818 72.618835 
L 126.240344 73.320489 
L 128.283871 74.022144 
L 130.327397 74.723798 
L 132.370923 75.425453 
L 134.414449 76.127108 
L 136.457975 76.828762 
L 138.501501 77.530417 
L 140.545028 78.232071 
L 142.588554 78.933726 
L 144.63208 79.63538 
L 146.675606 80.337035 
L 148.719132 81.038689 
L 150.762658 81.740344 
L 152.806185 82.441998 
L 154.849711 83.143653 
L 156.893237 83.845307 
L 158.936763 84.546962 
L 160.980289 85.248617 
L 163.023815 85.950271 
L 165.067342 86.651926 
L 167.110868 87.35358 
L 169.154394 88.055235 
L 171.19792 88.756889 
L 173.241446 89.458544 
L 175.284972 90.160198 
L 177.328499 90.861853 
L 179.372025 91.563507 
L 181.415551 92.265162 
L 183.459077 92.966817 
L 185.502603 93.668471 
L 187.546129 94.370126 
L 189.589656 95.07178 
L 191.633182 95.773435 
L 193.676708 96.475089 
L 195.720234 97.176744 
L 197.76376 97.878398 
L 199.807287 98.580053 
L 201.850813 99.281707 
L 203.894339 99.983362 
L 205.937865 100.685016 
L 207.981391 101.386671 
L 210.024917 102.088326 
L 212.068444 102.78998 
L 214.11197 103.491635 
L 216.155496 104.193289 
L 218.199022 104.894944 
L 220.242548 105.596598 
L 222.286074 106.298253 
L 224.329601 106.999907 
L 226.373127 107.701562 
L 228.416653 108.403216 
L 230.460179 109.104871 
L 232.503705 109.806525 
L 234.547231 110.50818 
L 236.590758 111.209835 
L 238.634284 111.911489 
L 240.67781 112.613144 
L 242.721336 113.314798 
L 244.764862 114.016453 
L 246.808388 114.718107 
L 248.851915 115.419762 
L 250.895441 116.121416 
L 252.938967 116.823071 
L 254.982493 117.524725 
L 257.026019 118.22638 
L 259.069545 118.928035 
" style="fill:none;stroke:#4c72b0;stroke-linecap:round;stroke-width:2.25;"/>
   </g>
   <g id="patch_3">
    <path d="M 46.645 212.8 
L 46.645 7.2 
" style="fill:none;stroke:#333333;stroke-linecap:square;stroke-linejoin:miter;stroke-width:1.25;"/>
   </g>
   <g id="patch_4">
    <path d="M 269.185 212.8 
L 269.185 7.2 
" style="fill:none;stroke:#333333;stroke-linecap:square;stroke-linejoin:miter;stroke-width:1.25;"/>
   </g>
   <g id="patch_5">
    <path d="M 46.645 212.8 
L 269.185 212.8 
" style="fill:none;stroke:#333333;stroke-linecap:square;stroke-linejoin:miter;stroke-width:1.25;"/>
   </g>
   <g id="patch_6">
    <path d="M 46.645 7.2 
L 269.185 7.2 
" style="fill:none;stroke:#333333;stroke-linecap:square;stroke-linejoin:miter;stroke-width:1.25;"/>
   </g>
   <g id="legend_1">
    <g id="patch_7">
     <path d="M 282.512 252.689063 
L 403.310906 252.689063 
Q 405.510906 252.689063 405.510906 250.489063 
L 405.510906 9.4 
Q 405.510906 7.2 403.310906 7.2 
L 282.512 7.2 
Q 280.312 7.2 280.312 9.4 
L 280.312 250.489063 
Q 280.312 252.689063 282.512 252.689063 
z
" style="fill:#ffffff;opacity:0.8;stroke:#cccccc;stroke-linejoin:miter;"/>
    </g>
    <g id="PathCollection_17">
     <defs>
      <path d="M 0 3 
C 0.795609 3 1.55874 2.683901 2.12132 2.12132 
C 2.683901 1.55874 3 0.795609 3 0 
C 3 -0.795609 2.683901 -1.55874 2.12132 -2.12132 
C 1.55874 -2.683901 0.795609 -3 0 -3 
C -0.795609 -3 -1.55874 -2.683901 -2.12132 -2.12132 
C -2.683901 -1.55874 -3 -0.795609 -3 0 
C -3 0.795609 -2.683901 1.55874 -2.12132 2.12132 
C -1.55874 2.683901 -0.795609 3 0 3 
z
" id="mca71a44a86" style="stroke:#1f77b4;"/>
     </defs>
     <g>
      <use style="fill:#1f77b4;stroke:#1f77b4;" x="295.712" xlink:href="#mca71a44a86" y="17.070781"/>
     </g>
    </g>
    <g id="text_12">
     <!-- 10x ATAC A1 -->
     <g style="fill:#262626;" transform="translate(315.512 19.958281)scale(0.11 -0.11)">
      <defs>
       <path d="M 3513 3500 
L 2247 1797 
L 3578 0 
L 2900 0 
L 1881 1375 
L 863 0 
L 184 0 
L 1544 1831 
L 300 3500 
L 978 3500 
L 1906 2253 
L 2834 3500 
L 3513 3500 
z
" id="DejaVuSans-78" transform="scale(0.015625)"/>
       <path id="DejaVuSans-20" transform="scale(0.015625)"/>
       <path d="M 2188 4044 
L 1331 1722 
L 3047 1722 
L 2188 4044 
z
M 1831 4666 
L 2547 4666 
L 4325 0 
L 3669 0 
L 3244 1197 
L 1141 1197 
L 716 0 
L 50 0 
L 1831 4666 
z
" id="DejaVuSans-41" transform="scale(0.015625)"/>
       <path d="M 4122 4306 
L 4122 3641 
Q 3803 3938 3442 4084 
Q 3081 4231 2675 4231 
Q 1875 4231 1450 3742 
Q 1025 3253 1025 2328 
Q 1025 1406 1450 917 
Q 1875 428 2675 428 
Q 3081 428 3442 575 
Q 3803 722 4122 1019 
L 4122 359 
Q 3791 134 3420 21 
Q 3050 -91 2638 -91 
Q 1578 -91 968 557 
Q 359 1206 359 2328 
Q 359 3453 968 4101 
Q 1578 4750 2638 4750 
Q 3056 4750 3426 4639 
Q 3797 4528 4122 4306 
z
" id="DejaVuSans-43" transform="scale(0.015625)"/>
      </defs>
      <use xlink:href="#DejaVuSans-31"/>
      <use x="63.623047" xlink:href="#DejaVuSans-30"/>
      <use x="127.246094" xlink:href="#DejaVuSans-78"/>
      <use x="186.425781" xlink:href="#DejaVuSans-20"/>
      <use x="218.212891" xlink:href="#DejaVuSans-41"/>
      <use x="278.871094" xlink:href="#DejaVuSans-54"/>
      <use x="332.205078" xlink:href="#DejaVuSans-41"/>
      <use x="398.863281" xlink:href="#DejaVuSans-43"/>
      <use x="468.6875" xlink:href="#DejaVuSans-20"/>
      <use x="500.474609" xlink:href="#DejaVuSans-41"/>
      <use x="568.882812" xlink:href="#DejaVuSans-31"/>
     </g>
    </g>
    <g id="PathCollection_18">
     <defs>
      <path d="M 0 3 
C 0.795609 3 1.55874 2.683901 2.12132 2.12132 
C 2.683901 1.55874 3 0.795609 3 0 
C 3 -0.795609 2.683901 -1.55874 2.12132 -2.12132 
C 1.55874 -2.683901 0.795609 -3 0 -3 
C -0.795609 -3 -1.55874 -2.683901 -2.12132 -2.12132 
C -2.683901 -1.55874 -3 -0.795609 -3 0 
C -3 0.795609 -2.683901 1.55874 -2.12132 2.12132 
C -1.55874 2.683901 -0.795609 3 0 3 
z
" id="m63b47690cb" style="stroke:#aec7e8;"/>
     </defs>
     <g>
      <use style="fill:#aec7e8;stroke:#aec7e8;" x="295.712" xlink:href="#m63b47690cb" y="33.216719"/>
     </g>
    </g>
    <g id="text_13">
     <!-- 10x ATAC A2 -->
     <g style="fill:#262626;" transform="translate(315.512 36.104219)scale(0.11 -0.11)">
      <use xlink:href="#DejaVuSans-31"/>
      <use x="63.623047" xlink:href="#DejaVuSans-30"/>
      <use x="127.246094" xlink:href="#DejaVuSans-78"/>
      <use x="186.425781" xlink:href="#DejaVuSans-20"/>
      <use x="218.212891" xlink:href="#DejaVuSans-41"/>
      <use x="278.871094" xlink:href="#DejaVuSans-54"/>
      <use x="332.205078" xlink:href="#DejaVuSans-41"/>
      <use x="398.863281" xlink:href="#DejaVuSans-43"/>
      <use x="468.6875" xlink:href="#DejaVuSans-20"/>
      <use x="500.474609" xlink:href="#DejaVuSans-41"/>
      <use x="568.882812" xlink:href="#DejaVuSans-32"/>
     </g>
    </g>
    <g id="PathCollection_19">
     <defs>
      <path d="M 0 3 
C 0.795609 3 1.55874 2.683901 2.12132 2.12132 
C 2.683901 1.55874 3 0.795609 3 0 
C 3 -0.795609 2.683901 -1.55874 2.12132 -2.12132 
C 1.55874 -2.683901 0.795609 -3 0 -3 
C -0.795609 -3 -1.55874 -2.683901 -2.12132 -2.12132 
C -2.683901 -1.55874 -3 -0.795609 -3 0 
C -3 0.795609 -2.683901 1.55874 -2.12132 2.12132 
C -1.55874 2.683901 -0.795609 3 0 3 
z
" id="mf3fc4a0f4a" style="stroke:#ff7f0e;"/>
     </defs>
     <g>
      <use style="fill:#ff7f0e;stroke:#ff7f0e;" x="295.712" xlink:href="#mf3fc4a0f4a" y="49.362656"/>
     </g>
    </g>
    <g id="text_14">
     <!-- 10x ATAC B1 -->
     <g style="fill:#262626;" transform="translate(315.512 52.250156)scale(0.11 -0.11)">
      <defs>
       <path d="M 1259 2228 
L 1259 519 
L 2272 519 
Q 2781 519 3026 730 
Q 3272 941 3272 1375 
Q 3272 1813 3026 2020 
Q 2781 2228 2272 2228 
L 1259 2228 
z
M 1259 4147 
L 1259 2741 
L 2194 2741 
Q 2656 2741 2882 2914 
Q 3109 3088 3109 3444 
Q 3109 3797 2882 3972 
Q 2656 4147 2194 4147 
L 1259 4147 
z
M 628 4666 
L 2241 4666 
Q 2963 4666 3353 4366 
Q 3744 4066 3744 3513 
Q 3744 3084 3544 2831 
Q 3344 2578 2956 2516 
Q 3422 2416 3680 2098 
Q 3938 1781 3938 1306 
Q 3938 681 3513 340 
Q 3088 0 2303 0 
L 628 0 
L 628 4666 
z
" id="DejaVuSans-42" transform="scale(0.015625)"/>
      </defs>
      <use xlink:href="#DejaVuSans-31"/>
      <use x="63.623047" xlink:href="#DejaVuSans-30"/>
      <use x="127.246094" xlink:href="#DejaVuSans-78"/>
      <use x="186.425781" xlink:href="#DejaVuSans-20"/>
      <use x="218.212891" xlink:href="#DejaVuSans-41"/>
      <use x="278.871094" xlink:href="#DejaVuSans-54"/>
      <use x="332.205078" xlink:href="#DejaVuSans-41"/>
      <use x="398.863281" xlink:href="#DejaVuSans-43"/>
      <use x="468.6875" xlink:href="#DejaVuSans-20"/>
      <use x="500.474609" xlink:href="#DejaVuSans-42"/>
      <use x="569.078125" xlink:href="#DejaVuSans-31"/>
     </g>
    </g>
    <g id="PathCollection_20">
     <defs>
      <path d="M 0 3 
C 0.795609 3 1.55874 2.683901 2.12132 2.12132 
C 2.683901 1.55874 3 0.795609 3 0 
C 3 -0.795609 2.683901 -1.55874 2.12132 -2.12132 
C 1.55874 -2.683901 0.795609 -3 0 -3 
C -0.795609 -3 -1.55874 -2.683901 -2.12132 -2.12132 
C -2.683901 -1.55874 -3 -0.795609 -3 0 
C -3 0.795609 -2.683901 1.55874 -2.12132 2.12132 
C -1.55874 2.683901 -0.795609 3 0 3 
z
" id="mdd2832ec68" style="stroke:#ffbb78;"/>
     </defs>
     <g>
      <use style="fill:#ffbb78;stroke:#ffbb78;" x="295.712" xlink:href="#mdd2832ec68" y="65.508594"/>
     </g>
    </g>
    <g id="text_15">
     <!-- 10x ATAC B2 -->
     <g style="fill:#262626;" transform="translate(315.512 68.396094)scale(0.11 -0.11)">
      <use xlink:href="#DejaVuSans-31"/>
      <use x="63.623047" xlink:href="#DejaVuSans-30"/>
      <use x="127.246094" xlink:href="#DejaVuSans-78"/>
      <use x="186.425781" xlink:href="#DejaVuSans-20"/>
      <use x="218.212891" xlink:href="#DejaVuSans-41"/>
      <use x="278.871094" xlink:href="#DejaVuSans-54"/>
      <use x="332.205078" xlink:href="#DejaVuSans-41"/>
      <use x="398.863281" xlink:href="#DejaVuSans-43"/>
      <use x="468.6875" xlink:href="#DejaVuSans-20"/>
      <use x="500.474609" xlink:href="#DejaVuSans-42"/>
      <use x="569.078125" xlink:href="#DejaVuSans-32"/>
     </g>
    </g>
    <g id="PathCollection_21">
     <defs>
      <path d="M 0 3 
C 0.795609 3 1.55874 2.683901 2.12132 2.12132 
C 2.683901 1.55874 3 0.795609 3 0 
C 3 -0.795609 2.683901 -1.55874 2.12132 -2.12132 
C 1.55874 -2.683901 0.795609 -3 0 -3 
C -0.795609 -3 -1.55874 -2.683901 -2.12132 -2.12132 
C -2.683901 -1.55874 -3 -0.795609 -3 0 
C -3 0.795609 -2.683901 1.55874 -2.12132 2.12132 
C -1.55874 2.683901 -0.795609 3 0 3 
z
" id="m497ccfde6c" style="stroke:#2ca02c;"/>
     </defs>
     <g>
      <use style="fill:#2ca02c;stroke:#2ca02c;" x="295.712" xlink:href="#m497ccfde6c" y="81.654531"/>
     </g>
    </g>
    <g id="text_16">
     <!-- 10x ATAC C1 -->
     <g style="fill:#262626;" transform="translate(315.512 84.542031)scale(0.11 -0.11)">
      <use xlink:href="#DejaVuSans-31"/>
      <use x="63.623047" xlink:href="#DejaVuSans-30"/>
      <use x="127.246094" xlink:href="#DejaVuSans-78"/>
      <use x="186.425781" xlink:href="#DejaVuSans-20"/>
      <use x="218.212891" xlink:href="#DejaVuSans-41"/>
      <use x="278.871094" xlink:href="#DejaVuSans-54"/>
      <use x="332.205078" xlink:href="#DejaVuSans-41"/>
      <use x="398.863281" xlink:href="#DejaVuSans-43"/>
      <use x="468.6875" xlink:href="#DejaVuSans-20"/>
      <use x="500.474609" xlink:href="#DejaVuSans-43"/>
      <use x="570.298828" xlink:href="#DejaVuSans-31"/>
     </g>
    </g>
    <g id="PathCollection_22">
     <defs>
      <path d="M 0 3 
C 0.795609 3 1.55874 2.683901 2.12132 2.12132 
C 2.683901 1.55874 3 0.795609 3 0 
C 3 -0.795609 2.683901 -1.55874 2.12132 -2.12132 
C 1.55874 -2.683901 0.795609 -3 0 -3 
C -0.795609 -3 -1.55874 -2.683901 -2.12132 -2.12132 
C -2.683901 -1.55874 -3 -0.795609 -3 0 
C -3 0.795609 -2.683901 1.55874 -2.12132 2.12132 
C -1.55874 2.683901 -0.795609 3 0 3 
z
" id="m497822e91f" style="stroke:#98df8a;"/>
     </defs>
     <g>
      <use style="fill:#98df8a;stroke:#98df8a;" x="295.712" xlink:href="#m497822e91f" y="97.800469"/>
     </g>
    </g>
    <g id="text_17">
     <!-- 10x ATAC C2 -->
     <g style="fill:#262626;" transform="translate(315.512 100.687969)scale(0.11 -0.11)">
      <use xlink:href="#DejaVuSans-31"/>
      <use x="63.623047" xlink:href="#DejaVuSans-30"/>
      <use x="127.246094" xlink:href="#DejaVuSans-78"/>
      <use x="186.425781" xlink:href="#DejaVuSans-20"/>
      <use x="218.212891" xlink:href="#DejaVuSans-41"/>
      <use x="278.871094" xlink:href="#DejaVuSans-54"/>
      <use x="332.205078" xlink:href="#DejaVuSans-41"/>
      <use x="398.863281" xlink:href="#DejaVuSans-43"/>
      <use x="468.6875" xlink:href="#DejaVuSans-20"/>
      <use x="500.474609" xlink:href="#DejaVuSans-43"/>
      <use x="570.298828" xlink:href="#DejaVuSans-32"/>
     </g>
    </g>
    <g id="PathCollection_23">
     <defs>
      <path d="M 0 3 
C 0.795609 3 1.55874 2.683901 2.12132 2.12132 
C 2.683901 1.55874 3 0.795609 3 0 
C 3 -0.795609 2.683901 -1.55874 2.12132 -2.12132 
C 1.55874 -2.683901 0.795609 -3 0 -3 
C -0.795609 -3 -1.55874 -2.683901 -2.12132 -2.12132 
C -2.683901 -1.55874 -3 -0.795609 -3 0 
C -3 0.795609 -2.683901 1.55874 -2.12132 2.12132 
C -1.55874 2.683901 -0.795609 3 0 3 
z
" id="mb3744c0863" style="stroke:#d62728;"/>
     </defs>
     <g>
      <use style="fill:#d62728;stroke:#d62728;" x="295.712" xlink:href="#mb3744c0863" y="113.946406"/>
     </g>
    </g>
    <g id="text_18">
     <!-- 10x Multiome 1 -->
     <g style="fill:#262626;" transform="translate(315.512 116.833906)scale(0.11 -0.11)">
      <defs>
       <path d="M 628 4666 
L 1569 4666 
L 2759 1491 
L 3956 4666 
L 4897 4666 
L 4897 0 
L 4281 0 
L 4281 4097 
L 3078 897 
L 2444 897 
L 1241 4097 
L 1241 0 
L 628 0 
L 628 4666 
z
" id="DejaVuSans-4d" transform="scale(0.015625)"/>
       <path d="M 603 4863 
L 1178 4863 
L 1178 0 
L 603 0 
L 603 4863 
z
" id="DejaVuSans-6c" transform="scale(0.015625)"/>
       <path d="M 1959 3097 
Q 1497 3097 1228 2736 
Q 959 2375 959 1747 
Q 959 1119 1226 758 
Q 1494 397 1959 397 
Q 2419 397 2687 759 
Q 2956 1122 2956 1747 
Q 2956 2369 2687 2733 
Q 2419 3097 1959 3097 
z
M 1959 3584 
Q 2709 3584 3137 3096 
Q 3566 2609 3566 1747 
Q 3566 888 3137 398 
Q 2709 -91 1959 -91 
Q 1206 -91 779 398 
Q 353 888 353 1747 
Q 353 2609 779 3096 
Q 1206 3584 1959 3584 
z
" id="DejaVuSans-6f" transform="scale(0.015625)"/>
      </defs>
      <use xlink:href="#DejaVuSans-31"/>
      <use x="63.623047" xlink:href="#DejaVuSans-30"/>
      <use x="127.246094" xlink:href="#DejaVuSans-78"/>
      <use x="186.425781" xlink:href="#DejaVuSans-20"/>
      <use x="218.212891" xlink:href="#DejaVuSans-4d"/>
      <use x="304.492188" xlink:href="#DejaVuSans-75"/>
      <use x="367.871094" xlink:href="#DejaVuSans-6c"/>
      <use x="395.654297" xlink:href="#DejaVuSans-74"/>
      <use x="434.863281" xlink:href="#DejaVuSans-69"/>
      <use x="462.646484" xlink:href="#DejaVuSans-6f"/>
      <use x="523.828125" xlink:href="#DejaVuSans-6d"/>
      <use x="621.240234" xlink:href="#DejaVuSans-65"/>
      <use x="682.763672" xlink:href="#DejaVuSans-20"/>
      <use x="714.550781" xlink:href="#DejaVuSans-31"/>
     </g>
    </g>
    <g id="PathCollection_24">
     <defs>
      <path d="M 0 3 
C 0.795609 3 1.55874 2.683901 2.12132 2.12132 
C 2.683901 1.55874 3 0.795609 3 0 
C 3 -0.795609 2.683901 -1.55874 2.12132 -2.12132 
C 1.55874 -2.683901 0.795609 -3 0 -3 
C -0.795609 -3 -1.55874 -2.683901 -2.12132 -2.12132 
C -2.683901 -1.55874 -3 -0.795609 -3 0 
C -3 0.795609 -2.683901 1.55874 -2.12132 2.12132 
C -1.55874 2.683901 -0.795609 3 0 3 
z
" id="m3b8b7c56c2" style="stroke:#ff9896;"/>
     </defs>
     <g>
      <use style="fill:#ff9896;stroke:#ff9896;" x="295.712" xlink:href="#m3b8b7c56c2" y="130.092344"/>
     </g>
    </g>
    <g id="text_19">
     <!-- 10x Multiome 2 -->
     <g style="fill:#262626;" transform="translate(315.512 132.979844)scale(0.11 -0.11)">
      <use xlink:href="#DejaVuSans-31"/>
      <use x="63.623047" xlink:href="#DejaVuSans-30"/>
      <use x="127.246094" xlink:href="#DejaVuSans-78"/>
      <use x="186.425781" xlink:href="#DejaVuSans-20"/>
      <use x="218.212891" xlink:href="#DejaVuSans-4d"/>
      <use x="304.492188" xlink:href="#DejaVuSans-75"/>
      <use x="367.871094" xlink:href="#DejaVuSans-6c"/>
      <use x="395.654297" xlink:href="#DejaVuSans-74"/>
      <use x="434.863281" xlink:href="#DejaVuSans-69"/>
      <use x="462.646484" xlink:href="#DejaVuSans-6f"/>
      <use x="523.828125" xlink:href="#DejaVuSans-6d"/>
      <use x="621.240234" xlink:href="#DejaVuSans-65"/>
      <use x="682.763672" xlink:href="#DejaVuSans-20"/>
      <use x="714.550781" xlink:href="#DejaVuSans-32"/>
     </g>
    </g>
    <g id="PathCollection_25">
     <defs>
      <path d="M 0 3 
C 0.795609 3 1.55874 2.683901 2.12132 2.12132 
C 2.683901 1.55874 3 0.795609 3 0 
C 3 -0.795609 2.683901 -1.55874 2.12132 -2.12132 
C 1.55874 -2.683901 0.795609 -3 0 -3 
C -0.795609 -3 -1.55874 -2.683901 -2.12132 -2.12132 
C -2.683901 -1.55874 -3 -0.795609 -3 0 
C -3 0.795609 -2.683901 1.55874 -2.12132 2.12132 
C -1.55874 2.683901 -0.795609 3 0 3 
z
" id="m87037c8cec" style="stroke:#9467bd;"/>
     </defs>
     <g>
      <use style="fill:#9467bd;stroke:#9467bd;" x="295.712" xlink:href="#m87037c8cec" y="146.238281"/>
     </g>
    </g>
    <g id="text_20">
     <!-- 10x mtATAC 1 -->
     <g style="fill:#262626;" transform="translate(315.512 149.125781)scale(0.11 -0.11)">
      <use xlink:href="#DejaVuSans-31"/>
      <use x="63.623047" xlink:href="#DejaVuSans-30"/>
      <use x="127.246094" xlink:href="#DejaVuSans-78"/>
      <use x="186.425781" xlink:href="#DejaVuSans-20"/>
      <use x="218.212891" xlink:href="#DejaVuSans-6d"/>
      <use x="315.625" xlink:href="#DejaVuSans-74"/>
      <use x="354.833984" xlink:href="#DejaVuSans-41"/>
      <use x="415.492188" xlink:href="#DejaVuSans-54"/>
      <use x="468.826172" xlink:href="#DejaVuSans-41"/>
      <use x="535.484375" xlink:href="#DejaVuSans-43"/>
      <use x="605.308594" xlink:href="#DejaVuSans-20"/>
      <use x="637.095703" xlink:href="#DejaVuSans-31"/>
     </g>
    </g>
    <g id="PathCollection_26">
     <defs>
      <path d="M 0 3 
C 0.795609 3 1.55874 2.683901 2.12132 2.12132 
C 2.683901 1.55874 3 0.795609 3 0 
C 3 -0.795609 2.683901 -1.55874 2.12132 -2.12132 
C 1.55874 -2.683901 0.795609 -3 0 -3 
C -0.795609 -3 -1.55874 -2.683901 -2.12132 -2.12132 
C -2.683901 -1.55874 -3 -0.795609 -3 0 
C -3 0.795609 -2.683901 1.55874 -2.12132 2.12132 
C -1.55874 2.683901 -0.795609 3 0 3 
z
" id="mae0cc48949" style="stroke:#c5b0d5;"/>
     </defs>
     <g>
      <use style="fill:#c5b0d5;stroke:#c5b0d5;" x="295.712" xlink:href="#mae0cc48949" y="162.384219"/>
     </g>
    </g>
    <g id="text_21">
     <!-- 10x mtATAC 2 -->
     <g style="fill:#262626;" transform="translate(315.512 165.271719)scale(0.11 -0.11)">
      <use xlink:href="#DejaVuSans-31"/>
      <use x="63.623047" xlink:href="#DejaVuSans-30"/>
      <use x="127.246094" xlink:href="#DejaVuSans-78"/>
      <use x="186.425781" xlink:href="#DejaVuSans-20"/>
      <use x="218.212891" xlink:href="#DejaVuSans-6d"/>
      <use x="315.625" xlink:href="#DejaVuSans-74"/>
      <use x="354.833984" xlink:href="#DejaVuSans-41"/>
      <use x="415.492188" xlink:href="#DejaVuSans-54"/>
      <use x="468.826172" xlink:href="#DejaVuSans-41"/>
      <use x="535.484375" xlink:href="#DejaVuSans-43"/>
      <use x="605.308594" xlink:href="#DejaVuSans-20"/>
      <use x="637.095703" xlink:href="#DejaVuSans-32"/>
     </g>
    </g>
    <g id="PathCollection_27">
     <defs>
      <path d="M 0 3 
C 0.795609 3 1.55874 2.683901 2.12132 2.12132 
C 2.683901 1.55874 3 0.795609 3 0 
C 3 -0.795609 2.683901 -1.55874 2.12132 -2.12132 
C 1.55874 -2.683901 0.795609 -3 0 -3 
C -0.795609 -3 -1.55874 -2.683901 -2.12132 -2.12132 
C -2.683901 -1.55874 -3 -0.795609 -3 0 
C -3 0.795609 -2.683901 1.55874 -2.12132 2.12132 
C -1.55874 2.683901 -0.795609 3 0 3 
z
" id="ma40b003bc2" style="stroke:#8c564b;"/>
     </defs>
     <g>
      <use style="fill:#8c564b;stroke:#8c564b;" x="295.712" xlink:href="#ma40b003bc2" y="178.530156"/>
     </g>
    </g>
    <g id="text_22">
     <!-- BioRad ATAC 1 -->
     <g style="fill:#262626;" transform="translate(315.512 181.417656)scale(0.11 -0.11)">
      <defs>
       <path d="M 2841 2188 
Q 3044 2119 3236 1894 
Q 3428 1669 3622 1275 
L 4263 0 
L 3584 0 
L 2988 1197 
Q 2756 1666 2539 1819 
Q 2322 1972 1947 1972 
L 1259 1972 
L 1259 0 
L 628 0 
L 628 4666 
L 2053 4666 
Q 2853 4666 3247 4331 
Q 3641 3997 3641 3322 
Q 3641 2881 3436 2590 
Q 3231 2300 2841 2188 
z
M 1259 4147 
L 1259 2491 
L 2053 2491 
Q 2509 2491 2742 2702 
Q 2975 2913 2975 3322 
Q 2975 3731 2742 3939 
Q 2509 4147 2053 4147 
L 1259 4147 
z
" id="DejaVuSans-52" transform="scale(0.015625)"/>
       <path d="M 2906 2969 
L 2906 4863 
L 3481 4863 
L 3481 0 
L 2906 0 
L 2906 525 
Q 2725 213 2448 61 
Q 2172 -91 1784 -91 
Q 1150 -91 751 415 
Q 353 922 353 1747 
Q 353 2572 751 3078 
Q 1150 3584 1784 3584 
Q 2172 3584 2448 3432 
Q 2725 3281 2906 2969 
z
M 947 1747 
Q 947 1113 1208 752 
Q 1469 391 1925 391 
Q 2381 391 2643 752 
Q 2906 1113 2906 1747 
Q 2906 2381 2643 2742 
Q 2381 3103 1925 3103 
Q 1469 3103 1208 2742 
Q 947 2381 947 1747 
z
" id="DejaVuSans-64" transform="scale(0.015625)"/>
      </defs>
      <use xlink:href="#DejaVuSans-42"/>
      <use x="68.603516" xlink:href="#DejaVuSans-69"/>
      <use x="96.386719" xlink:href="#DejaVuSans-6f"/>
      <use x="157.568359" xlink:href="#DejaVuSans-52"/>
      <use x="224.800781" xlink:href="#DejaVuSans-61"/>
      <use x="286.080078" xlink:href="#DejaVuSans-64"/>
      <use x="349.556641" xlink:href="#DejaVuSans-20"/>
      <use x="381.34375" xlink:href="#DejaVuSans-41"/>
      <use x="442.001953" xlink:href="#DejaVuSans-54"/>
      <use x="495.335938" xlink:href="#DejaVuSans-41"/>
      <use x="561.994141" xlink:href="#DejaVuSans-43"/>
      <use x="631.818359" xlink:href="#DejaVuSans-20"/>
      <use x="663.605469" xlink:href="#DejaVuSans-31"/>
     </g>
    </g>
    <g id="PathCollection_28">
     <defs>
      <path d="M 0 3 
C 0.795609 3 1.55874 2.683901 2.12132 2.12132 
C 2.683901 1.55874 3 0.795609 3 0 
C 3 -0.795609 2.683901 -1.55874 2.12132 -2.12132 
C 1.55874 -2.683901 0.795609 -3 0 -3 
C -0.795609 -3 -1.55874 -2.683901 -2.12132 -2.12132 
C -2.683901 -1.55874 -3 -0.795609 -3 0 
C -3 0.795609 -2.683901 1.55874 -2.12132 2.12132 
C -1.55874 2.683901 -0.795609 3 0 3 
z
" id="me063175018" style="stroke:#c49c94;"/>
     </defs>
     <g>
      <use style="fill:#c49c94;stroke:#c49c94;" x="295.712" xlink:href="#me063175018" y="194.676094"/>
     </g>
    </g>
    <g id="text_23">
     <!-- BioRad ATAC 2 -->
     <g style="fill:#262626;" transform="translate(315.512 197.563594)scale(0.11 -0.11)">
      <use xlink:href="#DejaVuSans-42"/>
      <use x="68.603516" xlink:href="#DejaVuSans-69"/>
      <use x="96.386719" xlink:href="#DejaVuSans-6f"/>
      <use x="157.568359" xlink:href="#DejaVuSans-52"/>
      <use x="224.800781" xlink:href="#DejaVuSans-61"/>
      <use x="286.080078" xlink:href="#DejaVuSans-64"/>
      <use x="349.556641" xlink:href="#DejaVuSans-20"/>
      <use x="381.34375" xlink:href="#DejaVuSans-41"/>
      <use x="442.001953" xlink:href="#DejaVuSans-54"/>
      <use x="495.335938" xlink:href="#DejaVuSans-41"/>
      <use x="561.994141" xlink:href="#DejaVuSans-43"/>
      <use x="631.818359" xlink:href="#DejaVuSans-20"/>
      <use x="663.605469" xlink:href="#DejaVuSans-32"/>
     </g>
    </g>
    <g id="PathCollection_29">
     <defs>
      <path d="M 0 3 
C 0.795609 3 1.55874 2.683901 2.12132 2.12132 
C 2.683901 1.55874 3 0.795609 3 0 
C 3 -0.795609 2.683901 -1.55874 2.12132 -2.12132 
C 1.55874 -2.683901 0.795609 -3 0 -3 
C -0.795609 -3 -1.55874 -2.683901 -2.12132 -2.12132 
C -2.683901 -1.55874 -3 -0.795609 -3 0 
C -3 0.795609 -2.683901 1.55874 -2.12132 2.12132 
C -1.55874 2.683901 -0.795609 3 0 3 
z
" id="ma6d7307013" style="stroke:#e377c2;"/>
     </defs>
     <g>
      <use style="fill:#e377c2;stroke:#e377c2;" x="295.712" xlink:href="#ma6d7307013" y="210.822031"/>
     </g>
    </g>
    <g id="text_24">
     <!-- Hydrop ATAC 1 -->
     <g style="fill:#262626;" transform="translate(315.512 213.709531)scale(0.11 -0.11)">
      <defs>
       <path d="M 628 4666 
L 1259 4666 
L 1259 2753 
L 3553 2753 
L 3553 4666 
L 4184 4666 
L 4184 0 
L 3553 0 
L 3553 2222 
L 1259 2222 
L 1259 0 
L 628 0 
L 628 4666 
z
" id="DejaVuSans-48" transform="scale(0.015625)"/>
       <path d="M 2059 -325 
Q 1816 -950 1584 -1140 
Q 1353 -1331 966 -1331 
L 506 -1331 
L 506 -850 
L 844 -850 
Q 1081 -850 1212 -737 
Q 1344 -625 1503 -206 
L 1606 56 
L 191 3500 
L 800 3500 
L 1894 763 
L 2988 3500 
L 3597 3500 
L 2059 -325 
z
" id="DejaVuSans-79" transform="scale(0.015625)"/>
       <path d="M 1159 525 
L 1159 -1331 
L 581 -1331 
L 581 3500 
L 1159 3500 
L 1159 2969 
Q 1341 3281 1617 3432 
Q 1894 3584 2278 3584 
Q 2916 3584 3314 3078 
Q 3713 2572 3713 1747 
Q 3713 922 3314 415 
Q 2916 -91 2278 -91 
Q 1894 -91 1617 61 
Q 1341 213 1159 525 
z
M 3116 1747 
Q 3116 2381 2855 2742 
Q 2594 3103 2138 3103 
Q 1681 3103 1420 2742 
Q 1159 2381 1159 1747 
Q 1159 1113 1420 752 
Q 1681 391 2138 391 
Q 2594 391 2855 752 
Q 3116 1113 3116 1747 
z
" id="DejaVuSans-70" transform="scale(0.015625)"/>
      </defs>
      <use xlink:href="#DejaVuSans-48"/>
      <use x="75.195312" xlink:href="#DejaVuSans-79"/>
      <use x="134.375" xlink:href="#DejaVuSans-64"/>
      <use x="197.851562" xlink:href="#DejaVuSans-72"/>
      <use x="236.714844" xlink:href="#DejaVuSans-6f"/>
      <use x="297.896484" xlink:href="#DejaVuSans-70"/>
      <use x="361.373047" xlink:href="#DejaVuSans-20"/>
      <use x="393.160156" xlink:href="#DejaVuSans-41"/>
      <use x="453.818359" xlink:href="#DejaVuSans-54"/>
      <use x="507.152344" xlink:href="#DejaVuSans-41"/>
      <use x="573.810547" xlink:href="#DejaVuSans-43"/>
      <use x="643.634766" xlink:href="#DejaVuSans-20"/>
      <use x="675.421875" xlink:href="#DejaVuSans-31"/>
     </g>
    </g>
    <g id="PathCollection_30">
     <defs>
      <path d="M 0 3 
C 0.795609 3 1.55874 2.683901 2.12132 2.12132 
C 2.683901 1.55874 3 0.795609 3 0 
C 3 -0.795609 2.683901 -1.55874 2.12132 -2.12132 
C 1.55874 -2.683901 0.795609 -3 0 -3 
C -0.795609 -3 -1.55874 -2.683901 -2.12132 -2.12132 
C -2.683901 -1.55874 -3 -0.795609 -3 0 
C -3 0.795609 -2.683901 1.55874 -2.12132 2.12132 
C -1.55874 2.683901 -0.795609 3 0 3 
z
" id="m963170a448" style="stroke:#f7b6d2;"/>
     </defs>
     <g>
      <use style="fill:#f7b6d2;stroke:#f7b6d2;" x="295.712" xlink:href="#m963170a448" y="226.967969"/>
     </g>
    </g>
    <g id="text_25">
     <!-- Hydrop ATAC 2 -->
     <g style="fill:#262626;" transform="translate(315.512 229.855469)scale(0.11 -0.11)">
      <use xlink:href="#DejaVuSans-48"/>
      <use x="75.195312" xlink:href="#DejaVuSans-79"/>
      <use x="134.375" xlink:href="#DejaVuSans-64"/>
      <use x="197.851562" xlink:href="#DejaVuSans-72"/>
      <use x="236.714844" xlink:href="#DejaVuSans-6f"/>
      <use x="297.896484" xlink:href="#DejaVuSans-70"/>
      <use x="361.373047" xlink:href="#DejaVuSans-20"/>
      <use x="393.160156" xlink:href="#DejaVuSans-41"/>
      <use x="453.818359" xlink:href="#DejaVuSans-54"/>
      <use x="507.152344" xlink:href="#DejaVuSans-41"/>
      <use x="573.810547" xlink:href="#DejaVuSans-43"/>
      <use x="643.634766" xlink:href="#DejaVuSans-20"/>
      <use x="675.421875" xlink:href="#DejaVuSans-32"/>
     </g>
    </g>
    <g id="PathCollection_31">
     <defs>
      <path d="M 0 3 
C 0.795609 3 1.55874 2.683901 2.12132 2.12132 
C 2.683901 1.55874 3 0.795609 3 0 
C 3 -0.795609 2.683901 -1.55874 2.12132 -2.12132 
C 1.55874 -2.683901 0.795609 -3 0 -3 
C -0.795609 -3 -1.55874 -2.683901 -2.12132 -2.12132 
C -2.683901 -1.55874 -3 -0.795609 -3 0 
C -3 0.795609 -2.683901 1.55874 -2.12132 2.12132 
C -1.55874 2.683901 -0.795609 3 0 3 
z
" id="m675c74cb53" style="stroke:#7f7f7f;"/>
     </defs>
     <g>
      <use style="fill:#7f7f7f;stroke:#7f7f7f;" x="295.712" xlink:href="#m675c74cb53" y="243.113906"/>
     </g>
    </g>
    <g id="text_26">
     <!-- s3 ATAC -->
     <g style="fill:#262626;" transform="translate(315.512 246.001406)scale(0.11 -0.11)">
      <defs>
       <path d="M 2834 3397 
L 2834 2853 
Q 2591 2978 2328 3040 
Q 2066 3103 1784 3103 
Q 1356 3103 1142 2972 
Q 928 2841 928 2578 
Q 928 2378 1081 2264 
Q 1234 2150 1697 2047 
L 1894 2003 
Q 2506 1872 2764 1633 
Q 3022 1394 3022 966 
Q 3022 478 2636 193 
Q 2250 -91 1575 -91 
Q 1294 -91 989 -36 
Q 684 19 347 128 
L 347 722 
Q 666 556 975 473 
Q 1284 391 1588 391 
Q 1994 391 2212 530 
Q 2431 669 2431 922 
Q 2431 1156 2273 1281 
Q 2116 1406 1581 1522 
L 1381 1569 
Q 847 1681 609 1914 
Q 372 2147 372 2553 
Q 372 3047 722 3315 
Q 1072 3584 1716 3584 
Q 2034 3584 2315 3537 
Q 2597 3491 2834 3397 
z
" id="DejaVuSans-73" transform="scale(0.015625)"/>
      </defs>
      <use xlink:href="#DejaVuSans-73"/>
      <use x="52.099609" xlink:href="#DejaVuSans-33"/>
      <use x="115.722656" xlink:href="#DejaVuSans-20"/>
      <use x="147.509766" xlink:href="#DejaVuSans-41"/>
      <use x="208.167969" xlink:href="#DejaVuSans-54"/>
      <use x="261.501953" xlink:href="#DejaVuSans-41"/>
      <use x="328.160156" xlink:href="#DejaVuSans-43"/>
     </g>
    </g>
   </g>
  </g>
 </g>
 <defs>
  <clipPath id="p541e92dca9">
   <rect height="205.6" width="222.54" x="46.645" y="7.2"/>
  </clipPath>
 </defs>
</svg>
