<?xml version="1.0" encoding="utf-8" standalone="no"?>
<!DOCTYPE svg PUBLIC "-//W3C//DTD SVG 1.1//EN"
  "http://www.w3.org/Graphics/SVG/1.1/DTD/svg11.dtd">
<svg height="259.889063pt" version="1.1" viewBox="0 0 412.552844 259.889063" width="412.552844pt" xmlns="http://www.w3.org/2000/svg" xmlns:xlink="http://www.w3.org/1999/xlink">
 <metadata>
  <rdf:RDF xmlns:cc="http://creativecommons.org/ns#" xmlns:dc="http://purl.org/dc/elements/1.1/" xmlns:rdf="http://www.w3.org/1999/02/22-rdf-syntax-ns#">
   <cc:Work>
    <dc:type rdf:resource="http://purl.org/dc/dcmitype/StillImage"/>
    <dc:date>2021-12-14T16:10:42.926462</dc:date>
    <dc:format>image/svg+xml</dc:format>
    <dc:creator>
     <cc:Agent>
      <dc:title>Matplotlib v3.4.3, https://matplotlib.org/</dc:title>
     </cc:Agent>
    </dc:creator>
   </cc:Work>
  </rdf:RDF>
 </metadata>
 <defs>
  <style type="text/css">*{stroke-linecap:butt;stroke-linejoin:round;}</style>
 </defs>
 <g id="figure_1">
  <g id="patch_1">
   <path d="M 0 259.889063 
L 412.552844 259.889063 
L 412.552844 0 
L 0 0 
z
" style="fill:#ffffff;"/>
  </g>
  <g id="axes_1">
   <g id="patch_2">
    <path d="M 50.140937 212.8 
L 269.200937 212.8 
L 269.200937 7.2 
L 50.140937 7.2 
z
" style="fill:#ffffff;"/>
   </g>
   <g id="matplotlib.axis_1">
    <g id="xtick_1">
     <g id="line2d_1">
      <path clip-path="url(#p9fc4ff9f7d)" d="M 101.616167 212.8 
L 101.616167 7.2 
" style="fill:none;stroke:#cccccc;stroke-linecap:round;"/>
     </g>
     <g id="text_1">
      <!-- 2000 -->
      <g style="fill:#262626;" transform="translate(87.618667 230.658281)scale(0.11 -0.11)">
       <defs>
        <path d="M 1228 531 
L 3431 531 
L 3431 0 
L 469 0 
L 469 531 
Q 828 903 1448 1529 
Q 2069 2156 2228 2338 
Q 2531 2678 2651 2914 
Q 2772 3150 2772 3378 
Q 2772 3750 2511 3984 
Q 2250 4219 1831 4219 
Q 1534 4219 1204 4116 
Q 875 4013 500 3803 
L 500 4441 
Q 881 4594 1212 4672 
Q 1544 4750 1819 4750 
Q 2544 4750 2975 4387 
Q 3406 4025 3406 3419 
Q 3406 3131 3298 2873 
Q 3191 2616 2906 2266 
Q 2828 2175 2409 1742 
Q 1991 1309 1228 531 
z
" id="DejaVuSans-32" transform="scale(0.015625)"/>
        <path d="M 2034 4250 
Q 1547 4250 1301 3770 
Q 1056 3291 1056 2328 
Q 1056 1369 1301 889 
Q 1547 409 2034 409 
Q 2525 409 2770 889 
Q 3016 1369 3016 2328 
Q 3016 3291 2770 3770 
Q 2525 4250 2034 4250 
z
M 2034 4750 
Q 2819 4750 3233 4129 
Q 3647 3509 3647 2328 
Q 3647 1150 3233 529 
Q 2819 -91 2034 -91 
Q 1250 -91 836 529 
Q 422 1150 422 2328 
Q 422 3509 836 4129 
Q 1250 4750 2034 4750 
z
" id="DejaVuSans-30" transform="scale(0.015625)"/>
       </defs>
       <use xlink:href="#DejaVuSans-32"/>
       <use x="63.623047" xlink:href="#DejaVuSans-30"/>
       <use x="127.246094" xlink:href="#DejaVuSans-30"/>
       <use x="190.869141" xlink:href="#DejaVuSans-30"/>
      </g>
     </g>
    </g>
    <g id="xtick_2">
     <g id="line2d_2">
      <path clip-path="url(#p9fc4ff9f7d)" d="M 165.588366 212.8 
L 165.588366 7.2 
" style="fill:none;stroke:#cccccc;stroke-linecap:round;"/>
     </g>
     <g id="text_2">
      <!-- 4000 -->
      <g style="fill:#262626;" transform="translate(151.590866 230.658281)scale(0.11 -0.11)">
       <defs>
        <path d="M 2419 4116 
L 825 1625 
L 2419 1625 
L 2419 4116 
z
M 2253 4666 
L 3047 4666 
L 3047 1625 
L 3713 1625 
L 3713 1100 
L 3047 1100 
L 3047 0 
L 2419 0 
L 2419 1100 
L 313 1100 
L 313 1709 
L 2253 4666 
z
" id="DejaVuSans-34" transform="scale(0.015625)"/>
       </defs>
       <use xlink:href="#DejaVuSans-34"/>
       <use x="63.623047" xlink:href="#DejaVuSans-30"/>
       <use x="127.246094" xlink:href="#DejaVuSans-30"/>
       <use x="190.869141" xlink:href="#DejaVuSans-30"/>
      </g>
     </g>
    </g>
    <g id="xtick_3">
     <g id="line2d_3">
      <path clip-path="url(#p9fc4ff9f7d)" d="M 229.560565 212.8 
L 229.560565 7.2 
" style="fill:none;stroke:#cccccc;stroke-linecap:round;"/>
     </g>
     <g id="text_3">
      <!-- 6000 -->
      <g style="fill:#262626;" transform="translate(215.563065 230.658281)scale(0.11 -0.11)">
       <defs>
        <path d="M 2113 2584 
Q 1688 2584 1439 2293 
Q 1191 2003 1191 1497 
Q 1191 994 1439 701 
Q 1688 409 2113 409 
Q 2538 409 2786 701 
Q 3034 994 3034 1497 
Q 3034 2003 2786 2293 
Q 2538 2584 2113 2584 
z
M 3366 4563 
L 3366 3988 
Q 3128 4100 2886 4159 
Q 2644 4219 2406 4219 
Q 1781 4219 1451 3797 
Q 1122 3375 1075 2522 
Q 1259 2794 1537 2939 
Q 1816 3084 2150 3084 
Q 2853 3084 3261 2657 
Q 3669 2231 3669 1497 
Q 3669 778 3244 343 
Q 2819 -91 2113 -91 
Q 1303 -91 875 529 
Q 447 1150 447 2328 
Q 447 3434 972 4092 
Q 1497 4750 2381 4750 
Q 2619 4750 2861 4703 
Q 3103 4656 3366 4563 
z
" id="DejaVuSans-36" transform="scale(0.015625)"/>
       </defs>
       <use xlink:href="#DejaVuSans-36"/>
       <use x="63.623047" xlink:href="#DejaVuSans-30"/>
       <use x="127.246094" xlink:href="#DejaVuSans-30"/>
       <use x="190.869141" xlink:href="#DejaVuSans-30"/>
      </g>
     </g>
    </g>
    <g id="text_4">
     <!-- n_cells -->
     <g style="fill:#262626;" transform="translate(139.418125 246.064062)scale(0.12 -0.12)">
      <defs>
       <path d="M 3513 2113 
L 3513 0 
L 2938 0 
L 2938 2094 
Q 2938 2591 2744 2837 
Q 2550 3084 2163 3084 
Q 1697 3084 1428 2787 
Q 1159 2491 1159 1978 
L 1159 0 
L 581 0 
L 581 3500 
L 1159 3500 
L 1159 2956 
Q 1366 3272 1645 3428 
Q 1925 3584 2291 3584 
Q 2894 3584 3203 3211 
Q 3513 2838 3513 2113 
z
" id="DejaVuSans-6e" transform="scale(0.015625)"/>
       <path d="M 3263 -1063 
L 3263 -1509 
L -63 -1509 
L -63 -1063 
L 3263 -1063 
z
" id="DejaVuSans-5f" transform="scale(0.015625)"/>
       <path d="M 3122 3366 
L 3122 2828 
Q 2878 2963 2633 3030 
Q 2388 3097 2138 3097 
Q 1578 3097 1268 2742 
Q 959 2388 959 1747 
Q 959 1106 1268 751 
Q 1578 397 2138 397 
Q 2388 397 2633 464 
Q 2878 531 3122 666 
L 3122 134 
Q 2881 22 2623 -34 
Q 2366 -91 2075 -91 
Q 1284 -91 818 406 
Q 353 903 353 1747 
Q 353 2603 823 3093 
Q 1294 3584 2113 3584 
Q 2378 3584 2631 3529 
Q 2884 3475 3122 3366 
z
" id="DejaVuSans-63" transform="scale(0.015625)"/>
       <path d="M 3597 1894 
L 3597 1613 
L 953 1613 
Q 991 1019 1311 708 
Q 1631 397 2203 397 
Q 2534 397 2845 478 
Q 3156 559 3463 722 
L 3463 178 
Q 3153 47 2828 -22 
Q 2503 -91 2169 -91 
Q 1331 -91 842 396 
Q 353 884 353 1716 
Q 353 2575 817 3079 
Q 1281 3584 2069 3584 
Q 2775 3584 3186 3129 
Q 3597 2675 3597 1894 
z
M 3022 2063 
Q 3016 2534 2758 2815 
Q 2500 3097 2075 3097 
Q 1594 3097 1305 2825 
Q 1016 2553 972 2059 
L 3022 2063 
z
" id="DejaVuSans-65" transform="scale(0.015625)"/>
       <path d="M 603 4863 
L 1178 4863 
L 1178 0 
L 603 0 
L 603 4863 
z
" id="DejaVuSans-6c" transform="scale(0.015625)"/>
       <path d="M 2834 3397 
L 2834 2853 
Q 2591 2978 2328 3040 
Q 2066 3103 1784 3103 
Q 1356 3103 1142 2972 
Q 928 2841 928 2578 
Q 928 2378 1081 2264 
Q 1234 2150 1697 2047 
L 1894 2003 
Q 2506 1872 2764 1633 
Q 3022 1394 3022 966 
Q 3022 478 2636 193 
Q 2250 -91 1575 -91 
Q 1294 -91 989 -36 
Q 684 19 347 128 
L 347 722 
Q 666 556 975 473 
Q 1284 391 1588 391 
Q 1994 391 2212 530 
Q 2431 669 2431 922 
Q 2431 1156 2273 1281 
Q 2116 1406 1581 1522 
L 1381 1569 
Q 847 1681 609 1914 
Q 372 2147 372 2553 
Q 372 3047 722 3315 
Q 1072 3584 1716 3584 
Q 2034 3584 2315 3537 
Q 2597 3491 2834 3397 
z
" id="DejaVuSans-73" transform="scale(0.015625)"/>
      </defs>
      <use xlink:href="#DejaVuSans-6e"/>
      <use x="63.378906" xlink:href="#DejaVuSans-5f"/>
      <use x="113.378906" xlink:href="#DejaVuSans-63"/>
      <use x="168.359375" xlink:href="#DejaVuSans-65"/>
      <use x="229.882812" xlink:href="#DejaVuSans-6c"/>
      <use x="257.666016" xlink:href="#DejaVuSans-6c"/>
      <use x="285.449219" xlink:href="#DejaVuSans-73"/>
     </g>
    </g>
   </g>
   <g id="matplotlib.axis_2">
    <g id="ytick_1">
     <g id="line2d_4">
      <path clip-path="url(#p9fc4ff9f7d)" d="M 50.140937 202.557657 
L 269.200937 202.557657 
" style="fill:none;stroke:#cccccc;stroke-linecap:round;"/>
     </g>
     <g id="text_5">
      <!-- 3.4 -->
      <g style="fill:#262626;" transform="translate(23.1475 206.736798)scale(0.11 -0.11)">
       <defs>
        <path d="M 2597 2516 
Q 3050 2419 3304 2112 
Q 3559 1806 3559 1356 
Q 3559 666 3084 287 
Q 2609 -91 1734 -91 
Q 1441 -91 1130 -33 
Q 819 25 488 141 
L 488 750 
Q 750 597 1062 519 
Q 1375 441 1716 441 
Q 2309 441 2620 675 
Q 2931 909 2931 1356 
Q 2931 1769 2642 2001 
Q 2353 2234 1838 2234 
L 1294 2234 
L 1294 2753 
L 1863 2753 
Q 2328 2753 2575 2939 
Q 2822 3125 2822 3475 
Q 2822 3834 2567 4026 
Q 2313 4219 1838 4219 
Q 1578 4219 1281 4162 
Q 984 4106 628 3988 
L 628 4550 
Q 988 4650 1302 4700 
Q 1616 4750 1894 4750 
Q 2613 4750 3031 4423 
Q 3450 4097 3450 3541 
Q 3450 3153 3228 2886 
Q 3006 2619 2597 2516 
z
" id="DejaVuSans-33" transform="scale(0.015625)"/>
        <path d="M 684 794 
L 1344 794 
L 1344 0 
L 684 0 
L 684 794 
z
" id="DejaVuSans-2e" transform="scale(0.015625)"/>
       </defs>
       <use xlink:href="#DejaVuSans-33"/>
       <use x="63.623047" xlink:href="#DejaVuSans-2e"/>
       <use x="95.410156" xlink:href="#DejaVuSans-34"/>
      </g>
     </g>
    </g>
    <g id="ytick_2">
     <g id="line2d_5">
      <path clip-path="url(#p9fc4ff9f7d)" d="M 50.140937 172.700382 
L 269.200937 172.700382 
" style="fill:none;stroke:#cccccc;stroke-linecap:round;"/>
     </g>
     <g id="text_6">
      <!-- 3.6 -->
      <g style="fill:#262626;" transform="translate(23.1475 176.879523)scale(0.11 -0.11)">
       <use xlink:href="#DejaVuSans-33"/>
       <use x="63.623047" xlink:href="#DejaVuSans-2e"/>
       <use x="95.410156" xlink:href="#DejaVuSans-36"/>
      </g>
     </g>
    </g>
    <g id="ytick_3">
     <g id="line2d_6">
      <path clip-path="url(#p9fc4ff9f7d)" d="M 50.140937 142.843107 
L 269.200937 142.843107 
" style="fill:none;stroke:#cccccc;stroke-linecap:round;"/>
     </g>
     <g id="text_7">
      <!-- 3.8 -->
      <g style="fill:#262626;" transform="translate(23.1475 147.022248)scale(0.11 -0.11)">
       <defs>
        <path d="M 2034 2216 
Q 1584 2216 1326 1975 
Q 1069 1734 1069 1313 
Q 1069 891 1326 650 
Q 1584 409 2034 409 
Q 2484 409 2743 651 
Q 3003 894 3003 1313 
Q 3003 1734 2745 1975 
Q 2488 2216 2034 2216 
z
M 1403 2484 
Q 997 2584 770 2862 
Q 544 3141 544 3541 
Q 544 4100 942 4425 
Q 1341 4750 2034 4750 
Q 2731 4750 3128 4425 
Q 3525 4100 3525 3541 
Q 3525 3141 3298 2862 
Q 3072 2584 2669 2484 
Q 3125 2378 3379 2068 
Q 3634 1759 3634 1313 
Q 3634 634 3220 271 
Q 2806 -91 2034 -91 
Q 1263 -91 848 271 
Q 434 634 434 1313 
Q 434 1759 690 2068 
Q 947 2378 1403 2484 
z
M 1172 3481 
Q 1172 3119 1398 2916 
Q 1625 2713 2034 2713 
Q 2441 2713 2670 2916 
Q 2900 3119 2900 3481 
Q 2900 3844 2670 4047 
Q 2441 4250 2034 4250 
Q 1625 4250 1398 4047 
Q 1172 3844 1172 3481 
z
" id="DejaVuSans-38" transform="scale(0.015625)"/>
       </defs>
       <use xlink:href="#DejaVuSans-33"/>
       <use x="63.623047" xlink:href="#DejaVuSans-2e"/>
       <use x="95.410156" xlink:href="#DejaVuSans-38"/>
      </g>
     </g>
    </g>
    <g id="ytick_4">
     <g id="line2d_7">
      <path clip-path="url(#p9fc4ff9f7d)" d="M 50.140937 112.985832 
L 269.200937 112.985832 
" style="fill:none;stroke:#cccccc;stroke-linecap:round;"/>
     </g>
     <g id="text_8">
      <!-- 4.0 -->
      <g style="fill:#262626;" transform="translate(23.1475 117.164972)scale(0.11 -0.11)">
       <use xlink:href="#DejaVuSans-34"/>
       <use x="63.623047" xlink:href="#DejaVuSans-2e"/>
       <use x="95.410156" xlink:href="#DejaVuSans-30"/>
      </g>
     </g>
    </g>
    <g id="ytick_5">
     <g id="line2d_8">
      <path clip-path="url(#p9fc4ff9f7d)" d="M 50.140937 83.128556 
L 269.200937 83.128556 
" style="fill:none;stroke:#cccccc;stroke-linecap:round;"/>
     </g>
     <g id="text_9">
      <!-- 4.2 -->
      <g style="fill:#262626;" transform="translate(23.1475 87.307697)scale(0.11 -0.11)">
       <use xlink:href="#DejaVuSans-34"/>
       <use x="63.623047" xlink:href="#DejaVuSans-2e"/>
       <use x="95.410156" xlink:href="#DejaVuSans-32"/>
      </g>
     </g>
    </g>
    <g id="ytick_6">
     <g id="line2d_9">
      <path clip-path="url(#p9fc4ff9f7d)" d="M 50.140937 53.271281 
L 269.200937 53.271281 
" style="fill:none;stroke:#cccccc;stroke-linecap:round;"/>
     </g>
     <g id="text_10">
      <!-- 4.4 -->
      <g style="fill:#262626;" transform="translate(23.1475 57.450422)scale(0.11 -0.11)">
       <use xlink:href="#DejaVuSans-34"/>
       <use x="63.623047" xlink:href="#DejaVuSans-2e"/>
       <use x="95.410156" xlink:href="#DejaVuSans-34"/>
      </g>
     </g>
    </g>
    <g id="ytick_7">
     <g id="line2d_10">
      <path clip-path="url(#p9fc4ff9f7d)" d="M 50.140937 23.414006 
L 269.200937 23.414006 
" style="fill:none;stroke:#cccccc;stroke-linecap:round;"/>
     </g>
     <g id="text_11">
      <!-- 4.6 -->
      <g style="fill:#262626;" transform="translate(23.1475 27.593147)scale(0.11 -0.11)">
       <use xlink:href="#DejaVuSans-34"/>
       <use x="63.623047" xlink:href="#DejaVuSans-2e"/>
       <use x="95.410156" xlink:href="#DejaVuSans-36"/>
      </g>
     </g>
    </g>
    <g id="text_12">
     <!-- Log_unique_nr_frag -->
     <g style="fill:#262626;" transform="translate(16.318125 168.6275)rotate(-90)scale(0.12 -0.12)">
      <defs>
       <path d="M 628 4666 
L 1259 4666 
L 1259 531 
L 3531 531 
L 3531 0 
L 628 0 
L 628 4666 
z
" id="DejaVuSans-4c" transform="scale(0.015625)"/>
       <path d="M 1959 3097 
Q 1497 3097 1228 2736 
Q 959 2375 959 1747 
Q 959 1119 1226 758 
Q 1494 397 1959 397 
Q 2419 397 2687 759 
Q 2956 1122 2956 1747 
Q 2956 2369 2687 2733 
Q 2419 3097 1959 3097 
z
M 1959 3584 
Q 2709 3584 3137 3096 
Q 3566 2609 3566 1747 
Q 3566 888 3137 398 
Q 2709 -91 1959 -91 
Q 1206 -91 779 398 
Q 353 888 353 1747 
Q 353 2609 779 3096 
Q 1206 3584 1959 3584 
z
" id="DejaVuSans-6f" transform="scale(0.015625)"/>
       <path d="M 2906 1791 
Q 2906 2416 2648 2759 
Q 2391 3103 1925 3103 
Q 1463 3103 1205 2759 
Q 947 2416 947 1791 
Q 947 1169 1205 825 
Q 1463 481 1925 481 
Q 2391 481 2648 825 
Q 2906 1169 2906 1791 
z
M 3481 434 
Q 3481 -459 3084 -895 
Q 2688 -1331 1869 -1331 
Q 1566 -1331 1297 -1286 
Q 1028 -1241 775 -1147 
L 775 -588 
Q 1028 -725 1275 -790 
Q 1522 -856 1778 -856 
Q 2344 -856 2625 -561 
Q 2906 -266 2906 331 
L 2906 616 
Q 2728 306 2450 153 
Q 2172 0 1784 0 
Q 1141 0 747 490 
Q 353 981 353 1791 
Q 353 2603 747 3093 
Q 1141 3584 1784 3584 
Q 2172 3584 2450 3431 
Q 2728 3278 2906 2969 
L 2906 3500 
L 3481 3500 
L 3481 434 
z
" id="DejaVuSans-67" transform="scale(0.015625)"/>
       <path d="M 544 1381 
L 544 3500 
L 1119 3500 
L 1119 1403 
Q 1119 906 1312 657 
Q 1506 409 1894 409 
Q 2359 409 2629 706 
Q 2900 1003 2900 1516 
L 2900 3500 
L 3475 3500 
L 3475 0 
L 2900 0 
L 2900 538 
Q 2691 219 2414 64 
Q 2138 -91 1772 -91 
Q 1169 -91 856 284 
Q 544 659 544 1381 
z
M 1991 3584 
L 1991 3584 
z
" id="DejaVuSans-75" transform="scale(0.015625)"/>
       <path d="M 603 3500 
L 1178 3500 
L 1178 0 
L 603 0 
L 603 3500 
z
M 603 4863 
L 1178 4863 
L 1178 4134 
L 603 4134 
L 603 4863 
z
" id="DejaVuSans-69" transform="scale(0.015625)"/>
       <path d="M 947 1747 
Q 947 1113 1208 752 
Q 1469 391 1925 391 
Q 2381 391 2643 752 
Q 2906 1113 2906 1747 
Q 2906 2381 2643 2742 
Q 2381 3103 1925 3103 
Q 1469 3103 1208 2742 
Q 947 2381 947 1747 
z
M 2906 525 
Q 2725 213 2448 61 
Q 2172 -91 1784 -91 
Q 1150 -91 751 415 
Q 353 922 353 1747 
Q 353 2572 751 3078 
Q 1150 3584 1784 3584 
Q 2172 3584 2448 3432 
Q 2725 3281 2906 2969 
L 2906 3500 
L 3481 3500 
L 3481 -1331 
L 2906 -1331 
L 2906 525 
z
" id="DejaVuSans-71" transform="scale(0.015625)"/>
       <path d="M 2631 2963 
Q 2534 3019 2420 3045 
Q 2306 3072 2169 3072 
Q 1681 3072 1420 2755 
Q 1159 2438 1159 1844 
L 1159 0 
L 581 0 
L 581 3500 
L 1159 3500 
L 1159 2956 
Q 1341 3275 1631 3429 
Q 1922 3584 2338 3584 
Q 2397 3584 2469 3576 
Q 2541 3569 2628 3553 
L 2631 2963 
z
" id="DejaVuSans-72" transform="scale(0.015625)"/>
       <path d="M 2375 4863 
L 2375 4384 
L 1825 4384 
Q 1516 4384 1395 4259 
Q 1275 4134 1275 3809 
L 1275 3500 
L 2222 3500 
L 2222 3053 
L 1275 3053 
L 1275 0 
L 697 0 
L 697 3053 
L 147 3053 
L 147 3500 
L 697 3500 
L 697 3744 
Q 697 4328 969 4595 
Q 1241 4863 1831 4863 
L 2375 4863 
z
" id="DejaVuSans-66" transform="scale(0.015625)"/>
       <path d="M 2194 1759 
Q 1497 1759 1228 1600 
Q 959 1441 959 1056 
Q 959 750 1161 570 
Q 1363 391 1709 391 
Q 2188 391 2477 730 
Q 2766 1069 2766 1631 
L 2766 1759 
L 2194 1759 
z
M 3341 1997 
L 3341 0 
L 2766 0 
L 2766 531 
Q 2569 213 2275 61 
Q 1981 -91 1556 -91 
Q 1019 -91 701 211 
Q 384 513 384 1019 
Q 384 1609 779 1909 
Q 1175 2209 1959 2209 
L 2766 2209 
L 2766 2266 
Q 2766 2663 2505 2880 
Q 2244 3097 1772 3097 
Q 1472 3097 1187 3025 
Q 903 2953 641 2809 
L 641 3341 
Q 956 3463 1253 3523 
Q 1550 3584 1831 3584 
Q 2591 3584 2966 3190 
Q 3341 2797 3341 1997 
z
" id="DejaVuSans-61" transform="scale(0.015625)"/>
      </defs>
      <use xlink:href="#DejaVuSans-4c"/>
      <use x="53.962891" xlink:href="#DejaVuSans-6f"/>
      <use x="115.144531" xlink:href="#DejaVuSans-67"/>
      <use x="178.621094" xlink:href="#DejaVuSans-5f"/>
      <use x="228.621094" xlink:href="#DejaVuSans-75"/>
      <use x="292" xlink:href="#DejaVuSans-6e"/>
      <use x="355.378906" xlink:href="#DejaVuSans-69"/>
      <use x="383.162109" xlink:href="#DejaVuSans-71"/>
      <use x="446.638672" xlink:href="#DejaVuSans-75"/>
      <use x="510.017578" xlink:href="#DejaVuSans-65"/>
      <use x="571.541016" xlink:href="#DejaVuSans-5f"/>
      <use x="621.541016" xlink:href="#DejaVuSans-6e"/>
      <use x="684.919922" xlink:href="#DejaVuSans-72"/>
      <use x="726.033203" xlink:href="#DejaVuSans-5f"/>
      <use x="776.033203" xlink:href="#DejaVuSans-66"/>
      <use x="811.238281" xlink:href="#DejaVuSans-72"/>
      <use x="852.351562" xlink:href="#DejaVuSans-61"/>
      <use x="913.630859" xlink:href="#DejaVuSans-67"/>
     </g>
    </g>
   </g>
   <g id="PolyCollection_1">
    <defs>
     <path d="M 60.09821 -139.683347 
L 60.09821 -56.434517 
L 62.10978 -58.229751 
L 64.121351 -60.024984 
L 66.132921 -61.656971 
L 68.144491 -63.556154 
L 70.156061 -65.395987 
L 72.167632 -67.197905 
L 74.179202 -69.259206 
L 76.190772 -71.223147 
L 78.202342 -73.135289 
L 80.213913 -74.649727 
L 82.225483 -76.573327 
L 84.237053 -78.618042 
L 86.248623 -80.21046 
L 88.260194 -81.534028 
L 90.271764 -82.941833 
L 92.283334 -84.771752 
L 94.294904 -86.036504 
L 96.306475 -87.770541 
L 98.318045 -89.040168 
L 100.329615 -90.309795 
L 102.341185 -91.579422 
L 104.352756 -92.527152 
L 106.364326 -93.491924 
L 108.375896 -94.535466 
L 110.387466 -96.371926 
L 112.399037 -97.842976 
L 114.410607 -99.29285 
L 116.422177 -101.193457 
L 118.433747 -102.907555 
L 120.445318 -104.218068 
L 122.456888 -106.254773 
L 124.468458 -107.418336 
L 126.480028 -109.09228 
L 128.491599 -110.318774 
L 130.503169 -111.366281 
L 132.514739 -112.28638 
L 134.526309 -113.264377 
L 136.53788 -114.093475 
L 138.54945 -114.833167 
L 140.56102 -115.423394 
L 142.57259 -116.004267 
L 144.584161 -116.43424 
L 146.595731 -116.979988 
L 148.607301 -117.566454 
L 150.618871 -117.781598 
L 152.630442 -118.073871 
L 154.642012 -118.168511 
L 156.653582 -118.747323 
L 158.665152 -119.313862 
L 160.676723 -119.461433 
L 162.688293 -119.431869 
L 164.699863 -120.015868 
L 166.711433 -120.150221 
L 168.723004 -120.260311 
L 170.734574 -120.84598 
L 172.746144 -121.107822 
L 174.757714 -120.905615 
L 176.769285 -121.036426 
L 178.780855 -121.1197 
L 180.792425 -121.786938 
L 182.803995 -121.739871 
L 184.815566 -121.589828 
L 186.827136 -121.439785 
L 188.838706 -121.617901 
L 190.850276 -121.881777 
L 192.861847 -122.148398 
L 194.873417 -122.193347 
L 196.884987 -122.071914 
L 198.896557 -122.070863 
L 200.908128 -122.04001 
L 202.919698 -121.836258 
L 204.931268 -121.654493 
L 206.942838 -121.663521 
L 208.954409 -121.749563 
L 210.965979 -121.599332 
L 212.977549 -121.452018 
L 214.989119 -121.304704 
L 217.00069 -121.157391 
L 219.01226 -120.927614 
L 221.02383 -120.688882 
L 223.0354 -120.600903 
L 225.046971 -120.568135 
L 227.058541 -120.420821 
L 229.070111 -120.270192 
L 231.081681 -120.0486 
L 233.093252 -119.827009 
L 235.104822 -119.624727 
L 237.116392 -119.612011 
L 239.127962 -119.493788 
L 241.139533 -119.391261 
L 243.151103 -119.242388 
L 245.162673 -119.094996 
L 247.174243 -118.947683 
L 249.185814 -118.800369 
L 251.197384 -118.653433 
L 253.208954 -118.573809 
L 255.220524 -118.538116 
L 257.232095 -118.502423 
L 259.243665 -118.467073 
L 259.243665 -243.343608 
L 259.243665 -243.343608 
L 257.232095 -241.494388 
L 255.220524 -239.645167 
L 253.208954 -237.795947 
L 251.197384 -235.946727 
L 249.185814 -234.097506 
L 247.174243 -232.248286 
L 245.162673 -230.307446 
L 243.151103 -228.274963 
L 241.139533 -226.242481 
L 239.127962 -224.209999 
L 237.116392 -222.177516 
L 235.104822 -220.145034 
L 233.093252 -218.112552 
L 231.081681 -216.080069 
L 229.070111 -214.165383 
L 227.058541 -212.378166 
L 225.046971 -210.59095 
L 223.0354 -208.803733 
L 221.02383 -207.016516 
L 219.01226 -205.229299 
L 217.00069 -203.442083 
L 214.989119 -201.654866 
L 212.977549 -199.867649 
L 210.965979 -198.080432 
L 208.954409 -196.293216 
L 206.942838 -194.505999 
L 204.931268 -192.718782 
L 202.919698 -190.920222 
L 200.908128 -188.85299 
L 198.896557 -186.498172 
L 196.884987 -184.143354 
L 194.873417 -181.788535 
L 192.861847 -179.433717 
L 190.850276 -177.277239 
L 188.838706 -175.675866 
L 186.827136 -174.070894 
L 184.815566 -172.465923 
L 182.803995 -170.860952 
L 180.792425 -169.255981 
L 178.780855 -167.65101 
L 176.769285 -165.698042 
L 174.757714 -163.617253 
L 172.746144 -161.527495 
L 170.734574 -159.42767 
L 168.723004 -157.80533 
L 166.711433 -155.459813 
L 164.699863 -153.137132 
L 162.688293 -151.060068 
L 160.676723 -149.522485 
L 158.665152 -148.543348 
L 156.653582 -146.496748 
L 154.642012 -145.481038 
L 152.630442 -144.690742 
L 150.618871 -143.984301 
L 148.607301 -143.523908 
L 146.595731 -142.756938 
L 144.584161 -142.305299 
L 142.57259 -141.98292 
L 140.56102 -141.647254 
L 138.54945 -141.282243 
L 136.53788 -141.222891 
L 134.526309 -140.665625 
L 132.514739 -140.563398 
L 130.503169 -140.46117 
L 128.491599 -140.358943 
L 126.480028 -140.254679 
L 124.468458 -140.149938 
L 122.456888 -140.042516 
L 120.445318 -139.935094 
L 118.433747 -139.830635 
L 116.422177 -139.730227 
L 114.410607 -139.655238 
L 112.399037 -139.645561 
L 110.387466 -139.57693 
L 108.375896 -139.536063 
L 106.364326 -139.57749 
L 104.352756 -139.847006 
L 102.341185 -139.951644 
L 100.329615 -139.806423 
L 98.318045 -139.656012 
L 96.306475 -139.505601 
L 94.294904 -139.508797 
L 92.283334 -139.318567 
L 90.271764 -139.232901 
L 88.260194 -139.270018 
L 86.248623 -139.307134 
L 84.237053 -139.34425 
L 82.225483 -139.431467 
L 80.213913 -139.495253 
L 78.202342 -139.470356 
L 76.190772 -139.508967 
L 74.179202 -139.590076 
L 72.167632 -139.564018 
L 70.156061 -139.505325 
L 68.144491 -139.463048 
L 66.132921 -139.418867 
L 64.121351 -139.514392 
L 62.10978 -139.537582 
L 60.09821 -139.683347 
z
" id="me3de4e76b5" style="stroke:#ffffff;stroke-opacity:0.15;"/>
    </defs>
    <g clip-path="url(#p9fc4ff9f7d)">
     <use style="fill:#4c72b0;fill-opacity:0.15;stroke:#ffffff;stroke-opacity:0.15;" x="0" xlink:href="#me3de4e76b5" y="259.889063"/>
    </g>
   </g>
   <g id="PathCollection_1">
    <defs>
     <path d="M 0 2.236068 
C 0.593012 2.236068 1.161816 2.000462 1.581139 1.581139 
C 2.000462 1.161816 2.236068 0.593012 2.236068 -0 
C 2.236068 -0.593012 2.000462 -1.161816 1.581139 -1.581139 
C 1.161816 -2.000462 0.593012 -2.236068 0 -2.236068 
C -0.593012 -2.236068 -1.161816 -2.000462 -1.581139 -1.581139 
C -2.000462 -1.161816 -2.236068 -0.593012 -2.236068 0 
C -2.236068 0.593012 -2.000462 1.161816 -1.581139 1.581139 
C -1.161816 2.000462 -0.593012 2.236068 0 2.236068 
z
" id="C0_0_6beeca67d9"/>
    </defs>
    <g clip-path="url(#p9fc4ff9f7d)">
     <use style="fill:#1f77b4;" x="60.09821" xlink:href="#C0_0_6beeca67d9" y="112.260652"/>
    </g>
    <g clip-path="url(#p9fc4ff9f7d)">
     <use style="fill:#aec7e8;" x="81.33698" xlink:href="#C0_0_6beeca67d9" y="127.74966"/>
    </g>
    <g clip-path="url(#p9fc4ff9f7d)">
     <use style="fill:#ff7f0e;" x="125.477797" xlink:href="#C0_0_6beeca67d9" y="122.205094"/>
    </g>
    <g clip-path="url(#p9fc4ff9f7d)">
     <use style="fill:#ffbb78;" x="259.243665" xlink:href="#C0_0_6beeca67d9" y="113.105886"/>
    </g>
    <g clip-path="url(#p9fc4ff9f7d)">
     <use style="fill:#2ca02c;" x="117.481272" xlink:href="#C0_0_6beeca67d9" y="139.226871"/>
    </g>
    <g clip-path="url(#p9fc4ff9f7d)">
     <use style="fill:#98df8a;" x="117.737161" xlink:href="#C0_0_6beeca67d9" y="134.963046"/>
    </g>
    <g clip-path="url(#p9fc4ff9f7d)">
     <use style="fill:#d62728;" x="130.499615" xlink:href="#C0_0_6beeca67d9" y="112.084447"/>
    </g>
    <g clip-path="url(#p9fc4ff9f7d)">
     <use style="fill:#ff9896;" x="151.482496" xlink:href="#C0_0_6beeca67d9" y="116.832154"/>
    </g>
    <g clip-path="url(#p9fc4ff9f7d)">
     <use style="fill:#9467bd;" x="144.957332" xlink:href="#C0_0_6beeca67d9" y="104.490713"/>
    </g>
    <g clip-path="url(#p9fc4ff9f7d)">
     <use style="fill:#c5b0d5;" x="139.871542" xlink:href="#C0_0_6beeca67d9" y="105.59485"/>
    </g>
    <g clip-path="url(#p9fc4ff9f7d)">
     <use style="fill:#8c564b;" x="162.485714" xlink:href="#C0_0_6beeca67d9" y="130.548815"/>
    </g>
    <g clip-path="url(#p9fc4ff9f7d)">
     <use style="fill:#c49c94;" x="159.351077" xlink:href="#C0_0_6beeca67d9" y="132.823934"/>
    </g>
    <g clip-path="url(#p9fc4ff9f7d)">
     <use style="fill:#e377c2;" x="108.269276" xlink:href="#C0_0_6beeca67d9" y="200.347301"/>
    </g>
    <g clip-path="url(#p9fc4ff9f7d)">
     <use style="fill:#f7b6d2;" x="118.600786" xlink:href="#C0_0_6beeca67d9" y="197.635791"/>
    </g>
    <g clip-path="url(#p9fc4ff9f7d)">
     <use style="fill:#7f7f7f;" x="134.657808" xlink:href="#C0_0_6beeca67d9" y="131.387274"/>
    </g>
   </g>
   <g id="PathCollection_2"/>
   <g id="PathCollection_3"/>
   <g id="PathCollection_4"/>
   <g id="PathCollection_5"/>
   <g id="PathCollection_6"/>
   <g id="PathCollection_7"/>
   <g id="PathCollection_8"/>
   <g id="PathCollection_9"/>
   <g id="PathCollection_10"/>
   <g id="PathCollection_11"/>
   <g id="PathCollection_12"/>
   <g id="PathCollection_13"/>
   <g id="PathCollection_14"/>
   <g id="PathCollection_15"/>
   <g id="PathCollection_16"/>
   <g id="line2d_11">
    <path clip-path="url(#p9fc4ff9f7d)" d="M 60.09821 143.472916 
L 62.10978 143.163342 
L 64.121351 142.853768 
L 66.132921 142.544194 
L 68.144491 142.23462 
L 70.156061 141.925046 
L 72.167632 141.615472 
L 74.179202 141.305898 
L 76.190772 140.996324 
L 78.202342 140.68675 
L 80.213913 140.377176 
L 82.225483 140.067602 
L 84.237053 139.758028 
L 86.248623 139.448454 
L 88.260194 139.13888 
L 90.271764 138.829306 
L 92.283334 138.519732 
L 94.294904 138.210158 
L 96.306475 137.900584 
L 98.318045 137.59101 
L 100.329615 137.281436 
L 102.341185 136.971862 
L 104.352756 136.662288 
L 106.364326 136.352714 
L 108.375896 136.04314 
L 110.387466 135.733567 
L 112.399037 135.423993 
L 114.410607 135.114419 
L 116.422177 134.804845 
L 118.433747 134.495271 
L 120.445318 134.185697 
L 122.456888 133.876123 
L 124.468458 133.566549 
L 126.480028 133.256975 
L 128.491599 132.947401 
L 130.503169 132.637827 
L 132.514739 132.328253 
L 134.526309 132.018679 
L 136.53788 131.709105 
L 138.54945 131.399531 
L 140.56102 131.089957 
L 142.57259 130.780383 
L 144.584161 130.470809 
L 146.595731 130.161235 
L 148.607301 129.851661 
L 150.618871 129.542087 
L 152.630442 129.232513 
L 154.642012 128.922939 
L 156.653582 128.613365 
L 158.665152 128.303791 
L 160.676723 127.994217 
L 162.688293 127.684643 
L 164.699863 127.375069 
L 166.711433 127.065495 
L 168.723004 126.755921 
L 170.734574 126.446347 
L 172.746144 126.136773 
L 174.757714 125.827199 
L 176.769285 125.517625 
L 178.780855 125.208051 
L 180.792425 124.898477 
L 182.803995 124.588903 
L 184.815566 124.279329 
L 186.827136 123.969755 
L 188.838706 123.660181 
L 190.850276 123.350607 
L 192.861847 123.041033 
L 194.873417 122.731459 
L 196.884987 122.421885 
L 198.896557 122.112311 
L 200.908128 121.802737 
L 202.919698 121.493163 
L 204.931268 121.183589 
L 206.942838 120.874015 
L 208.954409 120.564441 
L 210.965979 120.254867 
L 212.977549 119.945293 
L 214.989119 119.635719 
L 217.00069 119.326145 
L 219.01226 119.016572 
L 221.02383 118.706998 
L 223.0354 118.397424 
L 225.046971 118.08785 
L 227.058541 117.778276 
L 229.070111 117.468702 
L 231.081681 117.159128 
L 233.093252 116.849554 
L 235.104822 116.53998 
L 237.116392 116.230406 
L 239.127962 115.920832 
L 241.139533 115.611258 
L 243.151103 115.301684 
L 245.162673 114.99211 
L 247.174243 114.682536 
L 249.185814 114.372962 
L 251.197384 114.063388 
L 253.208954 113.753814 
L 255.220524 113.44424 
L 257.232095 113.134666 
L 259.243665 112.825092 
" style="fill:none;stroke:#4c72b0;stroke-linecap:round;stroke-width:2.25;"/>
   </g>
   <g id="patch_3">
    <path d="M 50.140937 212.8 
L 50.140937 7.2 
" style="fill:none;stroke:#333333;stroke-linecap:square;stroke-linejoin:miter;stroke-width:1.25;"/>
   </g>
   <g id="patch_4">
    <path d="M 269.200937 212.8 
L 269.200937 7.2 
" style="fill:none;stroke:#333333;stroke-linecap:square;stroke-linejoin:miter;stroke-width:1.25;"/>
   </g>
   <g id="patch_5">
    <path d="M 50.140937 212.8 
L 269.200937 212.8 
" style="fill:none;stroke:#333333;stroke-linecap:square;stroke-linejoin:miter;stroke-width:1.25;"/>
   </g>
   <g id="patch_6">
    <path d="M 50.140937 7.2 
L 269.200937 7.2 
" style="fill:none;stroke:#333333;stroke-linecap:square;stroke-linejoin:miter;stroke-width:1.25;"/>
   </g>
   <g id="legend_1">
    <g id="patch_7">
     <path d="M 282.353937 252.689063 
L 403.152844 252.689063 
Q 405.352844 252.689063 405.352844 250.489063 
L 405.352844 9.4 
Q 405.352844 7.2 403.152844 7.2 
L 282.353937 7.2 
Q 280.153937 7.2 280.153937 9.4 
L 280.153937 250.489063 
Q 280.153937 252.689063 282.353937 252.689063 
z
" style="fill:#ffffff;opacity:0.8;stroke:#cccccc;stroke-linejoin:miter;"/>
    </g>
    <g id="PathCollection_17">
     <defs>
      <path d="M 0 3 
C 0.795609 3 1.55874 2.683901 2.12132 2.12132 
C 2.683901 1.55874 3 0.795609 3 0 
C 3 -0.795609 2.683901 -1.55874 2.12132 -2.12132 
C 1.55874 -2.683901 0.795609 -3 0 -3 
C -0.795609 -3 -1.55874 -2.683901 -2.12132 -2.12132 
C -2.683901 -1.55874 -3 -0.795609 -3 0 
C -3 0.795609 -2.683901 1.55874 -2.12132 2.12132 
C -1.55874 2.683901 -0.795609 3 0 3 
z
" id="m123fd00c5c" style="stroke:#1f77b4;"/>
     </defs>
     <g>
      <use style="fill:#1f77b4;stroke:#1f77b4;" x="295.553937" xlink:href="#m123fd00c5c" y="17.070781"/>
     </g>
    </g>
    <g id="text_13">
     <!-- 10x ATAC A1 -->
     <g style="fill:#262626;" transform="translate(315.353937 19.958281)scale(0.11 -0.11)">
      <defs>
       <path d="M 794 531 
L 1825 531 
L 1825 4091 
L 703 3866 
L 703 4441 
L 1819 4666 
L 2450 4666 
L 2450 531 
L 3481 531 
L 3481 0 
L 794 0 
L 794 531 
z
" id="DejaVuSans-31" transform="scale(0.015625)"/>
       <path d="M 3513 3500 
L 2247 1797 
L 3578 0 
L 2900 0 
L 1881 1375 
L 863 0 
L 184 0 
L 1544 1831 
L 300 3500 
L 978 3500 
L 1906 2253 
L 2834 3500 
L 3513 3500 
z
" id="DejaVuSans-78" transform="scale(0.015625)"/>
       <path id="DejaVuSans-20" transform="scale(0.015625)"/>
       <path d="M 2188 4044 
L 1331 1722 
L 3047 1722 
L 2188 4044 
z
M 1831 4666 
L 2547 4666 
L 4325 0 
L 3669 0 
L 3244 1197 
L 1141 1197 
L 716 0 
L 50 0 
L 1831 4666 
z
" id="DejaVuSans-41" transform="scale(0.015625)"/>
       <path d="M -19 4666 
L 3928 4666 
L 3928 4134 
L 2272 4134 
L 2272 0 
L 1638 0 
L 1638 4134 
L -19 4134 
L -19 4666 
z
" id="DejaVuSans-54" transform="scale(0.015625)"/>
       <path d="M 4122 4306 
L 4122 3641 
Q 3803 3938 3442 4084 
Q 3081 4231 2675 4231 
Q 1875 4231 1450 3742 
Q 1025 3253 1025 2328 
Q 1025 1406 1450 917 
Q 1875 428 2675 428 
Q 3081 428 3442 575 
Q 3803 722 4122 1019 
L 4122 359 
Q 3791 134 3420 21 
Q 3050 -91 2638 -91 
Q 1578 -91 968 557 
Q 359 1206 359 2328 
Q 359 3453 968 4101 
Q 1578 4750 2638 4750 
Q 3056 4750 3426 4639 
Q 3797 4528 4122 4306 
z
" id="DejaVuSans-43" transform="scale(0.015625)"/>
      </defs>
      <use xlink:href="#DejaVuSans-31"/>
      <use x="63.623047" xlink:href="#DejaVuSans-30"/>
      <use x="127.246094" xlink:href="#DejaVuSans-78"/>
      <use x="186.425781" xlink:href="#DejaVuSans-20"/>
      <use x="218.212891" xlink:href="#DejaVuSans-41"/>
      <use x="278.871094" xlink:href="#DejaVuSans-54"/>
      <use x="332.205078" xlink:href="#DejaVuSans-41"/>
      <use x="398.863281" xlink:href="#DejaVuSans-43"/>
      <use x="468.6875" xlink:href="#DejaVuSans-20"/>
      <use x="500.474609" xlink:href="#DejaVuSans-41"/>
      <use x="568.882812" xlink:href="#DejaVuSans-31"/>
     </g>
    </g>
    <g id="PathCollection_18">
     <defs>
      <path d="M 0 3 
C 0.795609 3 1.55874 2.683901 2.12132 2.12132 
C 2.683901 1.55874 3 0.795609 3 0 
C 3 -0.795609 2.683901 -1.55874 2.12132 -2.12132 
C 1.55874 -2.683901 0.795609 -3 0 -3 
C -0.795609 -3 -1.55874 -2.683901 -2.12132 -2.12132 
C -2.683901 -1.55874 -3 -0.795609 -3 0 
C -3 0.795609 -2.683901 1.55874 -2.12132 2.12132 
C -1.55874 2.683901 -0.795609 3 0 3 
z
" id="m4de33a7454" style="stroke:#aec7e8;"/>
     </defs>
     <g>
      <use style="fill:#aec7e8;stroke:#aec7e8;" x="295.553937" xlink:href="#m4de33a7454" y="33.216719"/>
     </g>
    </g>
    <g id="text_14">
     <!-- 10x ATAC A2 -->
     <g style="fill:#262626;" transform="translate(315.353937 36.104219)scale(0.11 -0.11)">
      <use xlink:href="#DejaVuSans-31"/>
      <use x="63.623047" xlink:href="#DejaVuSans-30"/>
      <use x="127.246094" xlink:href="#DejaVuSans-78"/>
      <use x="186.425781" xlink:href="#DejaVuSans-20"/>
      <use x="218.212891" xlink:href="#DejaVuSans-41"/>
      <use x="278.871094" xlink:href="#DejaVuSans-54"/>
      <use x="332.205078" xlink:href="#DejaVuSans-41"/>
      <use x="398.863281" xlink:href="#DejaVuSans-43"/>
      <use x="468.6875" xlink:href="#DejaVuSans-20"/>
      <use x="500.474609" xlink:href="#DejaVuSans-41"/>
      <use x="568.882812" xlink:href="#DejaVuSans-32"/>
     </g>
    </g>
    <g id="PathCollection_19">
     <defs>
      <path d="M 0 3 
C 0.795609 3 1.55874 2.683901 2.12132 2.12132 
C 2.683901 1.55874 3 0.795609 3 0 
C 3 -0.795609 2.683901 -1.55874 2.12132 -2.12132 
C 1.55874 -2.683901 0.795609 -3 0 -3 
C -0.795609 -3 -1.55874 -2.683901 -2.12132 -2.12132 
C -2.683901 -1.55874 -3 -0.795609 -3 0 
C -3 0.795609 -2.683901 1.55874 -2.12132 2.12132 
C -1.55874 2.683901 -0.795609 3 0 3 
z
" id="mdd2e61133c" style="stroke:#ff7f0e;"/>
     </defs>
     <g>
      <use style="fill:#ff7f0e;stroke:#ff7f0e;" x="295.553937" xlink:href="#mdd2e61133c" y="49.362656"/>
     </g>
    </g>
    <g id="text_15">
     <!-- 10x ATAC B1 -->
     <g style="fill:#262626;" transform="translate(315.353937 52.250156)scale(0.11 -0.11)">
      <defs>
       <path d="M 1259 2228 
L 1259 519 
L 2272 519 
Q 2781 519 3026 730 
Q 3272 941 3272 1375 
Q 3272 1813 3026 2020 
Q 2781 2228 2272 2228 
L 1259 2228 
z
M 1259 4147 
L 1259 2741 
L 2194 2741 
Q 2656 2741 2882 2914 
Q 3109 3088 3109 3444 
Q 3109 3797 2882 3972 
Q 2656 4147 2194 4147 
L 1259 4147 
z
M 628 4666 
L 2241 4666 
Q 2963 4666 3353 4366 
Q 3744 4066 3744 3513 
Q 3744 3084 3544 2831 
Q 3344 2578 2956 2516 
Q 3422 2416 3680 2098 
Q 3938 1781 3938 1306 
Q 3938 681 3513 340 
Q 3088 0 2303 0 
L 628 0 
L 628 4666 
z
" id="DejaVuSans-42" transform="scale(0.015625)"/>
      </defs>
      <use xlink:href="#DejaVuSans-31"/>
      <use x="63.623047" xlink:href="#DejaVuSans-30"/>
      <use x="127.246094" xlink:href="#DejaVuSans-78"/>
      <use x="186.425781" xlink:href="#DejaVuSans-20"/>
      <use x="218.212891" xlink:href="#DejaVuSans-41"/>
      <use x="278.871094" xlink:href="#DejaVuSans-54"/>
      <use x="332.205078" xlink:href="#DejaVuSans-41"/>
      <use x="398.863281" xlink:href="#DejaVuSans-43"/>
      <use x="468.6875" xlink:href="#DejaVuSans-20"/>
      <use x="500.474609" xlink:href="#DejaVuSans-42"/>
      <use x="569.078125" xlink:href="#DejaVuSans-31"/>
     </g>
    </g>
    <g id="PathCollection_20">
     <defs>
      <path d="M 0 3 
C 0.795609 3 1.55874 2.683901 2.12132 2.12132 
C 2.683901 1.55874 3 0.795609 3 0 
C 3 -0.795609 2.683901 -1.55874 2.12132 -2.12132 
C 1.55874 -2.683901 0.795609 -3 0 -3 
C -0.795609 -3 -1.55874 -2.683901 -2.12132 -2.12132 
C -2.683901 -1.55874 -3 -0.795609 -3 0 
C -3 0.795609 -2.683901 1.55874 -2.12132 2.12132 
C -1.55874 2.683901 -0.795609 3 0 3 
z
" id="m9448d08a4e" style="stroke:#ffbb78;"/>
     </defs>
     <g>
      <use style="fill:#ffbb78;stroke:#ffbb78;" x="295.553937" xlink:href="#m9448d08a4e" y="65.508594"/>
     </g>
    </g>
    <g id="text_16">
     <!-- 10x ATAC B2 -->
     <g style="fill:#262626;" transform="translate(315.353937 68.396094)scale(0.11 -0.11)">
      <use xlink:href="#DejaVuSans-31"/>
      <use x="63.623047" xlink:href="#DejaVuSans-30"/>
      <use x="127.246094" xlink:href="#DejaVuSans-78"/>
      <use x="186.425781" xlink:href="#DejaVuSans-20"/>
      <use x="218.212891" xlink:href="#DejaVuSans-41"/>
      <use x="278.871094" xlink:href="#DejaVuSans-54"/>
      <use x="332.205078" xlink:href="#DejaVuSans-41"/>
      <use x="398.863281" xlink:href="#DejaVuSans-43"/>
      <use x="468.6875" xlink:href="#DejaVuSans-20"/>
      <use x="500.474609" xlink:href="#DejaVuSans-42"/>
      <use x="569.078125" xlink:href="#DejaVuSans-32"/>
     </g>
    </g>
    <g id="PathCollection_21">
     <defs>
      <path d="M 0 3 
C 0.795609 3 1.55874 2.683901 2.12132 2.12132 
C 2.683901 1.55874 3 0.795609 3 0 
C 3 -0.795609 2.683901 -1.55874 2.12132 -2.12132 
C 1.55874 -2.683901 0.795609 -3 0 -3 
C -0.795609 -3 -1.55874 -2.683901 -2.12132 -2.12132 
C -2.683901 -1.55874 -3 -0.795609 -3 0 
C -3 0.795609 -2.683901 1.55874 -2.12132 2.12132 
C -1.55874 2.683901 -0.795609 3 0 3 
z
" id="m2f7f3bfd7a" style="stroke:#2ca02c;"/>
     </defs>
     <g>
      <use style="fill:#2ca02c;stroke:#2ca02c;" x="295.553937" xlink:href="#m2f7f3bfd7a" y="81.654531"/>
     </g>
    </g>
    <g id="text_17">
     <!-- 10x ATAC C1 -->
     <g style="fill:#262626;" transform="translate(315.353937 84.542031)scale(0.11 -0.11)">
      <use xlink:href="#DejaVuSans-31"/>
      <use x="63.623047" xlink:href="#DejaVuSans-30"/>
      <use x="127.246094" xlink:href="#DejaVuSans-78"/>
      <use x="186.425781" xlink:href="#DejaVuSans-20"/>
      <use x="218.212891" xlink:href="#DejaVuSans-41"/>
      <use x="278.871094" xlink:href="#DejaVuSans-54"/>
      <use x="332.205078" xlink:href="#DejaVuSans-41"/>
      <use x="398.863281" xlink:href="#DejaVuSans-43"/>
      <use x="468.6875" xlink:href="#DejaVuSans-20"/>
      <use x="500.474609" xlink:href="#DejaVuSans-43"/>
      <use x="570.298828" xlink:href="#DejaVuSans-31"/>
     </g>
    </g>
    <g id="PathCollection_22">
     <defs>
      <path d="M 0 3 
C 0.795609 3 1.55874 2.683901 2.12132 2.12132 
C 2.683901 1.55874 3 0.795609 3 0 
C 3 -0.795609 2.683901 -1.55874 2.12132 -2.12132 
C 1.55874 -2.683901 0.795609 -3 0 -3 
C -0.795609 -3 -1.55874 -2.683901 -2.12132 -2.12132 
C -2.683901 -1.55874 -3 -0.795609 -3 0 
C -3 0.795609 -2.683901 1.55874 -2.12132 2.12132 
C -1.55874 2.683901 -0.795609 3 0 3 
z
" id="m7e57c66743" style="stroke:#98df8a;"/>
     </defs>
     <g>
      <use style="fill:#98df8a;stroke:#98df8a;" x="295.553937" xlink:href="#m7e57c66743" y="97.800469"/>
     </g>
    </g>
    <g id="text_18">
     <!-- 10x ATAC C2 -->
     <g style="fill:#262626;" transform="translate(315.353937 100.687969)scale(0.11 -0.11)">
      <use xlink:href="#DejaVuSans-31"/>
      <use x="63.623047" xlink:href="#DejaVuSans-30"/>
      <use x="127.246094" xlink:href="#DejaVuSans-78"/>
      <use x="186.425781" xlink:href="#DejaVuSans-20"/>
      <use x="218.212891" xlink:href="#DejaVuSans-41"/>
      <use x="278.871094" xlink:href="#DejaVuSans-54"/>
      <use x="332.205078" xlink:href="#DejaVuSans-41"/>
      <use x="398.863281" xlink:href="#DejaVuSans-43"/>
      <use x="468.6875" xlink:href="#DejaVuSans-20"/>
      <use x="500.474609" xlink:href="#DejaVuSans-43"/>
      <use x="570.298828" xlink:href="#DejaVuSans-32"/>
     </g>
    </g>
    <g id="PathCollection_23">
     <defs>
      <path d="M 0 3 
C 0.795609 3 1.55874 2.683901 2.12132 2.12132 
C 2.683901 1.55874 3 0.795609 3 0 
C 3 -0.795609 2.683901 -1.55874 2.12132 -2.12132 
C 1.55874 -2.683901 0.795609 -3 0 -3 
C -0.795609 -3 -1.55874 -2.683901 -2.12132 -2.12132 
C -2.683901 -1.55874 -3 -0.795609 -3 0 
C -3 0.795609 -2.683901 1.55874 -2.12132 2.12132 
C -1.55874 2.683901 -0.795609 3 0 3 
z
" id="me267fbe749" style="stroke:#d62728;"/>
     </defs>
     <g>
      <use style="fill:#d62728;stroke:#d62728;" x="295.553937" xlink:href="#me267fbe749" y="113.946406"/>
     </g>
    </g>
    <g id="text_19">
     <!-- 10x Multiome 1 -->
     <g style="fill:#262626;" transform="translate(315.353937 116.833906)scale(0.11 -0.11)">
      <defs>
       <path d="M 628 4666 
L 1569 4666 
L 2759 1491 
L 3956 4666 
L 4897 4666 
L 4897 0 
L 4281 0 
L 4281 4097 
L 3078 897 
L 2444 897 
L 1241 4097 
L 1241 0 
L 628 0 
L 628 4666 
z
" id="DejaVuSans-4d" transform="scale(0.015625)"/>
       <path d="M 1172 4494 
L 1172 3500 
L 2356 3500 
L 2356 3053 
L 1172 3053 
L 1172 1153 
Q 1172 725 1289 603 
Q 1406 481 1766 481 
L 2356 481 
L 2356 0 
L 1766 0 
Q 1100 0 847 248 
Q 594 497 594 1153 
L 594 3053 
L 172 3053 
L 172 3500 
L 594 3500 
L 594 4494 
L 1172 4494 
z
" id="DejaVuSans-74" transform="scale(0.015625)"/>
       <path d="M 3328 2828 
Q 3544 3216 3844 3400 
Q 4144 3584 4550 3584 
Q 5097 3584 5394 3201 
Q 5691 2819 5691 2113 
L 5691 0 
L 5113 0 
L 5113 2094 
Q 5113 2597 4934 2840 
Q 4756 3084 4391 3084 
Q 3944 3084 3684 2787 
Q 3425 2491 3425 1978 
L 3425 0 
L 2847 0 
L 2847 2094 
Q 2847 2600 2669 2842 
Q 2491 3084 2119 3084 
Q 1678 3084 1418 2786 
Q 1159 2488 1159 1978 
L 1159 0 
L 581 0 
L 581 3500 
L 1159 3500 
L 1159 2956 
Q 1356 3278 1631 3431 
Q 1906 3584 2284 3584 
Q 2666 3584 2933 3390 
Q 3200 3197 3328 2828 
z
" id="DejaVuSans-6d" transform="scale(0.015625)"/>
      </defs>
      <use xlink:href="#DejaVuSans-31"/>
      <use x="63.623047" xlink:href="#DejaVuSans-30"/>
      <use x="127.246094" xlink:href="#DejaVuSans-78"/>
      <use x="186.425781" xlink:href="#DejaVuSans-20"/>
      <use x="218.212891" xlink:href="#DejaVuSans-4d"/>
      <use x="304.492188" xlink:href="#DejaVuSans-75"/>
      <use x="367.871094" xlink:href="#DejaVuSans-6c"/>
      <use x="395.654297" xlink:href="#DejaVuSans-74"/>
      <use x="434.863281" xlink:href="#DejaVuSans-69"/>
      <use x="462.646484" xlink:href="#DejaVuSans-6f"/>
      <use x="523.828125" xlink:href="#DejaVuSans-6d"/>
      <use x="621.240234" xlink:href="#DejaVuSans-65"/>
      <use x="682.763672" xlink:href="#DejaVuSans-20"/>
      <use x="714.550781" xlink:href="#DejaVuSans-31"/>
     </g>
    </g>
    <g id="PathCollection_24">
     <defs>
      <path d="M 0 3 
C 0.795609 3 1.55874 2.683901 2.12132 2.12132 
C 2.683901 1.55874 3 0.795609 3 0 
C 3 -0.795609 2.683901 -1.55874 2.12132 -2.12132 
C 1.55874 -2.683901 0.795609 -3 0 -3 
C -0.795609 -3 -1.55874 -2.683901 -2.12132 -2.12132 
C -2.683901 -1.55874 -3 -0.795609 -3 0 
C -3 0.795609 -2.683901 1.55874 -2.12132 2.12132 
C -1.55874 2.683901 -0.795609 3 0 3 
z
" id="mf36c9993bb" style="stroke:#ff9896;"/>
     </defs>
     <g>
      <use style="fill:#ff9896;stroke:#ff9896;" x="295.553937" xlink:href="#mf36c9993bb" y="130.092344"/>
     </g>
    </g>
    <g id="text_20">
     <!-- 10x Multiome 2 -->
     <g style="fill:#262626;" transform="translate(315.353937 132.979844)scale(0.11 -0.11)">
      <use xlink:href="#DejaVuSans-31"/>
      <use x="63.623047" xlink:href="#DejaVuSans-30"/>
      <use x="127.246094" xlink:href="#DejaVuSans-78"/>
      <use x="186.425781" xlink:href="#DejaVuSans-20"/>
      <use x="218.212891" xlink:href="#DejaVuSans-4d"/>
      <use x="304.492188" xlink:href="#DejaVuSans-75"/>
      <use x="367.871094" xlink:href="#DejaVuSans-6c"/>
      <use x="395.654297" xlink:href="#DejaVuSans-74"/>
      <use x="434.863281" xlink:href="#DejaVuSans-69"/>
      <use x="462.646484" xlink:href="#DejaVuSans-6f"/>
      <use x="523.828125" xlink:href="#DejaVuSans-6d"/>
      <use x="621.240234" xlink:href="#DejaVuSans-65"/>
      <use x="682.763672" xlink:href="#DejaVuSans-20"/>
      <use x="714.550781" xlink:href="#DejaVuSans-32"/>
     </g>
    </g>
    <g id="PathCollection_25">
     <defs>
      <path d="M 0 3 
C 0.795609 3 1.55874 2.683901 2.12132 2.12132 
C 2.683901 1.55874 3 0.795609 3 0 
C 3 -0.795609 2.683901 -1.55874 2.12132 -2.12132 
C 1.55874 -2.683901 0.795609 -3 0 -3 
C -0.795609 -3 -1.55874 -2.683901 -2.12132 -2.12132 
C -2.683901 -1.55874 -3 -0.795609 -3 0 
C -3 0.795609 -2.683901 1.55874 -2.12132 2.12132 
C -1.55874 2.683901 -0.795609 3 0 3 
z
" id="m83ed8fc3a2" style="stroke:#9467bd;"/>
     </defs>
     <g>
      <use style="fill:#9467bd;stroke:#9467bd;" x="295.553937" xlink:href="#m83ed8fc3a2" y="146.238281"/>
     </g>
    </g>
    <g id="text_21">
     <!-- 10x mtATAC 1 -->
     <g style="fill:#262626;" transform="translate(315.353937 149.125781)scale(0.11 -0.11)">
      <use xlink:href="#DejaVuSans-31"/>
      <use x="63.623047" xlink:href="#DejaVuSans-30"/>
      <use x="127.246094" xlink:href="#DejaVuSans-78"/>
      <use x="186.425781" xlink:href="#DejaVuSans-20"/>
      <use x="218.212891" xlink:href="#DejaVuSans-6d"/>
      <use x="315.625" xlink:href="#DejaVuSans-74"/>
      <use x="354.833984" xlink:href="#DejaVuSans-41"/>
      <use x="415.492188" xlink:href="#DejaVuSans-54"/>
      <use x="468.826172" xlink:href="#DejaVuSans-41"/>
      <use x="535.484375" xlink:href="#DejaVuSans-43"/>
      <use x="605.308594" xlink:href="#DejaVuSans-20"/>
      <use x="637.095703" xlink:href="#DejaVuSans-31"/>
     </g>
    </g>
    <g id="PathCollection_26">
     <defs>
      <path d="M 0 3 
C 0.795609 3 1.55874 2.683901 2.12132 2.12132 
C 2.683901 1.55874 3 0.795609 3 0 
C 3 -0.795609 2.683901 -1.55874 2.12132 -2.12132 
C 1.55874 -2.683901 0.795609 -3 0 -3 
C -0.795609 -3 -1.55874 -2.683901 -2.12132 -2.12132 
C -2.683901 -1.55874 -3 -0.795609 -3 0 
C -3 0.795609 -2.683901 1.55874 -2.12132 2.12132 
C -1.55874 2.683901 -0.795609 3 0 3 
z
" id="ma2f260f471" style="stroke:#c5b0d5;"/>
     </defs>
     <g>
      <use style="fill:#c5b0d5;stroke:#c5b0d5;" x="295.553937" xlink:href="#ma2f260f471" y="162.384219"/>
     </g>
    </g>
    <g id="text_22">
     <!-- 10x mtATAC 2 -->
     <g style="fill:#262626;" transform="translate(315.353937 165.271719)scale(0.11 -0.11)">
      <use xlink:href="#DejaVuSans-31"/>
      <use x="63.623047" xlink:href="#DejaVuSans-30"/>
      <use x="127.246094" xlink:href="#DejaVuSans-78"/>
      <use x="186.425781" xlink:href="#DejaVuSans-20"/>
      <use x="218.212891" xlink:href="#DejaVuSans-6d"/>
      <use x="315.625" xlink:href="#DejaVuSans-74"/>
      <use x="354.833984" xlink:href="#DejaVuSans-41"/>
      <use x="415.492188" xlink:href="#DejaVuSans-54"/>
      <use x="468.826172" xlink:href="#DejaVuSans-41"/>
      <use x="535.484375" xlink:href="#DejaVuSans-43"/>
      <use x="605.308594" xlink:href="#DejaVuSans-20"/>
      <use x="637.095703" xlink:href="#DejaVuSans-32"/>
     </g>
    </g>
    <g id="PathCollection_27">
     <defs>
      <path d="M 0 3 
C 0.795609 3 1.55874 2.683901 2.12132 2.12132 
C 2.683901 1.55874 3 0.795609 3 0 
C 3 -0.795609 2.683901 -1.55874 2.12132 -2.12132 
C 1.55874 -2.683901 0.795609 -3 0 -3 
C -0.795609 -3 -1.55874 -2.683901 -2.12132 -2.12132 
C -2.683901 -1.55874 -3 -0.795609 -3 0 
C -3 0.795609 -2.683901 1.55874 -2.12132 2.12132 
C -1.55874 2.683901 -0.795609 3 0 3 
z
" id="m28a013b369" style="stroke:#8c564b;"/>
     </defs>
     <g>
      <use style="fill:#8c564b;stroke:#8c564b;" x="295.553937" xlink:href="#m28a013b369" y="178.530156"/>
     </g>
    </g>
    <g id="text_23">
     <!-- BioRad ATAC 1 -->
     <g style="fill:#262626;" transform="translate(315.353937 181.417656)scale(0.11 -0.11)">
      <defs>
       <path d="M 2841 2188 
Q 3044 2119 3236 1894 
Q 3428 1669 3622 1275 
L 4263 0 
L 3584 0 
L 2988 1197 
Q 2756 1666 2539 1819 
Q 2322 1972 1947 1972 
L 1259 1972 
L 1259 0 
L 628 0 
L 628 4666 
L 2053 4666 
Q 2853 4666 3247 4331 
Q 3641 3997 3641 3322 
Q 3641 2881 3436 2590 
Q 3231 2300 2841 2188 
z
M 1259 4147 
L 1259 2491 
L 2053 2491 
Q 2509 2491 2742 2702 
Q 2975 2913 2975 3322 
Q 2975 3731 2742 3939 
Q 2509 4147 2053 4147 
L 1259 4147 
z
" id="DejaVuSans-52" transform="scale(0.015625)"/>
       <path d="M 2906 2969 
L 2906 4863 
L 3481 4863 
L 3481 0 
L 2906 0 
L 2906 525 
Q 2725 213 2448 61 
Q 2172 -91 1784 -91 
Q 1150 -91 751 415 
Q 353 922 353 1747 
Q 353 2572 751 3078 
Q 1150 3584 1784 3584 
Q 2172 3584 2448 3432 
Q 2725 3281 2906 2969 
z
M 947 1747 
Q 947 1113 1208 752 
Q 1469 391 1925 391 
Q 2381 391 2643 752 
Q 2906 1113 2906 1747 
Q 2906 2381 2643 2742 
Q 2381 3103 1925 3103 
Q 1469 3103 1208 2742 
Q 947 2381 947 1747 
z
" id="DejaVuSans-64" transform="scale(0.015625)"/>
      </defs>
      <use xlink:href="#DejaVuSans-42"/>
      <use x="68.603516" xlink:href="#DejaVuSans-69"/>
      <use x="96.386719" xlink:href="#DejaVuSans-6f"/>
      <use x="157.568359" xlink:href="#DejaVuSans-52"/>
      <use x="224.800781" xlink:href="#DejaVuSans-61"/>
      <use x="286.080078" xlink:href="#DejaVuSans-64"/>
      <use x="349.556641" xlink:href="#DejaVuSans-20"/>
      <use x="381.34375" xlink:href="#DejaVuSans-41"/>
      <use x="442.001953" xlink:href="#DejaVuSans-54"/>
      <use x="495.335938" xlink:href="#DejaVuSans-41"/>
      <use x="561.994141" xlink:href="#DejaVuSans-43"/>
      <use x="631.818359" xlink:href="#DejaVuSans-20"/>
      <use x="663.605469" xlink:href="#DejaVuSans-31"/>
     </g>
    </g>
    <g id="PathCollection_28">
     <defs>
      <path d="M 0 3 
C 0.795609 3 1.55874 2.683901 2.12132 2.12132 
C 2.683901 1.55874 3 0.795609 3 0 
C 3 -0.795609 2.683901 -1.55874 2.12132 -2.12132 
C 1.55874 -2.683901 0.795609 -3 0 -3 
C -0.795609 -3 -1.55874 -2.683901 -2.12132 -2.12132 
C -2.683901 -1.55874 -3 -0.795609 -3 0 
C -3 0.795609 -2.683901 1.55874 -2.12132 2.12132 
C -1.55874 2.683901 -0.795609 3 0 3 
z
" id="mce484aab08" style="stroke:#c49c94;"/>
     </defs>
     <g>
      <use style="fill:#c49c94;stroke:#c49c94;" x="295.553937" xlink:href="#mce484aab08" y="194.676094"/>
     </g>
    </g>
    <g id="text_24">
     <!-- BioRad ATAC 2 -->
     <g style="fill:#262626;" transform="translate(315.353937 197.563594)scale(0.11 -0.11)">
      <use xlink:href="#DejaVuSans-42"/>
      <use x="68.603516" xlink:href="#DejaVuSans-69"/>
      <use x="96.386719" xlink:href="#DejaVuSans-6f"/>
      <use x="157.568359" xlink:href="#DejaVuSans-52"/>
      <use x="224.800781" xlink:href="#DejaVuSans-61"/>
      <use x="286.080078" xlink:href="#DejaVuSans-64"/>
      <use x="349.556641" xlink:href="#DejaVuSans-20"/>
      <use x="381.34375" xlink:href="#DejaVuSans-41"/>
      <use x="442.001953" xlink:href="#DejaVuSans-54"/>
      <use x="495.335938" xlink:href="#DejaVuSans-41"/>
      <use x="561.994141" xlink:href="#DejaVuSans-43"/>
      <use x="631.818359" xlink:href="#DejaVuSans-20"/>
      <use x="663.605469" xlink:href="#DejaVuSans-32"/>
     </g>
    </g>
    <g id="PathCollection_29">
     <defs>
      <path d="M 0 3 
C 0.795609 3 1.55874 2.683901 2.12132 2.12132 
C 2.683901 1.55874 3 0.795609 3 0 
C 3 -0.795609 2.683901 -1.55874 2.12132 -2.12132 
C 1.55874 -2.683901 0.795609 -3 0 -3 
C -0.795609 -3 -1.55874 -2.683901 -2.12132 -2.12132 
C -2.683901 -1.55874 -3 -0.795609 -3 0 
C -3 0.795609 -2.683901 1.55874 -2.12132 2.12132 
C -1.55874 2.683901 -0.795609 3 0 3 
z
" id="mb8d02c50de" style="stroke:#e377c2;"/>
     </defs>
     <g>
      <use style="fill:#e377c2;stroke:#e377c2;" x="295.553937" xlink:href="#mb8d02c50de" y="210.822031"/>
     </g>
    </g>
    <g id="text_25">
     <!-- Hydrop ATAC 1 -->
     <g style="fill:#262626;" transform="translate(315.353937 213.709531)scale(0.11 -0.11)">
      <defs>
       <path d="M 628 4666 
L 1259 4666 
L 1259 2753 
L 3553 2753 
L 3553 4666 
L 4184 4666 
L 4184 0 
L 3553 0 
L 3553 2222 
L 1259 2222 
L 1259 0 
L 628 0 
L 628 4666 
z
" id="DejaVuSans-48" transform="scale(0.015625)"/>
       <path d="M 2059 -325 
Q 1816 -950 1584 -1140 
Q 1353 -1331 966 -1331 
L 506 -1331 
L 506 -850 
L 844 -850 
Q 1081 -850 1212 -737 
Q 1344 -625 1503 -206 
L 1606 56 
L 191 3500 
L 800 3500 
L 1894 763 
L 2988 3500 
L 3597 3500 
L 2059 -325 
z
" id="DejaVuSans-79" transform="scale(0.015625)"/>
       <path d="M 1159 525 
L 1159 -1331 
L 581 -1331 
L 581 3500 
L 1159 3500 
L 1159 2969 
Q 1341 3281 1617 3432 
Q 1894 3584 2278 3584 
Q 2916 3584 3314 3078 
Q 3713 2572 3713 1747 
Q 3713 922 3314 415 
Q 2916 -91 2278 -91 
Q 1894 -91 1617 61 
Q 1341 213 1159 525 
z
M 3116 1747 
Q 3116 2381 2855 2742 
Q 2594 3103 2138 3103 
Q 1681 3103 1420 2742 
Q 1159 2381 1159 1747 
Q 1159 1113 1420 752 
Q 1681 391 2138 391 
Q 2594 391 2855 752 
Q 3116 1113 3116 1747 
z
" id="DejaVuSans-70" transform="scale(0.015625)"/>
      </defs>
      <use xlink:href="#DejaVuSans-48"/>
      <use x="75.195312" xlink:href="#DejaVuSans-79"/>
      <use x="134.375" xlink:href="#DejaVuSans-64"/>
      <use x="197.851562" xlink:href="#DejaVuSans-72"/>
      <use x="236.714844" xlink:href="#DejaVuSans-6f"/>
      <use x="297.896484" xlink:href="#DejaVuSans-70"/>
      <use x="361.373047" xlink:href="#DejaVuSans-20"/>
      <use x="393.160156" xlink:href="#DejaVuSans-41"/>
      <use x="453.818359" xlink:href="#DejaVuSans-54"/>
      <use x="507.152344" xlink:href="#DejaVuSans-41"/>
      <use x="573.810547" xlink:href="#DejaVuSans-43"/>
      <use x="643.634766" xlink:href="#DejaVuSans-20"/>
      <use x="675.421875" xlink:href="#DejaVuSans-31"/>
     </g>
    </g>
    <g id="PathCollection_30">
     <defs>
      <path d="M 0 3 
C 0.795609 3 1.55874 2.683901 2.12132 2.12132 
C 2.683901 1.55874 3 0.795609 3 0 
C 3 -0.795609 2.683901 -1.55874 2.12132 -2.12132 
C 1.55874 -2.683901 0.795609 -3 0 -3 
C -0.795609 -3 -1.55874 -2.683901 -2.12132 -2.12132 
C -2.683901 -1.55874 -3 -0.795609 -3 0 
C -3 0.795609 -2.683901 1.55874 -2.12132 2.12132 
C -1.55874 2.683901 -0.795609 3 0 3 
z
" id="m89f232a9c8" style="stroke:#f7b6d2;"/>
     </defs>
     <g>
      <use style="fill:#f7b6d2;stroke:#f7b6d2;" x="295.553937" xlink:href="#m89f232a9c8" y="226.967969"/>
     </g>
    </g>
    <g id="text_26">
     <!-- Hydrop ATAC 2 -->
     <g style="fill:#262626;" transform="translate(315.353937 229.855469)scale(0.11 -0.11)">
      <use xlink:href="#DejaVuSans-48"/>
      <use x="75.195312" xlink:href="#DejaVuSans-79"/>
      <use x="134.375" xlink:href="#DejaVuSans-64"/>
      <use x="197.851562" xlink:href="#DejaVuSans-72"/>
      <use x="236.714844" xlink:href="#DejaVuSans-6f"/>
      <use x="297.896484" xlink:href="#DejaVuSans-70"/>
      <use x="361.373047" xlink:href="#DejaVuSans-20"/>
      <use x="393.160156" xlink:href="#DejaVuSans-41"/>
      <use x="453.818359" xlink:href="#DejaVuSans-54"/>
      <use x="507.152344" xlink:href="#DejaVuSans-41"/>
      <use x="573.810547" xlink:href="#DejaVuSans-43"/>
      <use x="643.634766" xlink:href="#DejaVuSans-20"/>
      <use x="675.421875" xlink:href="#DejaVuSans-32"/>
     </g>
    </g>
    <g id="PathCollection_31">
     <defs>
      <path d="M 0 3 
C 0.795609 3 1.55874 2.683901 2.12132 2.12132 
C 2.683901 1.55874 3 0.795609 3 0 
C 3 -0.795609 2.683901 -1.55874 2.12132 -2.12132 
C 1.55874 -2.683901 0.795609 -3 0 -3 
C -0.795609 -3 -1.55874 -2.683901 -2.12132 -2.12132 
C -2.683901 -1.55874 -3 -0.795609 -3 0 
C -3 0.795609 -2.683901 1.55874 -2.12132 2.12132 
C -1.55874 2.683901 -0.795609 3 0 3 
z
" id="mca9c56b328" style="stroke:#7f7f7f;"/>
     </defs>
     <g>
      <use style="fill:#7f7f7f;stroke:#7f7f7f;" x="295.553937" xlink:href="#mca9c56b328" y="243.113906"/>
     </g>
    </g>
    <g id="text_27">
     <!-- s3 ATAC -->
     <g style="fill:#262626;" transform="translate(315.353937 246.001406)scale(0.11 -0.11)">
      <use xlink:href="#DejaVuSans-73"/>
      <use x="52.099609" xlink:href="#DejaVuSans-33"/>
      <use x="115.722656" xlink:href="#DejaVuSans-20"/>
      <use x="147.509766" xlink:href="#DejaVuSans-41"/>
      <use x="208.167969" xlink:href="#DejaVuSans-54"/>
      <use x="261.501953" xlink:href="#DejaVuSans-41"/>
      <use x="328.160156" xlink:href="#DejaVuSans-43"/>
     </g>
    </g>
   </g>
  </g>
 </g>
 <defs>
  <clipPath id="p9fc4ff9f7d">
   <rect height="205.6" width="219.06" x="50.140937" y="7.2"/>
  </clipPath>
 </defs>
</svg>
