<?xml version="1.0" encoding="utf-8" standalone="no"?>
<!DOCTYPE svg PUBLIC "-//W3C//DTD SVG 1.1//EN"
  "http://www.w3.org/Graphics/SVG/1.1/DTD/svg11.dtd">
<svg height="275.863977pt" version="1.1" viewBox="0 0 412.1945 275.863977" width="412.1945pt" xmlns="http://www.w3.org/2000/svg" xmlns:xlink="http://www.w3.org/1999/xlink">
 <metadata>
  <rdf:RDF xmlns:cc="http://creativecommons.org/ns#" xmlns:dc="http://purl.org/dc/elements/1.1/" xmlns:rdf="http://www.w3.org/1999/02/22-rdf-syntax-ns#">
   <cc:Work>
    <dc:type rdf:resource="http://purl.org/dc/dcmitype/StillImage"/>
    <dc:date>2021-12-08T21:42:50.328043</dc:date>
    <dc:format>image/svg+xml</dc:format>
    <dc:creator>
     <cc:Agent>
      <dc:title>Matplotlib v3.4.3, https://matplotlib.org/</dc:title>
     </cc:Agent>
    </dc:creator>
   </cc:Work>
  </rdf:RDF>
 </metadata>
 <defs>
  <style type="text/css">*{stroke-linecap:butt;stroke-linejoin:round;}</style>
 </defs>
 <g id="figure_1">
  <g id="patch_1">
   <path d="M 0 275.863977 
L 412.1945 275.863977 
L 412.1945 0 
L 0 0 
z
" style="fill:#ffffff;"/>
  </g>
  <g id="axes_1">
   <g id="patch_2">
    <path d="M 59.358594 232.57054 
L 269.298594 232.57054 
L 269.298594 10.111476 
L 59.358594 10.111476 
z
" style="fill:#ffffff;"/>
   </g>
   <g id="matplotlib.axis_1">
    <g id="xtick_1">
     <g id="line2d_1">
      <path clip-path="url(#p3b245ab5aa)" d="M 107.485522 232.57054 
L 107.485522 10.111476 
" style="fill:none;stroke:#cccccc;stroke-linecap:round;"/>
     </g>
     <g id="text_1">
      <!-- 2000 -->
      <g style="fill:#262626;" transform="translate(93.488022 250.428821)scale(0.11 -0.11)">
       <defs>
        <path d="M 1228 531 
L 3431 531 
L 3431 0 
L 469 0 
L 469 531 
Q 828 903 1448 1529 
Q 2069 2156 2228 2338 
Q 2531 2678 2651 2914 
Q 2772 3150 2772 3378 
Q 2772 3750 2511 3984 
Q 2250 4219 1831 4219 
Q 1534 4219 1204 4116 
Q 875 4013 500 3803 
L 500 4441 
Q 881 4594 1212 4672 
Q 1544 4750 1819 4750 
Q 2544 4750 2975 4387 
Q 3406 4025 3406 3419 
Q 3406 3131 3298 2873 
Q 3191 2616 2906 2266 
Q 2828 2175 2409 1742 
Q 1991 1309 1228 531 
z
" id="DejaVuSans-32" transform="scale(0.015625)"/>
        <path d="M 2034 4250 
Q 1547 4250 1301 3770 
Q 1056 3291 1056 2328 
Q 1056 1369 1301 889 
Q 1547 409 2034 409 
Q 2525 409 2770 889 
Q 3016 1369 3016 2328 
Q 3016 3291 2770 3770 
Q 2525 4250 2034 4250 
z
M 2034 4750 
Q 2819 4750 3233 4129 
Q 3647 3509 3647 2328 
Q 3647 1150 3233 529 
Q 2819 -91 2034 -91 
Q 1250 -91 836 529 
Q 422 1150 422 2328 
Q 422 3509 836 4129 
Q 1250 4750 2034 4750 
z
" id="DejaVuSans-30" transform="scale(0.015625)"/>
       </defs>
       <use xlink:href="#DejaVuSans-32"/>
       <use x="63.623047" xlink:href="#DejaVuSans-30"/>
       <use x="127.246094" xlink:href="#DejaVuSans-30"/>
       <use x="190.869141" xlink:href="#DejaVuSans-30"/>
      </g>
     </g>
    </g>
    <g id="xtick_2">
     <g id="line2d_2">
      <path clip-path="url(#p3b245ab5aa)" d="M 169.170896 232.57054 
L 169.170896 10.111476 
" style="fill:none;stroke:#cccccc;stroke-linecap:round;"/>
     </g>
     <g id="text_2">
      <!-- 4000 -->
      <g style="fill:#262626;" transform="translate(155.173396 250.428821)scale(0.11 -0.11)">
       <defs>
        <path d="M 2419 4116 
L 825 1625 
L 2419 1625 
L 2419 4116 
z
M 2253 4666 
L 3047 4666 
L 3047 1625 
L 3713 1625 
L 3713 1100 
L 3047 1100 
L 3047 0 
L 2419 0 
L 2419 1100 
L 313 1100 
L 313 1709 
L 2253 4666 
z
" id="DejaVuSans-34" transform="scale(0.015625)"/>
       </defs>
       <use xlink:href="#DejaVuSans-34"/>
       <use x="63.623047" xlink:href="#DejaVuSans-30"/>
       <use x="127.246094" xlink:href="#DejaVuSans-30"/>
       <use x="190.869141" xlink:href="#DejaVuSans-30"/>
      </g>
     </g>
    </g>
    <g id="xtick_3">
     <g id="line2d_3">
      <path clip-path="url(#p3b245ab5aa)" d="M 230.856269 232.57054 
L 230.856269 10.111476 
" style="fill:none;stroke:#cccccc;stroke-linecap:round;"/>
     </g>
     <g id="text_3">
      <!-- 6000 -->
      <g style="fill:#262626;" transform="translate(216.858769 250.428821)scale(0.11 -0.11)">
       <defs>
        <path d="M 2113 2584 
Q 1688 2584 1439 2293 
Q 1191 2003 1191 1497 
Q 1191 994 1439 701 
Q 1688 409 2113 409 
Q 2538 409 2786 701 
Q 3034 994 3034 1497 
Q 3034 2003 2786 2293 
Q 2538 2584 2113 2584 
z
M 3366 4563 
L 3366 3988 
Q 3128 4100 2886 4159 
Q 2644 4219 2406 4219 
Q 1781 4219 1451 3797 
Q 1122 3375 1075 2522 
Q 1259 2794 1537 2939 
Q 1816 3084 2150 3084 
Q 2853 3084 3261 2657 
Q 3669 2231 3669 1497 
Q 3669 778 3244 343 
Q 2819 -91 2113 -91 
Q 1303 -91 875 529 
Q 447 1150 447 2328 
Q 447 3434 972 4092 
Q 1497 4750 2381 4750 
Q 2619 4750 2861 4703 
Q 3103 4656 3366 4563 
z
" id="DejaVuSans-36" transform="scale(0.015625)"/>
       </defs>
       <use xlink:href="#DejaVuSans-36"/>
       <use x="63.623047" xlink:href="#DejaVuSans-30"/>
       <use x="127.246094" xlink:href="#DejaVuSans-30"/>
       <use x="190.869141" xlink:href="#DejaVuSans-30"/>
      </g>
     </g>
    </g>
    <g id="text_4">
     <!-- n_cells -->
     <g style="fill:#262626;" transform="translate(144.075781 265.834602)scale(0.12 -0.12)">
      <defs>
       <path d="M 3513 2113 
L 3513 0 
L 2938 0 
L 2938 2094 
Q 2938 2591 2744 2837 
Q 2550 3084 2163 3084 
Q 1697 3084 1428 2787 
Q 1159 2491 1159 1978 
L 1159 0 
L 581 0 
L 581 3500 
L 1159 3500 
L 1159 2956 
Q 1366 3272 1645 3428 
Q 1925 3584 2291 3584 
Q 2894 3584 3203 3211 
Q 3513 2838 3513 2113 
z
" id="DejaVuSans-6e" transform="scale(0.015625)"/>
       <path d="M 3263 -1063 
L 3263 -1509 
L -63 -1509 
L -63 -1063 
L 3263 -1063 
z
" id="DejaVuSans-5f" transform="scale(0.015625)"/>
       <path d="M 3122 3366 
L 3122 2828 
Q 2878 2963 2633 3030 
Q 2388 3097 2138 3097 
Q 1578 3097 1268 2742 
Q 959 2388 959 1747 
Q 959 1106 1268 751 
Q 1578 397 2138 397 
Q 2388 397 2633 464 
Q 2878 531 3122 666 
L 3122 134 
Q 2881 22 2623 -34 
Q 2366 -91 2075 -91 
Q 1284 -91 818 406 
Q 353 903 353 1747 
Q 353 2603 823 3093 
Q 1294 3584 2113 3584 
Q 2378 3584 2631 3529 
Q 2884 3475 3122 3366 
z
" id="DejaVuSans-63" transform="scale(0.015625)"/>
       <path d="M 3597 1894 
L 3597 1613 
L 953 1613 
Q 991 1019 1311 708 
Q 1631 397 2203 397 
Q 2534 397 2845 478 
Q 3156 559 3463 722 
L 3463 178 
Q 3153 47 2828 -22 
Q 2503 -91 2169 -91 
Q 1331 -91 842 396 
Q 353 884 353 1716 
Q 353 2575 817 3079 
Q 1281 3584 2069 3584 
Q 2775 3584 3186 3129 
Q 3597 2675 3597 1894 
z
M 3022 2063 
Q 3016 2534 2758 2815 
Q 2500 3097 2075 3097 
Q 1594 3097 1305 2825 
Q 1016 2553 972 2059 
L 3022 2063 
z
" id="DejaVuSans-65" transform="scale(0.015625)"/>
       <path d="M 603 4863 
L 1178 4863 
L 1178 0 
L 603 0 
L 603 4863 
z
" id="DejaVuSans-6c" transform="scale(0.015625)"/>
       <path d="M 2834 3397 
L 2834 2853 
Q 2591 2978 2328 3040 
Q 2066 3103 1784 3103 
Q 1356 3103 1142 2972 
Q 928 2841 928 2578 
Q 928 2378 1081 2264 
Q 1234 2150 1697 2047 
L 1894 2003 
Q 2506 1872 2764 1633 
Q 3022 1394 3022 966 
Q 3022 478 2636 193 
Q 2250 -91 1575 -91 
Q 1294 -91 989 -36 
Q 684 19 347 128 
L 347 722 
Q 666 556 975 473 
Q 1284 391 1588 391 
Q 1994 391 2212 530 
Q 2431 669 2431 922 
Q 2431 1156 2273 1281 
Q 2116 1406 1581 1522 
L 1381 1569 
Q 847 1681 609 1914 
Q 372 2147 372 2553 
Q 372 3047 722 3315 
Q 1072 3584 1716 3584 
Q 2034 3584 2315 3537 
Q 2597 3491 2834 3397 
z
" id="DejaVuSans-73" transform="scale(0.015625)"/>
      </defs>
      <use xlink:href="#DejaVuSans-6e"/>
      <use x="63.378906" xlink:href="#DejaVuSans-5f"/>
      <use x="113.378906" xlink:href="#DejaVuSans-63"/>
      <use x="168.359375" xlink:href="#DejaVuSans-65"/>
      <use x="229.882812" xlink:href="#DejaVuSans-6c"/>
      <use x="257.666016" xlink:href="#DejaVuSans-6c"/>
      <use x="285.449219" xlink:href="#DejaVuSans-73"/>
     </g>
    </g>
   </g>
   <g id="matplotlib.axis_2">
    <g id="ytick_1">
     <g id="line2d_4">
      <path clip-path="url(#p3b245ab5aa)" d="M 59.358594 224.491186 
L 269.298594 224.491186 
" style="fill:none;stroke:#cccccc;stroke-linecap:round;"/>
     </g>
     <g id="text_5">
      <!-- −0.2 -->
      <g style="fill:#262626;" transform="translate(23.1475 228.670327)scale(0.11 -0.11)">
       <defs>
        <path d="M 678 2272 
L 4684 2272 
L 4684 1741 
L 678 1741 
L 678 2272 
z
" id="DejaVuSans-2212" transform="scale(0.015625)"/>
        <path d="M 684 794 
L 1344 794 
L 1344 0 
L 684 0 
L 684 794 
z
" id="DejaVuSans-2e" transform="scale(0.015625)"/>
       </defs>
       <use xlink:href="#DejaVuSans-2212"/>
       <use x="83.789062" xlink:href="#DejaVuSans-30"/>
       <use x="147.412109" xlink:href="#DejaVuSans-2e"/>
       <use x="179.199219" xlink:href="#DejaVuSans-32"/>
      </g>
     </g>
    </g>
    <g id="ytick_2">
     <g id="line2d_5">
      <path clip-path="url(#p3b245ab5aa)" d="M 59.358594 188.972512 
L 269.298594 188.972512 
" style="fill:none;stroke:#cccccc;stroke-linecap:round;"/>
     </g>
     <g id="text_6">
      <!-- 0.0 -->
      <g style="fill:#262626;" transform="translate(32.365156 193.151653)scale(0.11 -0.11)">
       <use xlink:href="#DejaVuSans-30"/>
       <use x="63.623047" xlink:href="#DejaVuSans-2e"/>
       <use x="95.410156" xlink:href="#DejaVuSans-30"/>
      </g>
     </g>
    </g>
    <g id="ytick_3">
     <g id="line2d_6">
      <path clip-path="url(#p3b245ab5aa)" d="M 59.358594 153.453838 
L 269.298594 153.453838 
" style="fill:none;stroke:#cccccc;stroke-linecap:round;"/>
     </g>
     <g id="text_7">
      <!-- 0.2 -->
      <g style="fill:#262626;" transform="translate(32.365156 157.632978)scale(0.11 -0.11)">
       <use xlink:href="#DejaVuSans-30"/>
       <use x="63.623047" xlink:href="#DejaVuSans-2e"/>
       <use x="95.410156" xlink:href="#DejaVuSans-32"/>
      </g>
     </g>
    </g>
    <g id="ytick_4">
     <g id="line2d_7">
      <path clip-path="url(#p3b245ab5aa)" d="M 59.358594 117.935163 
L 269.298594 117.935163 
" style="fill:none;stroke:#cccccc;stroke-linecap:round;"/>
     </g>
     <g id="text_8">
      <!-- 0.4 -->
      <g style="fill:#262626;" transform="translate(32.365156 122.114304)scale(0.11 -0.11)">
       <use xlink:href="#DejaVuSans-30"/>
       <use x="63.623047" xlink:href="#DejaVuSans-2e"/>
       <use x="95.410156" xlink:href="#DejaVuSans-34"/>
      </g>
     </g>
    </g>
    <g id="ytick_5">
     <g id="line2d_8">
      <path clip-path="url(#p3b245ab5aa)" d="M 59.358594 82.416489 
L 269.298594 82.416489 
" style="fill:none;stroke:#cccccc;stroke-linecap:round;"/>
     </g>
     <g id="text_9">
      <!-- 0.6 -->
      <g style="fill:#262626;" transform="translate(32.365156 86.59563)scale(0.11 -0.11)">
       <use xlink:href="#DejaVuSans-30"/>
       <use x="63.623047" xlink:href="#DejaVuSans-2e"/>
       <use x="95.410156" xlink:href="#DejaVuSans-36"/>
      </g>
     </g>
    </g>
    <g id="ytick_6">
     <g id="line2d_9">
      <path clip-path="url(#p3b245ab5aa)" d="M 59.358594 46.897815 
L 269.298594 46.897815 
" style="fill:none;stroke:#cccccc;stroke-linecap:round;"/>
     </g>
     <g id="text_10">
      <!-- 0.8 -->
      <g style="fill:#262626;" transform="translate(32.365156 51.076956)scale(0.11 -0.11)">
       <defs>
        <path d="M 2034 2216 
Q 1584 2216 1326 1975 
Q 1069 1734 1069 1313 
Q 1069 891 1326 650 
Q 1584 409 2034 409 
Q 2484 409 2743 651 
Q 3003 894 3003 1313 
Q 3003 1734 2745 1975 
Q 2488 2216 2034 2216 
z
M 1403 2484 
Q 997 2584 770 2862 
Q 544 3141 544 3541 
Q 544 4100 942 4425 
Q 1341 4750 2034 4750 
Q 2731 4750 3128 4425 
Q 3525 4100 3525 3541 
Q 3525 3141 3298 2862 
Q 3072 2584 2669 2484 
Q 3125 2378 3379 2068 
Q 3634 1759 3634 1313 
Q 3634 634 3220 271 
Q 2806 -91 2034 -91 
Q 1263 -91 848 271 
Q 434 634 434 1313 
Q 434 1759 690 2068 
Q 947 2378 1403 2484 
z
M 1172 3481 
Q 1172 3119 1398 2916 
Q 1625 2713 2034 2713 
Q 2441 2713 2670 2916 
Q 2900 3119 2900 3481 
Q 2900 3844 2670 4047 
Q 2441 4250 2034 4250 
Q 1625 4250 1398 4047 
Q 1172 3844 1172 3481 
z
" id="DejaVuSans-38" transform="scale(0.015625)"/>
       </defs>
       <use xlink:href="#DejaVuSans-30"/>
       <use x="63.623047" xlink:href="#DejaVuSans-2e"/>
       <use x="95.410156" xlink:href="#DejaVuSans-38"/>
      </g>
     </g>
    </g>
    <g id="ytick_7">
     <g id="line2d_10">
      <path clip-path="url(#p3b245ab5aa)" d="M 59.358594 11.379141 
L 269.298594 11.379141 
" style="fill:none;stroke:#cccccc;stroke-linecap:round;"/>
     </g>
     <g id="text_11">
      <!-- 1.0 -->
      <g style="fill:#262626;" transform="translate(32.365156 15.558281)scale(0.11 -0.11)">
       <defs>
        <path d="M 794 531 
L 1825 531 
L 1825 4091 
L 703 3866 
L 703 4441 
L 1819 4666 
L 2450 4666 
L 2450 531 
L 3481 531 
L 3481 0 
L 794 0 
L 794 531 
z
" id="DejaVuSans-31" transform="scale(0.015625)"/>
       </defs>
       <use xlink:href="#DejaVuSans-31"/>
       <use x="63.623047" xlink:href="#DejaVuSans-2e"/>
       <use x="95.410156" xlink:href="#DejaVuSans-30"/>
      </g>
     </g>
    </g>
    <g id="text_12">
     <!-- Dupl_rate -->
     <g style="fill:#262626;" transform="translate(16.318125 150.426946)rotate(-90)scale(0.12 -0.12)">
      <defs>
       <path d="M 1259 4147 
L 1259 519 
L 2022 519 
Q 2988 519 3436 956 
Q 3884 1394 3884 2338 
Q 3884 3275 3436 3711 
Q 2988 4147 2022 4147 
L 1259 4147 
z
M 628 4666 
L 1925 4666 
Q 3281 4666 3915 4102 
Q 4550 3538 4550 2338 
Q 4550 1131 3912 565 
Q 3275 0 1925 0 
L 628 0 
L 628 4666 
z
" id="DejaVuSans-44" transform="scale(0.015625)"/>
       <path d="M 544 1381 
L 544 3500 
L 1119 3500 
L 1119 1403 
Q 1119 906 1312 657 
Q 1506 409 1894 409 
Q 2359 409 2629 706 
Q 2900 1003 2900 1516 
L 2900 3500 
L 3475 3500 
L 3475 0 
L 2900 0 
L 2900 538 
Q 2691 219 2414 64 
Q 2138 -91 1772 -91 
Q 1169 -91 856 284 
Q 544 659 544 1381 
z
M 1991 3584 
L 1991 3584 
z
" id="DejaVuSans-75" transform="scale(0.015625)"/>
       <path d="M 1159 525 
L 1159 -1331 
L 581 -1331 
L 581 3500 
L 1159 3500 
L 1159 2969 
Q 1341 3281 1617 3432 
Q 1894 3584 2278 3584 
Q 2916 3584 3314 3078 
Q 3713 2572 3713 1747 
Q 3713 922 3314 415 
Q 2916 -91 2278 -91 
Q 1894 -91 1617 61 
Q 1341 213 1159 525 
z
M 3116 1747 
Q 3116 2381 2855 2742 
Q 2594 3103 2138 3103 
Q 1681 3103 1420 2742 
Q 1159 2381 1159 1747 
Q 1159 1113 1420 752 
Q 1681 391 2138 391 
Q 2594 391 2855 752 
Q 3116 1113 3116 1747 
z
" id="DejaVuSans-70" transform="scale(0.015625)"/>
       <path d="M 2631 2963 
Q 2534 3019 2420 3045 
Q 2306 3072 2169 3072 
Q 1681 3072 1420 2755 
Q 1159 2438 1159 1844 
L 1159 0 
L 581 0 
L 581 3500 
L 1159 3500 
L 1159 2956 
Q 1341 3275 1631 3429 
Q 1922 3584 2338 3584 
Q 2397 3584 2469 3576 
Q 2541 3569 2628 3553 
L 2631 2963 
z
" id="DejaVuSans-72" transform="scale(0.015625)"/>
       <path d="M 2194 1759 
Q 1497 1759 1228 1600 
Q 959 1441 959 1056 
Q 959 750 1161 570 
Q 1363 391 1709 391 
Q 2188 391 2477 730 
Q 2766 1069 2766 1631 
L 2766 1759 
L 2194 1759 
z
M 3341 1997 
L 3341 0 
L 2766 0 
L 2766 531 
Q 2569 213 2275 61 
Q 1981 -91 1556 -91 
Q 1019 -91 701 211 
Q 384 513 384 1019 
Q 384 1609 779 1909 
Q 1175 2209 1959 2209 
L 2766 2209 
L 2766 2266 
Q 2766 2663 2505 2880 
Q 2244 3097 1772 3097 
Q 1472 3097 1187 3025 
Q 903 2953 641 2809 
L 641 3341 
Q 956 3463 1253 3523 
Q 1550 3584 1831 3584 
Q 2591 3584 2966 3190 
Q 3341 2797 3341 1997 
z
" id="DejaVuSans-61" transform="scale(0.015625)"/>
       <path d="M 1172 4494 
L 1172 3500 
L 2356 3500 
L 2356 3053 
L 1172 3053 
L 1172 1153 
Q 1172 725 1289 603 
Q 1406 481 1766 481 
L 2356 481 
L 2356 0 
L 1766 0 
Q 1100 0 847 248 
Q 594 497 594 1153 
L 594 3053 
L 172 3053 
L 172 3500 
L 594 3500 
L 594 4494 
L 1172 4494 
z
" id="DejaVuSans-74" transform="scale(0.015625)"/>
      </defs>
      <use xlink:href="#DejaVuSans-44"/>
      <use x="77.001953" xlink:href="#DejaVuSans-75"/>
      <use x="140.380859" xlink:href="#DejaVuSans-70"/>
      <use x="203.857422" xlink:href="#DejaVuSans-6c"/>
      <use x="231.640625" xlink:href="#DejaVuSans-5f"/>
      <use x="281.640625" xlink:href="#DejaVuSans-72"/>
      <use x="322.753906" xlink:href="#DejaVuSans-61"/>
      <use x="384.033203" xlink:href="#DejaVuSans-74"/>
      <use x="423.242188" xlink:href="#DejaVuSans-65"/>
     </g>
    </g>
   </g>
   <g id="PolyCollection_1">
    <defs>
     <path d="M 68.901321 -255.640725 
L 68.901321 -180.303874 
L 70.829145 -180.342215 
L 72.756968 -180.325746 
L 74.684792 -180.431773 
L 76.612616 -180.405996 
L 78.540439 -180.470583 
L 80.468263 -180.369041 
L 82.396087 -180.318147 
L 84.323911 -180.289145 
L 86.251734 -179.985135 
L 88.179558 -179.761447 
L 90.107382 -179.708122 
L 92.035205 -179.549011 
L 93.963029 -179.426226 
L 95.890853 -179.228244 
L 97.818676 -178.836245 
L 99.7465 -178.440077 
L 101.674324 -178.164195 
L 103.602147 -177.865489 
L 105.529971 -177.530427 
L 107.457795 -177.193362 
L 109.385619 -176.970367 
L 111.313442 -176.645564 
L 113.241266 -176.297454 
L 115.16909 -175.811553 
L 117.096913 -175.49024 
L 119.024737 -175.008447 
L 120.952561 -174.728642 
L 122.880384 -174.410429 
L 124.808208 -174.003169 
L 126.736032 -173.587814 
L 128.663855 -173.108264 
L 130.591679 -172.631192 
L 132.519503 -172.172395 
L 134.447327 -171.770575 
L 136.37515 -171.312801 
L 138.302974 -170.848334 
L 140.230798 -170.368414 
L 142.158621 -169.779022 
L 144.086445 -169.333227 
L 146.014269 -168.799843 
L 147.942092 -167.902125 
L 149.869916 -167.371176 
L 151.79774 -166.644247 
L 153.725563 -165.564937 
L 155.653387 -164.11941 
L 157.581211 -163.080298 
L 159.509035 -162.381629 
L 161.436858 -161.174644 
L 163.364682 -158.923704 
L 165.292506 -156.672764 
L 167.220329 -154.421823 
L 169.148153 -152.170883 
L 171.075977 -149.919943 
L 173.0038 -147.669003 
L 174.931624 -145.418063 
L 176.859448 -143.167122 
L 178.787271 -140.916182 
L 180.715095 -138.770633 
L 182.642919 -136.774585 
L 184.570743 -134.778536 
L 186.498566 -132.782487 
L 188.42639 -130.786438 
L 190.354214 -128.79039 
L 192.282037 -126.794341 
L 194.209861 -124.798292 
L 196.137685 -122.806529 
L 198.065508 -120.742427 
L 199.993332 -118.593417 
L 201.921156 -116.444407 
L 203.848979 -114.295397 
L 205.776803 -112.146387 
L 207.704627 -109.997377 
L 209.63245 -107.848368 
L 211.560274 -105.699358 
L 213.488098 -103.550348 
L 215.415922 -101.401338 
L 217.343745 -99.252328 
L 219.271569 -97.103318 
L 221.199393 -94.954308 
L 223.127216 -92.805298 
L 225.05504 -90.656288 
L 226.982864 -88.507278 
L 228.910687 -86.358269 
L 230.838511 -84.209259 
L 232.766335 -82.060249 
L 234.694158 -79.945226 
L 236.621982 -77.901135 
L 238.549806 -75.857044 
L 240.47763 -73.814331 
L 242.405453 -71.773419 
L 244.333277 -69.732507 
L 246.261101 -67.691596 
L 248.188924 -65.650684 
L 250.116748 -63.609772 
L 252.044572 -61.56886 
L 253.972395 -59.527948 
L 255.900219 -57.487037 
L 257.828043 -55.446125 
L 259.755866 -53.405213 
L 259.755866 -199.539262 
L 259.755866 -199.539262 
L 257.828043 -199.316446 
L 255.900219 -199.09363 
L 253.972395 -198.870813 
L 252.044572 -198.740551 
L 250.116748 -198.63253 
L 248.188924 -198.524509 
L 246.261101 -198.416487 
L 244.333277 -198.308466 
L 242.405453 -198.158473 
L 240.47763 -197.990567 
L 238.549806 -197.82266 
L 236.621982 -197.654754 
L 234.694158 -197.486847 
L 232.766335 -197.341061 
L 230.838511 -197.267488 
L 228.910687 -197.193914 
L 226.982864 -197.119536 
L 225.05504 -197.044699 
L 223.127216 -196.969862 
L 221.199393 -196.848085 
L 219.271569 -196.693199 
L 217.343745 -196.538314 
L 215.415922 -196.412979 
L 213.488098 -196.315733 
L 211.560274 -196.216923 
L 209.63245 -195.980814 
L 207.704627 -195.751649 
L 205.776803 -195.593376 
L 203.848979 -195.435103 
L 201.921156 -195.273019 
L 199.993332 -195.066069 
L 198.065508 -194.859119 
L 196.137685 -194.795205 
L 194.209861 -194.651341 
L 192.282037 -194.497003 
L 190.354214 -194.342666 
L 188.42639 -194.188328 
L 186.498566 -194.03399 
L 184.570743 -193.879652 
L 182.642919 -193.723204 
L 180.715095 -193.562317 
L 178.787271 -193.43217 
L 176.859448 -193.345913 
L 174.931624 -193.083682 
L 173.0038 -192.928612 
L 171.075977 -192.773541 
L 169.148153 -192.61847 
L 167.220329 -192.4634 
L 165.292506 -192.304806 
L 163.364682 -192.267532 
L 161.436858 -192.206283 
L 159.509035 -191.946112 
L 157.581211 -191.864528 
L 155.653387 -191.746724 
L 153.725563 -191.582469 
L 151.79774 -191.525807 
L 149.869916 -191.690228 
L 147.942092 -191.690162 
L 146.014269 -191.505385 
L 144.086445 -191.294143 
L 142.158621 -191.251967 
L 140.230798 -191.281016 
L 138.302974 -191.519991 
L 136.37515 -191.916736 
L 134.447327 -192.632616 
L 132.519503 -193.63705 
L 130.591679 -194.69429 
L 128.663855 -196.263021 
L 126.736032 -197.769293 
L 124.808208 -199.531153 
L 122.880384 -201.680013 
L 120.952561 -203.75634 
L 119.024737 -206.050222 
L 117.096913 -207.922208 
L 115.16909 -208.997639 
L 113.241266 -210.806157 
L 111.313442 -212.379681 
L 109.385619 -213.410143 
L 107.457795 -214.978962 
L 105.529971 -217.275122 
L 103.602147 -219.571282 
L 101.674324 -221.768428 
L 99.7465 -223.6094 
L 97.818676 -225.450371 
L 95.890853 -227.291343 
L 93.963029 -229.132314 
L 92.035205 -231.064719 
L 90.107382 -233.112719 
L 88.179558 -235.16072 
L 86.251734 -237.208721 
L 84.323911 -239.256721 
L 82.396087 -241.304722 
L 80.468263 -243.352722 
L 78.540439 -245.400723 
L 76.612616 -247.448723 
L 74.684792 -249.496724 
L 72.756968 -251.544724 
L 70.829145 -253.592725 
L 68.901321 -255.640725 
z
" id="m70373733ed" style="stroke:#ffffff;stroke-opacity:0.15;"/>
    </defs>
    <g clip-path="url(#p3b245ab5aa)">
     <use style="fill:#4c72b0;fill-opacity:0.15;stroke:#ffffff;stroke-opacity:0.15;" x="0" xlink:href="#m70373733ed" y="275.863977"/>
    </g>
   </g>
   <g id="PathCollection_1">
    <defs>
     <path d="M 0 2.236068 
C 0.593012 2.236068 1.161816 2.000462 1.581139 1.581139 
C 2.000462 1.161816 2.236068 0.593012 2.236068 -0 
C 2.236068 -0.593012 2.000462 -1.161816 1.581139 -1.581139 
C 1.161816 -2.000462 0.593012 -2.236068 0 -2.236068 
C -0.593012 -2.236068 -1.161816 -2.000462 -1.581139 -1.581139 
C -2.000462 -1.161816 -2.236068 -0.593012 -2.236068 0 
C -2.236068 0.593012 -2.000462 1.161816 -1.581139 1.581139 
C -1.161816 2.000462 -0.593012 2.236068 0 2.236068 
z
" id="C0_0_20196d0372"/>
    </defs>
    <g clip-path="url(#p3b245ab5aa)">
     <use style="fill:#1f77b4;" x="68.901321" xlink:href="#C0_0_20196d0372" y="93.417244"/>
    </g>
    <g clip-path="url(#p3b245ab5aa)">
     <use style="fill:#aec7e8;" x="88.208843" xlink:href="#C0_0_20196d0372" y="100.978079"/>
    </g>
    <g clip-path="url(#p3b245ab5aa)">
     <use style="fill:#ff7f0e;" x="130.278268" xlink:href="#C0_0_20196d0372" y="101.915427"/>
    </g>
    <g clip-path="url(#p3b245ab5aa)">
     <use style="fill:#ffbb78;" x="259.755866" xlink:href="#C0_0_20196d0372" y="140.103985"/>
    </g>
    <g clip-path="url(#p3b245ab5aa)">
     <use style="fill:#2ca02c;" x="123.924674" xlink:href="#C0_0_20196d0372" y="70.105686"/>
    </g>
    <g clip-path="url(#p3b245ab5aa)">
     <use style="fill:#98df8a;" x="124.788269" xlink:href="#C0_0_20196d0372" y="63.528998"/>
    </g>
    <g clip-path="url(#p3b245ab5aa)">
     <use style="fill:#d62728;" x="133.17748" xlink:href="#C0_0_20196d0372" y="92.195202"/>
    </g>
    <g clip-path="url(#p3b245ab5aa)">
     <use style="fill:#ff9896;" x="151.991519" xlink:href="#C0_0_20196d0372" y="99.491722"/>
    </g>
    <g clip-path="url(#p3b245ab5aa)">
     <use style="fill:#9467bd;" x="149.092307" xlink:href="#C0_0_20196d0372" y="108.951458"/>
    </g>
    <g clip-path="url(#p3b245ab5aa)">
     <use style="fill:#c5b0d5;" x="144.805173" xlink:href="#C0_0_20196d0372" y="98.208042"/>
    </g>
   </g>
   <g id="PathCollection_2"/>
   <g id="PathCollection_3"/>
   <g id="PathCollection_4"/>
   <g id="PathCollection_5"/>
   <g id="PathCollection_6"/>
   <g id="PathCollection_7"/>
   <g id="PathCollection_8"/>
   <g id="PathCollection_9"/>
   <g id="PathCollection_10"/>
   <g id="PathCollection_11"/>
   <g id="line2d_11">
    <path clip-path="url(#p3b245ab5aa)" d="M 68.901321 78.080312 
L 70.829145 78.608966 
L 72.756968 79.137621 
L 74.684792 79.666275 
L 76.612616 80.194929 
L 78.540439 80.723584 
L 80.468263 81.252238 
L 82.396087 81.780893 
L 84.323911 82.309547 
L 86.251734 82.838201 
L 88.179558 83.366856 
L 90.107382 83.89551 
L 92.035205 84.424165 
L 93.963029 84.952819 
L 95.890853 85.481473 
L 97.818676 86.010128 
L 99.7465 86.538782 
L 101.674324 87.067437 
L 103.602147 87.596091 
L 105.529971 88.124745 
L 107.457795 88.6534 
L 109.385619 89.182054 
L 111.313442 89.710709 
L 113.241266 90.239363 
L 115.16909 90.768017 
L 117.096913 91.296672 
L 119.024737 91.825326 
L 120.952561 92.353981 
L 122.880384 92.882635 
L 124.808208 93.411289 
L 126.736032 93.939944 
L 128.663855 94.468598 
L 130.591679 94.997253 
L 132.519503 95.525907 
L 134.447327 96.054561 
L 136.37515 96.583216 
L 138.302974 97.11187 
L 140.230798 97.640525 
L 142.158621 98.169179 
L 144.086445 98.697833 
L 146.014269 99.226488 
L 147.942092 99.755142 
L 149.869916 100.283797 
L 151.79774 100.812451 
L 153.725563 101.341105 
L 155.653387 101.86976 
L 157.581211 102.398414 
L 159.509035 102.927069 
L 161.436858 103.455723 
L 163.364682 103.984377 
L 165.292506 104.513032 
L 167.220329 105.041686 
L 169.148153 105.570341 
L 171.075977 106.098995 
L 173.0038 106.627649 
L 174.931624 107.156304 
L 176.859448 107.684958 
L 178.787271 108.213613 
L 180.715095 108.742267 
L 182.642919 109.270921 
L 184.570743 109.799576 
L 186.498566 110.32823 
L 188.42639 110.856885 
L 190.354214 111.385539 
L 192.282037 111.914193 
L 194.209861 112.442848 
L 196.137685 112.971502 
L 198.065508 113.500157 
L 199.993332 114.028811 
L 201.921156 114.557465 
L 203.848979 115.08612 
L 205.776803 115.614774 
L 207.704627 116.143429 
L 209.63245 116.672083 
L 211.560274 117.200737 
L 213.488098 117.729392 
L 215.415922 118.258046 
L 217.343745 118.786701 
L 219.271569 119.315355 
L 221.199393 119.844009 
L 223.127216 120.372664 
L 225.05504 120.901318 
L 226.982864 121.429973 
L 228.910687 121.958627 
L 230.838511 122.487281 
L 232.766335 123.015936 
L 234.694158 123.54459 
L 236.621982 124.073245 
L 238.549806 124.601899 
L 240.47763 125.130553 
L 242.405453 125.659208 
L 244.333277 126.187862 
L 246.261101 126.716517 
L 248.188924 127.245171 
L 250.116748 127.773825 
L 252.044572 128.30248 
L 253.972395 128.831134 
L 255.900219 129.359789 
L 257.828043 129.888443 
L 259.755866 130.417097 
" style="fill:none;stroke:#4c72b0;stroke-linecap:round;stroke-width:2.25;"/>
   </g>
   <g id="patch_3">
    <path d="M 59.358594 232.57054 
L 59.358594 10.111476 
" style="fill:none;stroke:#333333;stroke-linecap:square;stroke-linejoin:miter;stroke-width:1.25;"/>
   </g>
   <g id="patch_4">
    <path d="M 269.298594 232.57054 
L 269.298594 10.111476 
" style="fill:none;stroke:#333333;stroke-linecap:square;stroke-linejoin:miter;stroke-width:1.25;"/>
   </g>
   <g id="patch_5">
    <path d="M 59.358594 232.57054 
L 269.298594 232.57054 
" style="fill:none;stroke:#333333;stroke-linecap:square;stroke-linejoin:miter;stroke-width:1.25;"/>
   </g>
   <g id="patch_6">
    <path d="M 59.358594 10.111476 
L 269.298594 10.111476 
" style="fill:none;stroke:#333333;stroke-linecap:square;stroke-linejoin:miter;stroke-width:1.25;"/>
   </g>
   <g id="legend_1">
    <g id="patch_7">
     <path d="M 281.995594 174.870851 
L 402.7945 174.870851 
Q 404.9945 174.870851 404.9945 172.670851 
L 404.9945 12.311476 
Q 404.9945 10.111476 402.7945 10.111476 
L 281.995594 10.111476 
Q 279.795594 10.111476 279.795594 12.311476 
L 279.795594 172.670851 
Q 279.795594 174.870851 281.995594 174.870851 
z
" style="fill:#ffffff;opacity:0.8;stroke:#cccccc;stroke-linejoin:miter;"/>
    </g>
    <g id="PathCollection_12">
     <defs>
      <path d="M 0 3 
C 0.795609 3 1.55874 2.683901 2.12132 2.12132 
C 2.683901 1.55874 3 0.795609 3 0 
C 3 -0.795609 2.683901 -1.55874 2.12132 -2.12132 
C 1.55874 -2.683901 0.795609 -3 0 -3 
C -0.795609 -3 -1.55874 -2.683901 -2.12132 -2.12132 
C -2.683901 -1.55874 -3 -0.795609 -3 0 
C -3 0.795609 -2.683901 1.55874 -2.12132 2.12132 
C -1.55874 2.683901 -0.795609 3 0 3 
z
" id="m9cf1337f46" style="stroke:#1f77b4;"/>
     </defs>
     <g>
      <use style="fill:#1f77b4;stroke:#1f77b4;" x="295.195594" xlink:href="#m9cf1337f46" y="19.982258"/>
     </g>
    </g>
    <g id="text_13">
     <!-- 10x ATAC A1 -->
     <g style="fill:#262626;" transform="translate(314.995594 22.869758)scale(0.11 -0.11)">
      <defs>
       <path d="M 3513 3500 
L 2247 1797 
L 3578 0 
L 2900 0 
L 1881 1375 
L 863 0 
L 184 0 
L 1544 1831 
L 300 3500 
L 978 3500 
L 1906 2253 
L 2834 3500 
L 3513 3500 
z
" id="DejaVuSans-78" transform="scale(0.015625)"/>
       <path id="DejaVuSans-20" transform="scale(0.015625)"/>
       <path d="M 2188 4044 
L 1331 1722 
L 3047 1722 
L 2188 4044 
z
M 1831 4666 
L 2547 4666 
L 4325 0 
L 3669 0 
L 3244 1197 
L 1141 1197 
L 716 0 
L 50 0 
L 1831 4666 
z
" id="DejaVuSans-41" transform="scale(0.015625)"/>
       <path d="M -19 4666 
L 3928 4666 
L 3928 4134 
L 2272 4134 
L 2272 0 
L 1638 0 
L 1638 4134 
L -19 4134 
L -19 4666 
z
" id="DejaVuSans-54" transform="scale(0.015625)"/>
       <path d="M 4122 4306 
L 4122 3641 
Q 3803 3938 3442 4084 
Q 3081 4231 2675 4231 
Q 1875 4231 1450 3742 
Q 1025 3253 1025 2328 
Q 1025 1406 1450 917 
Q 1875 428 2675 428 
Q 3081 428 3442 575 
Q 3803 722 4122 1019 
L 4122 359 
Q 3791 134 3420 21 
Q 3050 -91 2638 -91 
Q 1578 -91 968 557 
Q 359 1206 359 2328 
Q 359 3453 968 4101 
Q 1578 4750 2638 4750 
Q 3056 4750 3426 4639 
Q 3797 4528 4122 4306 
z
" id="DejaVuSans-43" transform="scale(0.015625)"/>
      </defs>
      <use xlink:href="#DejaVuSans-31"/>
      <use x="63.623047" xlink:href="#DejaVuSans-30"/>
      <use x="127.246094" xlink:href="#DejaVuSans-78"/>
      <use x="186.425781" xlink:href="#DejaVuSans-20"/>
      <use x="218.212891" xlink:href="#DejaVuSans-41"/>
      <use x="278.871094" xlink:href="#DejaVuSans-54"/>
      <use x="332.205078" xlink:href="#DejaVuSans-41"/>
      <use x="398.863281" xlink:href="#DejaVuSans-43"/>
      <use x="468.6875" xlink:href="#DejaVuSans-20"/>
      <use x="500.474609" xlink:href="#DejaVuSans-41"/>
      <use x="568.882812" xlink:href="#DejaVuSans-31"/>
     </g>
    </g>
    <g id="PathCollection_13">
     <defs>
      <path d="M 0 3 
C 0.795609 3 1.55874 2.683901 2.12132 2.12132 
C 2.683901 1.55874 3 0.795609 3 0 
C 3 -0.795609 2.683901 -1.55874 2.12132 -2.12132 
C 1.55874 -2.683901 0.795609 -3 0 -3 
C -0.795609 -3 -1.55874 -2.683901 -2.12132 -2.12132 
C -2.683901 -1.55874 -3 -0.795609 -3 0 
C -3 0.795609 -2.683901 1.55874 -2.12132 2.12132 
C -1.55874 2.683901 -0.795609 3 0 3 
z
" id="mfc084516cf" style="stroke:#aec7e8;"/>
     </defs>
     <g>
      <use style="fill:#aec7e8;stroke:#aec7e8;" x="295.195594" xlink:href="#mfc084516cf" y="36.128195"/>
     </g>
    </g>
    <g id="text_14">
     <!-- 10x ATAC A2 -->
     <g style="fill:#262626;" transform="translate(314.995594 39.015695)scale(0.11 -0.11)">
      <use xlink:href="#DejaVuSans-31"/>
      <use x="63.623047" xlink:href="#DejaVuSans-30"/>
      <use x="127.246094" xlink:href="#DejaVuSans-78"/>
      <use x="186.425781" xlink:href="#DejaVuSans-20"/>
      <use x="218.212891" xlink:href="#DejaVuSans-41"/>
      <use x="278.871094" xlink:href="#DejaVuSans-54"/>
      <use x="332.205078" xlink:href="#DejaVuSans-41"/>
      <use x="398.863281" xlink:href="#DejaVuSans-43"/>
      <use x="468.6875" xlink:href="#DejaVuSans-20"/>
      <use x="500.474609" xlink:href="#DejaVuSans-41"/>
      <use x="568.882812" xlink:href="#DejaVuSans-32"/>
     </g>
    </g>
    <g id="PathCollection_14">
     <defs>
      <path d="M 0 3 
C 0.795609 3 1.55874 2.683901 2.12132 2.12132 
C 2.683901 1.55874 3 0.795609 3 0 
C 3 -0.795609 2.683901 -1.55874 2.12132 -2.12132 
C 1.55874 -2.683901 0.795609 -3 0 -3 
C -0.795609 -3 -1.55874 -2.683901 -2.12132 -2.12132 
C -2.683901 -1.55874 -3 -0.795609 -3 0 
C -3 0.795609 -2.683901 1.55874 -2.12132 2.12132 
C -1.55874 2.683901 -0.795609 3 0 3 
z
" id="m72b2123010" style="stroke:#ff7f0e;"/>
     </defs>
     <g>
      <use style="fill:#ff7f0e;stroke:#ff7f0e;" x="295.195594" xlink:href="#m72b2123010" y="52.274133"/>
     </g>
    </g>
    <g id="text_15">
     <!-- 10x ATAC B1 -->
     <g style="fill:#262626;" transform="translate(314.995594 55.161633)scale(0.11 -0.11)">
      <defs>
       <path d="M 1259 2228 
L 1259 519 
L 2272 519 
Q 2781 519 3026 730 
Q 3272 941 3272 1375 
Q 3272 1813 3026 2020 
Q 2781 2228 2272 2228 
L 1259 2228 
z
M 1259 4147 
L 1259 2741 
L 2194 2741 
Q 2656 2741 2882 2914 
Q 3109 3088 3109 3444 
Q 3109 3797 2882 3972 
Q 2656 4147 2194 4147 
L 1259 4147 
z
M 628 4666 
L 2241 4666 
Q 2963 4666 3353 4366 
Q 3744 4066 3744 3513 
Q 3744 3084 3544 2831 
Q 3344 2578 2956 2516 
Q 3422 2416 3680 2098 
Q 3938 1781 3938 1306 
Q 3938 681 3513 340 
Q 3088 0 2303 0 
L 628 0 
L 628 4666 
z
" id="DejaVuSans-42" transform="scale(0.015625)"/>
      </defs>
      <use xlink:href="#DejaVuSans-31"/>
      <use x="63.623047" xlink:href="#DejaVuSans-30"/>
      <use x="127.246094" xlink:href="#DejaVuSans-78"/>
      <use x="186.425781" xlink:href="#DejaVuSans-20"/>
      <use x="218.212891" xlink:href="#DejaVuSans-41"/>
      <use x="278.871094" xlink:href="#DejaVuSans-54"/>
      <use x="332.205078" xlink:href="#DejaVuSans-41"/>
      <use x="398.863281" xlink:href="#DejaVuSans-43"/>
      <use x="468.6875" xlink:href="#DejaVuSans-20"/>
      <use x="500.474609" xlink:href="#DejaVuSans-42"/>
      <use x="569.078125" xlink:href="#DejaVuSans-31"/>
     </g>
    </g>
    <g id="PathCollection_15">
     <defs>
      <path d="M 0 3 
C 0.795609 3 1.55874 2.683901 2.12132 2.12132 
C 2.683901 1.55874 3 0.795609 3 0 
C 3 -0.795609 2.683901 -1.55874 2.12132 -2.12132 
C 1.55874 -2.683901 0.795609 -3 0 -3 
C -0.795609 -3 -1.55874 -2.683901 -2.12132 -2.12132 
C -2.683901 -1.55874 -3 -0.795609 -3 0 
C -3 0.795609 -2.683901 1.55874 -2.12132 2.12132 
C -1.55874 2.683901 -0.795609 3 0 3 
z
" id="mb5b08a6690" style="stroke:#ffbb78;"/>
     </defs>
     <g>
      <use style="fill:#ffbb78;stroke:#ffbb78;" x="295.195594" xlink:href="#mb5b08a6690" y="68.42007"/>
     </g>
    </g>
    <g id="text_16">
     <!-- 10x ATAC B2 -->
     <g style="fill:#262626;" transform="translate(314.995594 71.30757)scale(0.11 -0.11)">
      <use xlink:href="#DejaVuSans-31"/>
      <use x="63.623047" xlink:href="#DejaVuSans-30"/>
      <use x="127.246094" xlink:href="#DejaVuSans-78"/>
      <use x="186.425781" xlink:href="#DejaVuSans-20"/>
      <use x="218.212891" xlink:href="#DejaVuSans-41"/>
      <use x="278.871094" xlink:href="#DejaVuSans-54"/>
      <use x="332.205078" xlink:href="#DejaVuSans-41"/>
      <use x="398.863281" xlink:href="#DejaVuSans-43"/>
      <use x="468.6875" xlink:href="#DejaVuSans-20"/>
      <use x="500.474609" xlink:href="#DejaVuSans-42"/>
      <use x="569.078125" xlink:href="#DejaVuSans-32"/>
     </g>
    </g>
    <g id="PathCollection_16">
     <defs>
      <path d="M 0 3 
C 0.795609 3 1.55874 2.683901 2.12132 2.12132 
C 2.683901 1.55874 3 0.795609 3 0 
C 3 -0.795609 2.683901 -1.55874 2.12132 -2.12132 
C 1.55874 -2.683901 0.795609 -3 0 -3 
C -0.795609 -3 -1.55874 -2.683901 -2.12132 -2.12132 
C -2.683901 -1.55874 -3 -0.795609 -3 0 
C -3 0.795609 -2.683901 1.55874 -2.12132 2.12132 
C -1.55874 2.683901 -0.795609 3 0 3 
z
" id="mad69818b40" style="stroke:#2ca02c;"/>
     </defs>
     <g>
      <use style="fill:#2ca02c;stroke:#2ca02c;" x="295.195594" xlink:href="#mad69818b40" y="84.566008"/>
     </g>
    </g>
    <g id="text_17">
     <!-- 10x ATAC C1 -->
     <g style="fill:#262626;" transform="translate(314.995594 87.453508)scale(0.11 -0.11)">
      <use xlink:href="#DejaVuSans-31"/>
      <use x="63.623047" xlink:href="#DejaVuSans-30"/>
      <use x="127.246094" xlink:href="#DejaVuSans-78"/>
      <use x="186.425781" xlink:href="#DejaVuSans-20"/>
      <use x="218.212891" xlink:href="#DejaVuSans-41"/>
      <use x="278.871094" xlink:href="#DejaVuSans-54"/>
      <use x="332.205078" xlink:href="#DejaVuSans-41"/>
      <use x="398.863281" xlink:href="#DejaVuSans-43"/>
      <use x="468.6875" xlink:href="#DejaVuSans-20"/>
      <use x="500.474609" xlink:href="#DejaVuSans-43"/>
      <use x="570.298828" xlink:href="#DejaVuSans-31"/>
     </g>
    </g>
    <g id="PathCollection_17">
     <defs>
      <path d="M 0 3 
C 0.795609 3 1.55874 2.683901 2.12132 2.12132 
C 2.683901 1.55874 3 0.795609 3 0 
C 3 -0.795609 2.683901 -1.55874 2.12132 -2.12132 
C 1.55874 -2.683901 0.795609 -3 0 -3 
C -0.795609 -3 -1.55874 -2.683901 -2.12132 -2.12132 
C -2.683901 -1.55874 -3 -0.795609 -3 0 
C -3 0.795609 -2.683901 1.55874 -2.12132 2.12132 
C -1.55874 2.683901 -0.795609 3 0 3 
z
" id="m6e6ec39cf5" style="stroke:#98df8a;"/>
     </defs>
     <g>
      <use style="fill:#98df8a;stroke:#98df8a;" x="295.195594" xlink:href="#m6e6ec39cf5" y="100.711945"/>
     </g>
    </g>
    <g id="text_18">
     <!-- 10x ATAC C2 -->
     <g style="fill:#262626;" transform="translate(314.995594 103.599445)scale(0.11 -0.11)">
      <use xlink:href="#DejaVuSans-31"/>
      <use x="63.623047" xlink:href="#DejaVuSans-30"/>
      <use x="127.246094" xlink:href="#DejaVuSans-78"/>
      <use x="186.425781" xlink:href="#DejaVuSans-20"/>
      <use x="218.212891" xlink:href="#DejaVuSans-41"/>
      <use x="278.871094" xlink:href="#DejaVuSans-54"/>
      <use x="332.205078" xlink:href="#DejaVuSans-41"/>
      <use x="398.863281" xlink:href="#DejaVuSans-43"/>
      <use x="468.6875" xlink:href="#DejaVuSans-20"/>
      <use x="500.474609" xlink:href="#DejaVuSans-43"/>
      <use x="570.298828" xlink:href="#DejaVuSans-32"/>
     </g>
    </g>
    <g id="PathCollection_18">
     <defs>
      <path d="M 0 3 
C 0.795609 3 1.55874 2.683901 2.12132 2.12132 
C 2.683901 1.55874 3 0.795609 3 0 
C 3 -0.795609 2.683901 -1.55874 2.12132 -2.12132 
C 1.55874 -2.683901 0.795609 -3 0 -3 
C -0.795609 -3 -1.55874 -2.683901 -2.12132 -2.12132 
C -2.683901 -1.55874 -3 -0.795609 -3 0 
C -3 0.795609 -2.683901 1.55874 -2.12132 2.12132 
C -1.55874 2.683901 -0.795609 3 0 3 
z
" id="m9ba0ecbfa3" style="stroke:#d62728;"/>
     </defs>
     <g>
      <use style="fill:#d62728;stroke:#d62728;" x="295.195594" xlink:href="#m9ba0ecbfa3" y="116.857883"/>
     </g>
    </g>
    <g id="text_19">
     <!-- 10x Multiome 1 -->
     <g style="fill:#262626;" transform="translate(314.995594 119.745383)scale(0.11 -0.11)">
      <defs>
       <path d="M 628 4666 
L 1569 4666 
L 2759 1491 
L 3956 4666 
L 4897 4666 
L 4897 0 
L 4281 0 
L 4281 4097 
L 3078 897 
L 2444 897 
L 1241 4097 
L 1241 0 
L 628 0 
L 628 4666 
z
" id="DejaVuSans-4d" transform="scale(0.015625)"/>
       <path d="M 603 3500 
L 1178 3500 
L 1178 0 
L 603 0 
L 603 3500 
z
M 603 4863 
L 1178 4863 
L 1178 4134 
L 603 4134 
L 603 4863 
z
" id="DejaVuSans-69" transform="scale(0.015625)"/>
       <path d="M 1959 3097 
Q 1497 3097 1228 2736 
Q 959 2375 959 1747 
Q 959 1119 1226 758 
Q 1494 397 1959 397 
Q 2419 397 2687 759 
Q 2956 1122 2956 1747 
Q 2956 2369 2687 2733 
Q 2419 3097 1959 3097 
z
M 1959 3584 
Q 2709 3584 3137 3096 
Q 3566 2609 3566 1747 
Q 3566 888 3137 398 
Q 2709 -91 1959 -91 
Q 1206 -91 779 398 
Q 353 888 353 1747 
Q 353 2609 779 3096 
Q 1206 3584 1959 3584 
z
" id="DejaVuSans-6f" transform="scale(0.015625)"/>
       <path d="M 3328 2828 
Q 3544 3216 3844 3400 
Q 4144 3584 4550 3584 
Q 5097 3584 5394 3201 
Q 5691 2819 5691 2113 
L 5691 0 
L 5113 0 
L 5113 2094 
Q 5113 2597 4934 2840 
Q 4756 3084 4391 3084 
Q 3944 3084 3684 2787 
Q 3425 2491 3425 1978 
L 3425 0 
L 2847 0 
L 2847 2094 
Q 2847 2600 2669 2842 
Q 2491 3084 2119 3084 
Q 1678 3084 1418 2786 
Q 1159 2488 1159 1978 
L 1159 0 
L 581 0 
L 581 3500 
L 1159 3500 
L 1159 2956 
Q 1356 3278 1631 3431 
Q 1906 3584 2284 3584 
Q 2666 3584 2933 3390 
Q 3200 3197 3328 2828 
z
" id="DejaVuSans-6d" transform="scale(0.015625)"/>
      </defs>
      <use xlink:href="#DejaVuSans-31"/>
      <use x="63.623047" xlink:href="#DejaVuSans-30"/>
      <use x="127.246094" xlink:href="#DejaVuSans-78"/>
      <use x="186.425781" xlink:href="#DejaVuSans-20"/>
      <use x="218.212891" xlink:href="#DejaVuSans-4d"/>
      <use x="304.492188" xlink:href="#DejaVuSans-75"/>
      <use x="367.871094" xlink:href="#DejaVuSans-6c"/>
      <use x="395.654297" xlink:href="#DejaVuSans-74"/>
      <use x="434.863281" xlink:href="#DejaVuSans-69"/>
      <use x="462.646484" xlink:href="#DejaVuSans-6f"/>
      <use x="523.828125" xlink:href="#DejaVuSans-6d"/>
      <use x="621.240234" xlink:href="#DejaVuSans-65"/>
      <use x="682.763672" xlink:href="#DejaVuSans-20"/>
      <use x="714.550781" xlink:href="#DejaVuSans-31"/>
     </g>
    </g>
    <g id="PathCollection_19">
     <defs>
      <path d="M 0 3 
C 0.795609 3 1.55874 2.683901 2.12132 2.12132 
C 2.683901 1.55874 3 0.795609 3 0 
C 3 -0.795609 2.683901 -1.55874 2.12132 -2.12132 
C 1.55874 -2.683901 0.795609 -3 0 -3 
C -0.795609 -3 -1.55874 -2.683901 -2.12132 -2.12132 
C -2.683901 -1.55874 -3 -0.795609 -3 0 
C -3 0.795609 -2.683901 1.55874 -2.12132 2.12132 
C -1.55874 2.683901 -0.795609 3 0 3 
z
" id="m01cc152b63" style="stroke:#ff9896;"/>
     </defs>
     <g>
      <use style="fill:#ff9896;stroke:#ff9896;" x="295.195594" xlink:href="#m01cc152b63" y="133.00382"/>
     </g>
    </g>
    <g id="text_20">
     <!-- 10x Multiome 2 -->
     <g style="fill:#262626;" transform="translate(314.995594 135.89132)scale(0.11 -0.11)">
      <use xlink:href="#DejaVuSans-31"/>
      <use x="63.623047" xlink:href="#DejaVuSans-30"/>
      <use x="127.246094" xlink:href="#DejaVuSans-78"/>
      <use x="186.425781" xlink:href="#DejaVuSans-20"/>
      <use x="218.212891" xlink:href="#DejaVuSans-4d"/>
      <use x="304.492188" xlink:href="#DejaVuSans-75"/>
      <use x="367.871094" xlink:href="#DejaVuSans-6c"/>
      <use x="395.654297" xlink:href="#DejaVuSans-74"/>
      <use x="434.863281" xlink:href="#DejaVuSans-69"/>
      <use x="462.646484" xlink:href="#DejaVuSans-6f"/>
      <use x="523.828125" xlink:href="#DejaVuSans-6d"/>
      <use x="621.240234" xlink:href="#DejaVuSans-65"/>
      <use x="682.763672" xlink:href="#DejaVuSans-20"/>
      <use x="714.550781" xlink:href="#DejaVuSans-32"/>
     </g>
    </g>
    <g id="PathCollection_20">
     <defs>
      <path d="M 0 3 
C 0.795609 3 1.55874 2.683901 2.12132 2.12132 
C 2.683901 1.55874 3 0.795609 3 0 
C 3 -0.795609 2.683901 -1.55874 2.12132 -2.12132 
C 1.55874 -2.683901 0.795609 -3 0 -3 
C -0.795609 -3 -1.55874 -2.683901 -2.12132 -2.12132 
C -2.683901 -1.55874 -3 -0.795609 -3 0 
C -3 0.795609 -2.683901 1.55874 -2.12132 2.12132 
C -1.55874 2.683901 -0.795609 3 0 3 
z
" id="m1684c543b8" style="stroke:#9467bd;"/>
     </defs>
     <g>
      <use style="fill:#9467bd;stroke:#9467bd;" x="295.195594" xlink:href="#m1684c543b8" y="149.149758"/>
     </g>
    </g>
    <g id="text_21">
     <!-- 10x mtATAC 1 -->
     <g style="fill:#262626;" transform="translate(314.995594 152.037258)scale(0.11 -0.11)">
      <use xlink:href="#DejaVuSans-31"/>
      <use x="63.623047" xlink:href="#DejaVuSans-30"/>
      <use x="127.246094" xlink:href="#DejaVuSans-78"/>
      <use x="186.425781" xlink:href="#DejaVuSans-20"/>
      <use x="218.212891" xlink:href="#DejaVuSans-6d"/>
      <use x="315.625" xlink:href="#DejaVuSans-74"/>
      <use x="354.833984" xlink:href="#DejaVuSans-41"/>
      <use x="415.492188" xlink:href="#DejaVuSans-54"/>
      <use x="468.826172" xlink:href="#DejaVuSans-41"/>
      <use x="535.484375" xlink:href="#DejaVuSans-43"/>
      <use x="605.308594" xlink:href="#DejaVuSans-20"/>
      <use x="637.095703" xlink:href="#DejaVuSans-31"/>
     </g>
    </g>
    <g id="PathCollection_21">
     <defs>
      <path d="M 0 3 
C 0.795609 3 1.55874 2.683901 2.12132 2.12132 
C 2.683901 1.55874 3 0.795609 3 0 
C 3 -0.795609 2.683901 -1.55874 2.12132 -2.12132 
C 1.55874 -2.683901 0.795609 -3 0 -3 
C -0.795609 -3 -1.55874 -2.683901 -2.12132 -2.12132 
C -2.683901 -1.55874 -3 -0.795609 -3 0 
C -3 0.795609 -2.683901 1.55874 -2.12132 2.12132 
C -1.55874 2.683901 -0.795609 3 0 3 
z
" id="mb21ec4bc21" style="stroke:#c5b0d5;"/>
     </defs>
     <g>
      <use style="fill:#c5b0d5;stroke:#c5b0d5;" x="295.195594" xlink:href="#mb21ec4bc21" y="165.295695"/>
     </g>
    </g>
    <g id="text_22">
     <!-- 10x mtATAC 2 -->
     <g style="fill:#262626;" transform="translate(314.995594 168.183195)scale(0.11 -0.11)">
      <use xlink:href="#DejaVuSans-31"/>
      <use x="63.623047" xlink:href="#DejaVuSans-30"/>
      <use x="127.246094" xlink:href="#DejaVuSans-78"/>
      <use x="186.425781" xlink:href="#DejaVuSans-20"/>
      <use x="218.212891" xlink:href="#DejaVuSans-6d"/>
      <use x="315.625" xlink:href="#DejaVuSans-74"/>
      <use x="354.833984" xlink:href="#DejaVuSans-41"/>
      <use x="415.492188" xlink:href="#DejaVuSans-54"/>
      <use x="468.826172" xlink:href="#DejaVuSans-41"/>
      <use x="535.484375" xlink:href="#DejaVuSans-43"/>
      <use x="605.308594" xlink:href="#DejaVuSans-20"/>
      <use x="637.095703" xlink:href="#DejaVuSans-32"/>
     </g>
    </g>
   </g>
  </g>
 </g>
 <defs>
  <clipPath id="p3b245ab5aa">
   <rect height="222.459063" width="209.94" x="59.358594" y="10.111476"/>
  </clipPath>
 </defs>
</svg>
