<?xml version="1.0" encoding="utf-8" standalone="no"?>
<!DOCTYPE svg PUBLIC "-//W3C//DTD SVG 1.1//EN"
  "http://www.w3.org/Graphics/SVG/1.1/DTD/svg11.dtd">
<svg height="276.033438pt" version="1.1" viewBox="0 0 412.710906 276.033438" width="412.710906pt" xmlns="http://www.w3.org/2000/svg" xmlns:xlink="http://www.w3.org/1999/xlink">
 <metadata>
  <rdf:RDF xmlns:cc="http://creativecommons.org/ns#" xmlns:dc="http://purl.org/dc/elements/1.1/" xmlns:rdf="http://www.w3.org/1999/02/22-rdf-syntax-ns#">
   <cc:Work>
    <dc:type rdf:resource="http://purl.org/dc/dcmitype/StillImage"/>
    <dc:date>2021-12-08T21:42:49.102544</dc:date>
    <dc:format>image/svg+xml</dc:format>
    <dc:creator>
     <cc:Agent>
      <dc:title>Matplotlib v3.4.3, https://matplotlib.org/</dc:title>
     </cc:Agent>
    </dc:creator>
   </cc:Work>
  </rdf:RDF>
 </metadata>
 <defs>
  <style type="text/css">*{stroke-linecap:butt;stroke-linejoin:round;}</style>
 </defs>
 <g id="figure_1">
  <g id="patch_1">
   <path d="M 0 276.033438 
L 412.710906 276.033438 
L 412.710906 0 
L 0 0 
z
" style="fill:#ffffff;"/>
  </g>
  <g id="axes_1">
   <g id="patch_2">
    <path d="M 46.645 232.74 
L 269.185 232.74 
L 269.185 7.2 
L 46.645 7.2 
z
" style="fill:#ffffff;"/>
   </g>
   <g id="matplotlib.axis_1">
    <g id="xtick_1">
     <g id="line2d_1">
      <path clip-path="url(#pc42a1cb4f6)" d="M 97.660369 232.74 
L 97.660369 7.2 
" style="fill:none;stroke:#cccccc;stroke-linecap:round;"/>
     </g>
     <g id="text_1">
      <!-- 2000 -->
      <g style="fill:#262626;" transform="translate(83.662869 250.598281)scale(0.11 -0.11)">
       <defs>
        <path d="M 1228 531 
L 3431 531 
L 3431 0 
L 469 0 
L 469 531 
Q 828 903 1448 1529 
Q 2069 2156 2228 2338 
Q 2531 2678 2651 2914 
Q 2772 3150 2772 3378 
Q 2772 3750 2511 3984 
Q 2250 4219 1831 4219 
Q 1534 4219 1204 4116 
Q 875 4013 500 3803 
L 500 4441 
Q 881 4594 1212 4672 
Q 1544 4750 1819 4750 
Q 2544 4750 2975 4387 
Q 3406 4025 3406 3419 
Q 3406 3131 3298 2873 
Q 3191 2616 2906 2266 
Q 2828 2175 2409 1742 
Q 1991 1309 1228 531 
z
" id="DejaVuSans-32" transform="scale(0.015625)"/>
        <path d="M 2034 4250 
Q 1547 4250 1301 3770 
Q 1056 3291 1056 2328 
Q 1056 1369 1301 889 
Q 1547 409 2034 409 
Q 2525 409 2770 889 
Q 3016 1369 3016 2328 
Q 3016 3291 2770 3770 
Q 2525 4250 2034 4250 
z
M 2034 4750 
Q 2819 4750 3233 4129 
Q 3647 3509 3647 2328 
Q 3647 1150 3233 529 
Q 2819 -91 2034 -91 
Q 1250 -91 836 529 
Q 422 1150 422 2328 
Q 422 3509 836 4129 
Q 1250 4750 2034 4750 
z
" id="DejaVuSans-30" transform="scale(0.015625)"/>
       </defs>
       <use xlink:href="#DejaVuSans-32"/>
       <use x="63.623047" xlink:href="#DejaVuSans-30"/>
       <use x="127.246094" xlink:href="#DejaVuSans-30"/>
       <use x="190.869141" xlink:href="#DejaVuSans-30"/>
      </g>
     </g>
    </g>
    <g id="xtick_2">
     <g id="line2d_2">
      <path clip-path="url(#pc42a1cb4f6)" d="M 163.047923 232.74 
L 163.047923 7.2 
" style="fill:none;stroke:#cccccc;stroke-linecap:round;"/>
     </g>
     <g id="text_2">
      <!-- 4000 -->
      <g style="fill:#262626;" transform="translate(149.050423 250.598281)scale(0.11 -0.11)">
       <defs>
        <path d="M 2419 4116 
L 825 1625 
L 2419 1625 
L 2419 4116 
z
M 2253 4666 
L 3047 4666 
L 3047 1625 
L 3713 1625 
L 3713 1100 
L 3047 1100 
L 3047 0 
L 2419 0 
L 2419 1100 
L 313 1100 
L 313 1709 
L 2253 4666 
z
" id="DejaVuSans-34" transform="scale(0.015625)"/>
       </defs>
       <use xlink:href="#DejaVuSans-34"/>
       <use x="63.623047" xlink:href="#DejaVuSans-30"/>
       <use x="127.246094" xlink:href="#DejaVuSans-30"/>
       <use x="190.869141" xlink:href="#DejaVuSans-30"/>
      </g>
     </g>
    </g>
    <g id="xtick_3">
     <g id="line2d_3">
      <path clip-path="url(#pc42a1cb4f6)" d="M 228.435477 232.74 
L 228.435477 7.2 
" style="fill:none;stroke:#cccccc;stroke-linecap:round;"/>
     </g>
     <g id="text_3">
      <!-- 6000 -->
      <g style="fill:#262626;" transform="translate(214.437977 250.598281)scale(0.11 -0.11)">
       <defs>
        <path d="M 2113 2584 
Q 1688 2584 1439 2293 
Q 1191 2003 1191 1497 
Q 1191 994 1439 701 
Q 1688 409 2113 409 
Q 2538 409 2786 701 
Q 3034 994 3034 1497 
Q 3034 2003 2786 2293 
Q 2538 2584 2113 2584 
z
M 3366 4563 
L 3366 3988 
Q 3128 4100 2886 4159 
Q 2644 4219 2406 4219 
Q 1781 4219 1451 3797 
Q 1122 3375 1075 2522 
Q 1259 2794 1537 2939 
Q 1816 3084 2150 3084 
Q 2853 3084 3261 2657 
Q 3669 2231 3669 1497 
Q 3669 778 3244 343 
Q 2819 -91 2113 -91 
Q 1303 -91 875 529 
Q 447 1150 447 2328 
Q 447 3434 972 4092 
Q 1497 4750 2381 4750 
Q 2619 4750 2861 4703 
Q 3103 4656 3366 4563 
z
" id="DejaVuSans-36" transform="scale(0.015625)"/>
       </defs>
       <use xlink:href="#DejaVuSans-36"/>
       <use x="63.623047" xlink:href="#DejaVuSans-30"/>
       <use x="127.246094" xlink:href="#DejaVuSans-30"/>
       <use x="190.869141" xlink:href="#DejaVuSans-30"/>
      </g>
     </g>
    </g>
    <g id="text_4">
     <!-- n_cells -->
     <g style="fill:#262626;" transform="translate(137.662187 266.004063)scale(0.12 -0.12)">
      <defs>
       <path d="M 3513 2113 
L 3513 0 
L 2938 0 
L 2938 2094 
Q 2938 2591 2744 2837 
Q 2550 3084 2163 3084 
Q 1697 3084 1428 2787 
Q 1159 2491 1159 1978 
L 1159 0 
L 581 0 
L 581 3500 
L 1159 3500 
L 1159 2956 
Q 1366 3272 1645 3428 
Q 1925 3584 2291 3584 
Q 2894 3584 3203 3211 
Q 3513 2838 3513 2113 
z
" id="DejaVuSans-6e" transform="scale(0.015625)"/>
       <path d="M 3263 -1063 
L 3263 -1509 
L -63 -1509 
L -63 -1063 
L 3263 -1063 
z
" id="DejaVuSans-5f" transform="scale(0.015625)"/>
       <path d="M 3122 3366 
L 3122 2828 
Q 2878 2963 2633 3030 
Q 2388 3097 2138 3097 
Q 1578 3097 1268 2742 
Q 959 2388 959 1747 
Q 959 1106 1268 751 
Q 1578 397 2138 397 
Q 2388 397 2633 464 
Q 2878 531 3122 666 
L 3122 134 
Q 2881 22 2623 -34 
Q 2366 -91 2075 -91 
Q 1284 -91 818 406 
Q 353 903 353 1747 
Q 353 2603 823 3093 
Q 1294 3584 2113 3584 
Q 2378 3584 2631 3529 
Q 2884 3475 3122 3366 
z
" id="DejaVuSans-63" transform="scale(0.015625)"/>
       <path d="M 3597 1894 
L 3597 1613 
L 953 1613 
Q 991 1019 1311 708 
Q 1631 397 2203 397 
Q 2534 397 2845 478 
Q 3156 559 3463 722 
L 3463 178 
Q 3153 47 2828 -22 
Q 2503 -91 2169 -91 
Q 1331 -91 842 396 
Q 353 884 353 1716 
Q 353 2575 817 3079 
Q 1281 3584 2069 3584 
Q 2775 3584 3186 3129 
Q 3597 2675 3597 1894 
z
M 3022 2063 
Q 3016 2534 2758 2815 
Q 2500 3097 2075 3097 
Q 1594 3097 1305 2825 
Q 1016 2553 972 2059 
L 3022 2063 
z
" id="DejaVuSans-65" transform="scale(0.015625)"/>
       <path d="M 603 4863 
L 1178 4863 
L 1178 0 
L 603 0 
L 603 4863 
z
" id="DejaVuSans-6c" transform="scale(0.015625)"/>
       <path d="M 2834 3397 
L 2834 2853 
Q 2591 2978 2328 3040 
Q 2066 3103 1784 3103 
Q 1356 3103 1142 2972 
Q 928 2841 928 2578 
Q 928 2378 1081 2264 
Q 1234 2150 1697 2047 
L 1894 2003 
Q 2506 1872 2764 1633 
Q 3022 1394 3022 966 
Q 3022 478 2636 193 
Q 2250 -91 1575 -91 
Q 1294 -91 989 -36 
Q 684 19 347 128 
L 347 722 
Q 666 556 975 473 
Q 1284 391 1588 391 
Q 1994 391 2212 530 
Q 2431 669 2431 922 
Q 2431 1156 2273 1281 
Q 2116 1406 1581 1522 
L 1381 1569 
Q 847 1681 609 1914 
Q 372 2147 372 2553 
Q 372 3047 722 3315 
Q 1072 3584 1716 3584 
Q 2034 3584 2315 3537 
Q 2597 3491 2834 3397 
z
" id="DejaVuSans-73" transform="scale(0.015625)"/>
      </defs>
      <use xlink:href="#DejaVuSans-6e"/>
      <use x="63.378906" xlink:href="#DejaVuSans-5f"/>
      <use x="113.378906" xlink:href="#DejaVuSans-63"/>
      <use x="168.359375" xlink:href="#DejaVuSans-65"/>
      <use x="229.882812" xlink:href="#DejaVuSans-6c"/>
      <use x="257.666016" xlink:href="#DejaVuSans-6c"/>
      <use x="285.449219" xlink:href="#DejaVuSans-73"/>
     </g>
    </g>
   </g>
   <g id="matplotlib.axis_2">
    <g id="ytick_1">
     <g id="line2d_4">
      <path clip-path="url(#pc42a1cb4f6)" d="M 46.645 223.712504 
L 269.185 223.712504 
" style="fill:none;stroke:#cccccc;stroke-linecap:round;"/>
     </g>
     <g id="text_5">
      <!-- 10 -->
      <g style="fill:#262626;" transform="translate(23.1475 227.891644)scale(0.11 -0.11)">
       <defs>
        <path d="M 794 531 
L 1825 531 
L 1825 4091 
L 703 3866 
L 703 4441 
L 1819 4666 
L 2450 4666 
L 2450 531 
L 3481 531 
L 3481 0 
L 794 0 
L 794 531 
z
" id="DejaVuSans-31" transform="scale(0.015625)"/>
       </defs>
       <use xlink:href="#DejaVuSans-31"/>
       <use x="63.623047" xlink:href="#DejaVuSans-30"/>
      </g>
     </g>
    </g>
    <g id="ytick_2">
     <g id="line2d_5">
      <path clip-path="url(#pc42a1cb4f6)" d="M 46.645 176.219994 
L 269.185 176.219994 
" style="fill:none;stroke:#cccccc;stroke-linecap:round;"/>
     </g>
     <g id="text_6">
      <!-- 15 -->
      <g style="fill:#262626;" transform="translate(23.1475 180.399134)scale(0.11 -0.11)">
       <defs>
        <path d="M 691 4666 
L 3169 4666 
L 3169 4134 
L 1269 4134 
L 1269 2991 
Q 1406 3038 1543 3061 
Q 1681 3084 1819 3084 
Q 2600 3084 3056 2656 
Q 3513 2228 3513 1497 
Q 3513 744 3044 326 
Q 2575 -91 1722 -91 
Q 1428 -91 1123 -41 
Q 819 9 494 109 
L 494 744 
Q 775 591 1075 516 
Q 1375 441 1709 441 
Q 2250 441 2565 725 
Q 2881 1009 2881 1497 
Q 2881 1984 2565 2268 
Q 2250 2553 1709 2553 
Q 1456 2553 1204 2497 
Q 953 2441 691 2322 
L 691 4666 
z
" id="DejaVuSans-35" transform="scale(0.015625)"/>
       </defs>
       <use xlink:href="#DejaVuSans-31"/>
       <use x="63.623047" xlink:href="#DejaVuSans-35"/>
      </g>
     </g>
    </g>
    <g id="ytick_3">
     <g id="line2d_6">
      <path clip-path="url(#pc42a1cb4f6)" d="M 46.645 128.727484 
L 269.185 128.727484 
" style="fill:none;stroke:#cccccc;stroke-linecap:round;"/>
     </g>
     <g id="text_7">
      <!-- 20 -->
      <g style="fill:#262626;" transform="translate(23.1475 132.906624)scale(0.11 -0.11)">
       <use xlink:href="#DejaVuSans-32"/>
       <use x="63.623047" xlink:href="#DejaVuSans-30"/>
      </g>
     </g>
    </g>
    <g id="ytick_4">
     <g id="line2d_7">
      <path clip-path="url(#pc42a1cb4f6)" d="M 46.645 81.234974 
L 269.185 81.234974 
" style="fill:none;stroke:#cccccc;stroke-linecap:round;"/>
     </g>
     <g id="text_8">
      <!-- 25 -->
      <g style="fill:#262626;" transform="translate(23.1475 85.414115)scale(0.11 -0.11)">
       <use xlink:href="#DejaVuSans-32"/>
       <use x="63.623047" xlink:href="#DejaVuSans-35"/>
      </g>
     </g>
    </g>
    <g id="ytick_5">
     <g id="line2d_8">
      <path clip-path="url(#pc42a1cb4f6)" d="M 46.645 33.742464 
L 269.185 33.742464 
" style="fill:none;stroke:#cccccc;stroke-linecap:round;"/>
     </g>
     <g id="text_9">
      <!-- 30 -->
      <g style="fill:#262626;" transform="translate(23.1475 37.921605)scale(0.11 -0.11)">
       <defs>
        <path d="M 2597 2516 
Q 3050 2419 3304 2112 
Q 3559 1806 3559 1356 
Q 3559 666 3084 287 
Q 2609 -91 1734 -91 
Q 1441 -91 1130 -33 
Q 819 25 488 141 
L 488 750 
Q 750 597 1062 519 
Q 1375 441 1716 441 
Q 2309 441 2620 675 
Q 2931 909 2931 1356 
Q 2931 1769 2642 2001 
Q 2353 2234 1838 2234 
L 1294 2234 
L 1294 2753 
L 1863 2753 
Q 2328 2753 2575 2939 
Q 2822 3125 2822 3475 
Q 2822 3834 2567 4026 
Q 2313 4219 1838 4219 
Q 1578 4219 1281 4162 
Q 984 4106 628 3988 
L 628 4550 
Q 988 4650 1302 4700 
Q 1616 4750 1894 4750 
Q 2613 4750 3031 4423 
Q 3450 4097 3450 3541 
Q 3450 3153 3228 2886 
Q 3006 2619 2597 2516 
z
" id="DejaVuSans-33" transform="scale(0.015625)"/>
       </defs>
       <use xlink:href="#DejaVuSans-33"/>
       <use x="63.623047" xlink:href="#DejaVuSans-30"/>
      </g>
     </g>
    </g>
    <g id="text_10">
     <!-- TSS_enrichment -->
     <g style="fill:#262626;" transform="translate(16.318125 168.673125)rotate(-90)scale(0.12 -0.12)">
      <defs>
       <path d="M -19 4666 
L 3928 4666 
L 3928 4134 
L 2272 4134 
L 2272 0 
L 1638 0 
L 1638 4134 
L -19 4134 
L -19 4666 
z
" id="DejaVuSans-54" transform="scale(0.015625)"/>
       <path d="M 3425 4513 
L 3425 3897 
Q 3066 4069 2747 4153 
Q 2428 4238 2131 4238 
Q 1616 4238 1336 4038 
Q 1056 3838 1056 3469 
Q 1056 3159 1242 3001 
Q 1428 2844 1947 2747 
L 2328 2669 
Q 3034 2534 3370 2195 
Q 3706 1856 3706 1288 
Q 3706 609 3251 259 
Q 2797 -91 1919 -91 
Q 1588 -91 1214 -16 
Q 841 59 441 206 
L 441 856 
Q 825 641 1194 531 
Q 1563 422 1919 422 
Q 2459 422 2753 634 
Q 3047 847 3047 1241 
Q 3047 1584 2836 1778 
Q 2625 1972 2144 2069 
L 1759 2144 
Q 1053 2284 737 2584 
Q 422 2884 422 3419 
Q 422 4038 858 4394 
Q 1294 4750 2059 4750 
Q 2388 4750 2728 4690 
Q 3069 4631 3425 4513 
z
" id="DejaVuSans-53" transform="scale(0.015625)"/>
       <path d="M 2631 2963 
Q 2534 3019 2420 3045 
Q 2306 3072 2169 3072 
Q 1681 3072 1420 2755 
Q 1159 2438 1159 1844 
L 1159 0 
L 581 0 
L 581 3500 
L 1159 3500 
L 1159 2956 
Q 1341 3275 1631 3429 
Q 1922 3584 2338 3584 
Q 2397 3584 2469 3576 
Q 2541 3569 2628 3553 
L 2631 2963 
z
" id="DejaVuSans-72" transform="scale(0.015625)"/>
       <path d="M 603 3500 
L 1178 3500 
L 1178 0 
L 603 0 
L 603 3500 
z
M 603 4863 
L 1178 4863 
L 1178 4134 
L 603 4134 
L 603 4863 
z
" id="DejaVuSans-69" transform="scale(0.015625)"/>
       <path d="M 3513 2113 
L 3513 0 
L 2938 0 
L 2938 2094 
Q 2938 2591 2744 2837 
Q 2550 3084 2163 3084 
Q 1697 3084 1428 2787 
Q 1159 2491 1159 1978 
L 1159 0 
L 581 0 
L 581 4863 
L 1159 4863 
L 1159 2956 
Q 1366 3272 1645 3428 
Q 1925 3584 2291 3584 
Q 2894 3584 3203 3211 
Q 3513 2838 3513 2113 
z
" id="DejaVuSans-68" transform="scale(0.015625)"/>
       <path d="M 3328 2828 
Q 3544 3216 3844 3400 
Q 4144 3584 4550 3584 
Q 5097 3584 5394 3201 
Q 5691 2819 5691 2113 
L 5691 0 
L 5113 0 
L 5113 2094 
Q 5113 2597 4934 2840 
Q 4756 3084 4391 3084 
Q 3944 3084 3684 2787 
Q 3425 2491 3425 1978 
L 3425 0 
L 2847 0 
L 2847 2094 
Q 2847 2600 2669 2842 
Q 2491 3084 2119 3084 
Q 1678 3084 1418 2786 
Q 1159 2488 1159 1978 
L 1159 0 
L 581 0 
L 581 3500 
L 1159 3500 
L 1159 2956 
Q 1356 3278 1631 3431 
Q 1906 3584 2284 3584 
Q 2666 3584 2933 3390 
Q 3200 3197 3328 2828 
z
" id="DejaVuSans-6d" transform="scale(0.015625)"/>
       <path d="M 1172 4494 
L 1172 3500 
L 2356 3500 
L 2356 3053 
L 1172 3053 
L 1172 1153 
Q 1172 725 1289 603 
Q 1406 481 1766 481 
L 2356 481 
L 2356 0 
L 1766 0 
Q 1100 0 847 248 
Q 594 497 594 1153 
L 594 3053 
L 172 3053 
L 172 3500 
L 594 3500 
L 594 4494 
L 1172 4494 
z
" id="DejaVuSans-74" transform="scale(0.015625)"/>
      </defs>
      <use xlink:href="#DejaVuSans-54"/>
      <use x="61.083984" xlink:href="#DejaVuSans-53"/>
      <use x="124.560547" xlink:href="#DejaVuSans-53"/>
      <use x="188.037109" xlink:href="#DejaVuSans-5f"/>
      <use x="238.037109" xlink:href="#DejaVuSans-65"/>
      <use x="299.560547" xlink:href="#DejaVuSans-6e"/>
      <use x="362.939453" xlink:href="#DejaVuSans-72"/>
      <use x="404.052734" xlink:href="#DejaVuSans-69"/>
      <use x="431.835938" xlink:href="#DejaVuSans-63"/>
      <use x="486.816406" xlink:href="#DejaVuSans-68"/>
      <use x="550.195312" xlink:href="#DejaVuSans-6d"/>
      <use x="647.607422" xlink:href="#DejaVuSans-65"/>
      <use x="709.130859" xlink:href="#DejaVuSans-6e"/>
      <use x="772.509766" xlink:href="#DejaVuSans-74"/>
     </g>
    </g>
   </g>
   <g id="PolyCollection_1">
    <defs>
     <path d="M 56.760455 -227.12873 
L 56.760455 -121.181681 
L 58.803981 -122.276791 
L 60.847507 -123.111994 
L 62.891033 -124.107113 
L 64.934559 -125.473943 
L 66.978085 -126.227465 
L 69.021612 -127.369525 
L 71.065138 -128.264072 
L 73.108664 -129.139287 
L 75.15219 -129.920345 
L 77.195716 -130.524709 
L 79.239242 -130.923785 
L 81.282769 -131.493773 
L 83.326295 -132.140748 
L 85.369821 -132.594334 
L 87.413347 -133.02751 
L 89.456873 -133.582971 
L 91.500399 -133.871188 
L 93.543926 -134.121112 
L 95.587452 -134.535496 
L 97.630978 -134.939263 
L 99.674504 -135.432154 
L 101.71803 -135.944202 
L 103.761556 -136.448373 
L 105.805083 -136.975358 
L 107.848609 -137.376531 
L 109.892135 -137.73858 
L 111.935661 -138.163973 
L 113.979187 -138.557409 
L 116.022713 -138.895596 
L 118.06624 -139.280219 
L 120.109766 -139.683051 
L 122.153292 -140.020542 
L 124.196818 -140.316008 
L 126.240344 -140.611334 
L 128.283871 -140.775825 
L 130.327397 -141.082197 
L 132.370923 -141.4007 
L 134.414449 -141.751469 
L 136.457975 -142.079321 
L 138.501501 -141.434559 
L 140.545028 -141.233233 
L 142.588554 -141.139145 
L 144.63208 -140.033847 
L 146.675606 -138.917107 
L 148.719132 -138.402087 
L 150.762658 -138.095458 
L 152.806185 -136.729898 
L 154.849711 -136.550994 
L 156.893237 -135.895387 
L 158.936763 -133.958111 
L 160.980289 -133.42992 
L 163.023815 -133.368637 
L 165.067342 -133.307355 
L 167.110868 -132.283356 
L 169.154394 -129.884287 
L 171.19792 -127.494152 
L 173.241446 -125.105808 
L 175.284972 -122.717465 
L 177.328499 -120.329121 
L 179.372025 -117.940778 
L 181.415551 -115.552434 
L 183.459077 -113.164091 
L 185.502603 -111.485934 
L 187.546129 -109.90702 
L 189.589656 -108.328106 
L 191.633182 -106.749192 
L 193.676708 -105.170278 
L 195.720234 -103.591364 
L 197.76376 -102.01245 
L 199.807287 -100.442236 
L 201.850813 -98.873897 
L 203.894339 -97.305558 
L 205.937865 -95.737219 
L 207.981391 -94.16888 
L 210.024917 -92.600541 
L 212.068444 -91.032202 
L 214.11197 -89.463863 
L 216.155496 -87.895524 
L 218.199022 -86.327185 
L 220.242548 -84.758846 
L 222.286074 -83.190508 
L 224.329601 -81.622169 
L 226.373127 -80.05383 
L 228.416653 -78.485491 
L 230.460179 -76.917152 
L 232.503705 -75.348813 
L 234.547231 -73.780474 
L 236.590758 -72.212135 
L 238.634284 -70.643796 
L 240.67781 -69.075457 
L 242.721336 -67.507118 
L 244.764862 -65.838634 
L 246.808388 -64.082437 
L 248.851915 -62.32624 
L 250.895441 -60.570043 
L 252.938967 -58.813846 
L 254.982493 -57.057649 
L 257.026019 -55.301453 
L 259.069545 -53.545256 
L 259.069545 -258.581619 
L 259.069545 -258.581619 
L 257.026019 -257.223186 
L 254.982493 -255.864752 
L 252.938967 -254.506319 
L 250.895441 -253.147885 
L 248.851915 -251.789452 
L 246.808388 -250.431018 
L 244.764862 -249.072585 
L 242.721336 -247.714152 
L 240.67781 -246.355718 
L 238.634284 -244.997285 
L 236.590758 -243.638518 
L 234.547231 -242.278564 
L 232.503705 -240.918611 
L 230.460179 -239.59926 
L 228.416653 -238.365524 
L 226.373127 -237.131788 
L 224.329601 -235.898052 
L 222.286074 -234.662732 
L 220.242548 -233.427297 
L 218.199022 -232.191861 
L 216.155496 -230.956425 
L 214.11197 -229.72099 
L 212.068444 -228.485554 
L 210.024917 -227.250119 
L 207.981391 -225.920557 
L 205.937865 -224.469021 
L 203.894339 -223.017486 
L 201.850813 -221.564993 
L 199.807287 -220.10947 
L 197.76376 -218.653948 
L 195.720234 -217.198425 
L 193.676708 -215.742902 
L 191.633182 -214.28738 
L 189.589656 -212.831857 
L 187.546129 -211.376335 
L 185.502603 -209.920812 
L 183.459077 -208.465289 
L 181.415551 -207.009767 
L 179.372025 -205.556322 
L 177.328499 -204.191352 
L 175.284972 -202.826382 
L 173.241446 -201.533928 
L 171.19792 -200.318226 
L 169.154394 -198.923062 
L 167.110868 -197.571828 
L 165.067342 -196.446411 
L 163.023815 -195.320993 
L 160.980289 -194.195576 
L 158.936763 -193.070158 
L 156.893237 -191.730017 
L 154.849711 -190.345359 
L 152.806185 -188.960701 
L 150.762658 -187.576043 
L 148.719132 -186.191385 
L 146.675606 -185.034599 
L 144.63208 -183.873574 
L 142.588554 -182.710612 
L 140.545028 -181.375298 
L 138.501501 -180.112426 
L 136.457975 -178.686901 
L 134.414449 -177.869288 
L 132.370923 -176.940234 
L 130.327397 -175.850662 
L 128.283871 -175.569882 
L 126.240344 -175.724276 
L 124.196818 -175.851436 
L 122.153292 -176.119963 
L 120.109766 -176.040013 
L 118.06624 -176.962772 
L 116.022713 -177.571035 
L 113.979187 -178.168471 
L 111.935661 -179.018437 
L 109.892135 -179.132034 
L 107.848609 -180.525127 
L 105.805083 -180.932108 
L 103.761556 -182.70384 
L 101.71803 -184.667092 
L 99.674504 -185.953454 
L 97.630978 -186.471612 
L 95.587452 -187.089368 
L 93.543926 -189.205882 
L 91.500399 -191.322396 
L 89.456873 -193.43891 
L 87.413347 -195.555424 
L 85.369821 -197.669578 
L 83.326295 -199.773803 
L 81.282769 -201.878028 
L 79.239242 -203.982254 
L 77.195716 -206.086479 
L 75.15219 -208.190704 
L 73.108664 -210.294929 
L 71.065138 -212.399154 
L 69.021612 -214.503379 
L 66.978085 -216.607605 
L 64.934559 -218.71183 
L 62.891033 -220.816055 
L 60.847507 -222.92028 
L 58.803981 -225.024505 
L 56.760455 -227.12873 
z
" id="m531a73205d" style="stroke:#ffffff;stroke-opacity:0.15;"/>
    </defs>
    <g clip-path="url(#pc42a1cb4f6)">
     <use style="fill:#4c72b0;fill-opacity:0.15;stroke:#ffffff;stroke-opacity:0.15;" x="0" xlink:href="#m531a73205d" y="276.033438"/>
    </g>
   </g>
   <g id="PathCollection_1">
    <defs>
     <path d="M 0 2.236068 
C 0.593012 2.236068 1.161816 2.000462 1.581139 1.581139 
C 2.000462 1.161816 2.236068 0.593012 2.236068 -0 
C 2.236068 -0.593012 2.000462 -1.161816 1.581139 -1.581139 
C 1.161816 -2.000462 0.593012 -2.236068 0 -2.236068 
C -0.593012 -2.236068 -1.161816 -2.000462 -1.581139 -1.581139 
C -2.000462 -1.161816 -2.236068 -0.593012 -2.236068 0 
C -2.236068 0.593012 -2.000462 1.161816 -1.581139 1.581139 
C -1.161816 2.000462 -0.593012 2.236068 0 2.236068 
z
" id="C0_0_8ff4d20894"/>
    </defs>
    <g clip-path="url(#pc42a1cb4f6)">
     <use style="fill:#1f77b4;" x="56.760455" xlink:href="#C0_0_8ff4d20894" y="147.712028"/>
    </g>
    <g clip-path="url(#pc42a1cb4f6)">
     <use style="fill:#aec7e8;" x="77.226759" xlink:href="#C0_0_8ff4d20894" y="152.280056"/>
    </g>
    <g clip-path="url(#pc42a1cb4f6)">
     <use style="fill:#ff7f0e;" x="121.82107" xlink:href="#C0_0_8ff4d20894" y="67.284238"/>
    </g>
    <g clip-path="url(#pc42a1cb4f6)">
     <use style="fill:#ffbb78;" x="259.069545" xlink:href="#C0_0_8ff4d20894" y="116.628654"/>
    </g>
    <g clip-path="url(#pc42a1cb4f6)">
     <use style="fill:#2ca02c;" x="115.086152" xlink:href="#C0_0_8ff4d20894" y="101.314654"/>
    </g>
    <g clip-path="url(#pc42a1cb4f6)">
     <use style="fill:#98df8a;" x="116.001578" xlink:href="#C0_0_8ff4d20894" y="99.827993"/>
    </g>
    <g clip-path="url(#pc42a1cb4f6)">
     <use style="fill:#d62728;" x="124.894285" xlink:href="#C0_0_8ff4d20894" y="145.797108"/>
    </g>
    <g clip-path="url(#pc42a1cb4f6)">
     <use style="fill:#ff9896;" x="144.837489" xlink:href="#C0_0_8ff4d20894" y="147.260943"/>
    </g>
    <g clip-path="url(#pc42a1cb4f6)">
     <use style="fill:#9467bd;" x="141.764274" xlink:href="#C0_0_8ff4d20894" y="120.144805"/>
    </g>
    <g clip-path="url(#pc42a1cb4f6)">
     <use style="fill:#c5b0d5;" x="137.219839" xlink:href="#C0_0_8ff4d20894" y="118.783349"/>
    </g>
   </g>
   <g id="PathCollection_2"/>
   <g id="PathCollection_3"/>
   <g id="PathCollection_4"/>
   <g id="PathCollection_5"/>
   <g id="PathCollection_6"/>
   <g id="PathCollection_7"/>
   <g id="PathCollection_8"/>
   <g id="PathCollection_9"/>
   <g id="PathCollection_10"/>
   <g id="PathCollection_11"/>
   <g id="line2d_9">
    <path clip-path="url(#pc42a1cb4f6)" d="M 56.760455 129.902821 
L 58.803981 129.672367 
L 60.847507 129.441913 
L 62.891033 129.211459 
L 64.934559 128.981005 
L 66.978085 128.750551 
L 69.021612 128.520098 
L 71.065138 128.289644 
L 73.108664 128.05919 
L 75.15219 127.828736 
L 77.195716 127.598282 
L 79.239242 127.367828 
L 81.282769 127.137375 
L 83.326295 126.906921 
L 85.369821 126.676467 
L 87.413347 126.446013 
L 89.456873 126.215559 
L 91.500399 125.985105 
L 93.543926 125.754652 
L 95.587452 125.524198 
L 97.630978 125.293744 
L 99.674504 125.06329 
L 101.71803 124.832836 
L 103.761556 124.602382 
L 105.805083 124.371929 
L 107.848609 124.141475 
L 109.892135 123.911021 
L 111.935661 123.680567 
L 113.979187 123.450113 
L 116.022713 123.219659 
L 118.06624 122.989206 
L 120.109766 122.758752 
L 122.153292 122.528298 
L 124.196818 122.297844 
L 126.240344 122.06739 
L 128.283871 121.836936 
L 130.327397 121.606483 
L 132.370923 121.376029 
L 134.414449 121.145575 
L 136.457975 120.915121 
L 138.501501 120.684667 
L 140.545028 120.454213 
L 142.588554 120.22376 
L 144.63208 119.993306 
L 146.675606 119.762852 
L 148.719132 119.532398 
L 150.762658 119.301944 
L 152.806185 119.07149 
L 154.849711 118.841037 
L 156.893237 118.610583 
L 158.936763 118.380129 
L 160.980289 118.149675 
L 163.023815 117.919221 
L 165.067342 117.688767 
L 167.110868 117.458314 
L 169.154394 117.22786 
L 171.19792 116.997406 
L 173.241446 116.766952 
L 175.284972 116.536498 
L 177.328499 116.306044 
L 179.372025 116.075591 
L 181.415551 115.845137 
L 183.459077 115.614683 
L 185.502603 115.384229 
L 187.546129 115.153775 
L 189.589656 114.923321 
L 191.633182 114.692867 
L 193.676708 114.462414 
L 195.720234 114.23196 
L 197.76376 114.001506 
L 199.807287 113.771052 
L 201.850813 113.540598 
L 203.894339 113.310144 
L 205.937865 113.079691 
L 207.981391 112.849237 
L 210.024917 112.618783 
L 212.068444 112.388329 
L 214.11197 112.157875 
L 216.155496 111.927421 
L 218.199022 111.696968 
L 220.242548 111.466514 
L 222.286074 111.23606 
L 224.329601 111.005606 
L 226.373127 110.775152 
L 228.416653 110.544698 
L 230.460179 110.314245 
L 232.503705 110.083791 
L 234.547231 109.853337 
L 236.590758 109.622883 
L 238.634284 109.392429 
L 240.67781 109.161975 
L 242.721336 108.931522 
L 244.764862 108.701068 
L 246.808388 108.470614 
L 248.851915 108.24016 
L 250.895441 108.009706 
L 252.938967 107.779252 
L 254.982493 107.548799 
L 257.026019 107.318345 
L 259.069545 107.087891 
" style="fill:none;stroke:#4c72b0;stroke-linecap:round;stroke-width:2.25;"/>
   </g>
   <g id="patch_3">
    <path d="M 46.645 232.74 
L 46.645 7.2 
" style="fill:none;stroke:#333333;stroke-linecap:square;stroke-linejoin:miter;stroke-width:1.25;"/>
   </g>
   <g id="patch_4">
    <path d="M 269.185 232.74 
L 269.185 7.2 
" style="fill:none;stroke:#333333;stroke-linecap:square;stroke-linejoin:miter;stroke-width:1.25;"/>
   </g>
   <g id="patch_5">
    <path d="M 46.645 232.74 
L 269.185 232.74 
" style="fill:none;stroke:#333333;stroke-linecap:square;stroke-linejoin:miter;stroke-width:1.25;"/>
   </g>
   <g id="patch_6">
    <path d="M 46.645 7.2 
L 269.185 7.2 
" style="fill:none;stroke:#333333;stroke-linecap:square;stroke-linejoin:miter;stroke-width:1.25;"/>
   </g>
   <g id="legend_1">
    <g id="patch_7">
     <path d="M 282.512 171.959375 
L 403.310906 171.959375 
Q 405.510906 171.959375 405.510906 169.759375 
L 405.510906 9.4 
Q 405.510906 7.2 403.310906 7.2 
L 282.512 7.2 
Q 280.312 7.2 280.312 9.4 
L 280.312 169.759375 
Q 280.312 171.959375 282.512 171.959375 
z
" style="fill:#ffffff;opacity:0.8;stroke:#cccccc;stroke-linejoin:miter;"/>
    </g>
    <g id="PathCollection_12">
     <defs>
      <path d="M 0 3 
C 0.795609 3 1.55874 2.683901 2.12132 2.12132 
C 2.683901 1.55874 3 0.795609 3 0 
C 3 -0.795609 2.683901 -1.55874 2.12132 -2.12132 
C 1.55874 -2.683901 0.795609 -3 0 -3 
C -0.795609 -3 -1.55874 -2.683901 -2.12132 -2.12132 
C -2.683901 -1.55874 -3 -0.795609 -3 0 
C -3 0.795609 -2.683901 1.55874 -2.12132 2.12132 
C -1.55874 2.683901 -0.795609 3 0 3 
z
" id="mdfca97f095" style="stroke:#1f77b4;"/>
     </defs>
     <g>
      <use style="fill:#1f77b4;stroke:#1f77b4;" x="295.712" xlink:href="#mdfca97f095" y="17.070781"/>
     </g>
    </g>
    <g id="text_11">
     <!-- 10x ATAC A1 -->
     <g style="fill:#262626;" transform="translate(315.512 19.958281)scale(0.11 -0.11)">
      <defs>
       <path d="M 3513 3500 
L 2247 1797 
L 3578 0 
L 2900 0 
L 1881 1375 
L 863 0 
L 184 0 
L 1544 1831 
L 300 3500 
L 978 3500 
L 1906 2253 
L 2834 3500 
L 3513 3500 
z
" id="DejaVuSans-78" transform="scale(0.015625)"/>
       <path id="DejaVuSans-20" transform="scale(0.015625)"/>
       <path d="M 2188 4044 
L 1331 1722 
L 3047 1722 
L 2188 4044 
z
M 1831 4666 
L 2547 4666 
L 4325 0 
L 3669 0 
L 3244 1197 
L 1141 1197 
L 716 0 
L 50 0 
L 1831 4666 
z
" id="DejaVuSans-41" transform="scale(0.015625)"/>
       <path d="M 4122 4306 
L 4122 3641 
Q 3803 3938 3442 4084 
Q 3081 4231 2675 4231 
Q 1875 4231 1450 3742 
Q 1025 3253 1025 2328 
Q 1025 1406 1450 917 
Q 1875 428 2675 428 
Q 3081 428 3442 575 
Q 3803 722 4122 1019 
L 4122 359 
Q 3791 134 3420 21 
Q 3050 -91 2638 -91 
Q 1578 -91 968 557 
Q 359 1206 359 2328 
Q 359 3453 968 4101 
Q 1578 4750 2638 4750 
Q 3056 4750 3426 4639 
Q 3797 4528 4122 4306 
z
" id="DejaVuSans-43" transform="scale(0.015625)"/>
      </defs>
      <use xlink:href="#DejaVuSans-31"/>
      <use x="63.623047" xlink:href="#DejaVuSans-30"/>
      <use x="127.246094" xlink:href="#DejaVuSans-78"/>
      <use x="186.425781" xlink:href="#DejaVuSans-20"/>
      <use x="218.212891" xlink:href="#DejaVuSans-41"/>
      <use x="278.871094" xlink:href="#DejaVuSans-54"/>
      <use x="332.205078" xlink:href="#DejaVuSans-41"/>
      <use x="398.863281" xlink:href="#DejaVuSans-43"/>
      <use x="468.6875" xlink:href="#DejaVuSans-20"/>
      <use x="500.474609" xlink:href="#DejaVuSans-41"/>
      <use x="568.882812" xlink:href="#DejaVuSans-31"/>
     </g>
    </g>
    <g id="PathCollection_13">
     <defs>
      <path d="M 0 3 
C 0.795609 3 1.55874 2.683901 2.12132 2.12132 
C 2.683901 1.55874 3 0.795609 3 0 
C 3 -0.795609 2.683901 -1.55874 2.12132 -2.12132 
C 1.55874 -2.683901 0.795609 -3 0 -3 
C -0.795609 -3 -1.55874 -2.683901 -2.12132 -2.12132 
C -2.683901 -1.55874 -3 -0.795609 -3 0 
C -3 0.795609 -2.683901 1.55874 -2.12132 2.12132 
C -1.55874 2.683901 -0.795609 3 0 3 
z
" id="m8d1c5fcf6c" style="stroke:#aec7e8;"/>
     </defs>
     <g>
      <use style="fill:#aec7e8;stroke:#aec7e8;" x="295.712" xlink:href="#m8d1c5fcf6c" y="33.216719"/>
     </g>
    </g>
    <g id="text_12">
     <!-- 10x ATAC A2 -->
     <g style="fill:#262626;" transform="translate(315.512 36.104219)scale(0.11 -0.11)">
      <use xlink:href="#DejaVuSans-31"/>
      <use x="63.623047" xlink:href="#DejaVuSans-30"/>
      <use x="127.246094" xlink:href="#DejaVuSans-78"/>
      <use x="186.425781" xlink:href="#DejaVuSans-20"/>
      <use x="218.212891" xlink:href="#DejaVuSans-41"/>
      <use x="278.871094" xlink:href="#DejaVuSans-54"/>
      <use x="332.205078" xlink:href="#DejaVuSans-41"/>
      <use x="398.863281" xlink:href="#DejaVuSans-43"/>
      <use x="468.6875" xlink:href="#DejaVuSans-20"/>
      <use x="500.474609" xlink:href="#DejaVuSans-41"/>
      <use x="568.882812" xlink:href="#DejaVuSans-32"/>
     </g>
    </g>
    <g id="PathCollection_14">
     <defs>
      <path d="M 0 3 
C 0.795609 3 1.55874 2.683901 2.12132 2.12132 
C 2.683901 1.55874 3 0.795609 3 0 
C 3 -0.795609 2.683901 -1.55874 2.12132 -2.12132 
C 1.55874 -2.683901 0.795609 -3 0 -3 
C -0.795609 -3 -1.55874 -2.683901 -2.12132 -2.12132 
C -2.683901 -1.55874 -3 -0.795609 -3 0 
C -3 0.795609 -2.683901 1.55874 -2.12132 2.12132 
C -1.55874 2.683901 -0.795609 3 0 3 
z
" id="me79d5529bc" style="stroke:#ff7f0e;"/>
     </defs>
     <g>
      <use style="fill:#ff7f0e;stroke:#ff7f0e;" x="295.712" xlink:href="#me79d5529bc" y="49.362656"/>
     </g>
    </g>
    <g id="text_13">
     <!-- 10x ATAC B1 -->
     <g style="fill:#262626;" transform="translate(315.512 52.250156)scale(0.11 -0.11)">
      <defs>
       <path d="M 1259 2228 
L 1259 519 
L 2272 519 
Q 2781 519 3026 730 
Q 3272 941 3272 1375 
Q 3272 1813 3026 2020 
Q 2781 2228 2272 2228 
L 1259 2228 
z
M 1259 4147 
L 1259 2741 
L 2194 2741 
Q 2656 2741 2882 2914 
Q 3109 3088 3109 3444 
Q 3109 3797 2882 3972 
Q 2656 4147 2194 4147 
L 1259 4147 
z
M 628 4666 
L 2241 4666 
Q 2963 4666 3353 4366 
Q 3744 4066 3744 3513 
Q 3744 3084 3544 2831 
Q 3344 2578 2956 2516 
Q 3422 2416 3680 2098 
Q 3938 1781 3938 1306 
Q 3938 681 3513 340 
Q 3088 0 2303 0 
L 628 0 
L 628 4666 
z
" id="DejaVuSans-42" transform="scale(0.015625)"/>
      </defs>
      <use xlink:href="#DejaVuSans-31"/>
      <use x="63.623047" xlink:href="#DejaVuSans-30"/>
      <use x="127.246094" xlink:href="#DejaVuSans-78"/>
      <use x="186.425781" xlink:href="#DejaVuSans-20"/>
      <use x="218.212891" xlink:href="#DejaVuSans-41"/>
      <use x="278.871094" xlink:href="#DejaVuSans-54"/>
      <use x="332.205078" xlink:href="#DejaVuSans-41"/>
      <use x="398.863281" xlink:href="#DejaVuSans-43"/>
      <use x="468.6875" xlink:href="#DejaVuSans-20"/>
      <use x="500.474609" xlink:href="#DejaVuSans-42"/>
      <use x="569.078125" xlink:href="#DejaVuSans-31"/>
     </g>
    </g>
    <g id="PathCollection_15">
     <defs>
      <path d="M 0 3 
C 0.795609 3 1.55874 2.683901 2.12132 2.12132 
C 2.683901 1.55874 3 0.795609 3 0 
C 3 -0.795609 2.683901 -1.55874 2.12132 -2.12132 
C 1.55874 -2.683901 0.795609 -3 0 -3 
C -0.795609 -3 -1.55874 -2.683901 -2.12132 -2.12132 
C -2.683901 -1.55874 -3 -0.795609 -3 0 
C -3 0.795609 -2.683901 1.55874 -2.12132 2.12132 
C -1.55874 2.683901 -0.795609 3 0 3 
z
" id="m5e8b6408f7" style="stroke:#ffbb78;"/>
     </defs>
     <g>
      <use style="fill:#ffbb78;stroke:#ffbb78;" x="295.712" xlink:href="#m5e8b6408f7" y="65.508594"/>
     </g>
    </g>
    <g id="text_14">
     <!-- 10x ATAC B2 -->
     <g style="fill:#262626;" transform="translate(315.512 68.396094)scale(0.11 -0.11)">
      <use xlink:href="#DejaVuSans-31"/>
      <use x="63.623047" xlink:href="#DejaVuSans-30"/>
      <use x="127.246094" xlink:href="#DejaVuSans-78"/>
      <use x="186.425781" xlink:href="#DejaVuSans-20"/>
      <use x="218.212891" xlink:href="#DejaVuSans-41"/>
      <use x="278.871094" xlink:href="#DejaVuSans-54"/>
      <use x="332.205078" xlink:href="#DejaVuSans-41"/>
      <use x="398.863281" xlink:href="#DejaVuSans-43"/>
      <use x="468.6875" xlink:href="#DejaVuSans-20"/>
      <use x="500.474609" xlink:href="#DejaVuSans-42"/>
      <use x="569.078125" xlink:href="#DejaVuSans-32"/>
     </g>
    </g>
    <g id="PathCollection_16">
     <defs>
      <path d="M 0 3 
C 0.795609 3 1.55874 2.683901 2.12132 2.12132 
C 2.683901 1.55874 3 0.795609 3 0 
C 3 -0.795609 2.683901 -1.55874 2.12132 -2.12132 
C 1.55874 -2.683901 0.795609 -3 0 -3 
C -0.795609 -3 -1.55874 -2.683901 -2.12132 -2.12132 
C -2.683901 -1.55874 -3 -0.795609 -3 0 
C -3 0.795609 -2.683901 1.55874 -2.12132 2.12132 
C -1.55874 2.683901 -0.795609 3 0 3 
z
" id="me89b3fd967" style="stroke:#2ca02c;"/>
     </defs>
     <g>
      <use style="fill:#2ca02c;stroke:#2ca02c;" x="295.712" xlink:href="#me89b3fd967" y="81.654531"/>
     </g>
    </g>
    <g id="text_15">
     <!-- 10x ATAC C1 -->
     <g style="fill:#262626;" transform="translate(315.512 84.542031)scale(0.11 -0.11)">
      <use xlink:href="#DejaVuSans-31"/>
      <use x="63.623047" xlink:href="#DejaVuSans-30"/>
      <use x="127.246094" xlink:href="#DejaVuSans-78"/>
      <use x="186.425781" xlink:href="#DejaVuSans-20"/>
      <use x="218.212891" xlink:href="#DejaVuSans-41"/>
      <use x="278.871094" xlink:href="#DejaVuSans-54"/>
      <use x="332.205078" xlink:href="#DejaVuSans-41"/>
      <use x="398.863281" xlink:href="#DejaVuSans-43"/>
      <use x="468.6875" xlink:href="#DejaVuSans-20"/>
      <use x="500.474609" xlink:href="#DejaVuSans-43"/>
      <use x="570.298828" xlink:href="#DejaVuSans-31"/>
     </g>
    </g>
    <g id="PathCollection_17">
     <defs>
      <path d="M 0 3 
C 0.795609 3 1.55874 2.683901 2.12132 2.12132 
C 2.683901 1.55874 3 0.795609 3 0 
C 3 -0.795609 2.683901 -1.55874 2.12132 -2.12132 
C 1.55874 -2.683901 0.795609 -3 0 -3 
C -0.795609 -3 -1.55874 -2.683901 -2.12132 -2.12132 
C -2.683901 -1.55874 -3 -0.795609 -3 0 
C -3 0.795609 -2.683901 1.55874 -2.12132 2.12132 
C -1.55874 2.683901 -0.795609 3 0 3 
z
" id="m7555a53789" style="stroke:#98df8a;"/>
     </defs>
     <g>
      <use style="fill:#98df8a;stroke:#98df8a;" x="295.712" xlink:href="#m7555a53789" y="97.800469"/>
     </g>
    </g>
    <g id="text_16">
     <!-- 10x ATAC C2 -->
     <g style="fill:#262626;" transform="translate(315.512 100.687969)scale(0.11 -0.11)">
      <use xlink:href="#DejaVuSans-31"/>
      <use x="63.623047" xlink:href="#DejaVuSans-30"/>
      <use x="127.246094" xlink:href="#DejaVuSans-78"/>
      <use x="186.425781" xlink:href="#DejaVuSans-20"/>
      <use x="218.212891" xlink:href="#DejaVuSans-41"/>
      <use x="278.871094" xlink:href="#DejaVuSans-54"/>
      <use x="332.205078" xlink:href="#DejaVuSans-41"/>
      <use x="398.863281" xlink:href="#DejaVuSans-43"/>
      <use x="468.6875" xlink:href="#DejaVuSans-20"/>
      <use x="500.474609" xlink:href="#DejaVuSans-43"/>
      <use x="570.298828" xlink:href="#DejaVuSans-32"/>
     </g>
    </g>
    <g id="PathCollection_18">
     <defs>
      <path d="M 0 3 
C 0.795609 3 1.55874 2.683901 2.12132 2.12132 
C 2.683901 1.55874 3 0.795609 3 0 
C 3 -0.795609 2.683901 -1.55874 2.12132 -2.12132 
C 1.55874 -2.683901 0.795609 -3 0 -3 
C -0.795609 -3 -1.55874 -2.683901 -2.12132 -2.12132 
C -2.683901 -1.55874 -3 -0.795609 -3 0 
C -3 0.795609 -2.683901 1.55874 -2.12132 2.12132 
C -1.55874 2.683901 -0.795609 3 0 3 
z
" id="m6418cb2806" style="stroke:#d62728;"/>
     </defs>
     <g>
      <use style="fill:#d62728;stroke:#d62728;" x="295.712" xlink:href="#m6418cb2806" y="113.946406"/>
     </g>
    </g>
    <g id="text_17">
     <!-- 10x Multiome 1 -->
     <g style="fill:#262626;" transform="translate(315.512 116.833906)scale(0.11 -0.11)">
      <defs>
       <path d="M 628 4666 
L 1569 4666 
L 2759 1491 
L 3956 4666 
L 4897 4666 
L 4897 0 
L 4281 0 
L 4281 4097 
L 3078 897 
L 2444 897 
L 1241 4097 
L 1241 0 
L 628 0 
L 628 4666 
z
" id="DejaVuSans-4d" transform="scale(0.015625)"/>
       <path d="M 544 1381 
L 544 3500 
L 1119 3500 
L 1119 1403 
Q 1119 906 1312 657 
Q 1506 409 1894 409 
Q 2359 409 2629 706 
Q 2900 1003 2900 1516 
L 2900 3500 
L 3475 3500 
L 3475 0 
L 2900 0 
L 2900 538 
Q 2691 219 2414 64 
Q 2138 -91 1772 -91 
Q 1169 -91 856 284 
Q 544 659 544 1381 
z
M 1991 3584 
L 1991 3584 
z
" id="DejaVuSans-75" transform="scale(0.015625)"/>
       <path d="M 1959 3097 
Q 1497 3097 1228 2736 
Q 959 2375 959 1747 
Q 959 1119 1226 758 
Q 1494 397 1959 397 
Q 2419 397 2687 759 
Q 2956 1122 2956 1747 
Q 2956 2369 2687 2733 
Q 2419 3097 1959 3097 
z
M 1959 3584 
Q 2709 3584 3137 3096 
Q 3566 2609 3566 1747 
Q 3566 888 3137 398 
Q 2709 -91 1959 -91 
Q 1206 -91 779 398 
Q 353 888 353 1747 
Q 353 2609 779 3096 
Q 1206 3584 1959 3584 
z
" id="DejaVuSans-6f" transform="scale(0.015625)"/>
      </defs>
      <use xlink:href="#DejaVuSans-31"/>
      <use x="63.623047" xlink:href="#DejaVuSans-30"/>
      <use x="127.246094" xlink:href="#DejaVuSans-78"/>
      <use x="186.425781" xlink:href="#DejaVuSans-20"/>
      <use x="218.212891" xlink:href="#DejaVuSans-4d"/>
      <use x="304.492188" xlink:href="#DejaVuSans-75"/>
      <use x="367.871094" xlink:href="#DejaVuSans-6c"/>
      <use x="395.654297" xlink:href="#DejaVuSans-74"/>
      <use x="434.863281" xlink:href="#DejaVuSans-69"/>
      <use x="462.646484" xlink:href="#DejaVuSans-6f"/>
      <use x="523.828125" xlink:href="#DejaVuSans-6d"/>
      <use x="621.240234" xlink:href="#DejaVuSans-65"/>
      <use x="682.763672" xlink:href="#DejaVuSans-20"/>
      <use x="714.550781" xlink:href="#DejaVuSans-31"/>
     </g>
    </g>
    <g id="PathCollection_19">
     <defs>
      <path d="M 0 3 
C 0.795609 3 1.55874 2.683901 2.12132 2.12132 
C 2.683901 1.55874 3 0.795609 3 0 
C 3 -0.795609 2.683901 -1.55874 2.12132 -2.12132 
C 1.55874 -2.683901 0.795609 -3 0 -3 
C -0.795609 -3 -1.55874 -2.683901 -2.12132 -2.12132 
C -2.683901 -1.55874 -3 -0.795609 -3 0 
C -3 0.795609 -2.683901 1.55874 -2.12132 2.12132 
C -1.55874 2.683901 -0.795609 3 0 3 
z
" id="mb16468254a" style="stroke:#ff9896;"/>
     </defs>
     <g>
      <use style="fill:#ff9896;stroke:#ff9896;" x="295.712" xlink:href="#mb16468254a" y="130.092344"/>
     </g>
    </g>
    <g id="text_18">
     <!-- 10x Multiome 2 -->
     <g style="fill:#262626;" transform="translate(315.512 132.979844)scale(0.11 -0.11)">
      <use xlink:href="#DejaVuSans-31"/>
      <use x="63.623047" xlink:href="#DejaVuSans-30"/>
      <use x="127.246094" xlink:href="#DejaVuSans-78"/>
      <use x="186.425781" xlink:href="#DejaVuSans-20"/>
      <use x="218.212891" xlink:href="#DejaVuSans-4d"/>
      <use x="304.492188" xlink:href="#DejaVuSans-75"/>
      <use x="367.871094" xlink:href="#DejaVuSans-6c"/>
      <use x="395.654297" xlink:href="#DejaVuSans-74"/>
      <use x="434.863281" xlink:href="#DejaVuSans-69"/>
      <use x="462.646484" xlink:href="#DejaVuSans-6f"/>
      <use x="523.828125" xlink:href="#DejaVuSans-6d"/>
      <use x="621.240234" xlink:href="#DejaVuSans-65"/>
      <use x="682.763672" xlink:href="#DejaVuSans-20"/>
      <use x="714.550781" xlink:href="#DejaVuSans-32"/>
     </g>
    </g>
    <g id="PathCollection_20">
     <defs>
      <path d="M 0 3 
C 0.795609 3 1.55874 2.683901 2.12132 2.12132 
C 2.683901 1.55874 3 0.795609 3 0 
C 3 -0.795609 2.683901 -1.55874 2.12132 -2.12132 
C 1.55874 -2.683901 0.795609 -3 0 -3 
C -0.795609 -3 -1.55874 -2.683901 -2.12132 -2.12132 
C -2.683901 -1.55874 -3 -0.795609 -3 0 
C -3 0.795609 -2.683901 1.55874 -2.12132 2.12132 
C -1.55874 2.683901 -0.795609 3 0 3 
z
" id="m12c5486012" style="stroke:#9467bd;"/>
     </defs>
     <g>
      <use style="fill:#9467bd;stroke:#9467bd;" x="295.712" xlink:href="#m12c5486012" y="146.238281"/>
     </g>
    </g>
    <g id="text_19">
     <!-- 10x mtATAC 1 -->
     <g style="fill:#262626;" transform="translate(315.512 149.125781)scale(0.11 -0.11)">
      <use xlink:href="#DejaVuSans-31"/>
      <use x="63.623047" xlink:href="#DejaVuSans-30"/>
      <use x="127.246094" xlink:href="#DejaVuSans-78"/>
      <use x="186.425781" xlink:href="#DejaVuSans-20"/>
      <use x="218.212891" xlink:href="#DejaVuSans-6d"/>
      <use x="315.625" xlink:href="#DejaVuSans-74"/>
      <use x="354.833984" xlink:href="#DejaVuSans-41"/>
      <use x="415.492188" xlink:href="#DejaVuSans-54"/>
      <use x="468.826172" xlink:href="#DejaVuSans-41"/>
      <use x="535.484375" xlink:href="#DejaVuSans-43"/>
      <use x="605.308594" xlink:href="#DejaVuSans-20"/>
      <use x="637.095703" xlink:href="#DejaVuSans-31"/>
     </g>
    </g>
    <g id="PathCollection_21">
     <defs>
      <path d="M 0 3 
C 0.795609 3 1.55874 2.683901 2.12132 2.12132 
C 2.683901 1.55874 3 0.795609 3 0 
C 3 -0.795609 2.683901 -1.55874 2.12132 -2.12132 
C 1.55874 -2.683901 0.795609 -3 0 -3 
C -0.795609 -3 -1.55874 -2.683901 -2.12132 -2.12132 
C -2.683901 -1.55874 -3 -0.795609 -3 0 
C -3 0.795609 -2.683901 1.55874 -2.12132 2.12132 
C -1.55874 2.683901 -0.795609 3 0 3 
z
" id="m16653bbc33" style="stroke:#c5b0d5;"/>
     </defs>
     <g>
      <use style="fill:#c5b0d5;stroke:#c5b0d5;" x="295.712" xlink:href="#m16653bbc33" y="162.384219"/>
     </g>
    </g>
    <g id="text_20">
     <!-- 10x mtATAC 2 -->
     <g style="fill:#262626;" transform="translate(315.512 165.271719)scale(0.11 -0.11)">
      <use xlink:href="#DejaVuSans-31"/>
      <use x="63.623047" xlink:href="#DejaVuSans-30"/>
      <use x="127.246094" xlink:href="#DejaVuSans-78"/>
      <use x="186.425781" xlink:href="#DejaVuSans-20"/>
      <use x="218.212891" xlink:href="#DejaVuSans-6d"/>
      <use x="315.625" xlink:href="#DejaVuSans-74"/>
      <use x="354.833984" xlink:href="#DejaVuSans-41"/>
      <use x="415.492188" xlink:href="#DejaVuSans-54"/>
      <use x="468.826172" xlink:href="#DejaVuSans-41"/>
      <use x="535.484375" xlink:href="#DejaVuSans-43"/>
      <use x="605.308594" xlink:href="#DejaVuSans-20"/>
      <use x="637.095703" xlink:href="#DejaVuSans-32"/>
     </g>
    </g>
   </g>
  </g>
 </g>
 <defs>
  <clipPath id="pc42a1cb4f6">
   <rect height="225.54" width="222.54" x="46.645" y="7.2"/>
  </clipPath>
 </defs>
</svg>
